<svg height="123" viewBox="0 0 295 123" width="295" xmlns="http://www.w3.org/2000/svg"><g fill="none" fill-rule="evenodd" transform="translate(3 3)"><path d="m1 1h288v115h-288z" fill="#999"/><path d="m264.076 17.444h10.204" stroke="#ab00ff" stroke-linecap="round" stroke-linejoin="round" stroke-opacity=".7" stroke-width="17.04"/><path d="m264.076 99.524h10.204" stroke="#ab00ff" stroke-linecap="round" stroke-linejoin="round" stroke-opacity=".7" stroke-width="17.04"/><path d="m247.08 85.8c0-4.68-3.8-8.52-8.52-8.52s-8.52 3.84-8.52 8.52c0 4.72 3.8 8.52 8.52 8.52s8.52-3.8 8.52-8.52" fill="#ab00ff" fill-opacity=".7"/><path d="m247.08 30.92c0-4.72-3.8-8.52-8.52-8.52s-8.52 3.8-8.52 8.52 3.8 8.52 8.52 8.52 8.52-3.8 8.52-8.52" fill="#ab00ff" fill-opacity=".7"/><path d="m194.72 15.28c0-3.76-3.08-6.84-6.84-6.84s-6.84 3.08-6.84 6.84 3.08 6.84 6.84 6.84 6.84-3.08 6.84-6.84" fill="#ab00ff" fill-opacity=".7"/><path d="m165.92 15.28c0-3.76-3.08-6.84-6.84-6.84s-6.84 3.08-6.84 6.84 3.08 6.84 6.84 6.84 6.84-3.08 6.84-6.84" fill="#ab00ff" fill-opacity=".7"/><path d="m137.12 15.28c0-3.76-3.08-6.84-6.84-6.84s-6.84 3.08-6.84 6.84 3.08 6.84 6.84 6.84 6.84-3.08 6.84-6.84" fill="#ab00ff" fill-opacity=".7"/><path d="m108.32 15.28c0-3.76-3.08-6.84-6.84-6.84s-6.84 3.08-6.84 6.84 3.08 6.84 6.84 6.84 6.84-3.08 6.84-6.84" fill="#ab00ff" fill-opacity=".7"/><path d="m23.72 6.64v17.28h-17.28v-17.28z" fill="#ab00ff" fill-opacity=".7"/><path d="m23.72 6.64v17.28h-17.28v-17.28z" stroke="#ab00ff" stroke-linecap="square" stroke-opacity=".7" stroke-width="2.32"/><path d="m24.88 44.08c0-5.4-4.4-9.8-9.8-9.8s-9.8 4.4-9.8 9.8 4.4 9.8 9.8 9.8 9.8-4.4 9.8-9.8" fill="#ab00ff" fill-opacity=".7"/><path d="m24.88 72.88c0-5.4-4.4-9.8-9.8-9.8s-9.8 4.4-9.8 9.8 4.4 9.8 9.8 9.8 9.8-4.4 9.8-9.8" fill="#ab00ff" fill-opacity=".7"/><path d="m24.88 101.68c0-5.4-4.4-9.8-9.8-9.8s-9.8 4.4-9.8 9.8 4.4 9.8 9.8 9.8 9.8-4.4 9.8-9.8" fill="#ab00ff" fill-opacity=".7"/><path d="m193.56 15.28c0-3.12-2.56-5.68-5.68-5.68s-5.68 2.56-5.68 5.68 2.56 5.68 5.68 5.68 5.68-2.56 5.68-5.68" fill="#800000"/><path d="m164.76 15.28c0-3.12-2.56-5.68-5.68-5.68s-5.68 2.56-5.68 5.68 2.56 5.68 5.68 5.68 5.68-2.56 5.68-5.68" fill="#800000"/><path d="m135.96 15.28c0-3.12-2.56-5.68-5.68-5.68s-5.68 2.56-5.68 5.68 2.56 5.68 5.68 5.68 5.68-2.56 5.68-5.68" fill="#800000"/><path d="m107.16 15.28c0-3.12-2.56-5.68-5.68-5.68s-5.68 2.56-5.68 5.68 2.56 5.68 5.68 5.68 5.68-2.56 5.68-5.68" fill="#800000"/><path d="m254.78 112.02-.012.164-.032.16-.06.152-.076.148-.1.128-.116.116-.132.1-.144.08-.152.056-.164.036-.164.012h-231.172l-.164-.012-.16-.036-.156-.056-.144-.08-.128-.1-.12-.116-.096-.128-.08-.148-.056-.152-.036-.16-.012-.164.016-.184.04-.176.072-.168.096-.156.12-.136.14-.12.42-.312.404-.332.388-.348.372-.368.356-.384.336-.4.32-.416.3-.428.28-.44.26-.452.24-.468.22-.472.196-.488.172-.492.152-.5.128-.508.108-.512.084-.516.056-.52.036-.52.012-.524-.012-.524-.036-.524-.06-.524-.084-.52-.104-.512-.132-.512-.152-.5-.176-.496-.2-.488-.22-.476-.24-.468-.264-.452-.28-.444-.088-.148-.06-.16-.036-.164-.012-.172.012-.18.044-.176.068-.168.096-.152.116-.136 10.456-10.456.136-.12.156-.092.168-.072.176-.04.18-.016h21.396l.172.012.168.04.164.064.148.084.136.108.296.264.316.244.332.22.34.2.356.18.364.16.376.132.38.112.388.084.396.064.396.036.396.012.384-.012.384-.032.38-.06.376-.08.368-.104.364-.124.356-.148.344-.168.336-.188.324-.208.308-.228.296-.248.28-.264.264-.28.248-.296.228-.308.208-.324.188-.336.168-.344.148-.356.124-.364.104-.368.08-.376.06-.38.032-.384.012-.384-.016-.484-.056-.48-.092-.476-.028-.26.008-.164.036-.16.06-.152.076-.148.1-.128.116-.116.132-.1.144-.08.152-.056.164-.036.164-.012h59.552l.172.012.168.04.164.064.148.084.136.108.296.264.316.244.332.22.34.2.356.18.364.16.376.132.38.112.388.084.396.064.396.036.396.012.384-.012.384-.032.38-.06.376-.08.368-.104.364-.124.356-.148.344-.168.336-.188.324-.208.308-.228.296-.248.28-.264.264-.28.248-.296.228-.308.208-.324.188-.336.168-.344.148-.356.124-.364.104-.368.08-.376.06-.38.032-.384.012-.384-.012-.384-.036-.388-.056-.38-.08-.376-.104-.372-.128-.368-.148-.356-.172-.344-.188-.336-.212-.324-.228-.312-.248-.296-.268-.28-.28-.264-.3-.244-.312-.228-.324-.208-.336-.188-.348-.168-.36-.148-.364-.124-.372-.1-.16-.052-.152-.076-.14-.096-.124-.112-.104-.132-.088-.148-.06-.156-.04-.164-.016-.168-.016-.396-.044-.392-.068-.392-.092-.384-.112-.38-.14-.372-.16-.36-.184-.352-.204-.34-.228-.324-.244-.312-.264-.296-.284-.276-.3-.26-.312-.244-.328-.22-.344-.2-.352-.176-.364-.156-.376-.136-.38-.108-.388-.088-.388-.06-.396-.036-.396-.012-.396.012-.396.036-.396.064-.388.084-.38.112-.376.132-.364.16-.356.18-.34.2-.332.22-.316.244-.296.264-.136.108-.148.084-.164.064-.168.04-.172.012h-90.516l-.18-.016-.176-.04-.168-.072-.156-.092-.136-.12-7.576-7.576-.116-.136-.096-.152-.068-.168-.044-.176-.012-.18.012-.172.036-.164.06-.16.088-.148.28-.444.264-.452.24-.468.22-.476.2-.488.176-.496.152-.5.132-.512.104-.512.084-.52.06-.524.036-.524.012-.524-.012-.52-.032-.516-.06-.516-.08-.512-.104-.504-.128-.504-.148-.496-.172-.488-.192-.484-.216-.472-.236-.46-.252-.452-.276-.44-.296-.424-.316-.412-.332-.4-.348-.38-.368-.368-.38-.348-.4-.332-.412-.316-.424-.296-.44-.276-.452-.252-.46-.236-.472-.216-.484-.192-.488-.172-.496-.148-.504-.128-.504-.104-.512-.08-.516-.06-.516-.032-.52-.012-.524.012-.52.036-.52.056-.516.084-.512.108-.508.128-.5.152-.492.172-.488.196-.472.22-.468.24-.452.26-.44.28-.428.3-.416.32-.4.336-.384.356-.368.372-.348.388-.332.404-.312.42-.12.14-.136.12-.156.096-.168.072-.176.04-.184.016-.164-.012-.16-.036-.152-.056-.148-.08-.128-.096-.116-.12-.1-.128-.08-.144-.056-.156-.036-.16-.012-.164v-9.096l.012-.164.036-.16.056-.156.08-.144.1-.132.116-.116.128-.096.148-.08.152-.056.16-.036.164-.012.168.012.16.036.156.056.292.116.3.084.312.052.312.016h3.6v-6.508h-5.3l-.164-.012-.16-.036-.152-.056-.148-.08-.128-.096-.116-.116-.1-.132-.08-.144-.056-.156-.036-.16-.012-.164v-7.776l.012-.164.036-.16.056-.156.08-.144.1-.132.116-.116.128-.096.148-.08.152-.056.16-.036.164-.012h5.3v-5.3l.012-.164.036-.16.056-.152.08-.148.096-.128.116-.116.132-.1.144-.08.156-.056.16-.036.164-.012h7.776l.164.012.16.036.156.056.144.08.132.1.116.116.096.128.08.148.056.152.036.16.012.164v5.3h6.508v-3.6l-.016-.312-.052-.312-.084-.3-.116-.292-.056-.156-.036-.16-.012-.168.012-.164.036-.16.056-.152.08-.148.096-.128.116-.116.132-.1.144-.08.156-.056.16-.036.164-.012h226.284l.164.012.16.036.156.056.144.08.132.1.116.116.096.128.08.148.056.152.036.16.012.164-.012.172-.04.168-.064.164-.088.148-.108.136-.124.116-.144.096-28.944 16.54-1.036 51.856-.02.176-.044.172-.068.164-.096.152-.12.136-.136.112-.152.092-.164.068-.176.04-.176.016-.164-.012-.164-.036-.444-.112-.448-.084-.456-.048-.456-.016-.396.012-.396.036-.396.064-.388.084-.38.112-.376.132-.364.16-.356.18-.34.2-.332.22-.316.244-.296.264-.136.108-.148.084-.164.064-.168.04-.172.012h-3.516l-.34.012-.34.04-.336.068-.328.092-.32.12-.312.14-.296.168-.284.188-.268.212-.252.232-19.988 19.988-.136.12-.156.092-.168.072-.176.04-.18.016h-81.876l-.172-.012-.168-.04-.164-.064-.148-.084-.136-.108-.296-.264-.316-.244-.332-.22-.34-.2-.356-.18-.364-.16-.376-.132-.38-.112-.388-.084-.396-.064-.396-.036-.396-.012-.384.012-.384.032-.38.06-.376.08-.368.104-.364.124-.356.148-.344.168-.336.188-.324.208-.308.228-.296.248-.28.264-.264.28-.248.296-.228.308-.208.324-.188.336-.168.344-.148.356-.124.364-.104.368-.08.376-.06.38-.032.384-.012.384.012.384.032.384.06.38.08.376.104.368.124.364.148.356.168.344.188.336.208.324.228.308.248.296.264.28.28.264.296.248.308.228.324.208.336.188.344.168.356.148.364.124.368.104.376.08.38.06.384.032.384.012.396-.012.396-.036.396-.064.388-.084.38-.112.376-.132.364-.16.356-.18.34-.2.332-.22.316-.244.296-.264.136-.108.148-.084.164-.064.168-.04.172-.012h84.156l.34-.012.34-.04.336-.068.328-.092.32-.12.312-.14.296-.168.284-.188.268-.212.252-.232 19.988-19.988.136-.12.156-.092.168-.072.176-.04.18-.016h1.236l.172.012.168.04.164.064.148.084.136.108.296.264.316.244.332.22.34.2.356.18.364.16.376.132.38.112.388.084.396.064.396.036.396.012.392-.012.392-.036.392-.06.384-.084.28-.036.164.012.16.036.156.056.144.08.132.096.116.116.1.132.076.144.06.156.032.16.012.164v-.004.028l-.112 5.648 30.3 16.528.148.096.132.116.112.136.092.152.064.164.04.172zm-110.1-77.416.384-.012.384-.032.38-.06.376-.08.368-.104.364-.124.356-.148.344-.168.336-.188.324-.208.308-.228.296-.248.28-.264.264-.28.248-.296.228-.308.208-.324.188-.336.168-.344.148-.356.124-.364.104-.368.08-.376.06-.38.032-.384.012-.384-.012-.396-.036-.396-.064-.392-.084-.388-.112-.38-.132-.376-.156-.364-.18-.352-.2-.344-.22-.328-.244-.316-.26-.3-.28-.28-.296-.264-.12-.116-.1-.136-.084-.144-.06-.156-.036-.164-.012-.168.012-.168.036-.164.06-.156.084-.144.1-.136.12-.116.248-.22.136-.108.148-.084.164-.064.168-.04.172-.012h2.456l.18.016.172.04.168.068.152.092.136.116.348.324.368.304.38.284.4.26.408.24.424.216.436.192.444.168.456.144.46.116.468.092.472.064.472.04.476.016.448-.012.448-.036.444-.06.444-.08.436-.108.432-.124.424-.152.412-.172.408-.192.392-.216.384-.232.372-.256.356-.272.34-.292.324-.312.312-.324.292-.34.272-.356.256-.372.232-.384.216-.392.192-.408.172-.412.152-.424.124-.432.108-.436.08-.444.06-.444.036-.448.012-.448-.012-.448-.036-.448-.06-.444-.08-.444-.108-.436-.124-.432-.152-.424-.172-.412-.192-.408-.216-.392-.232-.384-.256-.372-.272-.356-.292-.34-.312-.324-.324-.312-.34-.292-.356-.272-.372-.256-.384-.232-.392-.216-.408-.192-.412-.172-.424-.152-.432-.124-.436-.108-.444-.08-.444-.06-.448-.036-.448-.012-.444.012-.444.036-.44.056-.436.08-.436.104-.424.124-.42.148-.412.168-.4.192-.392.208-.384.232-.364.248-.356.268-.34.288-.324.304-.308.32-.292.332-.276.352-.256.364-.236.376-.216.388-.196.4-.08.144-.096.132-.116.116-.132.096-.144.08-.156.056-.16.036-.164.012h-.432l-.172-.012-.168-.04-.164-.064-.148-.084-.136-.108-.296-.264-.316-.244-.332-.22-.34-.2-.356-.18-.364-.16-.376-.132-.38-.112-.388-.084-.396-.064-.396-.036-.396-.012-.396.012-.392.036-.388.06-.388.088-.38.108-.372.132-.364.156-.352.176-.34.196-.328.22-.316.24-.296.26-.284.276-.136.124-.16.1-.168.072-.18.044-.188.016-.168-.012-.164-.04-.156-.06-.148-.084-.132-.1-.12-.124-.096-.136-.076-.152-.188-.416-.212-.408-.232-.396-.252-.38-.272-.368-.292-.352-.308-.34-.328-.316-.344-.304-.36-.284-.372-.264-.388-.24-.4-.224-.412-.2-.424-.18-.428-.156-.44-.132-.444-.108-.448-.084-.456-.06-.456-.036-.456-.016-.448.012-.448.036-.444.06-.444.08-.436.108-.432.124-.424.152-.412.172-.408.192-.392.216-.384.232-.372.256-.356.272-.34.292-.324.312-.312.324-.292.34-.272.356-.256.372-.232.384-.216.392-.192.408-.172.412-.152.424-.124.432-.108.436-.08.444-.06.444-.036.448-.012.448.012.448.036.448.06.444.08.444.108.436.124.432.152.424.172.412.192.408.216.392.232.384.256.372.272.356.292.34.312.324.324.312.34.292.356.272.372.256.384.232.392.216.408.192.412.172.424.152.432.124.436.108.444.08.444.06.448.036.448.012.528-.02.524-.048.524-.08.208-.02.18.016.176.04.168.072.156.092.136.12 5.36 5.356.128.152.1.176.068.188.116.376.14.372.16.36.184.352.204.34.224.324.248.312.264.296.28.276.3.26.316.24.328.22.34.2.356.18.364.156.372.132.38.108.388.088.392.06.392.036zm-51.004-4.924.012.384.032.384.06.38.08.376.104.368.124.364.148.356.168.344.188.336.208.324.228.308.248.296.264.28.28.264.296.248.308.228.324.208.336.188.344.168.356.148.364.124.368.104.376.08.38.06.384.032.384.012.384-.012.384-.032.38-.06.376-.08.368-.104.364-.124.356-.148.344-.168.336-.188.324-.208.308-.228.296-.248.28-.264.264-.28.248-.296.228-.308.208-.324.188-.336.168-.344.148-.356.124-.364.104-.368.08-.376.06-.38.032-.384.012-.384-.012-.396-.036-.396-.064-.396-.084-.388-.112-.38-.132-.376-.16-.364-.18-.356-.2-.34-.22-.332-.244-.316-.264-.296-.108-.136-.084-.148-.064-.164-.04-.168-.012-.172v-.432l.012-.164.036-.16.056-.156.08-.144.096-.132.116-.116.132-.096.144-.08.4-.196.388-.216.376-.236.364-.256.352-.276.332-.292.32-.308.304-.324.288-.34.268-.356.248-.364.232-.384.208-.392.192-.4.168-.412.148-.42.124-.424.104-.436.08-.436.056-.44.036-.444.012-.444-.012-.448-.036-.448-.06-.444-.08-.444-.108-.436-.124-.432-.152-.424-.172-.412-.192-.408-.216-.392-.232-.384-.256-.372-.272-.356-.292-.34-.312-.324-.324-.312-.34-.292-.356-.272-.372-.256-.384-.232-.392-.216-.408-.192-.412-.172-.424-.152-.432-.124-.436-.108-.444-.08-.444-.06-.448-.036-.448-.012-.448.012-.448.036-.444.06-.444.08-.436.108-.432.124-.424.152-.412.172-.408.192-.392.216-.384.232-.372.256-.356.272-.34.292-.324.312-.312.324-.292.34-.272.356-.256.372-.232.384-.216.392-.192.408-.172.412-.152.424-.124.432-.108.436-.08.444-.06.444-.036.448-.012.448.016.476.04.472.064.472.092.468.116.46.144.456.168.444.192.436.216.424.24.408.26.4.284.38.304.368.324.348.116.136.092.152.068.168.04.172.016.18v2.456l-.012.172-.04.168-.064.164-.084.148-.108.136-.264.296-.244.316-.22.332-.2.34-.18.356-.16.364-.132.376-.112.38-.084.388-.064.396-.036.396zm-69.956-2.852.268-.012.268-.036.26-.064.256-.084.244-.108.236-.132.22-.152.208-.172.188-.188.172-.208.152-.22.132-.236.108-.244.084-.256.064-.26.036-.268.012-.268v-3.6h-6.508v6.508zm167.716-3.74.424-.208.412-.232.4-.252.384-.276.368-.296.352-.312.336-.336.312-.352.296-.368.276-.384.252-.4.232-.412.208-.424h-4.252zm4.252-11.364-.208-.424-.232-.412-.252-.4-.276-.384-.296-.368-.312-.352-.336-.336-.352-.312-.368-.296-.384-.276-.4-.252-.412-.232-.424-.208v4.252zm-15.616 7.112.208.424.232.412.252.4.276.384.296.368.312.352.336.336.352.312.368.296.384.276.4.252.412.232.424.208v-4.252zm4.252-11.364-.424.208-.412.232-.4.252-.384.276-.368.296-.352.312-.336.336-.312.352-.296.368-.276.384-.252.4-.232.412-.208.424h4.252z" fill="#00f"/><g stroke-linecap="round" stroke-linejoin="round"><path d="m62.6 78.64h-28.8l-18.72 18.72v4.32" stroke="#00f" stroke-width="2.88"/><path d="m130.28 64.24h-99.36l-15.84-15.84v-4.32" stroke="#00f" stroke-width="2.88"/><path d="m238.564 85.816-7.224 7.224h-8.9" stroke="#00f" stroke-width="2.88"/><path d="m136.04 71.44h-119.52l-1.44 1.44" stroke="#00f" stroke-width="2.88"/><path d="m101.48 103.12h89.28l21.6-21.6h8.64" stroke="#00f" stroke-width="2.88"/><path d="m238.568 30.92-17.568.2" stroke="#00f" stroke-width="2.88"/><path d="m269.176 17.444-12.244-12.244h-5.692" stroke="#00f" stroke-width="2.88"/><path d="m269.184 99.52-12.24 12.24h-7.144v-1.44" stroke="#00f" stroke-width="2.88"/><path d="m144.68 16.72h12.96l1.44-1.44" stroke="#00f" stroke-width="2.88"/><path d="m144.68 28.24h-1.44l-12.96-12.96" stroke="#00f" stroke-width="2.88"/><path d="m100.04 29.68v-12.96l1.44-1.44" stroke="#00f" stroke-width="2.88"/></g><path d="m193.56 15.28c0-3.12-2.56-5.68-5.68-5.68s-5.68 2.56-5.68 5.68 2.56 5.68 5.68 5.68 5.68-2.56 5.68-5.68" fill="#00f"/><path d="m164.76 15.28c0-3.12-2.56-5.68-5.68-5.68s-5.68 2.56-5.68 5.68 2.56 5.68 5.68 5.68 5.68-2.56 5.68-5.68" fill="#00f"/><path d="m135.96 15.28c0-3.12-2.56-5.68-5.68-5.68s-5.68 2.56-5.68 5.68 2.56 5.68 5.68 5.68 5.68-2.56 5.68-5.68" fill="#00f"/><path d="m107.16 15.28c0-3.12-2.56-5.68-5.68-5.68s-5.68 2.56-5.68 5.68 2.56 5.68 5.68 5.68 5.68-2.56 5.68-5.68" fill="#00f"/><path d="m262.76 56.908v9.82l-.656 1.964-1.308 1.308-1.964.656h-1.308l-1.964-.656-1.308-1.308-.656-1.964v-9.82m-13.484 1.964 1.308-1.308 1.964-.656h2.62l1.964.656 1.308 1.308v1.308l-.656 1.312-.652.652-1.308.656-3.928 1.308-1.312.656-.652.656-.656 1.308v1.964l1.308 1.308 1.964.656h2.62l1.964-.656 1.308-1.308m-13.484-11.784v13.748m0-13.748h-5.892l-1.96.656-.656.656-.656 1.308v1.308l.656 1.308.656.656 1.96.656m5.892 0h-5.892l-1.96.652-.656.656-.656 1.308v1.964l.656 1.308.656.656 1.96.656h5.892m-32.728-11.784 1.312-1.308 1.964-.656h2.616l1.964.656 1.308 1.308v1.308l-.652 1.312-.656.652-1.308.656-3.928 1.308-1.308.656-.656.656-.656 1.308v1.964l1.312 1.308 1.964.656h2.616l1.964-.656 1.308-1.308m-13.484-3.272h-7.852v-1.312l.652-1.308.656-.656 1.308-.652h1.964l1.308.652 1.312 1.312.652 1.964v1.308l-.652 1.964-1.312 1.308-1.308.656h-1.964l-1.308-.656-1.308-1.308m-4.32-7.2v9.164m0-5.236-.656-1.964-1.308-1.312-1.308-.652h-1.964m-4.32-4.584-.656.656-.656-.656.656-.652zm-.656 4.584v9.164m-12.828-9.164v9.164m0-7.2 1.308-1.312 1.308-.652h1.964l1.308.652 1.312 1.312.652 1.964v1.308l-.652 1.964-1.312 1.308-1.308.656h-1.964l-1.308-.656-1.308-1.308m-4.32-11.784v13.748" stroke="#6c3" stroke-linecap="round" stroke-linejoin="round" stroke-width="2.32"/><path d="m202.28 98.72-3.14 8.248m-3.144-8.248 3.144 8.248m-5.736-6.676-.784-.392-1.18-1.18v8.248m-2.984-1.964.392.392-.392.396-.392-.396zm-3.772-6.284h-4.32l2.36 3.144h-1.18l-.784.392-.396.392-.392 1.18v.784l.392 1.18.788.784 1.176.392h1.18l1.176-.392.396-.392.392-.788m-8.092-1.96h-7.068m-2.984-2.752v-.392l-.392-.784-.396-.392-.784-.396h-1.572l-.784.396-.392.392-.392.784v.784l.392.788.784 1.176 3.928 3.928h-5.5m-4.948-8.248 1.18.396.784 1.176.392 1.964v1.18l-.392 1.96-.784 1.18-1.18.392h-.784l-1.18-.392-.784-1.18-.392-1.96v-1.18l.392-1.964.784-1.176 1.18-.396zm-5.732 4.716h-7.068m-4.948-4.716 1.176.396.784 1.176.396 1.964v1.18l-.396 1.96-.784 1.18-1.176.392h-.788l-1.176-.392-.788-1.18-.392-1.96v-1.18l.392-1.964.788-1.176 1.176-.396zm-9.664 0 3.928 5.5h-5.892m1.964-5.5v8.248" stroke="#6c3" stroke-linecap="round" stroke-linejoin="round" stroke-width="1.72"/><path d="m170.196 28.864-.368-1.108v-1.484l.368-1.108 1.484-1.484 1.108-.368h1.484l1.108.368 1.484.744 1.848 1.848.74 1.484.372 1.108v1.484l-.372 1.108-1.48 1.484-1.108.368h-1.484l-1.108-.368-1.112-1.112m1.852-1.852-1.852 1.852m-7.256-2.372 7.772 7.776m-7.772-7.776 2.592 12.96m-7.776-7.776 7.776 7.776m-10.22-5.332 7.776 7.776m-7.776-7.776-2.592 2.592-.74 1.484v1.48l.368 1.112.74 1.48 1.852 1.852 1.48.74 1.112.368h1.48l1.484-.74 2.592-2.592" stroke="#6c3" stroke-linecap="round" stroke-linejoin="round" stroke-width="2"/><path d="m139.956 28.864-.368-1.108v-1.484l.368-1.108 1.484-1.484 1.108-.368h1.484l1.108.368 1.484.744 1.848 1.848.74 1.484.372 1.108v1.484l-.372 1.108-1.48 1.484-1.108.368h-1.484l-1.108-.368m-8.368-3.484 7.772 7.776m0 0-4.44 4.444m-10.22-5.332 7.776 7.776m-12.96-2.592h10.368m-3.704 0 1.112 7.776" stroke="#6c3" stroke-linecap="round" stroke-linejoin="round" stroke-width="2"/><path d="m116.3 21.46 7.776 7.776m-7.776-7.776-2.592 2.592-.74 1.48v1.48l.368 1.112.744 1.48 1.848 1.852 1.484.74 1.108.372h1.484l1.48-.74 2.592-2.592m-15.404-.148 7.776 7.776m-12.44-3.112 1.112-.368h1.48l1.108.368 1.484.74 1.852 1.852.74 1.48.368 1.112v1.48l-.368 1.112-1.484 1.48-1.108.372h-1.48l-1.112-.372-1.48-.74-1.852-1.852-.74-1.48-.372-1.112v-1.48l.372-1.112z" stroke="#6c3" stroke-linecap="round" stroke-linejoin="round" stroke-width="2"/><path d="m88.52 9.416-4.188 10.996m-4.192-10.996 4.192 10.996m-15.5-8.38.524-1.044 1.048-1.048 1.044-.524h2.096l1.048.524 1.048 1.048.524 1.044.52 1.572v2.62l-.52 1.568-.524 1.048-1.048 1.048-1.048.524h-2.096l-1.044-.524-1.048-1.048-.524-1.048m-11.312-5.76.524-1.044 1.048-1.048 1.048-.524h2.092l1.048.524 1.048 1.048.524 1.044.524 1.572v2.62l-.524 1.568-.524 1.048-1.048 1.048-1.048.524h-2.092l-1.048-.524-1.048-1.048-.524-1.048" stroke="#6c3" stroke-linecap="round" stroke-linejoin="round" stroke-width="2"/><path d="m196.52 15.28c0-4.76-3.88-8.64-8.64-8.64s-8.64 3.88-8.64 8.64 3.88 8.64 8.64 8.64 8.64-3.88 8.64-8.64" stroke="#6c3" stroke-linecap="round" stroke-linejoin="round" stroke-width="2.88"/><path d="m167.72 15.28c0-4.76-3.88-8.64-8.64-8.64s-8.64 3.88-8.64 8.64 3.88 8.64 8.64 8.64 8.64-3.88 8.64-8.64" stroke="#6c3" stroke-linecap="round" stroke-linejoin="round" stroke-width="2.88"/><path d="m138.92 15.28c0-4.76-3.88-8.64-8.64-8.64s-8.64 3.88-8.64 8.64 3.88 8.64 8.64 8.64 8.64-3.88 8.64-8.64" stroke="#6c3" stroke-linecap="round" stroke-linejoin="round" stroke-width="2.88"/><path d="m110.12 15.28c0-4.76-3.88-8.64-8.64-8.64s-8.64 3.88-8.64 8.64 3.88 8.64 8.64 8.64 8.64-3.88 8.64-8.64" stroke="#6c3" stroke-linecap="round" stroke-linejoin="round" stroke-width="2.88"/><path d="m59.72 29.68c-.112.18-.452 1.956-.756 3.944l-.552 3.616-1.904.816c-3.592 1.544-3.796 1.524-6.968-.648-1.608-1.1-3.096-2-3.304-2s-1.588 1.196-3.06 2.66l-2.684 2.664 2.168 3.212 2.164 3.216-.968 2.452c-.532 1.348-1.136 2.648-1.344 2.888-.212.236-1.98.724-3.928 1.08l-3.552.652-.124 3.988c-.14 4.536-.672 3.964 4.652 4.988l2.796.54 1.212 2.92 1.208 2.924-2.14 3.176-2.144 3.18 2.684 2.664c1.472 1.46 2.832 2.66 3.016 2.66s1.508-.8 2.944-1.776c2.58-1.752 2.904-1.816 5.38-1.036.828.256 1.136-.264 3.348-5.644 1.344-3.26 2.44-6.188 2.44-6.508s-.396-.796-.876-1.052c-1.556-.836-3.348-3.788-3.656-6.028-.74-5.396 4.556-10.068 9.808-8.652 3.756 1.012 5.956 3.864 5.956 7.72 0 2.928-.556 4.176-2.788 6.268l-1.9 1.78 2.648 6.372 2.652 6.372 1.448-.856 1.444-.856 2.56 1.744c1.408.956 2.872 1.86 3.252 2.004.468.184 1.508-.544 3.248-2.268 1.404-1.392 2.556-2.688 2.556-2.876s-.9-1.7-2-3.356l-1.996-3.012.988-2.5c.544-1.372 1.16-2.72 1.364-2.992.208-.272 1.684-.728 3.28-1.012 4.86-.868 4.46-.412 4.32-4.908l-.124-3.968-3.64-.652c-3.992-.712-4.44-1.088-5.648-4.76-.56-1.7-.544-1.752 1.444-4.748 1.108-1.664 2.012-3.184 2.012-3.372s-1.152-1.484-2.556-2.876c-2.888-2.864-2.756-2.86-6.544-.2-2.748 1.932-3.012 1.948-6.56.424l-1.92-.82-.54-3.372c-.3-1.852-.644-3.624-.764-3.936-.156-.412-1.28-.568-4.032-.568-2.1 0-3.908.148-4.02.328m-31.972 58.548c-.836.656-1.14 1.292-1.14 2.376v1.484h2.376c1.308 0 2.376.172 2.376.38 0 .8-1.34 1.452-2.504 1.216-1.652-.332-2.524.232-1.58 1.016 1.116.928 3.532.732 4.636-.372 1.484-1.488 1.352-4.572-.252-5.956-1.484-1.28-2.432-1.312-3.912-.144m6.94-.388c-1.6.584-1.232 1.468.552 1.32 1.824-.152 2.6.528 2.6 2.28s-.776 2.432-2.6 2.28c-1.84-.152-2.112.696-.44 1.392 1.028.424 1.584.432 2.552.028 2.824-1.172 2.964-6.072.204-7.332-1.216-.556-1.264-.556-2.868.032m5.316-.104c-.904.592.056 1.496 1.62 1.52 1.156.02 1.188.092 1.4 3.048.164 2.308.372 3.028.864 3.028.516 0 .672-.764.772-3.792l.128-3.796-1.208.048c-.66.024-1.592-.072-2.068-.216-.476-.14-1.152-.068-1.508.16m15.684.02c-1.388.572-1.992 2.032-1.744 4.224.268 2.4 1.144 3.312 3.172 3.312 2.076 0 3.188-1.344 3.188-3.852 0-2.94-2.188-4.688-4.616-3.684m7.208-.048c-.592.168-1.08.592-1.08.94 0 .476.456.592 1.876.48 1.624-.132 1.856-.044 1.724.64-.104.54-.68.88-1.812 1.064-2.364.384-3.22 2.14-1.756 3.604 1.064 1.068 2.516 1.236 4.28.496 1.392-.584 1.548-.776 1.072-1.348-.384-.464-.688-.528-1.004-.216-.244.248-1.104.452-1.904.452-1.152 0-1.428-.16-1.316-.752.096-.492.712-.844 1.808-1.02 1.772-.288 2.416-.92 2.428-2.396.008-1.604-2.136-2.568-4.316-1.944m10.8-.088c-1.324.492-1.728 1.62-1.728 4.8 0 2.808.092 3.176.756 3.048.608-.116.8-.732.972-3.164.176-2.46.36-3.048.992-3.168 1.472-.28 2.032.732 2.032 3.688 0 2.424.1 2.772.756 2.644.64-.12.776-.728.88-3.932l.128-3.792-1.208.048c-.66.024-1.592-.06-2.068-.184-.476-.128-1.156-.12-1.512.012m7.136.684c-.668.58-1.156 1.496-1.212 2.272-.092 1.288-.076 1.296 2.396 1.428 2.364.12 2.464.172 2.012 1.02-.4.748-.748.848-2.14.628-1.836-.296-2.504.196-1.452 1.072 1.14.944 3.628.708 4.548-.432 1.224-1.516 1.092-4.552-.252-5.9-1.32-1.32-2.452-1.348-3.9-.088m7.228-.316c-.836.592-.972 1.08-.972 3.468 0 2.496.112 2.848 1.096 3.496.88.576 1.312.624 2.16.236l1.064-.484v2.716 2.716l-1.44-.168c-2.28-.268-2.88.672-2.88 4.516 0 2.856.092 3.228.756 3.1.616-.116.78-.688.884-3.02.128-2.932.6-3.664 2.012-3.12.444.172.668 1.088.756 3.12.104 2.332.272 2.904.884 3.02.704.132.756-.564.756-9.848v-9.988l-1.188.044c-.652.024-1.576-.076-2.052-.228-.496-.152-1.276.024-1.836.424m8.116-.116c-2.272 1.172-2.272 5.86 0 7.036 2.56 1.328 4.736-.292 4.736-3.516 0-2.996-2.36-4.748-4.736-3.52m-49.696 3.784c0 3.172.12 3.892.648 3.892.356 0 .648-.188.648-.42 0-.272.388-.276 1.08-.012 1.292.492 3.004-.052 3.396-1.084.152-.392.276-1.968.276-3.492 0-2.468-.092-2.78-.844-2.78-.74 0-.86.356-.972 2.916-.108 2.484-.252 2.94-.964 3.076-1.248.24-1.972-1.12-1.972-3.692 0-1.756-.152-2.3-.648-2.3-.528 0-.648.724-.648 3.896m-15.636-2.076c.868.868.588 1.212-.996 1.212-.972 0-1.512-.208-1.512-.58 0-1.204 1.548-1.592 2.508-.632m27.516 1.852c0 1.736-.152 2.188-.776 2.308-1.228.236-2.032-.752-2.032-2.496 0-1.928.272-2.264 1.712-2.096 1.012.12 1.096.296 1.096 2.284m25.704-1.508c.428.8.328.868-1.28.868-1.8 0-2.12-.316-1.224-1.212.784-.788 1.988-.624 2.504.344m7.128 1.516c0 2.02-.072 2.164-1.08 2.164-.94 0-1.096-.216-1.216-1.668-.184-2.252.152-2.964 1.324-2.8.86.124.972.388.972 2.304m7.776-.008c0 1.736-.152 2.188-.776 2.308-1.172.228-2.032-.732-2.032-2.268 0-1.62.728-2.492 1.94-2.32.736.104.868.448.868 2.28m-32.616 10.824c0 5.12.048 5.408.864 5.408.476 0 .864-.196.864-.436 0-.272.304-.244.8.064 1.208.756 3.044.108 3.572-1.26.556-1.44.26-4.608-.516-5.544-.388-.468-1.088-.636-2.212-.528-1.64.156-1.644.152-1.644-1.48 0-1.344-.152-1.632-.864-1.632-.816 0-.864.288-.864 5.408m-30.64-1.24c-.492.628-.896 1.6-.896 2.164 0 .952.168 1.024 2.376 1.024 1.8 0 2.376.152 2.376.632 0 1.012-1.564 1.648-2.636 1.072-1.332-.712-2.24.264-1.06 1.136 2.284 1.688 5.424-.16 5.424-3.196 0-2.336-1.332-3.972-3.24-3.972-1.052 0-1.696.312-2.344 1.14m6.104-.368c.08.408.532.764 1 .788.472.024 1.092.072 1.376.108.336.04.568 1.112.648 2.98.104 2.372.268 2.944.884 3.06.676.128.756-.272.756-3.736v-3.88l-2.404-.032c-2.048-.024-2.384.084-2.26.712m7.124 0c-.544.604-.732 1.6-.732 3.868v3.06l2.392.028c2.488.028 4.088-.876 4.088-2.32 0-1.18-1.644-2.38-3.272-2.38-1.24 0-1.512-.148-1.392-.756.112-.568.576-.756 1.868-.756 1.236 0 1.716-.18 1.716-.652 0-1.048-3.736-1.124-4.668-.092m5.976.132c2.484 7.836 3.108 8.432 4.416 4.204l.844-2.728.784 2.704c1.116 3.856 1.884 3.652 3.36-.892 1.388-4.268 1.38-4.192.372-4.192-.604 0-.928.564-1.364 2.38-.312 1.308-.696 2.38-.852 2.38s-.624-1.072-1.036-2.38c-1-3.18-1.796-3.104-2.732.276-.792 2.856-.952 2.784-1.86-.816-.356-1.408-.672-1.84-1.34-1.84-.692 0-.816.192-.592.904m17.916-.512c0 .628 1.232 1.428 1.728 1.124 1.048-.648 1.728.736 1.728 3.512 0 2.472.092 2.76.864 2.76.8 0 .864-.288.864-3.848v-3.848l-2.592-.036c-1.424-.02-2.592.132-2.592.336m7.432.128c-.316.312-.52 1.828-.52 3.82v3.3l2.26.052c2.536.06 3.788-.712 3.788-2.324 0-1.22-1.508-2.34-3.152-2.34-.94 0-1.196-.176-1.08-.756.108-.556.568-.756 1.72-.756 1.8 0 2.564-.512 1.636-1.1-.912-.576-4.044-.508-4.652.104m-41.38 1.04c1.308.504.764 1.468-.828 1.468-1.58 0-1.86-.34-.992-1.212.588-.588.856-.624 1.82-.256m31.7.256c.596.6.684 2.884.14 3.74-.2.316-.828.512-1.396.432-.852-.12-1.056-.432-1.168-1.8-.196-2.384 1.124-3.672 2.424-2.372m-17.712 3.432c.072.384-.196.828-.6.98-1.124.432-2.336-.132-2.336-1.092 0-.712.244-.84 1.4-.728.876.084 1.452.4 1.536.84m31.164-.516c.524.332.528.504.04 1.096-.824.992-2.356.672-2.524-.528-.112-.772.068-.972.864-.968.548.004 1.28.184 1.62.4" fill="#6c3"/><path d="m264.076 17.444h10.204" stroke="#cbcbcb" stroke-linecap="round" stroke-linejoin="round" stroke-width="14.76"/><path d="m273.712 17.444h-9.072" stroke="#2c2c2c" stroke-linecap="round" stroke-linejoin="round" stroke-width="7.92"/><path d="m264.076 99.524h10.204" stroke="#cbcbcb" stroke-linecap="round" stroke-linejoin="round" stroke-width="14.76"/><path d="m273.712 99.524h-9.072" stroke="#2c2c2c" stroke-linecap="round" stroke-linejoin="round" stroke-width="7.92"/><path d="m245.92 85.8c0-4.04-3.28-7.36-7.36-7.36s-7.36 3.32-7.36 7.36c0 4.08 3.28 7.4 7.36 7.4s7.36-3.32 7.36-7.4" fill="#cbcbcb"/><path d="m243.68 85.8c0-2.8-2.28-5.08-5.12-5.08-2.8 0-5.12 2.28-5.12 5.08 0 2.84 2.32 5.12 5.12 5.12 2.84 0 5.12-2.28 5.12-5.12" fill="#2c2c2c"/><path d="m245.92 30.92c0-4.08-3.28-7.36-7.36-7.36s-7.36 3.28-7.36 7.36 3.28 7.36 7.36 7.36 7.36-3.28 7.36-7.36" fill="#cbcbcb"/><path d="m243.68 30.92c0-2.8-2.28-5.08-5.12-5.08-2.8 0-5.12 2.28-5.12 5.08 0 2.84 2.32 5.12 5.12 5.12 2.84 0 5.12-2.28 5.12-5.12" fill="#2c2c2c"/><path d="m23.72 6.64v17.28h-17.28v-17.28z" fill="#cbcbcb"/><path d="m20.28 15.28c0-2.88-2.32-5.2-5.2-5.2s-5.2 2.32-5.2 5.2 2.32 5.2 5.2 5.2 5.2-2.32 5.2-5.2" fill="#2c2c2c"/><path d="m23.72 44.08c0-4.76-3.88-8.64-8.64-8.64s-8.64 3.88-8.64 8.64 3.88 8.64 8.64 8.64 8.64-3.88 8.64-8.64" fill="#cbcbcb"/><path d="m20.28 44.08c0-2.88-2.32-5.2-5.2-5.2s-5.2 2.32-5.2 5.2 2.32 5.2 5.2 5.2 5.2-2.32 5.2-5.2" fill="#2c2c2c"/><path d="m23.72 72.88c0-4.76-3.88-8.64-8.64-8.64s-8.64 3.88-8.64 8.64 3.88 8.64 8.64 8.64 8.64-3.88 8.64-8.64" fill="#cbcbcb"/><path d="m20.28 72.88c0-2.88-2.32-5.2-5.2-5.2s-5.2 2.32-5.2 5.2 2.32 5.2 5.2 5.2 5.2-2.32 5.2-5.2" fill="#2c2c2c"/><path d="m23.72 101.68c0-4.76-3.88-8.64-8.64-8.64s-8.64 3.88-8.64 8.64 3.88 8.64 8.64 8.64 8.64-3.88 8.64-8.64" fill="#cbcbcb"/><path d="m20.28 101.68c0-2.88-2.32-5.2-5.2-5.2s-5.2 2.32-5.2 5.2 2.32 5.2 5.2 5.2 5.2-2.32 5.2-5.2" fill="#2c2c2c"/><path d="m136.6 34c0-1.92-1.52-3.44-3.44-3.44s-3.44 1.52-3.44 3.44 1.52 3.44 3.44 3.44 3.44-1.52 3.44-3.44" fill="#cbcbcb"/><path d="m134.88 34c0-.96-.76-1.72-1.72-1.72s-1.72.76-1.72 1.72.76 1.72 1.72 1.72 1.72-.76 1.72-1.72" fill="#2c2c2c"/><path d="m50.2 28.24c0-1.92-1.52-3.44-3.44-3.44s-3.44 1.52-3.44 3.44 1.52 3.44 3.44 3.44 3.44-1.52 3.44-3.44" fill="#cbcbcb"/><path d="m48.48 28.24c0-.96-.76-1.72-1.72-1.72s-1.72.76-1.72 1.72.76 1.72 1.72 1.72 1.72-.76 1.72-1.72" fill="#2c2c2c"/><path d="m74.68 84.4c0-1.92-1.52-3.44-3.44-3.44s-3.44 1.52-3.44 3.44 1.52 3.44 3.44 3.44 3.44-1.52 3.44-3.44" fill="#cbcbcb"/><path d="m72.96 84.4c0-.96-.76-1.72-1.72-1.72s-1.72.76-1.72 1.72.76 1.72 1.72 1.72 1.72-.76 1.72-1.72" fill="#2c2c2c"/><path d="m155.32 64.24c0-1.92-1.52-3.44-3.44-3.44s-3.44 1.52-3.44 3.44 1.52 3.44 3.44 3.44 3.44-1.52 3.44-3.44" fill="#cbcbcb"/><path d="m153.6 64.24c0-.96-.76-1.72-1.72-1.72s-1.72.76-1.72 1.72.76 1.72 1.72 1.72 1.72-.76 1.72-1.72" fill="#2c2c2c"/><path d="m224.44 103.12c0-1.92-1.52-3.44-3.44-3.44s-3.44 1.52-3.44 3.44 1.52 3.44 3.44 3.44 3.44-1.52 3.44-3.44" fill="#cbcbcb"/><path d="m222.72 103.12c0-.96-.76-1.72-1.72-1.72s-1.72.76-1.72 1.72.76 1.72 1.72 1.72 1.72-.76 1.72-1.72" fill="#2c2c2c"/><path d="m66.04 78.64c0-1.92-1.52-3.44-3.44-3.44s-3.44 1.52-3.44 3.44 1.52 3.44 3.44 3.44 3.44-1.52 3.44-3.44" fill="#cbcbcb"/><path d="m64.32 78.64c0-.96-.76-1.72-1.72-1.72s-1.72.76-1.72 1.72.76 1.72 1.72 1.72 1.72-.76 1.72-1.72" fill="#2c2c2c"/><path d="m224.44 81.52c0-1.92-1.52-3.44-3.44-3.44s-3.44 1.52-3.44 3.44 1.52 3.44 3.44 3.44 3.44-1.52 3.44-3.44" fill="#cbcbcb"/><path d="m222.72 81.52c0-.96-.76-1.72-1.72-1.72s-1.72.76-1.72 1.72.76 1.72 1.72 1.72 1.72-.76 1.72-1.72" fill="#2c2c2c"/><path d="m223 29.68c0-1.92-1.52-3.44-3.44-3.44s-3.44 1.52-3.44 3.44 1.52 3.44 3.44 3.44 3.44-1.52 3.44-3.44" fill="#cbcbcb"/><path d="m221.28 29.68c0-.96-.76-1.72-1.72-1.72s-1.72.76-1.72 1.72.76 1.72 1.72 1.72 1.72-.76 1.72-1.72" fill="#2c2c2c"/><path d="m104.92 103.12c0-1.92-1.52-3.44-3.44-3.44s-3.44 1.52-3.44 3.44 1.52 3.44 3.44 3.44 3.44-1.52 3.44-3.44" fill="#cbcbcb"/><path d="m103.2 103.12c0-.96-.76-1.72-1.72-1.72s-1.72.76-1.72 1.72.76 1.72 1.72 1.72 1.72-.76 1.72-1.72" fill="#2c2c2c"/><path d="m132.28 64.24c0-1.92-1.52-3.44-3.44-3.44s-3.44 1.52-3.44 3.44 1.52 3.44 3.44 3.44 3.44-1.52 3.44-3.44" fill="#cbcbcb"/><path d="m130.56 64.24c0-.96-.76-1.72-1.72-1.72s-1.72.76-1.72 1.72.76 1.72 1.72 1.72 1.72-.76 1.72-1.72" fill="#2c2c2c"/><path d="m138.04 71.44c0-1.92-1.52-3.44-3.44-3.44s-3.44 1.52-3.44 3.44 1.52 3.44 3.44 3.44 3.44-1.52 3.44-3.44" fill="#cbcbcb"/><path d="m136.32 71.44c0-.96-.76-1.72-1.72-1.72s-1.72.76-1.72 1.72.76 1.72 1.72 1.72 1.72-.76 1.72-1.72" fill="#2c2c2c"/><path d="m148.12 16.72c0-1.92-1.52-3.44-3.44-3.44s-3.44 1.52-3.44 3.44 1.52 3.44 3.44 3.44 3.44-1.52 3.44-3.44" fill="#cbcbcb"/><path d="m146.4 16.72c0-.96-.76-1.72-1.72-1.72s-1.72.76-1.72 1.72.76 1.72 1.72 1.72 1.72-.76 1.72-1.72" fill="#2c2c2c"/><path d="m148.12 28.24c0-1.92-1.52-3.44-3.44-3.44s-3.44 1.52-3.44 3.44 1.52 3.44 3.44 3.44 3.44-1.52 3.44-3.44" fill="#cbcbcb"/><path d="m146.4 28.24c0-.96-.76-1.72-1.72-1.72s-1.72.76-1.72 1.72.76 1.72 1.72 1.72 1.72-.76 1.72-1.72" fill="#2c2c2c"/><path d="m103.48 29.68c0-1.92-1.52-3.44-3.44-3.44s-3.44 1.52-3.44 3.44 1.52 3.44 3.44 3.44 3.44-1.52 3.44-3.44" fill="#cbcbcb"/><path d="m101.76 29.68c0-.96-.76-1.72-1.72-1.72s-1.72.76-1.72 1.72.76 1.72 1.72 1.72 1.72-.76 1.72-1.72" fill="#2c2c2c"/><path d="m162.52 91.6c0-1.92-1.52-3.44-3.44-3.44s-3.44 1.52-3.44 3.44 1.52 3.44 3.44 3.44 3.44-1.52 3.44-3.44" fill="#cbcbcb"/><path d="m160.8 91.6c0-.96-.76-1.72-1.72-1.72s-1.72.76-1.72 1.72.76 1.72 1.72 1.72 1.72-.76 1.72-1.72" fill="#2c2c2c"/><path d="m.68 116.08v-115.2h288" stroke="#984c98" stroke-linecap="round" stroke-linejoin="round" stroke-width="2.88"/><path d="m288.68 116.08h-288" stroke="#984c98" stroke-linecap="round" stroke-linejoin="round" stroke-width="2.88"/><path d="m288.68 2.32v112.32" stroke="#984c98" stroke-linecap="round" stroke-linejoin="round" stroke-width="2.88"/></g></svg>