<svg height="240" viewBox="0 0 384 240" width="384" xmlns="http://www.w3.org/2000/svg"><g fill="none" fill-rule="evenodd"><path d="m3 2h374v231h-374z" fill="#999"/><g transform="translate(2 2)"><path d="m350.372 74.6h10.204" stroke="#ab00ff" stroke-linecap="round" stroke-linejoin="round" stroke-opacity=".7" stroke-width="17.04"/><path d="m350.372 156.68h10.204" stroke="#ab00ff" stroke-linecap="round" stroke-linejoin="round" stroke-opacity=".7" stroke-width="17.04"/><path d="m333.4 142.96c0-4.68-3.84-8.52-8.56-8.52-4.68 0-8.52 3.84-8.52 8.52 0 4.72 3.84 8.52 8.52 8.52 4.72 0 8.56-3.8 8.56-8.52" fill="#ab00ff" fill-opacity=".7"/><path d="m333.4 88.08c0-4.72-3.84-8.52-8.56-8.52-4.68 0-8.52 3.8-8.52 8.52s3.84 8.52 8.52 8.52c4.72 0 8.56-3.8 8.56-8.52" fill="#ab00ff" fill-opacity=".7"/><path d="m26.32 14.84c0-6.28-5.08-11.36-11.36-11.36s-11.36 5.08-11.36 11.36 5.08 11.36 11.36 11.36 11.36-5.08 11.36-11.36" fill="#ab00ff" fill-opacity=".7"/><path d="m26.32 43.64c0-6.28-5.08-11.36-11.36-11.36s-11.36 5.08-11.36 11.36 5.08 11.36 11.36 11.36 11.36-5.08 11.36-11.36" fill="#ab00ff" fill-opacity=".7"/><path d="m26.32 72.44c0-6.28-5.08-11.36-11.36-11.36s-11.36 5.08-11.36 11.36 5.08 11.36 11.36 11.36 11.36-5.08 11.36-11.36" fill="#ab00ff" fill-opacity=".7"/><path d="m26.32 101.24c0-6.28-5.08-11.36-11.36-11.36s-11.36 5.08-11.36 11.36 5.08 11.36 11.36 11.36 11.36-5.08 11.36-11.36" fill="#ab00ff" fill-opacity=".7"/><path d="m26.32 130.04c0-6.28-5.08-11.36-11.36-11.36s-11.36 5.08-11.36 11.36 5.08 11.36 11.36 11.36 11.36-5.08 11.36-11.36" fill="#ab00ff" fill-opacity=".7"/><path d="m26.32 158.84c0-6.28-5.08-11.36-11.36-11.36s-11.36 5.08-11.36 11.36 5.08 11.36 11.36 11.36 11.36-5.08 11.36-11.36" fill="#ab00ff" fill-opacity=".7"/><path d="m26.32 187.64c0-6.28-5.08-11.36-11.36-11.36s-11.36 5.08-11.36 11.36 5.08 11.36 11.36 11.36 11.36-5.08 11.36-11.36" fill="#ab00ff" fill-opacity=".7"/><path d="m25.172 206.236v20.408h-20.408v-20.408z" fill="#ab00ff" fill-opacity=".7"/><path d="m25.172 206.236v20.408h-20.408v-20.408z" stroke="#ab00ff" stroke-linecap="square" stroke-opacity=".7" stroke-width="2.32"/><path d="m227.644 226.076h-19.272v-19.272h19.272z" fill="#ab00ff" fill-opacity=".7"/><path d="m227.644 226.076h-19.272v-19.272h19.272z" stroke="#ab00ff" stroke-linecap="square" stroke-opacity=".7" stroke-width="2.32"/><path d="m200 216.44c0-5.96-4.84-10.8-10.8-10.8s-10.8 4.84-10.8 10.8 4.84 10.8 10.8 10.8 10.8-4.84 10.8-10.8" fill="#ab00ff" fill-opacity=".7"/><path d="m171.2 216.44c0-5.96-4.84-10.8-10.8-10.8s-10.8 4.84-10.8 10.8 4.84 10.8 10.8 10.8 10.8-4.84 10.8-10.8" fill="#ab00ff" fill-opacity=".7"/><path d="m142.4 216.44c0-5.96-4.84-10.8-10.8-10.8s-10.8 4.84-10.8 10.8 4.84 10.8 10.8 10.8 10.8-4.84 10.8-10.8" fill="#ab00ff" fill-opacity=".7"/><path d="m198.196 227.932-.164-.012-.164-.036-.152-.056-.144-.08-.132-.1-.116-.116-.1-.128-.076-.148-.06-.152-.036-.16-.008-.164.008-.164.036-.16.056-.156.08-.144.1-.132.116-.116.416-.38.4-.396.384-.416.36-.432.344-.452.324-.46.3-.48.28-.492.256-.5.236-.516.208-.524.188-.532.164-.54.14-.548.112-.552.088-.56.064-.56.036-.564.016-.564-.016-.584-.04-.58-.068-.58-.096-.576-.12-.572-.148-.564-.172-.56-.2-.548-.06-.204-.02-.212.016-.18.04-.176.072-.168.092-.156.12-.136 1.208-1.208.216-.232.196-.248.18-.26.16-.276.14-.284.08-.148.1-.132.116-.116.132-.1.144-.08.156-.06.16-.032.164-.012.164.008.16.036.156.06.144.076.132.1.116.116.1.132.076.144.06.152.032.164.012.164v2.292h7.008v-7.008h-4.096l-.264.012-.26.036-.252.06-.252.08-.24.104-.228.124-.22.144-.204.164-.188.18-.172.196-.152.212-.136.228-.096.148-.116.132-.136.116-.152.092-.164.064-.176.044-.176.012-.164-.012-.16-.036-.152-.056-.148-.08-.128-.096-.116-.116-.1-.132-.08-.144-.056-.156-.036-.16-.012-.164v-87.004l.012-.172.04-.168.064-.164.084-.148.108-.136.264-.296.244-.316.22-.332.2-.34.18-.356.16-.364.132-.376.112-.38.084-.388.064-.396.036-.396.012-.396-.012-.384-.032-.384-.06-.38-.08-.376-.104-.368-.124-.364-.148-.356-.168-.344-.188-.336-.208-.324-.228-.308-.248-.296-.264-.28-.28-.264-.296-.248-.308-.228-.324-.208-.336-.188-.344-.168-.356-.148-.364-.124-.368-.104-.376-.08-.38-.06-.384-.032-.384-.012-.384.012-.384.032-.38.06-.376.08-.368.104-.364.124-.356.148-.344.168-.336.188-.324.208-.308.228-.296.248-.28.264-.264.28-.248.296-.228.308-.208.324-.188.336-.168.344-.148.356-.124.364-.104.368-.08.376-.06.38-.032.384-.012.384.012.396.036.396.064.396.084.388.112.38.132.376.16.364.18.356.2.34.22.332.244.316.264.296.108.136.084.148.064.164.04.168.012.172v85.644l-.012.164-.036.164-.056.152-.08.144-.1.132-.116.116-.128.1-.148.076-.152.06-.16.032-.164.012-.196-.016-.188-.048-.584-.192-.588-.16-.596-.132-.6-.104-.608-.076-.608-.044-.612-.016-.548.012-.544.036-.544.06-.544.084-.536.108-.532.128-.524.156-.52.176-.508.196-.504.22-.488.244-.48.264-.468.284-.456.304-.44.324-.428.34-.412.36-.396.38-.38.396-.36.412-.34.428-.324.44-.304.456-.284.468-.264.48-.244.488-.22.504-.196.508-.176.52-.156.524-.128.532-.108.536-.084.544-.06.544-.036.544-.012.548.016.564.036.564.064.56.088.56.112.552.14.548.164.54.188.532.208.524.236.516.256.5.28.492.3.48.324.46.344.452.36.432.384.416.4.396.416.38.116.116.1.132.08.144.056.156.036.16.008.164-.008.164-.036.16-.06.152-.076.148-.1.128-.116.116-.132.1-.144.08-.152.056-.164.036-.164.012h-10.824l-.164-.012-.164-.036-.152-.056-.144-.08-.132-.1-.116-.116-.1-.128-.076-.148-.06-.152-.036-.16-.008-.164.008-.164.036-.16.056-.156.08-.144.1-.132.116-.116.416-.38.4-.396.384-.416.36-.432.344-.452.324-.46.3-.48.28-.492.256-.5.236-.516.208-.524.188-.532.164-.54.14-.548.112-.552.088-.56.064-.56.036-.564.016-.564-.012-.548-.036-.548-.06-.544-.084-.54-.108-.54-.128-.532-.156-.524-.176-.52-.2-.508-.22-.504-.24-.492-.264-.48-.288-.468-.304-.456-.324-.44-.344-.428-.36-.412-.38-.396-.396-.376-.128-.14-.104-.16-.08-.176-.044-.184-.016-.192.012-.18.044-.176.068-.168.096-.152.116-.136 17.684-17.684.232-.252.212-.268.188-.284.168-.296.14-.312.12-.32.092-.328.068-.336.04-.34.012-.34v-87.036l.012-.172.04-.168.064-.164.084-.148.108-.136.264-.296.244-.316.22-.332.2-.34.18-.356.16-.364.132-.376.112-.38.084-.388.064-.396.036-.396.012-.396-.012-.384-.032-.384-.06-.38-.08-.376-.104-.368-.124-.364-.148-.356-.168-.344-.188-.336-.208-.324-.228-.308-.248-.296-.264-.28-.28-.264-.296-.248-.308-.228-.324-.208-.336-.188-.344-.168-.356-.148-.364-.124-.368-.104-.376-.08-.38-.06-.384-.032-.384-.012-.384.012-.384.032-.38.06-.376.08-.368.104-.364.124-.356.148-.344.168-.336.188-.324.208-.308.228-.296.248-.28.264-.264.28-.248.296-.228.308-.208.324-.188.336-.168.344-.148.356-.124.364-.104.368-.08.376-.06.38-.032.384-.012.384.012.396.036.396.064.396.084.388.112.38.132.376.16.364.18.356.2.34.22.332.244.316.264.296.108.136.084.148.064.164.04.168.012.172v84.756l-.016.18-.04.176-.072.168-.092.156-.12.136-20.608 20.608-.164.136-.188.104-.204.068-.528.132-.52.156-.512.18-.508.2-.496.224-.488.244-.476.264-.464.284-.448.308-.44.324-.42.34-.408.364-.392.376-.376.396-.356.408-.34.428-.32.44-.3.452-.28.468-.26.476-.24.492-.22.496-.196.508-.172.516-.152.524-.128.528-.108.532-.08.54-.06.54-.036.544-.012.544.016.564.036.564.064.56.088.56.112.552.14.548.164.54.188.532.208.524.236.516.256.5.28.492.3.48.324.46.344.452.36.432.384.416.4.396.416.38.116.116.1.132.08.144.056.156.036.16.008.164-.008.164-.036.16-.06.152-.076.148-.1.128-.116.116-.132.1-.144.08-.152.056-.164.036-.164.012h-10.824l-.164-.012-.164-.036-.152-.056-.144-.08-.132-.1-.116-.116-.1-.128-.076-.148-.06-.152-.036-.16-.008-.164.008-.164.036-.16.056-.156.08-.144.1-.132.116-.116.416-.38.4-.396.384-.416.36-.432.344-.452.324-.46.3-.48.28-.492.256-.5.236-.516.208-.524.188-.532.164-.54.14-.548.112-.552.088-.56.064-.56.036-.564.016-.564-.012-.548-.036-.544-.06-.544-.084-.544-.108-.536-.128-.532-.156-.524-.176-.52-.196-.508-.22-.504-.244-.488-.264-.48-.284-.468-.304-.456-.324-.44-.34-.428-.36-.412-.38-.396-.396-.38-.412-.36-.428-.34-.44-.324-.456-.304-.468-.284-.48-.264-.488-.244-.504-.22-.508-.196-.52-.176-.524-.156-.532-.128-.536-.108-.544-.084-.544-.06-.544-.036-.548-.012-.548.012-.544.036-.544.06-.544.084-.536.108-.532.128-.524.156-.52.176-.508.196-.504.22-.488.244-.48.264-.468.284-.456.304-.44.324-.428.34-.412.36-.396.38-.38.396-.36.412-.34.428-.324.44-.304.456-.284.468-.264.48-.244.488-.22.504-.196.508-.176.52-.156.524-.128.532-.108.536-.084.544-.06.544-.036.544-.012.548.016.564.036.564.064.56.088.56.112.552.14.548.164.54.188.532.208.524.236.516.256.5.28.492.3.48.324.46.344.452.36.432.384.416.4.396.416.38.116.116.1.132.08.144.056.156.036.16.008.164-.008.164-.036.16-.06.152-.076.148-.1.128-.116.116-.132.1-.144.08-.152.056-.164.036-.164.012h-93.388l-.164-.012-.16-.036-.156-.056-.144-.08-.132-.1-.116-.116-.096-.128-.08-.148-.06-.152-.032-.16-.012-.164v.012-.052-.096-4.38h-7.288v4.516l-.012.164-.036.16-.056.152-.08.148-.1.128-.116.116-.132.1-.144.08-.152.056-.16.036-.164.012h-9.344l-.164-.012-.16-.036-.152-.056-.144-.08-.132-.1-.116-.116-.1-.128-.08-.148-.056-.152-.036-.16-.012-.164v-4.516h-4.516l-.164-.012-.16-.036-.152-.056-.148-.08-.128-.1-.116-.116-.1-.132-.08-.144-.056-.152-.036-.16-.012-.164v-9.344l.012-.164.036-.16.056-.152.08-.144.1-.132.116-.116.128-.1.148-.08.152-.056.16-.036.164-.012h4.516v-7.288h-4.38-.096.012-.052l-.164-.012-.16-.032-.152-.06-.148-.08-.128-.096-.116-.116-.1-.132-.08-.144-.056-.156-.036-.16-.012-.164v-4.708l.012-.164.036-.16.056-.152.08-.148.1-.128.116-.116.128-.1.148-.08.152-.056.16-.036.164-.012.188.016.18.044.172.076.156.1.14.124.392.396.412.38.428.364.44.344.456.324.468.304.484.284.492.264.504.24.516.224.524.196.528.176.54.156.544.128.548.108.552.084.56.056.556.036.56.012.556-.012.556-.032.552-.06.552-.084.548-.104.54-.128.536-.152.528-.176.52-.196.512-.22.504-.24.492-.26.48-.28.468-.304.452-.32.444-.34.424-.36.408-.376.396-.396.376-.408.36-.424.34-.444.32-.452.304-.468.28-.48.26-.492.24-.504.22-.512.196-.52.176-.528.152-.536.128-.54.104-.548.084-.552.06-.552.032-.556.012-.556-.016-.652v-.056l.016-.18.04-.176.068-.168.096-.152.116-.14 12.684-12.68.232-.252.212-.268.188-.284.168-.296.14-.312.12-.32.092-.328.068-.336.04-.34.012-.34v-17.916l.012-.172.04-.168.064-.164.084-.148.108-.136.264-.296.244-.316.22-.332.2-.34.18-.356.16-.364.132-.376.112-.38.084-.388.064-.396.036-.396.012-.396-.012-.384-.032-.384-.06-.38-.08-.376-.104-.368-.124-.364-.148-.356-.168-.344-.188-.336-.208-.324-.228-.308-.248-.296-.264-.28-.28-.264-.296-.248-.308-.228-.324-.208-.336-.188-.344-.168-.356-.148-.364-.124-.368-.104-.376-.08-.38-.06-.384-.032-.384-.012-.384.012-.384.032-.38.06-.376.08-.368.104-.364.124-.356.148-.344.168-.336.188-.324.208-.308.228-.296.248-.28.264-.264.28-.248.296-.228.308-.208.324-.188.336-.168.344-.148.356-.124.364-.104.368-.08.376-.06.38-.032.384-.012.384.012.396.036.396.064.396.084.388.112.38.132.376.16.364.18.356.2.34.22.332.244.316.264.296.108.136.084.148.064.164.04.168.012.172v15.636l-.016.18-.04.176-.072.168-.092.156-.12.136-8.512 8.512-.136.116-.156.096-.164.068-.176.044-.18.012-.196-.016-.192-.048-.18-.084-.164-.112-.44-.344-.456-.328-.472-.304-.484-.288-.492-.264-.508-.244-.516-.224-.524-.2-.532-.176-.54-.156-.544-.132-.552-.104-.556-.084-.56-.06-.56-.036-.56-.012-.56.012-.556.036-.56.056-.552.084-.548.108-.544.128-.54.156-.528.176-.524.196-.516.224-.504.24-.492.264-.484.284-.468.304-.456.324-.44.344-.428.364-.412.38-.392.396-.14.124-.156.1-.172.076-.18.044-.188.016-.164-.012-.16-.036-.152-.056-.148-.08-.128-.1-.116-.116-.1-.128-.08-.148-.056-.152-.036-.16-.012-.164v-9.144l.012-.164.036-.16.056-.152.08-.148.1-.128.116-.116.128-.1.148-.08.152-.056.16-.036.164-.012.188.016.18.044.172.076.156.1.14.124.392.396.412.38.428.364.44.344.456.324.468.304.484.284.492.264.504.24.516.224.524.196.528.176.54.156.544.128.548.108.552.084.56.056.556.036.56.012.556-.012.556-.032.552-.06.552-.084.548-.104.54-.128.536-.152.528-.176.52-.196.512-.22.504-.24.492-.26.48-.28.468-.304.452-.32.444-.34.424-.36.408-.376.396-.396.376-.408.36-.424.34-.444.32-.452.304-.468.28-.48.26-.492.24-.504.22-.512.196-.52.176-.528.152-.536.128-.54.104-.548.084-.552.06-.552.032-.556.012-.556-.012-.556-.032-.556-.06-.552-.084-.552-.104-.548-.128-.54-.152-.536-.176-.528-.196-.52-.22-.512-.24-.504-.26-.492-.28-.48-.304-.468-.32-.452-.34-.444-.36-.424-.376-.408-.396-.396-.408-.376-.424-.36-.444-.34-.452-.32-.468-.304-.48-.28-.492-.26-.504-.24-.512-.22-.52-.196-.528-.176-.536-.152-.54-.128-.548-.104-.552-.084-.552-.06-.556-.032-.556-.012-.56.012-.556.036-.56.056-.552.084-.548.108-.544.128-.54.156-.528.176-.524.196-.516.224-.504.24-.492.264-.484.284-.468.304-.456.324-.44.344-.428.364-.412.38-.392.396-.14.124-.156.1-.172.076-.18.044-.188.016-.164-.012-.16-.036-.152-.056-.148-.08-.128-.1-.116-.116-.1-.128-.08-.148-.056-.152-.036-.16-.012-.164v-9.144l.012-.164.036-.16.056-.152.08-.148.1-.128.116-.116.128-.1.148-.08.152-.056.16-.036.164-.012.188.016.18.044.172.076.156.1.14.124.392.396.412.38.428.364.44.344.456.324.468.304.484.284.492.264.504.24.516.224.524.196.528.176.54.156.544.128.548.108.552.084.56.056.556.036.56.012.556-.012.556-.032.552-.06.552-.084.548-.104.54-.128.536-.152.528-.176.52-.196.512-.22.504-.24.492-.26.48-.28.468-.304.452-.32.444-.34.424-.36.408-.376.396-.396.376-.408.36-.424.34-.444.32-.452.304-.468.28-.48.26-.492.24-.504.22-.512.196-.52.176-.528.152-.536.128-.54.104-.548.084-.552.06-.552.032-.556.012-.556-.012-.556-.032-.556-.06-.552-.084-.552-.104-.548-.128-.54-.152-.536-.176-.528-.196-.52-.22-.512-.24-.504-.26-.492-.28-.48-.304-.468-.32-.452-.34-.444-.36-.424-.376-.408-.396-.396-.408-.376-.424-.36-.444-.34-.452-.32-.468-.304-.48-.28-.492-.26-.504-.24-.512-.22-.52-.196-.528-.176-.536-.152-.54-.128-.548-.104-.552-.084-.552-.06-.556-.032-.556-.012-.56.012-.556.036-.56.056-.552.084-.548.108-.544.128-.54.156-.528.176-.524.196-.516.224-.504.24-.492.264-.484.284-.468.304-.456.324-.44.344-.428.364-.412.38-.392.396-.14.124-.156.1-.172.076-.18.044-.188.016-.164-.012-.16-.036-.152-.056-.148-.08-.128-.1-.116-.116-.1-.128-.08-.148-.056-.152-.036-.16-.012-.164v-9.144l.012-.164.036-.16.056-.152.08-.148.1-.128.116-.116.128-.1.148-.08.152-.056.16-.036.164-.012.188.016.18.044.172.076.156.1.14.124.392.396.412.38.428.364.44.344.456.324.468.304.484.284.492.264.504.24.516.224.524.196.528.176.54.156.544.128.548.108.552.084.56.056.556.036.56.012.556-.012.556-.032.552-.06.552-.084.548-.104.54-.128.536-.152.528-.176.52-.196.512-.22.504-.24.492-.26.48-.28.468-.304.452-.32.444-.34.424-.36.408-.376.396-.396.376-.408.36-.424.34-.444.32-.452.304-.468.28-.48.26-.492.24-.504.22-.512.196-.52.176-.528.152-.536.128-.54.104-.548.084-.552.06-.552.032-.556.012-.556-.012-.556-.032-.556-.06-.552-.084-.552-.104-.548-.128-.54-.152-.536-.176-.528-.196-.52-.22-.512-.24-.504-.26-.492-.28-.48-.304-.468-.32-.452-.34-.444-.36-.424-.376-.408-.396-.396-.408-.376-.424-.36-.444-.34-.452-.32-.468-.304-.48-.28-.492-.26-.504-.24-.512-.22-.52-.196-.528-.176-.536-.152-.54-.128-.548-.104-.552-.084-.552-.06-.556-.032-.556-.012-.56.012-.556.036-.56.056-.552.084-.548.108-.544.128-.54.156-.528.176-.524.196-.516.224-.504.24-.492.264-.484.284-.468.304-.456.324-.44.344-.428.364-.412.38-.392.396-.14.124-.156.1-.172.076-.18.044-.188.016-.164-.012-.16-.036-.152-.056-.148-.08-.128-.1-.116-.116-.1-.128-.08-.148-.056-.152-.036-.16-.012-.164v-9.144l.012-.164.036-.16.056-.152.08-.148.1-.128.116-.116.128-.1.148-.08.152-.056.16-.036.164-.012.188.016.18.044.172.076.156.1.14.124.392.396.412.38.428.364.44.344.456.324.468.304.484.284.492.264.504.24.516.224.524.196.528.176.54.156.544.128.548.108.552.084.56.056.556.036.56.012.552-.012.556-.032.548-.06.548-.08.548-.108.536-.124.536-.152.524-.172.52-.196.508-.216.504-.236.488-.26.48-.28.464-.3.456-.316.436-.34.428-.356.408-.372.392-.392.376-.404.36-.424.34-.436.324-.452.116-.144.14-.124.156-.1.172-.076.18-.044.188-.016.18.016.176.044.164.068.156.092.136.12 27.528 27.528.296.268.316.24.144.116.124.14.244.304.264.288.284.272.296.256.312.236.328.216.34.196.348.176.364.152.368.128.376.108.384.084.388.06.388.036.392.012.384-.012.384-.032.38-.06.376-.08.368-.104.364-.124.356-.148.344-.168.336-.188.324-.208.308-.228.296-.248.28-.264.264-.28.248-.296.228-.308.208-.324.188-.336.168-.344.148-.356.124-.364.104-.368.08-.376.06-.38.032-.384.012-.384-.012-.384-.032-.384-.06-.38-.08-.376-.104-.368-.124-.364-.148-.356-.168-.344-.188-.336-.208-.324-.228-.308-.248-.296-.264-.28-.28-.264-.296-.248-.308-.228-.324-.208-.336-.188-.344-.168-.356-.148-.364-.124-.368-.104-.376-.08-.38-.06-.384-.032-.384-.012-.388.012-.392.036-.384.06-.38.08-.376.108-.172.04-.176.012-.18-.012-.176-.044-.168-.068-.152-.096-.136-.116-28.404-28.404-.244-.224-.264-.208-.276-.188-.288-.164-.3-.14-.312-.12-.156-.064-.144-.088-.128-.104-.112-.124-.092-.14-.072-.152-.216-.516-.24-.508-.256-.496-.284-.484-.3-.476-.32-.46-.34-.444-.36-.432-.376-.412-.392-.4-.412-.38-.428-.364-.44-.344-.456-.328-.472-.304-.48-.288-.496-.264-.504-.24-.516-.224-.524-.2-.532-.176-.536-.152-.548-.132-.548-.108-.556-.08-.556-.06-.56-.036-.56-.012-.56.012-.556.036-.56.056-.552.084-.548.108-.544.128-.54.156-.528.176-.524.196-.516.224-.504.24-.492.264-.484.284-.468.304-.456.324-.44.344-.428.364-.412.38-.392.396-.14.124-.156.1-.172.076-.18.044-.188.016-.164-.012-.16-.036-.152-.056-.148-.08-.128-.1-.116-.116-.1-.128-.08-.148-.056-.152-.036-.16-.012-.164v-9.144l.012-.164.036-.16.056-.152.08-.148.1-.128.116-.116.128-.1.148-.08.152-.056.16-.036.164-.012.188.016.18.044.172.076.156.1.14.124.392.396.412.38.428.364.44.344.456.324.468.304.484.284.492.264.504.24.516.224.524.196.528.176.54.156.544.128.548.108.552.084.56.056.556.036.56.012.556-.012.556-.032.552-.06.552-.084.548-.104.54-.128.536-.152.528-.176.52-.196.512-.22.504-.24.492-.26.48-.28.468-.304.452-.32.444-.34.424-.36.408-.376.396-.396.376-.408.36-.424.34-.444.32-.452.304-.468.28-.48.26-.492.24-.504.22-.512.196-.52.176-.528.152-.536.128-.54.104-.548.084-.552.06-.552.032-.556.012-.556-.012-.556-.032-.556-.06-.552-.084-.552-.104-.548-.128-.54-.152-.536-.176-.528-.196-.52-.22-.512-.24-.504-.26-.492-.28-.48-.304-.468-.32-.452-.34-.444-.36-.424-.376-.408-.396-.396-.408-.376-.424-.36-.444-.34-.452-.32-.468-.304-.48-.28-.492-.26-.504-.24-.512-.22-.52-.196-.528-.176-.536-.152-.54-.128-.548-.104-.552-.084-.552-.06-.556-.032-.556-.012-.56.012-.556.036-.56.056-.552.084-.548.108-.544.128-.54.156-.528.176-.524.196-.516.224-.504.24-.492.264-.484.284-.468.304-.456.324-.44.344-.428.364-.412.38-.392.396-.14.124-.156.1-.172.076-.18.044-.188.016-.164-.012-.16-.036-.152-.056-.148-.08-.128-.1-.116-.116-.1-.128-.08-.148-.056-.152-.036-.16-.012-.164v-9.144l.012-.164.036-.16.056-.152.08-.148.1-.128.116-.116.128-.1.148-.08.152-.056.16-.036.164-.012.188.016.18.044.172.076.156.1.14.124.392.396.412.38.428.364.44.344.456.324.468.304.484.284.492.264.504.24.516.224.524.196.528.176.54.156.544.128.548.108.552.084.56.056.556.036.56.012.568-.012.564-.036.564-.06.564-.088.556-.108.552-.136.544-.156.54-.18.528-.204.216-.064.22-.024.18.016.176.04.168.072.156.092.136.12 13.56 13.56.12.136.092.156.072.168.04.176.016.18v16.44l.012.34.04.34.068.336.092.328.12.32.14.312.168.296.188.284.212.268.232.252 30.94 30.936.112.132.092.144.068.16.044.168.02.172.024.388.052.388.072.384.096.38.12.372.144.364.164.352.188.344.204.332.228.32.244.3.264.292.284.268.296.256.312.232.328.216.336.196.352.172.36.152.368.132.376.104.384.084.384.06.388.036.392.012.384-.012.384-.032.38-.06.376-.08.368-.104.364-.124.356-.148.344-.168.336-.188.324-.208.308-.228.296-.248.28-.264.264-.28.248-.296.228-.308.208-.324.188-.336.168-.344.148-.356.124-.364.104-.368.08-.376.06-.38.032-.384.012-.384-.02-.52-.064-.516-.016-.188.012-.164.036-.16.056-.152.08-.148.096-.128.12-.12.128-.096.148-.08.152-.056.16-.036.164-.012.188.016.516.064.52.02.384-.012.384-.032.38-.06.376-.08.368-.104.364-.124.356-.148.344-.168.336-.188.324-.208.308-.228.296-.248.28-.264.264-.28.248-.296.228-.308.208-.324.188-.336.168-.344.148-.356.124-.364.104-.368.08-.376.06-.38.032-.384.012-.384-.012-.396-.036-.396-.064-.396-.084-.388-.112-.38-.132-.376-.16-.364-.18-.356-.2-.34-.22-.332-.244-.316-.264-.296-.108-.136-.084-.148-.064-.164-.04-.168-.012-.172v-28.632l.012-.172.04-.168.064-.164.084-.148.108-.136.264-.296.244-.316.22-.332.2-.34.18-.356.16-.364.132-.376.112-.38.084-.388.064-.396.036-.396.012-.396-.012-.384-.032-.384-.06-.38-.08-.376-.104-.368-.124-.364-.148-.356-.168-.344-.188-.336-.208-.324-.228-.308-.248-.296-.264-.28-.28-.264-.296-.248-.308-.228-.324-.208-.336-.188-.344-.168-.356-.148-.364-.124-.368-.104-.376-.08-.38-.06-.384-.032-.384-.012-.384.012-.384.032-.38.06-.376.08-.368.104-.364.124-.356.148-.344.168-.336.188-.324.208-.308.228-.296.248-.28.264-.264.28-.248.296-.228.308-.208.324-.188.336-.168.344-.148.356-.124.364-.104.368-.08.376-.06.38-.032.384-.012.384.012.396.036.396.064.396.084.388.112.38.132.376.16.364.18.356.2.34.22.332.244.316.264.296.108.136.084.148.064.164.04.168.012.172v28.632l-.012.172-.04.168-.064.164-.084.148-.108.136-.264.296-.244.316-.22.332-.2.34-.18.356-.16.364-.132.376-.112.38-.084.388-.064.396-.036.396-.012.396.02.52.064.516.016.188-.012.164-.036.16-.056.152-.08.148-.096.128-.12.12-.128.096-.148.08-.152.056-.16.036-.164.012-.188-.016-.404-.052-.404-.028-.172-.02-.168-.044-.16-.068-.144-.092-.132-.112-29.324-29.328-.12-.136-.092-.156-.072-.168-.04-.176-.016-.18v-16.44l-.012-.34-.04-.34-.068-.336-.092-.328-.12-.32-.14-.312-.168-.296-.188-.284-.212-.268-.232-.252-15.172-15.172-.12-.136-.092-.156-.072-.168-.04-.176-.016-.18.024-.22.064-.216.204-.528.18-.54.156-.544.136-.552.108-.556.088-.564.06-.564.036-.564.012-.568-.012-.56-.036-.556-.056-.56-.084-.552-.108-.548-.128-.544-.156-.54-.176-.528-.196-.524-.224-.516-.24-.504-.264-.492-.284-.484-.304-.468-.324-.456-.344-.44-.364-.428-.38-.412-.396-.392-.124-.14-.1-.156-.076-.172-.044-.18-.016-.188.012-.164.036-.16.056-.152.08-.148.1-.128.116-.116.128-.1.148-.08.152-.056.16-.036.164-.012h346.112l.164.012.16.036.152.056.148.08.128.1.116.116.1.128.08.148.056.152.036.16.012.164v56.708l-.012.164-.036.16-.056.156-.08.144-.1.132-.116.116-.128.096-.148.08-.152.056-.16.036-.164.012h-29.06l-30.24 17.28-1.44 72 31.68 17.28h29.06l.164.012.16.036.152.056.148.08.128.096.116.116.1.132.08.144.056.156.036.16.012.164v56.708l-.012.164-.036.16-.056.152-.08.148-.1.128-.116.116-.128.1-.148.08-.152.056-.16.036-.164.012h-139.264l-.164-.012-.16-.036-.152-.056-.144-.08-.132-.1-.116-.116-.1-.128-.08-.148-.056-.152-.036-.16-.012-.164.02-.2.044-.504v-4.096h-7.008v4.8l-.012.164-.036.16-.056.152-.08.148-.1.128-.116.116-.132.1-.144.08-.152.056-.16.036-.164.012h-8.776l-.164-.012-.16-.036-.152-.056-.144-.08-.132-.1-.116-.116-.1-.128-.08-.148-.056-.152-.036-.16-.012-.164v-4.8h-7.008v4.096l.044.504.02.2-.012.164-.036.16-.056.152-.08.148-.1.128-.116.116-.132.1-.144.08-.152.056-.16.036-.164.012zm-53.628-39.688.384-.012.384-.032.38-.06.376-.08.368-.104.364-.124.356-.148.344-.168.336-.188.324-.208.308-.228.296-.248.28-.264.264-.28.248-.296.228-.308.208-.324.188-.336.168-.344.148-.356.124-.364.104-.368.08-.376.06-.38.032-.384.012-.384-.012-.392-.036-.388-.06-.384-.084-.384-.104-.376-.132-.368-.152-.36-.172-.352-.196-.336-.216-.328-.232-.312-.256-.296-.268-.284-.292-.264-.3-.244-.32-.228-.332-.204-.344-.188-.352-.164-.364-.144-.372-.12-.38-.096-.384-.072-.388-.052-.388-.024-.172-.02-.168-.044-.16-.068-.144-.092-.132-.112-3.576-3.58-.252-.232-.268-.212-.284-.188-.296-.168-.312-.14-.32-.12-.328-.092-.336-.068-.34-.04-.34-.012h-39.516l-.172-.012-.168-.04-.164-.064-.148-.084-.136-.108-.296-.264-.316-.244-.332-.22-.34-.2-.356-.18-.364-.16-.376-.132-.38-.112-.388-.084-.396-.064-.396-.036-.396-.012-.384.012-.384.032-.38.06-.376.08-.368.104-.364.124-.356.148-.344.168-.336.188-.324.208-.308.228-.296.248-.28.264-.264.28-.248.296-.228.308-.208.324-.188.336-.168.344-.148.356-.124.364-.104.368-.08.376-.06.38-.032.384-.012.384.012.384.032.384.06.38.08.376.104.368.124.364.148.356.168.344.188.336.208.324.228.308.248.296.264.28.28.264.296.248.308.228.324.208.336.188.344.168.356.148.364.124.368.104.376.08.38.06.384.032.384.012.396-.012.396-.036.396-.064.388-.084.38-.112.376-.132.364-.16.356-.18.34-.2.332-.22.316-.244.296-.264.136-.108.148-.084.164-.064.168-.04.172-.012h37.236l.18.016.176.04.168.072.156.092.136.12 1.968 1.964.112.132.092.144.068.16.044.168.02.172.024.388.052.388.072.384.096.38.12.372.144.364.164.352.188.344.204.332.228.32.244.3.264.292.284.268.296.256.312.232.328.216.336.196.352.172.36.152.368.132.376.104.384.084.384.06.388.036zm-15.84-158.4.396-.012.396-.036.396-.064.388-.084.38-.112.376-.132.364-.16.356-.18.34-.2.332-.22.316-.244.296-.264.136-.108.148-.084.164-.064.168-.04.172-.012h27.996l.34-.012.34-.04.336-.068.328-.092.32-.12.312-.14.296-.168.284-.188.268-.212.252-.232 3.576-3.58.132-.112.144-.092.16-.068.168-.044.172-.02.388-.024.388-.052.384-.072.38-.096.372-.12.364-.144.352-.164.344-.188.332-.204.32-.228.3-.244.292-.264.268-.284.256-.296.232-.312.216-.328.196-.336.172-.352.152-.36.132-.368.104-.376.084-.384.06-.384.036-.388.012-.392-.012-.416-.044-.416-.068-.412-.092-.408-.124-.4-.148-.392-.064-.216-.024-.224-.012-.324-.036-.324-.06-.32-.084-.312-.108-.308-.132-.296-.152-.288-.172-.276-.192-.26-.212-.248-.232-.228-.248-.212-.26-.196-.276-.172-.288-.152-.296-.128-.308-.108-.312-.084-.32-.06-.324-.036-.324-.012-.348.012-.348.044-.34.068-.336.096-.328.124-.316.152-.3.172-.288.2-.196.116-.212.076-.372.108-.368.132-.36.152-.348.172-.336.196-.324.216-.312.236-.296.252-.28.272-.264.288-.244.304-.224.316-.208.332-.184.344-.164.352-.14.364-.12.372-.096.376-.072.384-.052.384-.024.388-.02.172-.044.168-.068.16-.092.144-.112.132-1.968 1.964-.136.12-.156.092-.168.072-.176.04-.18.016h-25.716l-.172-.012-.168-.04-.164-.064-.148-.084-.136-.108-.296-.264-.316-.244-.332-.22-.34-.2-.356-.18-.364-.16-.376-.132-.38-.112-.388-.084-.396-.064-.396-.036-.396-.012-.384.012-.384.032-.38.06-.376.08-.368.104-.364.124-.356.148-.344.168-.336.188-.324.208-.308.228-.296.248-.28.264-.264.28-.248.296-.228.308-.208.324-.188.336-.168.344-.148.356-.124.364-.104.368-.08.376-.06.38-.032.384-.012.384.012.384.032.384.06.38.08.376.104.368.124.364.148.356.168.344.188.336.208.324.228.308.248.296.264.28.28.264.296.248.308.228.324.208.336.188.344.168.356.148.364.124.368.104.376.08.38.06.384.032zm81.476 105.956.012.384.032.384.06.38.08.376.104.368.124.364.148.356.168.344.188.336.208.324.228.308.248.296.264.28.28.264.296.248.308.228.324.208.336.188.344.168.356.148.364.124.368.104.376.08.38.06.384.032.384.012.384-.012.384-.032.38-.06.376-.08.368-.104.364-.124.356-.148.344-.168.336-.188.324-.208.308-.228.296-.248.28-.264.264-.28.248-.296.228-.308.208-.324.188-.336.168-.344.148-.356.124-.364.104-.368.08-.376.06-.38.032-.384.012-.384-.012-.396-.036-.396-.064-.396-.084-.388-.112-.38-.132-.376-.16-.364-.18-.356-.2-.34-.22-.332-.244-.316-.264-.296-.108-.136-.084-.148-.064-.164-.04-.168-.012-.172v-31.512l.012-.172.04-.168.064-.164.084-.148.108-.136.264-.296.244-.316.22-.332.2-.34.18-.356.16-.364.132-.376.112-.38.084-.388.064-.396.036-.396.012-.396-.012-.384-.032-.384-.06-.38-.08-.376-.104-.368-.124-.364-.148-.356-.168-.344-.188-.336-.208-.324-.228-.308-.248-.296-.264-.28-.28-.264-.296-.248-.308-.228-.324-.208-.336-.188-.344-.168-.356-.148-.364-.124-.368-.104-.376-.08-.38-.06-.384-.032-.384-.012-.384.012-.384.032-.38.06-.376.08-.368.104-.364.124-.356.148-.344.168-.336.188-.324.208-.308.228-.296.248-.28.264-.264.28-.248.296-.228.308-.208.324-.188.336-.168.344-.148.356-.124.364-.104.368-.08.376-.06.38-.032.384-.012.384.012.396.036.396.064.396.084.388.112.38.132.376.16.364.18.356.2.34.22.332.244.316.264.296.108.136.084.148.064.164.04.168.012.172v31.512l-.012.172-.04.168-.064.164-.084.148-.108.136-.264.296-.244.316-.22.332-.2.34-.18.356-.16.364-.132.376-.112.38-.084.388-.064.396-.036.396zm-182.124 74.816v-4.38l-.012-.268-.036-.268-.06-.26-.088-.256-.108-.244-.132-.236-.152-.22-.168-.208-.192-.192-.208-.168-.22-.152-.236-.132-.244-.108-.256-.088-.26-.06-.268-.036-.268-.012h-4.38v7.288zm195.468-6.724v7.008h7.008v-4.096l-.012-.272-.04-.264-.06-.26-.084-.256-.112-.248-.128-.232-.152-.224-.172-.204-.192-.192-.204-.172-.224-.152-.232-.128-.248-.112-.256-.084-.26-.06-.264-.04-.272-.012z" fill="#00f"/><g stroke-linecap="round" stroke-linejoin="round"><path d="m355.472 156.68v18" stroke="#00f" stroke-width="2.88"/><path d="m355.472 74.6v-18" stroke="#00f" stroke-width="2.88"/><path d="m199.288 112.76v93.6l-10.08 10.08" stroke="#00f" stroke-width="2.88"/><path d="m128.728 23.48h33.12l7.2-7.2 1.44-1.44v-1.44" stroke="#00f" stroke-width="2.88"/><path d="m74.008 92.6-34.56-34.56v-18.72l-24.48-24.48" stroke="#00f" stroke-width="2.88"/><path d="m183.448 92.6v92.16l-22.32 22.32v8.64" stroke="#00f" stroke-width="2.88"/><path d="m216.568 94.04v41.76" stroke="#00f" stroke-width="2.88"/><path d="m324.856 142.972-17.568.028" stroke="#00f" stroke-width="2.88"/><path d="m324.856 88.08-17.568.2" stroke="#00f" stroke-width="2.88"/><path d="m38.008 147.32v23.04l-17.28 17.28h-5.76" stroke="#00f" stroke-width="2.88"/><path d="m61.048 104.12h-2.88l-31.68-31.68h-11.52" stroke="#00f" stroke-width="2.88"/><path d="m144.568 181.88-7.2-7.2h-44.64" stroke="#00f" stroke-width="2.88"/><path d="m82.648 45.08v38.88" stroke="#00f" stroke-width="2.88"/><path d="m270.768 211.084 1.296-1.324 1.96-.664h2.62l1.988.664 1.296 1.324v1.296l-.664 1.324-.632.632-1.324.664-3.916 1.296-1.328.664-.632.66-.664 1.296v1.988l1.296 1.296 1.96.664h2.62l1.988-.664 1.296-1.296m-13.48-11.808-3.28 13.768m-3.256-13.768 3.256 13.768m-3.256-13.768-3.284 13.768m-3.284-13.768 3.284 13.768m-7.604-13.768v13.768m0-13.768h-4.576l-1.96.664-1.296 1.324-.664 1.296-.66 1.956v3.284l.66 1.96.664 1.324 1.296 1.296 1.96.664h4.576" stroke="#6c3" stroke-width="2.32"/><path d="m137.5 196.28-13.748-5.236m13.748-5.236-13.748 5.236m10.476-19.376 1.308.656 1.308 1.308.656 1.308v2.62l-.656 1.308-1.308 1.312-1.308.652-1.964.656h-3.276l-1.96-.656-1.312-.652-1.308-1.312-.656-1.308v-2.62l.656-1.308 1.308-1.308 1.312-.656m7.2-14.136 1.308.652 1.308 1.312.656 1.308v2.616l-.656 1.312-1.308 1.308-1.308.656-1.964.652h-3.276l-1.96-.652-1.312-.656-1.308-1.308-.656-1.312v-2.616l.656-1.308 1.308-1.312 1.312-.652" stroke="#6c3" stroke-width="2.32"/><path d="m164.336 187.116 1.308 1.308.656 1.964v2.62l-.656 1.964-1.308 1.308h-1.308l-1.312-.656-.652-.652-.656-1.312-1.308-3.924-.656-1.312-.656-.652-1.308-.656h-1.964l-1.308 1.308-.656 1.964v2.62l.656 1.964 1.308 1.308m11.784-13.484-13.748-3.272m13.748-3.272-13.748 3.272m13.748-3.272-13.748-3.272m13.748-3.276-13.748 3.276m13.748-7.596h-13.748m13.748 0v-4.58l-.656-1.964-1.308-1.308-1.308-.656-1.964-.656h-3.276l-1.96.656-1.312.656-1.308 1.308-.656 1.964v4.58m13.748-13.484h-13.748m13.748-8.244-.656 1.308-1.308 1.308-1.308.656-1.964.652h-3.276l-1.96-.652-1.312-.656-1.308-1.308-.656-1.308v-2.62l.656-1.308 1.308-1.308 1.312-.656 1.96-.656h3.276l1.964.656 1.308.656 1.308 1.308.656 1.308z" stroke="#6c3" stroke-width="2.32"/><path d="m193.136 187.116 1.308 1.308.656 1.964v2.62l-.656 1.964-1.308 1.308h-1.308l-1.312-.656-.652-.652-.656-1.312-1.308-3.924-.656-1.312-.656-.652-1.308-.656h-1.964l-1.308 1.308-.656 1.964v2.62l.656 1.964 1.308 1.308m11.784-13.484-13.748-3.272m13.748-3.272-13.748 3.272m13.748-3.272-13.748-3.272m13.748-3.276-13.748 3.276m10.476-17.412 1.308.652 1.308 1.312.656 1.308v2.62l-.656 1.308-1.308 1.308-1.308.656-1.964.652h-3.276l-1.96-.652-1.312-.656-1.308-1.308-.656-1.308v-2.62l.656-1.308 1.308-1.312 1.312-.652m10.472-4.32h-13.748m0 0v-7.856m13.748-4.32h-13.748m13.748-9.164-9.164 9.164m3.272-3.272-7.856-5.892" stroke="#6c3" stroke-width="2.32"/><path d="m220.628 186.46 1.308.656 1.308 1.308.656 1.312v2.616l-.656 1.308-1.308 1.312-1.308.652-1.964.656h-3.276l-1.96-.656-1.312-.652-1.308-1.312-.656-1.308v-2.616l.656-1.312 1.308-1.308 1.312-.656h1.96m0 3.276v-3.276m8.512-4.32h-13.748m13.748 0-13.748-9.16m13.748 0h-13.748m13.748-4.32h-13.748m13.748 0v-4.584l-.656-1.964-1.308-1.308-1.308-.656-1.964-.652h-3.276l-1.96.652-1.312.656-1.308 1.308-.656 1.964v4.584" stroke="#6c3" stroke-width="2.32"/><path d="m360.568 13.32-3.14 8.248m-3.144-8.248 3.144 8.248m-5.736-6.676-.784-.392-1.18-1.18v8.248m-2.984-1.964.392.392-.392.396-.392-.396zm-2.984-4.712-.788-.392-1.176-1.18v8.248m-2.984-6.284v-.392l-.392-.784-.396-.392-.784-.396h-1.572l-.784.396-.392.392-.392.784v.784l.392.788.784 1.176 3.928 3.928h-5.5m-2.592-3.532h-7.068m-2.984-2.752v-.392l-.392-.784-.392-.392-.788-.396h-1.572l-.784.396-.392.392-.392.784v.784l.392.788.784 1.176 3.928 3.928h-5.496m-4.952-8.248 1.18.396.784 1.176.396 1.964v1.18l-.396 1.96-.784 1.18-1.18.392h-.784l-1.176-.392-.788-1.18-.392-1.96v-1.18l.392-1.964.788-1.176 1.176-.396zm-5.732 4.716h-7.068m-4.948-4.716 1.176.396.788 1.176.392 1.964v1.18l-.392 1.96-.788 1.18-1.176.392h-.788l-1.176-.392-.788-1.18-.392-1.96v-1.18l.392-1.964.788-1.176 1.176-.396zm-9.664 0 3.928 5.5h-5.892m1.964-5.5v8.248" stroke="#6c3" stroke-width="1.72"/></g><path d="m138.808 29.24c-.112.18-.452 1.956-.756 3.944l-.552 3.616-1.904.816c-3.592 1.544-3.796 1.524-6.968-.648-1.608-1.1-3.096-2-3.304-2s-1.588 1.196-3.06 2.66l-2.684 2.664 2.168 3.212 2.164 3.216-.968 2.452c-.532 1.348-1.136 2.648-1.344 2.888-.212.236-1.98.724-3.928 1.08l-3.552.652-.124 3.988c-.14 4.536-.672 3.964 4.652 4.988l2.796.54 1.212 2.92 1.208 2.924-2.14 3.176-2.144 3.18 2.684 2.664c1.472 1.46 2.832 2.66 3.016 2.66s1.508-.8 2.944-1.776c2.58-1.752 2.904-1.816 5.38-1.036.828.256 1.136-.264 3.348-5.644 1.344-3.26 2.44-6.188 2.44-6.508s-.396-.796-.876-1.052c-1.556-.836-3.348-3.788-3.656-6.028-.74-5.396 4.556-10.068 9.808-8.652 3.756 1.012 5.956 3.864 5.956 7.72 0 2.928-.556 4.176-2.788 6.268l-1.9 1.78 2.648 6.372 2.652 6.372 1.448-.856 1.444-.856 2.56 1.744c1.408.956 2.872 1.86 3.252 2.004.468.184 1.508-.544 3.248-2.268 1.404-1.392 2.556-2.688 2.556-2.876s-.9-1.7-2-3.356l-1.996-3.012.988-2.5c.544-1.372 1.16-2.72 1.364-2.992.208-.272 1.684-.728 3.28-1.012 4.86-.868 4.46-.412 4.32-4.908l-.124-3.968-3.64-.652c-3.992-.712-4.44-1.088-5.648-4.76-.56-1.7-.544-1.752 1.444-4.748 1.108-1.664 2.012-3.184 2.012-3.372s-1.152-1.484-2.556-2.876c-2.888-2.864-2.756-2.86-6.544-.2-2.748 1.932-3.012 1.948-6.56.424l-1.92-.82-.54-3.372c-.3-1.852-.644-3.624-.764-3.936-.156-.412-1.28-.568-4.032-.568-2.1 0-3.908.148-4.02.328m-31.972 58.548c-.836.656-1.14 1.292-1.14 2.376v1.484h2.376c1.308 0 2.376.172 2.376.38 0 .8-1.34 1.452-2.504 1.216-1.652-.332-2.524.232-1.58 1.016 1.116.928 3.532.732 4.636-.372 1.484-1.488 1.352-4.572-.252-5.956-1.484-1.28-2.432-1.312-3.912-.144m6.94-.388c-1.6.584-1.232 1.468.552 1.32 1.824-.152 2.6.528 2.6 2.28s-.776 2.432-2.6 2.28c-1.84-.152-2.112.696-.44 1.392 1.028.424 1.584.432 2.552.028 2.824-1.172 2.964-6.072.204-7.332-1.216-.556-1.264-.556-2.868.032m5.316-.104c-.904.592.056 1.496 1.62 1.52 1.156.02 1.188.092 1.4 3.048.164 2.308.372 3.028.864 3.028.516 0 .672-.764.772-3.792l.128-3.796-1.208.048c-.66.024-1.592-.072-2.068-.216-.476-.14-1.152-.068-1.508.16m15.684.02c-1.388.572-1.992 2.032-1.744 4.224.268 2.4 1.144 3.312 3.172 3.312 2.076 0 3.188-1.344 3.188-3.852 0-2.94-2.188-4.688-4.616-3.684m7.208-.048c-.592.168-1.08.592-1.08.94 0 .476.456.592 1.876.48 1.624-.132 1.856-.044 1.724.64-.104.54-.68.88-1.812 1.064-2.364.384-3.22 2.14-1.756 3.604 1.064 1.068 2.516 1.236 4.28.496 1.392-.584 1.548-.776 1.072-1.348-.384-.464-.688-.528-1.004-.216-.244.248-1.104.452-1.904.452-1.152 0-1.428-.16-1.316-.752.096-.492.712-.844 1.808-1.02 1.772-.288 2.416-.92 2.428-2.396.008-1.604-2.136-2.568-4.316-1.944m10.8-.088c-1.324.492-1.728 1.62-1.728 4.8 0 2.808.092 3.176.756 3.048.608-.116.8-.732.972-3.164.176-2.46.36-3.048.992-3.168 1.472-.28 2.032.732 2.032 3.688 0 2.424.1 2.772.756 2.644.64-.12.776-.728.88-3.932l.128-3.792-1.208.048c-.66.024-1.592-.06-2.068-.184-.476-.128-1.156-.12-1.512.012m7.136.684c-.668.58-1.156 1.496-1.212 2.272-.092 1.288-.076 1.296 2.396 1.428 2.364.12 2.464.172 2.012 1.02-.4.748-.748.848-2.14.628-1.836-.296-2.504.196-1.452 1.072 1.14.944 3.628.708 4.548-.432 1.224-1.516 1.092-4.552-.252-5.9-1.32-1.32-2.452-1.348-3.9-.088m7.228-.316c-.836.592-.972 1.08-.972 3.468 0 2.496.112 2.848 1.096 3.496.88.576 1.312.624 2.16.236l1.064-.484v2.716 2.716l-1.44-.168c-2.28-.268-2.88.672-2.88 4.516 0 2.856.092 3.228.756 3.1.616-.116.78-.688.884-3.02.128-2.932.6-3.664 2.012-3.12.444.172.668 1.088.756 3.12.104 2.332.272 2.904.884 3.02.704.132.756-.564.756-9.848v-9.988l-1.188.044c-.652.024-1.576-.076-2.052-.228-.496-.152-1.276.024-1.836.424m8.116-.116c-2.272 1.172-2.272 5.86 0 7.036 2.56 1.328 4.736-.292 4.736-3.516 0-2.996-2.36-4.748-4.736-3.52m-49.696 3.784c0 3.172.12 3.892.648 3.892.356 0 .648-.188.648-.42 0-.272.388-.276 1.08-.012 1.292.492 3.004-.052 3.396-1.084.152-.392.276-1.968.276-3.492 0-2.468-.092-2.78-.844-2.78-.74 0-.86.356-.972 2.916-.108 2.484-.252 2.94-.964 3.076-1.248.24-1.972-1.12-1.972-3.692 0-1.756-.152-2.3-.648-2.3-.528 0-.648.724-.648 3.896m-15.636-2.076c.868.868.588 1.212-.996 1.212-.972 0-1.512-.208-1.512-.58 0-1.204 1.548-1.592 2.508-.632m27.516 1.852c0 1.736-.152 2.188-.776 2.308-1.228.236-2.032-.752-2.032-2.496 0-1.928.272-2.264 1.712-2.096 1.012.12 1.096.296 1.096 2.284m25.704-1.508c.428.8.328.868-1.28.868-1.8 0-2.12-.316-1.224-1.212.784-.788 1.988-.624 2.504.344m7.128 1.516c0 2.02-.072 2.164-1.08 2.164-.94 0-1.096-.216-1.216-1.668-.184-2.252.152-2.964 1.324-2.8.86.124.972.388.972 2.304m7.776-.008c0 1.736-.152 2.188-.776 2.308-1.172.228-2.032-.732-2.032-2.268 0-1.62.728-2.492 1.94-2.32.736.104.868.448.868 2.28m-32.616 10.824c0 5.12.048 5.408.864 5.408.476 0 .864-.196.864-.436 0-.272.304-.244.8.064 1.208.756 3.044.108 3.572-1.26.556-1.44.26-4.608-.516-5.544-.388-.468-1.088-.636-2.212-.528-1.64.156-1.644.152-1.644-1.48 0-1.344-.152-1.632-.864-1.632-.816 0-.864.288-.864 5.408m-30.64-1.24c-.492.628-.896 1.6-.896 2.164 0 .952.168 1.024 2.376 1.024 1.8 0 2.376.152 2.376.632 0 1.012-1.564 1.648-2.636 1.072-1.332-.712-2.24.264-1.06 1.136 2.284 1.688 5.424-.16 5.424-3.196 0-2.336-1.332-3.972-3.24-3.972-1.052 0-1.696.312-2.344 1.14m6.104-.368c.08.408.532.764 1 .788.472.024 1.092.072 1.376.108.336.04.568 1.112.648 2.98.104 2.372.268 2.944.884 3.06.676.128.756-.272.756-3.736v-3.88l-2.404-.032c-2.048-.024-2.384.084-2.26.712m7.124 0c-.544.604-.732 1.6-.732 3.868v3.06l2.392.028c2.488.028 4.088-.876 4.088-2.32 0-1.18-1.644-2.38-3.272-2.38-1.24 0-1.512-.148-1.392-.756.112-.568.576-.756 1.868-.756 1.236 0 1.716-.18 1.716-.652 0-1.048-3.736-1.124-4.668-.092m5.976.132c2.484 7.836 3.108 8.432 4.416 4.204l.844-2.728.784 2.704c1.116 3.856 1.884 3.652 3.36-.892 1.388-4.268 1.38-4.192.372-4.192-.604 0-.928.564-1.364 2.38-.312 1.308-.696 2.38-.852 2.38s-.624-1.072-1.036-2.38c-1-3.18-1.796-3.104-2.732.276-.792 2.856-.952 2.784-1.86-.816-.356-1.408-.672-1.84-1.34-1.84-.692 0-.816.192-.592.904m17.916-.512c0 .628 1.232 1.428 1.728 1.124 1.048-.648 1.728.736 1.728 3.512 0 2.472.092 2.76.864 2.76.8 0 .864-.288.864-3.848v-3.848l-2.592-.036c-1.424-.02-2.592.132-2.592.336m7.432.128c-.316.312-.52 1.828-.52 3.82v3.3l2.26.052c2.536.06 3.788-.712 3.788-2.324 0-1.22-1.508-2.34-3.152-2.34-.94 0-1.196-.176-1.08-.756.108-.556.568-.756 1.72-.756 1.8 0 2.564-.512 1.636-1.1-.912-.576-4.044-.508-4.652.104m-41.38 1.04c1.308.504.764 1.468-.828 1.468-1.58 0-1.86-.34-.992-1.212.588-.588.856-.624 1.82-.256m31.7.256c.596.6.684 2.884.14 3.74-.2.316-.828.512-1.396.432-.852-.12-1.056-.432-1.168-1.8-.196-2.384 1.124-3.672 2.424-2.372m-17.712 3.432c.072.384-.196.828-.6.98-1.124.432-2.336-.132-2.336-1.092 0-.712.244-.84 1.4-.728.876.084 1.452.4 1.536.84m31.164-.516c.524.332.528.504.04 1.096-.824.992-2.356.672-2.524-.528-.112-.772.068-.972.864-.968.548.004 1.28.184 1.62.4" fill="#6c3"/><path d="m350.372 74.6h10.204" stroke="#cbcbcb" stroke-linecap="round" stroke-linejoin="round" stroke-width="14.76"/><path d="m360.008 74.6h-9.072" stroke="#2c2c2c" stroke-linecap="round" stroke-linejoin="round" stroke-width="7.92"/><path d="m350.372 156.68h10.204" stroke="#cbcbcb" stroke-linecap="round" stroke-linejoin="round" stroke-width="14.76"/><path d="m360.008 156.68h-9.072" stroke="#2c2c2c" stroke-linecap="round" stroke-linejoin="round" stroke-width="7.92"/><path d="m332.24 142.96c0-4.04-3.32-7.36-7.4-7.36-4.04 0-7.36 3.32-7.36 7.36 0 4.08 3.32 7.4 7.36 7.4 4.08 0 7.4-3.32 7.4-7.4" fill="#cbcbcb"/><path d="m329.96 142.96c0-2.8-2.28-5.08-5.12-5.08-2.8 0-5.08 2.28-5.08 5.08 0 2.84 2.28 5.12 5.08 5.12 2.84 0 5.12-2.28 5.12-5.12" fill="#2c2c2c"/><path d="m332.24 88.08c0-4.08-3.32-7.36-7.4-7.36-4.04 0-7.36 3.28-7.36 7.36s3.32 7.36 7.36 7.36c4.08 0 7.4-3.28 7.4-7.36" fill="#cbcbcb"/><path d="m329.96 88.08c0-2.8-2.28-5.12-5.12-5.12-2.8 0-5.08 2.32-5.08 5.12s2.28 5.12 5.08 5.12c2.84 0 5.12-2.32 5.12-5.12" fill="#2c2c2c"/><path d="m25.16 14.84c0-5.64-4.56-10.2-10.2-10.2s-10.2 4.56-10.2 10.2 4.56 10.2 10.2 10.2 10.2-4.56 10.2-10.2" fill="#cbcbcb"/><path d="m21.2 14.84c0-3.44-2.8-6.24-6.24-6.24s-6.24 2.8-6.24 6.24 2.8 6.24 6.24 6.24 6.24-2.8 6.24-6.24" fill="#2c2c2c"/><path d="m25.16 43.64c0-5.64-4.56-10.2-10.2-10.2s-10.2 4.56-10.2 10.2 4.56 10.2 10.2 10.2 10.2-4.56 10.2-10.2" fill="#cbcbcb"/><path d="m21.2 43.64c0-3.44-2.8-6.24-6.24-6.24s-6.24 2.8-6.24 6.24 2.8 6.24 6.24 6.24 6.24-2.8 6.24-6.24" fill="#2c2c2c"/><path d="m25.16 72.44c0-5.64-4.56-10.2-10.2-10.2s-10.2 4.56-10.2 10.2 4.56 10.2 10.2 10.2 10.2-4.56 10.2-10.2" fill="#cbcbcb"/><path d="m21.2 72.44c0-3.44-2.8-6.24-6.24-6.24s-6.24 2.8-6.24 6.24 2.8 6.24 6.24 6.24 6.24-2.8 6.24-6.24" fill="#2c2c2c"/><path d="m25.16 101.24c0-5.64-4.56-10.2-10.2-10.2s-10.2 4.56-10.2 10.2 4.56 10.2 10.2 10.2 10.2-4.56 10.2-10.2" fill="#cbcbcb"/><path d="m21.2 101.24c0-3.44-2.8-6.24-6.24-6.24s-6.24 2.8-6.24 6.24 2.8 6.24 6.24 6.24 6.24-2.8 6.24-6.24" fill="#2c2c2c"/><path d="m25.16 130.04c0-5.64-4.56-10.2-10.2-10.2s-10.2 4.56-10.2 10.2 4.56 10.2 10.2 10.2 10.2-4.56 10.2-10.2" fill="#cbcbcb"/><path d="m21.2 130.04c0-3.44-2.8-6.24-6.24-6.24s-6.24 2.8-6.24 6.24 2.8 6.24 6.24 6.24 6.24-2.8 6.24-6.24" fill="#2c2c2c"/><path d="m25.16 158.84c0-5.64-4.56-10.2-10.2-10.2s-10.2 4.56-10.2 10.2 4.56 10.2 10.2 10.2 10.2-4.56 10.2-10.2" fill="#cbcbcb"/><path d="m21.2 158.84c0-3.44-2.8-6.24-6.24-6.24s-6.24 2.8-6.24 6.24 2.8 6.24 6.24 6.24 6.24-2.8 6.24-6.24" fill="#2c2c2c"/><path d="m25.16 187.64c0-5.64-4.56-10.2-10.2-10.2s-10.2 4.56-10.2 10.2 4.56 10.2 10.2 10.2 10.2-4.56 10.2-10.2" fill="#cbcbcb"/><path d="m21.2 187.64c0-3.44-2.8-6.24-6.24-6.24s-6.24 2.8-6.24 6.24 2.8 6.24 6.24 6.24 6.24-2.8 6.24-6.24" fill="#2c2c2c"/><path d="m25.172 206.236v20.408h-20.408v-20.408z" fill="#cbcbcb"/><path d="m21.2 216.44c0-3.44-2.8-6.24-6.24-6.24s-6.24 2.8-6.24 6.24 2.8 6.24 6.24 6.24 6.24-2.8 6.24-6.24" fill="#2c2c2c"/><path d="m227.644 226.076h-19.272v-19.272h19.272z" fill="#cbcbcb"/><path d="m224.24 216.44c0-3.44-2.8-6.24-6.24-6.24s-6.24 2.8-6.24 6.24 2.8 6.24 6.24 6.24 6.24-2.8 6.24-6.24" fill="#2c2c2c"/><path d="m198.84 216.44c0-5.32-4.32-9.64-9.64-9.64s-9.64 4.32-9.64 9.64 4.32 9.64 9.64 9.64 9.64-4.32 9.64-9.64" fill="#cbcbcb"/><path d="m195.44 216.44c0-3.44-2.8-6.24-6.24-6.24s-6.24 2.8-6.24 6.24 2.8 6.24 6.24 6.24 6.24-2.8 6.24-6.24" fill="#2c2c2c"/><path d="m170.04 216.44c0-5.32-4.32-9.64-9.64-9.64s-9.64 4.32-9.64 9.64 4.32 9.64 9.64 9.64 9.64-4.32 9.64-9.64" fill="#cbcbcb"/><path d="m166.64 216.44c0-3.44-2.8-6.24-6.24-6.24s-6.24 2.8-6.24 6.24 2.8 6.24 6.24 6.24 6.24-2.8 6.24-6.24" fill="#2c2c2c"/><path d="m141.24 216.44c0-5.32-4.32-9.64-9.64-9.64s-9.64 4.32-9.64 9.64 4.32 9.64 9.64 9.64 9.64-4.32 9.64-9.64" fill="#cbcbcb"/><path d="m137.84 216.44c0-3.44-2.8-6.24-6.24-6.24s-6.24 2.8-6.24 6.24 2.8 6.24 6.24 6.24 6.24-2.8 6.24-6.24" fill="#2c2c2c"/><path d="m80.36 17.72c0-1.92-1.56-3.44-3.48-3.44s-3.44 1.52-3.44 3.44 1.52 3.44 3.44 3.44 3.48-1.52 3.48-3.44" fill="#cbcbcb"/><path d="m78.6 17.72c0-.96-.76-1.72-1.72-1.72s-1.72.76-1.72 1.72.76 1.72 1.72 1.72 1.72-.76 1.72-1.72" fill="#2c2c2c"/><path d="m73.16 127.16c0-1.92-1.56-3.44-3.48-3.44s-3.44 1.52-3.44 3.44 1.52 3.44 3.44 3.44 3.48-1.52 3.48-3.44" fill="#cbcbcb"/><path d="m71.4 127.16c0-.96-.76-1.72-1.72-1.72s-1.72.76-1.72 1.72.76 1.72 1.72 1.72 1.72-.76 1.72-1.72" fill="#2c2c2c"/><path d="m86.12 83.96c0-1.92-1.56-3.44-3.48-3.44s-3.44 1.52-3.44 3.44 1.52 3.44 3.44 3.44 3.48-1.52 3.48-3.44" fill="#cbcbcb"/><path d="m84.36 83.96c0-.96-.76-1.72-1.72-1.72s-1.72.76-1.72 1.72.76 1.72 1.72 1.72 1.72-.76 1.72-1.72" fill="#2c2c2c"/><path d="m148.04 181.88c0-1.92-1.56-3.44-3.48-3.44s-3.44 1.52-3.44 3.44 1.52 3.44 3.44 3.44 3.48-1.52 3.48-3.44" fill="#cbcbcb"/><path d="m146.28 181.88c0-.96-.76-1.72-1.72-1.72s-1.72.76-1.72 1.72.76 1.72 1.72 1.72 1.72-.76 1.72-1.72" fill="#2c2c2c"/><path d="m96.2 174.68c0-1.92-1.56-3.44-3.48-3.44s-3.44 1.52-3.44 3.44 1.52 3.44 3.44 3.44 3.48-1.52 3.48-3.44" fill="#cbcbcb"/><path d="m94.44 174.68c0-.96-.76-1.72-1.72-1.72s-1.72.76-1.72 1.72.76 1.72 1.72 1.72 1.72-.76 1.72-1.72" fill="#2c2c2c"/><path d="m64.52 104.12c0-1.92-1.56-3.44-3.48-3.44s-3.44 1.52-3.44 3.44 1.52 3.44 3.44 3.44 3.48-1.52 3.48-3.44" fill="#cbcbcb"/><path d="m62.76 104.12c0-.96-.76-1.72-1.72-1.72s-1.72.76-1.72 1.72.76 1.72 1.72 1.72 1.72-.76 1.72-1.72" fill="#2c2c2c"/><path d="m86.12 45.08c0-1.92-1.56-3.44-3.48-3.44s-3.44 1.52-3.44 3.44 1.52 3.44 3.44 3.44 3.48-1.52 3.48-3.44" fill="#cbcbcb"/><path d="m84.36 45.08c0-.96-.76-1.72-1.72-1.72s-1.72.76-1.72 1.72.76 1.72 1.72 1.72 1.72-.76 1.72-1.72" fill="#2c2c2c"/><path d="m41.48 147.32c0-1.92-1.56-3.44-3.48-3.44s-3.44 1.52-3.44 3.44 1.52 3.44 3.44 3.44 3.48-1.52 3.48-3.44" fill="#cbcbcb"/><path d="m39.72 147.32c0-.96-.76-1.72-1.72-1.72s-1.72.76-1.72 1.72.76 1.72 1.72 1.72 1.72-.76 1.72-1.72" fill="#2c2c2c"/><path d="m202.76 112.76c0-1.92-1.56-3.44-3.48-3.44s-3.44 1.52-3.44 3.44 1.52 3.44 3.44 3.44 3.48-1.52 3.48-3.44" fill="#cbcbcb"/><path d="m201 112.76c0-.96-.76-1.72-1.72-1.72s-1.72.76-1.72 1.72.76 1.72 1.72 1.72 1.72-.76 1.72-1.72" fill="#2c2c2c"/><path d="m186.92 92.6c0-1.92-1.56-3.44-3.48-3.44s-3.44 1.52-3.44 3.44 1.52 3.44 3.44 3.44 3.48-1.52 3.48-3.44" fill="#cbcbcb"/><path d="m185.16 92.6c0-.96-.76-1.72-1.72-1.72s-1.72.76-1.72 1.72.76 1.72 1.72 1.72 1.72-.76 1.72-1.72" fill="#2c2c2c"/><path d="m220.04 94.04c0-1.92-1.56-3.44-3.48-3.44s-3.44 1.52-3.44 3.44 1.52 3.44 3.44 3.44 3.48-1.52 3.48-3.44" fill="#cbcbcb"/><path d="m218.28 94.04c0-.96-.76-1.72-1.72-1.72s-1.72.76-1.72 1.72.76 1.72 1.72 1.72 1.72-.76 1.72-1.72" fill="#2c2c2c"/><path d="m220.04 135.8c0-1.92-1.56-3.44-3.48-3.44s-3.44 1.52-3.44 3.44 1.52 3.44 3.44 3.44 3.48-1.52 3.48-3.44" fill="#cbcbcb"/><path d="m218.28 135.8c0-.96-.76-1.72-1.72-1.72s-1.72.76-1.72 1.72.76 1.72 1.72 1.72 1.72-.76 1.72-1.72" fill="#2c2c2c"/><path d="m188.36 197.72c0-1.92-1.56-3.44-3.48-3.44s-3.44 1.52-3.44 3.44 1.52 3.44 3.44 3.44 3.48-1.52 3.48-3.44" fill="#cbcbcb"/><path d="m186.6 197.72c0-.96-.76-1.72-1.72-1.72s-1.72.76-1.72 1.72.76 1.72 1.72 1.72 1.72-.76 1.72-1.72" fill="#2c2c2c"/><path d="m152.36 82.52c0-1.92-1.56-3.44-3.48-3.44s-3.44 1.52-3.44 3.44 1.52 3.44 3.44 3.44 3.48-1.52 3.48-3.44" fill="#cbcbcb"/><path d="m150.6 82.52c0-.96-.76-1.72-1.72-1.72s-1.72.76-1.72 1.72.76 1.72 1.72 1.72 1.72-.76 1.72-1.72" fill="#2c2c2c"/><path d="m176.84 71c0-1.92-1.56-3.44-3.48-3.44s-3.44 1.52-3.44 3.44 1.52 3.44 3.44 3.44 3.48-1.52 3.48-3.44" fill="#cbcbcb"/><path d="m175.08 71c0-.96-.76-1.72-1.72-1.72s-1.72.76-1.72 1.72.76 1.72 1.72 1.72 1.72-.76 1.72-1.72" fill="#2c2c2c"/><path d="m175.4 181.88c0-1.92-1.56-3.44-3.48-3.44s-3.44 1.52-3.44 3.44 1.52 3.44 3.44 3.44 3.48-1.52 3.48-3.44" fill="#cbcbcb"/><path d="m173.64 181.88c0-.96-.76-1.72-1.72-1.72s-1.72.76-1.72 1.72.76 1.72 1.72 1.72 1.72-.76 1.72-1.72" fill="#2c2c2c"/><path d="m156.68 128.6c0-1.92-1.56-3.44-3.48-3.44s-3.44 1.52-3.44 3.44 1.52 3.44 3.44 3.44 3.48-1.52 3.48-3.44" fill="#cbcbcb"/><path d="m154.92 128.6c0-.96-.76-1.72-1.72-1.72s-1.72.76-1.72 1.72.76 1.72 1.72 1.72 1.72-.76 1.72-1.72" fill="#2c2c2c"/><path d="m132.2 23.48c0-1.92-1.56-3.44-3.48-3.44s-3.44 1.52-3.44 3.44 1.52 3.44 3.44 3.44 3.48-1.52 3.48-3.44" fill="#cbcbcb"/><path d="m130.44 23.48c0-.96-.76-1.72-1.72-1.72s-1.72.76-1.72 1.72.76 1.72 1.72 1.72 1.72-.76 1.72-1.72" fill="#2c2c2c"/><path d="m77.48 92.6c0-1.92-1.56-3.44-3.48-3.44s-3.44 1.52-3.44 3.44 1.52 3.44 3.44 3.44 3.48-1.52 3.48-3.44" fill="#cbcbcb"/><path d="m75.72 92.6c0-.96-.76-1.72-1.72-1.72s-1.72.76-1.72 1.72.76 1.72 1.72 1.72 1.72-.76 1.72-1.72" fill="#2c2c2c"/><path d="m172.52 16.28c0-1.92-1.56-3.44-3.48-3.44s-3.44 1.52-3.44 3.44 1.52 3.44 3.44 3.44 3.48-1.52 3.48-3.44" fill="#cbcbcb"/><path d="m170.76 16.28c0-.96-.76-1.72-1.72-1.72s-1.72.76-1.72 1.72.76 1.72 1.72 1.72 1.72-.76 1.72-1.72" fill="#2c2c2c"/><path d="m119.24 196.28c0-1.92-1.56-3.44-3.48-3.44s-3.44 1.52-3.44 3.44 1.52 3.44 3.44 3.44 3.48-1.52 3.48-3.44" fill="#cbcbcb"/><path d="m117.48 196.28c0-.96-.76-1.72-1.72-1.72s-1.72.76-1.72 1.72.76 1.72 1.72 1.72 1.72-.76 1.72-1.72" fill="#2c2c2c"/><path d="m293.48 30.68c0-1.92-1.56-3.44-3.48-3.44s-3.44 1.52-3.44 3.44 1.52 3.44 3.44 3.44 3.48-1.52 3.48-3.44" fill="#cbcbcb"/><path d="m291.72 30.68c0-.96-.76-1.72-1.72-1.72s-1.72.76-1.72 1.72.76 1.72 1.72 1.72 1.72-.76 1.72-1.72" fill="#2c2c2c"/><path d="m.568 230.84v-230.4h374.4" stroke="#984c98" stroke-linecap="round" stroke-linejoin="round" stroke-width="2.88"/><path d="m374.968 230.84h-374.4" stroke="#984c98" stroke-linecap="round" stroke-linejoin="round" stroke-width="2.88"/><path d="m374.968.44v230.4" stroke="#984c98" stroke-linecap="round" stroke-linejoin="round" stroke-width="2.88"/></g></g></svg>