<svg height="652" viewBox="0 0 1100 652" width="1100" xmlns="http://www.w3.org/2000/svg"><g fill="none" fill-rule="evenodd"><rect xmlns="http://www.w3.org/2000/svg" x="0" y="0" width="1100" height="652" fill="#ffffff"/><path d="m0 651.5h1100v-651.5h-1100z" fill="#fff"/><path d="m20 631h1060v-610h-1060z" stroke="#870000" stroke-linecap="square"/><path d="m10 641h1080v-630h-1080z" stroke="#870000" stroke-linecap="square"/><path d="m636 631h444v-80h-444z" stroke="#870000" stroke-linecap="square"/><path d="m636.1 590.25h443.53" stroke="#870000" stroke-linecap="round" stroke-linejoin="round"/><path d="m740.63 610.25h339" stroke="#870000" stroke-linecap="round" stroke-linejoin="round"/><path d="m1000.61 551.07.02 39.18" stroke="#870000" stroke-linecap="round" stroke-linejoin="round"/><path d="m1000.63 590.25v20" stroke="#870000" stroke-linecap="round" stroke-linejoin="round"/><path d="m740.63 590.25v40" stroke="#870000" stroke-linecap="round" stroke-linejoin="round"/><path d="m216 21v-10m0 620v10m196-620v-10m0 620v10m196-620v-10m0 620v10m196-620v-10m0 620v10m196-620v-10m0 620v10m-980-424h-10m1070 0h10m-1070 196h-10m1070 0h10m-1070 196h-10m1070 0h10" stroke="#870000" stroke-linecap="round" stroke-linejoin="round"/><text fill="#9c1200" font-family="Verdana" font-size="9"><tspan x="11.5" y="117.062012">A</tspan></text><text fill="#9c1200" font-family="Verdana" font-size="9"><tspan x="1081.5" y="117.062012">A</tspan></text><text fill="#9c1200" font-family="Verdana" font-size="9"><tspan x="11.5" y="313.062012">B</tspan></text><text fill="#9c1200" font-family="Verdana" font-size="9"><tspan x="1081.5" y="313.062012">B</tspan></text><text fill="#9c1200" font-family="Verdana" font-size="9"><tspan x="11.5" y="509.062012">C</tspan></text><text fill="#9c1200" font-family="Verdana" font-size="9"><tspan x="1081.5" y="509.062012">C</tspan></text><text fill="#9c1200" font-family="Verdana" font-size="9"><tspan x="118" y="17.562012">1</tspan></text><text fill="#9c1200" font-family="Verdana" font-size="9"><tspan x="118" y="637.562012">1</tspan></text><text fill="#9c1200" font-family="Verdana" font-size="9"><tspan x="314" y="17.562012">2</tspan></text><text fill="#9c1200" font-family="Verdana" font-size="9"><tspan x="314" y="637.562012">2</tspan></text><text fill="#9c1200" font-family="Verdana" font-size="9"><tspan x="510" y="17.562012">3</tspan></text><text fill="#9c1200" font-family="Verdana" font-size="9"><tspan x="510" y="637.562012">3</tspan></text><text fill="#9c1200" font-family="Verdana" font-size="9"><tspan x="706" y="17.562012">4</tspan></text><text fill="#9c1200" font-family="Verdana" font-size="9"><tspan x="706" y="637.562012">4</tspan></text><text fill="#9c1200" font-family="Verdana" font-size="9"><tspan x="902" y="17.562012">5</tspan></text><text fill="#9c1200" font-family="Verdana" font-size="9"><tspan x="902" y="637.562012">5</tspan></text><text fill="#9c1200" font-family="Verdana" font-size="11"><tspan x="641" y="561.631348">TITLE:</tspan></text><text fill="#0433ff" font-family="Verdana" font-size="13"><tspan x="698.62" y="573.790684">USB Serial</tspan></text><text fill="#9c1200" font-family="Verdana" font-size="11"><tspan x="1005.62" y="574.881348">REV:</tspan></text><text fill="#0433ff" font-family="Verdana" font-size="12"><tspan x="1043.62" y="574.666016">1.2</tspan></text><text fill="#9c1200" font-family="Verdana" font-size="11"><tspan x="745.62" y="623.631348">Date:</tspan></text><text fill="#0433ff" font-family="Verdana" font-size="12"><tspan x="792.62" y="623.896016">2020-04-05</tspan></text><text fill="#9c1200" font-family="Verdana" font-size="11"><tspan x="1004.62" y="603.631348">Sheet:</tspan></text><text fill="#0433ff" font-family="Verdana" font-size="12"><tspan x="1049.62" y="603.896016">1/1</tspan></text><text fill="#9c1200" font-family="Verdana" font-size="11"><tspan x="884.62" y="623.881348">Drawn By:</tspan></text><text fill="#0433ff" font-family="Verdana" font-size="12"><tspan x="949.63" y="623.666016">manuelbl</tspan></text><text fill="#9c1200" font-family="Verdana" font-size="11"><tspan x="745.62" y="601.881348">Company:</tspan></text><text fill="#0433ff" font-family="Verdana" font-size="12"><tspan x="812.25" y="601.776016">Codecrete</tspan></text><path d="m691.394 612.435c.141-.106.313-.158.51-.158.264 0 .547.093.848.275s.59.468.866.861l1.069-1.634c-.332-.457-.743-.814-1.241-1.066s-1.026-.375-1.579-.375c-.786 0-1.474.229-2.052.685-.577.457-.866 1.055-.866 1.781 0 .521.184 1.019.553 1.487.264.334.743.738 1.431 1.207.596.404.965.685 1.1.843s.203.311.203.463c0 .187-.086.345-.264.486-.179.135-.412.205-.707.205-.743 0-1.431-.393-2.058-1.183l-1.382 1.534c.614.621 1.173 1.054 1.671 1.289.497.234 1.056.351 1.665.351 1.056 0 1.861-.287 2.42-.861s.836-1.189.836-1.833c0-.492-.136-.943-.406-1.364-.27-.416-.835-.92-1.695-1.506-.541-.369-.86-.615-.965-.743-.11-.129-.166-.258-.166-.387-.006-.135.068-.252.209-.357z" fill="#5487ff"/><path d="m676.024 612.025h-4.325l.356-2.442s4.589-.006 4.614-.006c.602 0 1.093-.469 1.093-1.043s-.491-1.042-1.093-1.042c-.019 0-6.66 0-6.66 0l-1.695 11.772h6.954c.584-.012 1.057-.469 1.057-1.025 0-.568-.486-1.031-1.082-1.031-.024 0-4.312.006-4.312.006l.454-3.122s4.405.006 4.442.006c.602 0 1.094-.468 1.094-1.042.012-.522-.381-.949-.897-1.031z" fill="#5487ff"/><path d="m713.922 607.498c-.019 0-6.66 0-6.66 0l-1.683 11.76h6.96c.584-.012 1.057-.469 1.057-1.025 0-.568-.485-1.031-1.081-1.031-.025 0-4.313.006-4.313.006l.455-3.122s4.405.006 4.448.006c.602 0 1.093-.468 1.093-1.042 0-.516-.393-.943-.909-1.025h-4.325l.356-2.442s4.589-.006 4.614-.006c.602 0 1.093-.469 1.093-1.043-.012-.568-.497-1.036-1.105-1.036z" fill="#5487ff"/><path d="m726.35 613.132c0-1.154-.283-2.179-.842-3.063-.559-.885-1.284-1.535-2.181-1.945-.897-.415-2.255-.62-4.091-.62h-1.954l-1.683 11.76h3.833c1.61 0 2.869-.229 3.772-.686.903-.456 1.659-1.183 2.255-2.172.596-.996.891-2.085.891-3.274zm-3.035 2.43c-.449.644-1.038 1.101-1.776 1.365-.528.187-1.376.281-2.549.281h-.762l1.087-7.637h.584c.952 0 1.714.141 2.285.428.572.287 1.014.691 1.333 1.218.314.527.473 1.177.473 1.956-.006.943-.227 1.745-.675 2.389z" fill="#5487ff"/><path d="m735.472 612.997-1.37.72c-.11.949-.958 1.681-1.978 1.681-1.099 0-1.99-.849-1.99-1.897 0-1.049.891-1.898 1.99-1.898.424 0 .817.129 1.137.34l1.701-.896-.921-3.526h-1.947l-6.635 11.713h2.482l1.4-2.495h4.878l.651 2.495h2.236z" fill="#5487ff"/><path d="m731.393 613.454c0 .404.344.732.768.732s.768-.328.768-.732-.344-.732-.768-.732-.768.328-.768.732z" fill="#5487ff"/><path d="m686.056 611.931h-.768l-.08-.14c-.313-.475-.707-.832-1.18-1.078-.479-.246-1.235-.369-1.8-.369-.841 0-1.646.217-2.414.65-.768.434-1.382 1.037-1.837 1.816-.454.773-.688 1.593-.688 2.448 0 1.124.356 2.108 1.069 2.957s1.677 1.271 2.887 1.271c.529 0 1.002-.082 1.426-.258.424-.169.878-.468 1.363-.901 0 0 .572.474.578.468.356.269.799.439 1.278.469h.221l.031-.252.78-6.261c-.006 0-.006 0-.012 0 0-.451-.381-.814-.854-.82zm-1.794 4.199c-.277.498-.621.867-1.032 1.101-.412.235-.891.352-1.444.352-.663 0-1.204-.205-1.628-.627-.424-.416-.633-.966-.633-1.646 0-.884.277-1.604.836-2.167.559-.562 1.235-.837 2.033-.837.688 0 1.241.211 1.659.627.418.421.626.972.626 1.663 0 .521-.141 1.037-.417 1.534z" fill="#5487ff"/><path d="m660.837 608.64c-.46-1.166-1.21-2.214-2.199-3.063-1.517-1.3-3.483-2.021-5.529-2.021-1.769 0-3.459.527-4.884 1.523-.688.48-1.284 1.048-1.775 1.693-.307-.041-.621-.065-.94-.065-1.763 0-3.428.656-4.675 1.845s-1.935 2.77-1.935 4.457c0 1.563.608 3.063 1.707 4.222.873.92 2.003 1.57 3.25 1.874.541 1.535 2.064 2.642 3.852 2.642 2.242 0 4.067-1.74 4.067-3.877 0-.123-.006-.252-.018-.375l5.707-2.858-1.247-2.062-5.456 2.73c-.743-.809-1.837-1.318-3.053-1.318-1.763 0-3.268 1.077-3.833 2.577-1.438-.604-2.445-1.968-2.445-3.561 0-2.144 1.824-3.889 4.079-3.889.792 0 1.536.217 2.162.592.756-2.173 2.906-3.743 5.437-3.743 2.949 0 5.369 2.12 5.695 4.844.104-.012.209-.018.313-.018 1.763 0 3.195 1.365 3.195 3.046 0 1.593-1.284 2.899-2.918 3.033h-1.825c-.08-.017-.166-.023-.252-.023-.706 0-1.278.544-1.278 1.218 0 .638.516 1.16 1.174 1.212v.012h2.181.11l.111-.012c1.425-.117 2.746-.732 3.717-1.739.976-1.013 1.517-2.325 1.517-3.701 0-2.425-1.69-4.498-4.012-5.195zm-13.128 7.73c.866 0 1.573.674 1.573 1.5 0 .825-.707 1.499-1.573 1.499s-1.573-.674-1.573-1.499c0-.826.707-1.5 1.573-1.5z" fill="#5487ff"/><path d="m699.81 615.72-1.775-5.159h-2.199l2.568 7.514-2.593 4.369h2.365l7.17-11.883h-2.415" fill="#5487ff"/><path d="m502 130h116c1.105 0 2 .895 2 2v110c0 1.105-1.105 2-2 2h-116c-1.105 0-2-1.105-2-2v-110c0-1.105 1.105-2 2-2" stroke="#870000" stroke-linecap="square"/><path d="m506.5 135c0-.83-.67-1.5-1.5-1.5s-1.5.67-1.5 1.5.67 1.5 1.5 1.5 1.5-.67 1.5-1.5" fill="#870000"/><path d="m506.5 135c0-.83-.67-1.5-1.5-1.5s-1.5.67-1.5 1.5.67 1.5 1.5 1.5 1.5-.67 1.5-1.5" stroke="#870000" stroke-linecap="square"/><path d="m506.5 135c0-.83-.67-1.5-1.5-1.5s-1.5.67-1.5 1.5.67 1.5 1.5 1.5 1.5-.67 1.5-1.5" fill="#870000"/><path d="m506.5 135c0-.83-.67-1.5-1.5-1.5s-1.5.67-1.5 1.5.67 1.5 1.5 1.5 1.5-.67 1.5-1.5" stroke="#870000" stroke-linecap="square"/><text fill="#011993" font-family="ArialMT, Arial" font-size="9"><tspan x="554.03" y="124.945312">STM32F042F6P6</tspan></text><text fill="#011993" font-family="ArialMT, Arial" font-size="9"><tspan x="554.03" y="115.885312">U1</tspan></text><text fill="#0433ff" font-family="Verdana" font-size="9"><tspan x="503.7" y="144.062012">PB8-BOOT0</tspan></text><text fill="#0433ff" font-family="Verdana" font-size="9"><tspan x="493.79" y="139.062012">1</tspan></text><path d="m490 142h10" stroke="#870000" stroke-linecap="round" stroke-linejoin="round"/><text fill="#0433ff" font-family="Verdana" font-size="9"><tspan x="503.7" y="154.062012">PF0-OSCIN</tspan></text><text fill="#0433ff" font-family="Verdana" font-size="9"><tspan x="493.79" y="149.062012">2</tspan></text><path d="m490 152h10" stroke="#870000" stroke-linecap="round" stroke-linejoin="round"/><text fill="#0433ff" font-family="Verdana" font-size="9"><tspan x="503.7" y="164.062012">PF1-OSCOUT</tspan></text><text fill="#0433ff" font-family="Verdana" font-size="9"><tspan x="493.79" y="159.062012">3</tspan></text><path d="m490 162h10" stroke="#870000" stroke-linecap="round" stroke-linejoin="round"/><text fill="#0433ff" font-family="Verdana" font-size="9"><tspan x="503.7" y="174.062012">NRST</tspan></text><text fill="#0433ff" font-family="Verdana" font-size="9"><tspan x="493.79" y="169.062012">4</tspan></text><path d="m490 172h10" stroke="#870000" stroke-linecap="round" stroke-linejoin="round"/><text fill="#ff2600" font-family="Verdana" font-size="9"><tspan x="503.7" y="184.062012">VDDA</tspan></text><text fill="#ff2600" font-family="Verdana" font-size="9"><tspan x="493.79" y="179.062012">5</tspan></text><path d="m490 182h10" stroke="#f00" stroke-linecap="round" stroke-linejoin="round"/><text fill="#0433ff" font-family="Verdana" font-size="9"><tspan x="503.7" y="194.062012">PA0</tspan></text><text fill="#0433ff" font-family="Verdana" font-size="9"><tspan x="493.79" y="189.062012">6</tspan></text><path d="m490 192h10" stroke="#870000" stroke-linecap="round" stroke-linejoin="round"/><text fill="#0433ff" font-family="Verdana" font-size="9"><tspan x="503.7" y="204.062012">PA1</tspan></text><text fill="#0433ff" font-family="Verdana" font-size="9"><tspan x="493.79" y="199.062012">7</tspan></text><path d="m490 202h10" stroke="#870000" stroke-linecap="round" stroke-linejoin="round"/><text fill="#0433ff" font-family="Verdana" font-size="9"><tspan x="503.7" y="214.062012">PA2</tspan></text><text fill="#0433ff" font-family="Verdana" font-size="9"><tspan x="493.79" y="209.062012">8</tspan></text><path d="m490 212h10" stroke="#870000" stroke-linecap="round" stroke-linejoin="round"/><text fill="#0433ff" font-family="Verdana" font-size="9"><tspan x="503.7" y="224.062012">PA3</tspan></text><text fill="#0433ff" font-family="Verdana" font-size="9"><tspan x="493.79" y="219.062012">9</tspan></text><path d="m490 222h10" stroke="#870000" stroke-linecap="round" stroke-linejoin="round"/><text fill="#0433ff" font-family="Verdana" font-size="9"><tspan x="503.7" y="234.062012">PA4</tspan></text><text fill="#0433ff" font-family="Verdana" font-size="9"><tspan x="488.07" y="229.062012">10</tspan></text><path d="m490 232h10" stroke="#870000" stroke-linecap="round" stroke-linejoin="round"/><text fill="#0433ff" font-family="Verdana" font-size="9"><tspan x="599.01" y="234.062012">PA5</tspan></text><text fill="#0433ff" font-family="Verdana" font-size="9"><tspan x="620.5" y="229.062012">11</tspan></text><path d="m630 232h-10" stroke="#870000" stroke-linecap="round" stroke-linejoin="round"/><text fill="#0433ff" font-family="Verdana" font-size="9"><tspan x="599.01" y="224.062012">PA6</tspan></text><text fill="#0433ff" font-family="Verdana" font-size="9"><tspan x="620.5" y="219.062012">12</tspan></text><path d="m630 222h-10" stroke="#870000" stroke-linecap="round" stroke-linejoin="round"/><text fill="#0433ff" font-family="Verdana" font-size="9"><tspan x="599.01" y="214.062012">PA7</tspan></text><text fill="#0433ff" font-family="Verdana" font-size="9"><tspan x="620.5" y="209.062012">13</tspan></text><path d="m630 212h-10" stroke="#870000" stroke-linecap="round" stroke-linejoin="round"/><text fill="#0433ff" font-family="Verdana" font-size="9"><tspan x="598.99" y="204.062012">PB1</tspan></text><text fill="#0433ff" font-family="Verdana" font-size="9"><tspan x="620.5" y="199.062012">14</tspan></text><path d="m630 202h-10" stroke="#870000" stroke-linecap="round" stroke-linejoin="round"/><text fill="#000" font-family="Verdana" font-size="9"><tspan x="597.86" y="194.062012">VSS</tspan></text><text fill="#000" font-family="Verdana" font-size="9"><tspan x="620.5" y="189.062012">15</tspan></text><path d="m630 192h-10" stroke="#000" stroke-linecap="round" stroke-linejoin="round"/><text fill="#ff2600" font-family="Verdana" font-size="9"><tspan x="596.29" y="184.062012">VDD</tspan></text><text fill="#ff2600" font-family="Verdana" font-size="9"><tspan x="620.5" y="179.062012">16</tspan></text><path d="m630 182h-10" stroke="#f00" stroke-linecap="round" stroke-linejoin="round"/><text fill="#0433ff" font-family="Verdana" font-size="9"><tspan x="599.01" y="174.062012">PA9</tspan></text><text fill="#0433ff" font-family="Verdana" font-size="9"><tspan x="620.5" y="169.062012">17</tspan></text><path d="m630 172h-10" stroke="#870000" stroke-linecap="round" stroke-linejoin="round"/><text fill="#0433ff" font-family="Verdana" font-size="9"><tspan x="593.3" y="164.062012">PA10</tspan></text><text fill="#0433ff" font-family="Verdana" font-size="9"><tspan x="620.5" y="159.062012">18</tspan></text><path d="m630 162h-10" stroke="#870000" stroke-linecap="round" stroke-linejoin="round"/><text fill="#0433ff" font-family="Verdana" font-size="9"><tspan x="593.3" y="154.062012">PA13</tspan></text><text fill="#0433ff" font-family="Verdana" font-size="9"><tspan x="620.5" y="149.062012">19</tspan></text><path d="m630 152h-10" stroke="#870000" stroke-linecap="round" stroke-linejoin="round"/><text fill="#0433ff" font-family="Verdana" font-size="9"><tspan x="593.3" y="144.062012">PA14</tspan></text><text fill="#0433ff" font-family="Verdana" font-size="9"><tspan x="620.5" y="139.062012">20</tspan></text><path d="m630 142h-10" stroke="#870000" stroke-linecap="round" stroke-linejoin="round"/><path d="m297 219h16" stroke="#870000" stroke-linecap="round" stroke-linejoin="round"/><path d="m297 215h16" stroke="#870000" stroke-linecap="round" stroke-linejoin="round"/><path d="m305 222v-3" stroke="#870000" stroke-linecap="round" stroke-linejoin="round"/><path d="m305 215v-3" stroke="#870000" stroke-linecap="round" stroke-linejoin="round"/><text fill="#011993" font-family="ArialMT, Arial" font-size="9"><tspan x="315" y="227.245313">100nF</tspan></text><text fill="#011993" font-family="ArialMT, Arial" font-size="9"><tspan x="315" y="218.175313">C1</tspan></text><path d="m305 232v-10" stroke="#000" stroke-linecap="round" stroke-linejoin="round"/><path d="m305 202v10" stroke="#000" stroke-linecap="round" stroke-linejoin="round"/><path d="m97 219h16" stroke="#870000" stroke-linecap="round" stroke-linejoin="round"/><path d="m97 215h16" stroke="#870000" stroke-linecap="round" stroke-linejoin="round"/><path d="m105 222v-3" stroke="#870000" stroke-linecap="round" stroke-linejoin="round"/><path d="m105 215v-3" stroke="#870000" stroke-linecap="round" stroke-linejoin="round"/><text fill="#011993" font-family="ArialMT, Arial" font-size="9"><tspan x="115" y="227.245313">4.7uF</tspan></text><text fill="#011993" font-family="ArialMT, Arial" font-size="9"><tspan x="115" y="218.175313">C2</tspan></text><path d="m105 232v-10" stroke="#000" stroke-linecap="round" stroke-linejoin="round"/><path d="m105 202v10" stroke="#000" stroke-linecap="round" stroke-linejoin="round"/><path d="m247 219h16" stroke="#870000" stroke-linecap="round" stroke-linejoin="round"/><path d="m247 215h16" stroke="#870000" stroke-linecap="round" stroke-linejoin="round"/><path d="m255 222v-3" stroke="#870000" stroke-linecap="round" stroke-linejoin="round"/><path d="m255 215v-3" stroke="#870000" stroke-linecap="round" stroke-linejoin="round"/><text fill="#011993" font-family="ArialMT, Arial" font-size="9"><tspan x="265" y="227.245313">4.7uF</tspan></text><text fill="#011993" font-family="ArialMT, Arial" font-size="9"><tspan x="265" y="218.175313">C3</tspan></text><path d="m255 232v-10" stroke="#000" stroke-linecap="round" stroke-linejoin="round"/><path d="m255 202v10" stroke="#000" stroke-linecap="round" stroke-linejoin="round"/><path d="m647 352h36c1.105 0 2 .895 2 2v46c0 1.105-1.105 2-2 2h-36c-1.105 0-2-1.105-2-2v-46c0-1.105 1.105-2 2-2" stroke="#870000" stroke-linecap="square"/><path d="m651.5 357c0-.83-.67-1.5-1.5-1.5s-1.5.67-1.5 1.5.67 1.5 1.5 1.5 1.5-.67 1.5-1.5" fill="#870000"/><path d="m651.5 357c0-.83-.67-1.5-1.5-1.5s-1.5.67-1.5 1.5.67 1.5 1.5 1.5 1.5-.67 1.5-1.5" stroke="#870000" stroke-linecap="square"/><text fill="#011993" font-family="ArialMT, Arial" font-size="9"><tspan x="649.66" y="346.945312">SWD</tspan></text><text fill="#011993" font-family="ArialMT, Arial" font-size="9"><tspan x="649.66" y="337.885312">CN1</tspan></text><text fill="#0433ff" font-family="Verdana" font-size="9"><tspan x="648.7" y="364.062012">1</tspan></text><text fill="#0433ff" font-family="Verdana" font-size="9"><tspan x="638.78" y="359.062012">1</tspan></text><path d="m635 362h10" stroke="#870000" stroke-linecap="round" stroke-linejoin="round"/><text fill="#0433ff" font-family="Verdana" font-size="9"><tspan x="648.7" y="374.062012">2</tspan></text><text fill="#0433ff" font-family="Verdana" font-size="9"><tspan x="638.78" y="369.062012">2</tspan></text><path d="m635 372h10" stroke="#870000" stroke-linecap="round" stroke-linejoin="round"/><text fill="#0433ff" font-family="Verdana" font-size="9"><tspan x="648.7" y="384.062012">3</tspan></text><text fill="#0433ff" font-family="Verdana" font-size="9"><tspan x="638.78" y="379.062012">3</tspan></text><path d="m635 382h10" stroke="#870000" stroke-linecap="round" stroke-linejoin="round"/><text fill="#0433ff" font-family="Verdana" font-size="9"><tspan x="648.7" y="394.062012">4</tspan></text><text fill="#0433ff" font-family="Verdana" font-size="9"><tspan x="638.78" y="389.062012">4</tspan></text><path d="m635 392h10" stroke="#870000" stroke-linecap="round" stroke-linejoin="round"/><path d="m162 152h36c1.105 0 2 .895 2 2v56c0 1.105-1.105 2-2 2h-36c-1.105 0-2-1.105-2-2v-56c0-1.105 1.105-2 2-2" stroke="#000" stroke-linecap="square"/><text fill="#011993" font-family="ArialMT, Arial" font-size="9"><tspan x="174.03" y="146.535312">XC6206P332MR</tspan></text><text fill="#011993" font-family="ArialMT, Arial" font-size="9"><tspan x="174.03" y="137.535312">U2</tspan></text><text fill="#0433ff" font-family="Verdana" font-size="9"><tspan x="177.36" y="203.062012">GND</tspan></text><text fill="#0433ff" font-family="Verdana" font-size="9"><tspan x="205" y="199.062012">1</tspan></text><path d="m220 202h-20" stroke="#870000" stroke-linecap="round" stroke-linejoin="round"/><text fill="#0433ff" font-family="Verdana" font-size="9"><tspan x="162" y="183.062012">Vin</tspan></text><text fill="#0433ff" font-family="Verdana" font-size="9"><tspan x="149.28" y="179.062012">3</tspan></text><path d="m140 182h20" stroke="#870000" stroke-linecap="round" stroke-linejoin="round"/><text fill="#0433ff" font-family="Verdana" font-size="9"><tspan x="177.16" y="163.062012">Vout</tspan></text><text fill="#0433ff" font-family="Verdana" font-size="9"><tspan x="205" y="159.062012">2</tspan></text><path d="m220 162h-20" stroke="#870000" stroke-linecap="round" stroke-linejoin="round"/><path d="m274 418 7 7" stroke="#870000" stroke-linecap="round" stroke-linejoin="round"/><path d="m270 422 7 7" stroke="#870000" stroke-linecap="round" stroke-linejoin="round"/><path d="m270 420v-16" stroke="#870000" stroke-linecap="round" stroke-linejoin="round"/><path d="m281 425-4-2 2-2z" fill="#870000"/><path d="m281 425-4-2 2-2z" stroke="#870000" stroke-linecap="round" stroke-linejoin="round"/><path d="m277 429-4-2 2-2z" fill="#870000"/><path d="m277 429-4-2 2-2z" stroke="#870000" stroke-linecap="round" stroke-linejoin="round"/><path d="m260 406 10 6-10 7z" fill="#870000"/><path d="m260 406 10 6-10 7z" stroke="#870000" stroke-linecap="round" stroke-linejoin="round"/><text fill="#011993" font-family="ArialMT, Arial" font-size="9"><tspan x="253.33" y="398.945312">0805G (Green)</tspan></text><text fill="#011993" font-family="ArialMT, Arial" font-size="9"><tspan x="253.33" y="389.885312">LED1</tspan></text><path d="m285 412h-15" stroke="#870000" stroke-linecap="round" stroke-linejoin="round"/><path d="m245 412h15" stroke="#870000" stroke-linecap="round" stroke-linejoin="round"/><path d="m274 468 7 7" stroke="#870000" stroke-linecap="round" stroke-linejoin="round"/><path d="m270 472 7 7" stroke="#870000" stroke-linecap="round" stroke-linejoin="round"/><path d="m270 470v-16" stroke="#870000" stroke-linecap="round" stroke-linejoin="round"/><path d="m281 475-4-2 2-2z" fill="#870000"/><path d="m281 475-4-2 2-2z" stroke="#870000" stroke-linecap="round" stroke-linejoin="round"/><path d="m277 479-4-2 2-2z" fill="#870000"/><path d="m277 479-4-2 2-2z" stroke="#870000" stroke-linecap="round" stroke-linejoin="round"/><path d="m260 456 10 6-10 7z" fill="#870000"/><path d="m260 456 10 6-10 7z" stroke="#870000" stroke-linecap="round" stroke-linejoin="round"/><text fill="#011993" font-family="ArialMT, Arial" font-size="9"><tspan x="253.33" y="448.945312">0805G (Green)</tspan></text><text fill="#011993" font-family="ArialMT, Arial" font-size="9"><tspan x="253.33" y="439.885312">LED2</tspan></text><path d="m285 462h-15" stroke="#870000" stroke-linecap="round" stroke-linejoin="round"/><path d="m245 462h15" stroke="#870000" stroke-linecap="round" stroke-linejoin="round"/><path d="m273 518 7 7" stroke="#870000" stroke-linecap="round" stroke-linejoin="round"/><path d="m269 522 7 7" stroke="#870000" stroke-linecap="round" stroke-linejoin="round"/><path d="m270 520v-16" stroke="#870000" stroke-linecap="round" stroke-linejoin="round"/><path d="m280 525-4-2 2-2z" fill="#870000"/><path d="m280 525-4-2 2-2z" stroke="#870000" stroke-linecap="round" stroke-linejoin="round"/><path d="m276 529-4-2 2-2z" fill="#870000"/><path d="m276 529-4-2 2-2z" stroke="#870000" stroke-linecap="round" stroke-linejoin="round"/><path d="m260 506 10 6-10 7z" fill="#870000"/><path d="m260 506 10 6-10 7z" stroke="#870000" stroke-linecap="round" stroke-linejoin="round"/><text fill="#011993" font-family="ArialMT, Arial" font-size="9"><tspan x="253.33" y="498.945312">LED Red 0805</tspan></text><text fill="#011993" font-family="ArialMT, Arial" font-size="9"><tspan x="253.33" y="489.885312">LED3</tspan></text><path d="m285 512h-15" stroke="#870000" stroke-linecap="round" stroke-linejoin="round"/><path d="m245 512h15" stroke="#870000" stroke-linecap="round" stroke-linejoin="round"/><path d="m940 492c0-2.76-4.48-5-10-5s-10 2.24-10 5 4.48 5 10 5 10-2.24 10-5" stroke="#000" stroke-linecap="round" stroke-linejoin="round"/><text fill="#011993" font-family="ArialMT, Arial" font-size="9"><tspan x="915.44" y="481.945312">DCD</tspan></text><text fill="#011993" font-family="ArialMT, Arial" font-size="9"><tspan x="915.44" y="472.945312">TP1</tspan></text><path d="m910 492h10" stroke="#870000" stroke-linecap="round" stroke-linejoin="round"/><path d="m917 357h16c1.105 0 2 .895 2 2v86c0 1.105-1.105 2-2 2h-16c-1.105 0-2-1.105-2-2v-86c0-1.105 1.105-2 2-2" stroke="#870000" stroke-linecap="square"/><path d="m921.5 362c0-.83-.67-1.5-1.5-1.5s-1.5.67-1.5 1.5.67 1.5 1.5 1.5 1.5-.67 1.5-1.5" fill="#870000"/><path d="m921.5 362c0-.83-.67-1.5-1.5-1.5s-1.5.67-1.5 1.5.67 1.5 1.5 1.5 1.5-.67 1.5-1.5" stroke="#870000" stroke-linecap="square"/><text fill="#011993" font-family="ArialMT, Arial" font-size="9"><tspan x="913.03" y="351.605312">Header 1x8</tspan></text><text fill="#011993" font-family="ArialMT, Arial" font-size="9"><tspan x="913.03" y="342.605312">H1</tspan></text><text fill="#0433ff" font-family="Verdana" font-size="9"><tspan x="918.7" y="369.062012">1</tspan></text><text fill="#0433ff" font-family="Verdana" font-size="9"><tspan x="908.78" y="364.062012">1</tspan></text><path d="m905 367h10" stroke="#870000" stroke-linecap="round" stroke-linejoin="round"/><text fill="#0433ff" font-family="Verdana" font-size="9"><tspan x="918.7" y="379.062012">2</tspan></text><text fill="#0433ff" font-family="Verdana" font-size="9"><tspan x="908.78" y="374.062012">2</tspan></text><path d="m905 377h10" stroke="#870000" stroke-linecap="round" stroke-linejoin="round"/><text fill="#0433ff" font-family="Verdana" font-size="9"><tspan x="918.7" y="389.062012">3</tspan></text><text fill="#0433ff" font-family="Verdana" font-size="9"><tspan x="908.78" y="384.062012">3</tspan></text><path d="m905 387h10" stroke="#870000" stroke-linecap="round" stroke-linejoin="round"/><text fill="#0433ff" font-family="Verdana" font-size="9"><tspan x="918.7" y="399.062012">4</tspan></text><text fill="#0433ff" font-family="Verdana" font-size="9"><tspan x="908.78" y="394.062012">4</tspan></text><path d="m905 397h10" stroke="#870000" stroke-linecap="round" stroke-linejoin="round"/><text fill="#0433ff" font-family="Verdana" font-size="9"><tspan x="918.7" y="409.062012">5</tspan></text><text fill="#0433ff" font-family="Verdana" font-size="9"><tspan x="908.78" y="404.062012">5</tspan></text><path d="m905 407h10" stroke="#870000" stroke-linecap="round" stroke-linejoin="round"/><text fill="#0433ff" font-family="Verdana" font-size="9"><tspan x="918.7" y="419.062012">6</tspan></text><text fill="#0433ff" font-family="Verdana" font-size="9"><tspan x="908.78" y="414.062012">6</tspan></text><path d="m905 417h10" stroke="#870000" stroke-linecap="round" stroke-linejoin="round"/><text fill="#0433ff" font-family="Verdana" font-size="9"><tspan x="918.7" y="429.062012">7</tspan></text><text fill="#0433ff" font-family="Verdana" font-size="9"><tspan x="908.78" y="424.062012">7</tspan></text><path d="m905 427h10" stroke="#870000" stroke-linecap="round" stroke-linejoin="round"/><text fill="#0433ff" font-family="Verdana" font-size="9"><tspan x="918.7" y="439.062012">8</tspan></text><text fill="#0433ff" font-family="Verdana" font-size="9"><tspan x="908.78" y="434.062012">8</tspan></text><path d="m905 437h10" stroke="#870000" stroke-linecap="round" stroke-linejoin="round"/><path d="m190 416h20v-8h-20z" stroke="#870000" stroke-linecap="square"/><text fill="#011993" font-family="ArialMT, Arial" font-size="9"><tspan x="194.03" y="402.945312">1K</tspan></text><text fill="#011993" font-family="ArialMT, Arial" font-size="9"><tspan x="194.03" y="393.855312">R1</tspan></text><path d="m220 412h-10" stroke="#000" stroke-linecap="round" stroke-linejoin="round"/><path d="m180 412h10" stroke="#000" stroke-linecap="round" stroke-linejoin="round"/><path d="m190 466h20v-8h-20z" stroke="#870000" stroke-linecap="square"/><text fill="#011993" font-family="ArialMT, Arial" font-size="9"><tspan x="194.03" y="452.945312">1K</tspan></text><text fill="#011993" font-family="ArialMT, Arial" font-size="9"><tspan x="194.03" y="443.855312">R2</tspan></text><path d="m220 462h-10" stroke="#000" stroke-linecap="round" stroke-linejoin="round"/><path d="m180 462h10" stroke="#000" stroke-linecap="round" stroke-linejoin="round"/><path d="m190 516h20v-8h-20z" stroke="#870000" stroke-linecap="square"/><text fill="#011993" font-family="ArialMT, Arial" font-size="9"><tspan x="194.03" y="502.945312">1K</tspan></text><text fill="#011993" font-family="ArialMT, Arial" font-size="9"><tspan x="194.03" y="493.855312">R3</tspan></text><path d="m220 512h-10" stroke="#000" stroke-linecap="round" stroke-linejoin="round"/><path d="m180 512h10" stroke="#000" stroke-linecap="round" stroke-linejoin="round"/><path d="m910 207h25v-50h-25z" fill="#f3f3f3"/><path d="m910 207h25v-50h-25z" stroke="#870000" stroke-linecap="square"/><text fill="#011993" font-family="ArialMT, Arial" font-size="9"><tspan x="937" y="186.195312">micro USBFemale</tspan></text><text fill="#011993" font-family="ArialMT, Arial" font-size="9"><tspan x="937" y="177.195312">USB1</tspan></text><path d="m925 147v10" stroke="#870000" stroke-linecap="round" stroke-linejoin="round"/><text fill="#0433ff" font-family="Verdana" font-size="9"><tspan x="912" y="203.062012">V+</tspan></text><text fill="#0433ff" font-family="Verdana" font-size="9"><tspan x="899.28" y="199.062012">1</tspan></text><path d="m890 202h20" stroke="#870000" stroke-linecap="round" stroke-linejoin="round"/><text fill="#0433ff" font-family="Verdana" font-size="9"><tspan x="912" y="193.062012">D-</tspan></text><text fill="#0433ff" font-family="Verdana" font-size="9"><tspan x="899.28" y="189.062012">2</tspan></text><path d="m890 192h20" stroke="#870000" stroke-linecap="round" stroke-linejoin="round"/><text fill="#0433ff" font-family="Verdana" font-size="9"><tspan x="912" y="183.062012">D+</tspan></text><text fill="#0433ff" font-family="Verdana" font-size="9"><tspan x="899.28" y="179.062012">3</tspan></text><path d="m890 182h20" stroke="#870000" stroke-linecap="round" stroke-linejoin="round"/><text fill="#0433ff" font-family="Verdana" font-size="9"><tspan x="912" y="173.062012">ID</tspan></text><text fill="#0433ff" font-family="Verdana" font-size="9"><tspan x="899.28" y="169.062012">4</tspan></text><path d="m890 172h20" stroke="#870000" stroke-linecap="round" stroke-linejoin="round"/><text fill="#0433ff" font-family="Verdana" font-size="9"><tspan x="912" y="163.062012">V-</tspan></text><text fill="#0433ff" font-family="Verdana" font-size="9"><tspan x="899.28" y="159.062012">5</tspan></text><path d="m890 162h20" stroke="#870000" stroke-linecap="round" stroke-linejoin="round"/><text fill="#0433ff" font-family="Verdana" font-size="12"><tspan x="580" y="319.416016">SWD Header</tspan></text><text fill="#0433ff" font-family="Verdana" font-size="12"><tspan x="835" y="89.416016">USB Connector</tspan></text><text fill="#0433ff" font-family="Verdana" font-size="12"><tspan x="155" y="84.416016">Power Supply</tspan></text><text fill="#0433ff" font-family="Verdana" font-size="12"><tspan x="845" y="319.416016">Serial Header</tspan></text><text fill="#0433ff" font-family="Verdana" font-size="12"><tspan x="545" y="84.416016">MCU</tspan></text><text fill="#0433ff" font-family="Verdana" font-size="12"><tspan x="165" y="364.416016">Indicator LEDs (optional)</tspan></text><text fill="#0433ff" font-family="Times-Roman, Times" font-size="11"><tspan x="804.3" y="186">USB_DP</tspan></text><path d="m870 182-5 5h-15v-10h15z" stroke="#00f" stroke-linecap="round" stroke-linejoin="round"/><text fill="#0433ff" font-family="Times-Roman, Times" font-size="11"><tspan x="800.56" y="196">USB_DM</tspan></text><path d="m870 192-5 5h-15v-10h15z" stroke="#00f" stroke-linecap="round" stroke-linejoin="round"/><text fill="#000" font-family="Times-Roman, Times" font-size="12"><tspan x="850" y="224">+5V</tspan></text><path d="m860 227v10" stroke="#000" stroke-linecap="round" stroke-linejoin="round"/><path d="m855 227h10" stroke="#000" stroke-linecap="round" stroke-linejoin="round"/><text fill="#000" font-family="Times-Roman, Times" font-size="12"><tspan x="847" y="152">GND</tspan></text><path d="m860 137v-10" stroke="#000" stroke-linecap="round" stroke-linejoin="round"/><path d="m851 137h18" stroke="#000" stroke-linecap="round" stroke-linejoin="round"/><path d="m854 139h12" stroke="#000" stroke-linecap="round" stroke-linejoin="round"/><path d="m857 141h6" stroke="#000" stroke-linecap="round" stroke-linejoin="round"/><path d="m859 143h2" stroke="#000" stroke-linecap="round" stroke-linejoin="round"/><text fill="#0433ff" font-family="Times-Roman, Times" font-size="11"><tspan x="684.16" y="164.66">USB_DP</tspan></text><path d="m660 162 5-5h15v10h-15z" stroke="#00f" stroke-linecap="round" stroke-linejoin="round"/><text fill="#0433ff" font-family="Times-Roman, Times" font-size="11"><tspan x="682.2" y="174.66">USB_DM</tspan></text><path d="m660 172 5-5h15v10h-15z" stroke="#00f" stroke-linecap="round" stroke-linejoin="round"/><text fill="#0433ff" font-family="Times-Roman, Times" font-size="11"><tspan x="680.35" y="144.66">SWCLK</tspan></text><path d="m660 142 5-5h15v10h-15z" stroke="#00f" stroke-linecap="round" stroke-linejoin="round"/><text fill="#0433ff" font-family="Times-Roman, Times" font-size="11"><tspan x="684.14" y="156">SWDIO</tspan></text><path d="m660 152 5-5h15v10h-15z" stroke="#00f" stroke-linecap="round" stroke-linejoin="round"/><text fill="#0433ff" font-family="Times-Roman, Times" font-size="11"><tspan x="409.76" y="194.53">CTS</tspan></text><path d="m455 192-5 5h-15v-10h15z" stroke="#00f" stroke-linecap="round" stroke-linejoin="round"/><text fill="#0433ff" font-family="Times-Roman, Times" font-size="11"><tspan x="410.6" y="204.53">RTS</tspan></text><path d="m455 202-5 5h-15v-10h15z" stroke="#00f" stroke-linecap="round" stroke-linejoin="round"/><text fill="#0433ff" font-family="Times-Roman, Times" font-size="11"><tspan x="417.48" y="214.53">TX</tspan></text><path d="m455 212-5 5h-15v-10h15z" stroke="#00f" stroke-linecap="round" stroke-linejoin="round"/><text fill="#0433ff" font-family="Times-Roman, Times" font-size="11"><tspan x="417.23" y="224.53">RX</tspan></text><path d="m455 222-5 5h-15v-10h15z" stroke="#00f" stroke-linecap="round" stroke-linejoin="round"/><text fill="#000" font-family="Times-Roman, Times" font-size="12"><tspan x="95" y="109">+5V</tspan></text><path d="m105 112v10" stroke="#000" stroke-linecap="round" stroke-linejoin="round"/><path d="m100 112h10" stroke="#000" stroke-linecap="round" stroke-linejoin="round"/><text fill="#000" font-family="Times-Roman, Times" font-size="12"><tspan x="293" y="109">VCC</tspan></text><path d="m305 112v10" stroke="#000" stroke-linecap="round" stroke-linejoin="round"/><path d="m300 112h10" stroke="#000" stroke-linecap="round" stroke-linejoin="round"/><text fill="#000" font-family="Times-Roman, Times" font-size="12"><tspan x="187" y="307">GND</tspan></text><path d="m200 292v-10" stroke="#000" stroke-linecap="round" stroke-linejoin="round"/><path d="m191 292h18" stroke="#000" stroke-linecap="round" stroke-linejoin="round"/><path d="m194 294h12" stroke="#000" stroke-linecap="round" stroke-linejoin="round"/><path d="m197 296h6" stroke="#000" stroke-linecap="round" stroke-linejoin="round"/><path d="m199 298h2" stroke="#000" stroke-linecap="round" stroke-linejoin="round"/><text fill="#0433ff" font-family="Times-Roman, Times" font-size="11"><tspan x="826.24" y="371">GND</tspan></text><path d="m875 367-5 5h-15v-10h15z" stroke="#00f" stroke-linecap="round" stroke-linejoin="round"/><text fill="#0433ff" font-family="Times-Roman, Times" font-size="11"><tspan x="829.98" y="381">CTS</tspan></text><path d="m875 377-5 5h-15v-10h15z" stroke="#00f" stroke-linecap="round" stroke-linejoin="round"/><text fill="#0433ff" font-family="Times-Roman, Times" font-size="11"><tspan x="827.56" y="391">VCC</tspan></text><path d="m875 387-5 5h-15v-10h15z" stroke="#00f" stroke-linecap="round" stroke-linejoin="round"/><text fill="#0433ff" font-family="Times-Roman, Times" font-size="11"><tspan x="835.37" y="401">TX</tspan></text><path d="m875 397-5 5h-15v-10h15z" stroke="#00f" stroke-linecap="round" stroke-linejoin="round"/><text fill="#0433ff" font-family="Times-Roman, Times" font-size="11"><tspan x="834.82" y="411">RX</tspan></text><path d="m875 407-5 5h-15v-10h15z" stroke="#00f" stroke-linecap="round" stroke-linejoin="round"/><text fill="#0433ff" font-family="Times-Roman, Times" font-size="11"><tspan x="828.11" y="421">DTR</tspan></text><path d="m875 417-5 5h-15v-10h15z" stroke="#00f" stroke-linecap="round" stroke-linejoin="round"/><text fill="#0433ff" font-family="Times-Roman, Times" font-size="11"><tspan x="556.24" y="366">GND</tspan></text><path d="m605 362-5 5h-15v-10h15z" stroke="#00f" stroke-linecap="round" stroke-linejoin="round"/><text fill="#0433ff" font-family="Times-Roman, Times" font-size="11"><tspan x="541.72" y="376">SWCLK</tspan></text><path d="m605 372-5 5h-15v-10h15z" stroke="#00f" stroke-linecap="round" stroke-linejoin="round"/><text fill="#0433ff" font-family="Times-Roman, Times" font-size="11"><tspan x="544.14" y="386">SWDIO</tspan></text><path d="m605 382-5 5h-15v-10h15z" stroke="#00f" stroke-linecap="round" stroke-linejoin="round"/><text fill="#0433ff" font-family="Times-Roman, Times" font-size="11"><tspan x="557.56" y="396">VCC</tspan></text><path d="m605 392-5 5h-15v-10h15z" stroke="#00f" stroke-linecap="round" stroke-linejoin="round"/><text fill="#0433ff" font-family="Times-Roman, Times" font-size="11"><tspan x="682.56" y="186">VCC</tspan></text><path d="m660 182 5-5h15v10h-15z" stroke="#00f" stroke-linecap="round" stroke-linejoin="round"/><text fill="#0433ff" font-family="Times-Roman, Times" font-size="11"><tspan x="682.79" y="194.66">GND</tspan></text><path d="m660 192 5-5h15v10h-15z" stroke="#00f" stroke-linecap="round" stroke-linejoin="round"/><text fill="#0433ff" font-family="Times-Roman, Times" font-size="11"><tspan x="408.53" y="184.53">VCC</tspan></text><path d="m455 182-5 5h-15v-10h15z" stroke="#00f" stroke-linecap="round" stroke-linejoin="round"/><text fill="#0433ff" font-family="Times-Roman, Times" font-size="11"><tspan x="82.98" y="416">LED_RX</tspan></text><path d="m150 412-5 5h-15v-10h15z" stroke="#00f" stroke-linecap="round" stroke-linejoin="round"/><text fill="#0433ff" font-family="Times-Roman, Times" font-size="11"><tspan x="83.53" y="466">LED_TX</tspan></text><path d="m150 462-5 5h-15v-10h15z" stroke="#00f" stroke-linecap="round" stroke-linejoin="round"/><text fill="#000" font-family="Times-Roman, Times" font-size="12"><tspan x="327" y="557">GND</tspan></text><path d="m340 542v-10" stroke="#000" stroke-linecap="round" stroke-linejoin="round"/><path d="m331 542h18" stroke="#000" stroke-linecap="round" stroke-linejoin="round"/><path d="m334 544h12" stroke="#000" stroke-linecap="round" stroke-linejoin="round"/><path d="m337 546h6" stroke="#000" stroke-linecap="round" stroke-linejoin="round"/><path d="m339 548h2" stroke="#000" stroke-linecap="round" stroke-linejoin="round"/><text fill="#0433ff" font-family="Times-Roman, Times" font-size="11"><tspan x="74.51" y="516">LED_PWR</tspan></text><path d="m150 512-5 5h-15v-10h15z" stroke="#00f" stroke-linecap="round" stroke-linejoin="round"/><text fill="#0433ff" font-family="Times-Roman, Times" font-size="11"><tspan x="683.53" y="216">LED_TX</tspan></text><path d="m660 212 5-5h15v10h-15z" stroke="#00f" stroke-linecap="round" stroke-linejoin="round"/><text fill="#0433ff" font-family="Times-Roman, Times" font-size="11"><tspan x="682.98" y="226">LED_RX</tspan></text><path d="m660 222 5-5h15v10h-15z" stroke="#00f" stroke-linecap="round" stroke-linejoin="round"/><text fill="#000" font-family="Times-Roman, Times" font-size="12"><tspan x="402" y="127">GND</tspan></text><path d="m415 112v-10" stroke="#000" stroke-linecap="round" stroke-linejoin="round"/><path d="m406 112h18" stroke="#000" stroke-linecap="round" stroke-linejoin="round"/><path d="m409 114h12" stroke="#000" stroke-linecap="round" stroke-linejoin="round"/><path d="m412 116h6" stroke="#000" stroke-linecap="round" stroke-linejoin="round"/><path d="m414 118h2" stroke="#000" stroke-linecap="round" stroke-linejoin="round"/><text fill="#0433ff" font-family="Times-Roman, Times" font-size="11"><tspan x="383.01" y="156">LED_PWR</tspan></text><path d="m455 152-5 5h-15v-10h15z" stroke="#00f" stroke-linecap="round" stroke-linejoin="round"/><text fill="#0433ff" font-family="Times-Roman, Times" font-size="11"><tspan x="829.98" y="431">RTS</tspan></text><path d="m875 427-5 5h-15v-10h15z" stroke="#00f" stroke-linecap="round" stroke-linejoin="round"/><text fill="#0433ff" font-family="Times-Roman, Times" font-size="11"><tspan x="828.77" y="441">DSR</tspan></text><path d="m875 437-5 5h-15v-10h15z" stroke="#00f" stroke-linecap="round" stroke-linejoin="round"/><text fill="#0433ff" font-family="Times-Roman, Times" font-size="11"><tspan x="409.31" y="234.53">DCD</tspan></text><path d="m455 232-5 5h-15v-10h15z" stroke="#00f" stroke-linecap="round" stroke-linejoin="round"/><text fill="#0433ff" font-family="Times-Roman, Times" font-size="11"><tspan x="683.44" y="234.67">DTR</tspan></text><path d="m660 232 5-5h15v10h-15z" stroke="#00f" stroke-linecap="round" stroke-linejoin="round"/><text fill="#0433ff" font-family="Times-Roman, Times" font-size="11"><tspan x="684.1" y="204.67">DSR</tspan></text><path d="m660 202 5-5h15v10h-15z" stroke="#00f" stroke-linecap="round" stroke-linejoin="round"/><text fill="#0433ff" font-family="Times-Roman, Times" font-size="11"><tspan x="823.17" y="494.66">DCD</tspan></text><g stroke-linecap="round" stroke-linejoin="round"><path d="m870 492-5 5h-15v-10h15z" stroke="#00f"/><path d="m890 162v-45h-30v10" stroke="#008700"/><path d="m890 202v40h-30v-5" stroke="#008700"/><path d="m630 172h30" stroke="#008700"/><path d="m660 162h-30" stroke="#008700"/><path d="m455 192h35" stroke="#008700"/><path d="m490 202h-35" stroke="#008700"/><path d="m455 212h35" stroke="#008700"/><path d="m490 222h-35" stroke="#008700"/><path d="m630 142h30" stroke="#008700"/><path d="m630 152h30" stroke="#008700"/><path d="m630 182h30" stroke="#008700"/><path d="m660 192h-30" stroke="#008700"/><path d="m490 182h-35" stroke="#008700"/><path d="m220 462h25" stroke="#008700"/><path d="m220 412h25" stroke="#008700"/><path d="m150 412h30" stroke="#008700"/><path d="m150 462h30" stroke="#008700"/><path d="m285 462h55v-50h-55" stroke="#008700"/><path d="m285 512h55" stroke="#008700"/><path d="m220 512h25" stroke="#008700"/><path d="m150 512h30" stroke="#008700"/><path d="m340 532v-70" stroke="#008700"/><path d="m630 212h30" stroke="#008700"/><path d="m660 222h-30" stroke="#008700"/><path d="m220 162h35v40" stroke="#008700"/><path d="m305 202v-40h-50" stroke="#008700"/><path d="m105 122v80" stroke="#008700"/><path d="m140 182h-35" stroke="#008700"/><path d="m200 282v-25" stroke="#008700"/><path d="m220 202h5v55" stroke="#008700"/><path d="m255 232v25" stroke="#008700"/><path d="m105 232v25h200v-25" stroke="#008700"/><path d="m605 362h30" stroke="#008700"/><path d="m605 372h30" stroke="#008700"/><path d="m605 382h30" stroke="#008700"/><path d="m605 392h30" stroke="#008700"/><path d="m875 367h30" stroke="#008700"/><path d="m875 377h30" stroke="#008700"/><path d="m875 387h30" stroke="#008700"/><path d="m875 397h30" stroke="#008700"/><path d="m875 407h30" stroke="#008700"/><path d="m875 417h30" stroke="#008700"/><path d="m870 182h20" stroke="#008700"/><path d="m870 192h20" stroke="#008700"/><path d="m925 147v-30h-35" stroke="#008700"/><path d="m305 122v40" stroke="#008700"/><path d="m415 102v-10h45v50h30" stroke="#008700"/><path d="m455 152h35" stroke="#008700"/><path d="m875 427h30" stroke="#008700"/><path d="m875 437h30" stroke="#008700"/><path d="m455 232h35" stroke="#008700"/><path d="m630 232h30" stroke="#008700"/><path d="m630 202h30" stroke="#008700"/><path d="m870 492h40" stroke="#008700"/></g><path d="m307.5 162c0-1.38-1.12-2.5-2.5-2.5s-2.5 1.12-2.5 2.5 1.12 2.5 2.5 2.5 2.5-1.12 2.5-2.5" fill="#c00"/><path d="m257.5 257c0-1.38-1.12-2.5-2.5-2.5s-2.5 1.12-2.5 2.5 1.12 2.5 2.5 2.5 2.5-1.12 2.5-2.5" fill="#c00"/><path d="m342.5 462c0-1.38-1.12-2.5-2.5-2.5s-2.5 1.12-2.5 2.5 1.12 2.5 2.5 2.5 2.5-1.12 2.5-2.5" fill="#c00"/><path d="m342.5 512c0-1.38-1.12-2.5-2.5-2.5s-2.5 1.12-2.5 2.5 1.12 2.5 2.5 2.5 2.5-1.12 2.5-2.5" fill="#c00"/><path d="m107.5 182c0-1.38-1.12-2.5-2.5-2.5s-2.5 1.12-2.5 2.5 1.12 2.5 2.5 2.5 2.5-1.12 2.5-2.5" fill="#c00"/><path d="m202.5 257c0-1.38-1.12-2.5-2.5-2.5s-2.5 1.12-2.5 2.5 1.12 2.5 2.5 2.5 2.5-1.12 2.5-2.5" fill="#c00"/><path d="m227.5 257c0-1.38-1.12-2.5-2.5-2.5s-2.5 1.12-2.5 2.5 1.12 2.5 2.5 2.5 2.5-1.12 2.5-2.5" fill="#c00"/><path d="m257.5 162c0-1.38-1.12-2.5-2.5-2.5s-2.5 1.12-2.5 2.5 1.12 2.5 2.5 2.5 2.5-1.12 2.5-2.5" fill="#c00"/><path d="m892.5 117c0-1.38-1.12-2.5-2.5-2.5s-2.5 1.12-2.5 2.5 1.12 2.5 2.5 2.5 2.5-1.12 2.5-2.5" fill="#c00"/><path d="m886 168 8 8m0-8-8 8" fill="#c00"/><path d="m886 168 8 8m0-8-8 8" stroke="#008700" stroke-linecap="round" stroke-linejoin="round"/><path d="m486 158 8 8m0-8-8 8" fill="#c00"/><path d="m486 158 8 8m0-8-8 8" stroke="#008700" stroke-linecap="round" stroke-linejoin="round"/><path d="m486 168 8 8m0-8-8 8" fill="#c00"/><path d="m486 168 8 8m0-8-8 8" stroke="#008700" stroke-linecap="round" stroke-linejoin="round"/></g></svg>