<svg height="582" viewBox="0 0 882 582" width="882" xmlns="http://www.w3.org/2000/svg"><g fill="none" fill-rule="evenodd"><path d="m207 11v-10m0 570v10m196-570v-10m0 570v10m196-570v-10m0 570v10m196-570v-10m0 570v10m-784-374h-10m870 0h10m-870 196h-10m870 0h10" stroke="#800" stroke-linejoin="round"/><g fill="#800"><text font-family="Verdana" font-size="8.75" transform="translate(2 100)"><tspan x=".5" y="9">A</tspan></text><text font-family="Verdana" font-size="8.75" transform="translate(872 100)"><tspan x=".5" y="9">A</tspan></text><text font-family="Verdana" font-size="8.75" transform="translate(2 296)"><tspan x=".5" y="9">B</tspan></text><text font-family="Verdana" font-size="8.75" transform="translate(872 296)"><tspan x=".5" y="9">B</tspan></text><text font-family="Verdana" font-size="8.75" transform="translate(109)"><tspan x="0" y="9.5">1</tspan></text><text font-family="Verdana" font-size="8.75" transform="translate(109 570)"><tspan x="0" y="9.5">1</tspan></text><text font-family="Verdana" font-size="8.75" transform="translate(305)"><tspan x="0" y="9.5">2</tspan></text><text font-family="Verdana" font-size="8.75" transform="translate(305 570)"><tspan x="0" y="9.5">2</tspan></text><text font-family="Verdana" font-size="8.75" transform="translate(501)"><tspan x="0" y="9.5">3</tspan></text><text font-family="Verdana" font-size="8.75" transform="translate(501 570)"><tspan x="0" y="9.5">3</tspan></text><text font-family="Verdana" font-size="8.75" transform="translate(697)"><tspan x="0" y="9.5">4</tspan></text><text font-family="Verdana" font-size="8.75" transform="translate(697 570)"><tspan x="0" y="9.5">4</tspan></text></g><path d="m11 11h860v560h-860z" stroke="#800"/><path d="m1 1h880v580h-880z" stroke="#800"/><path d="m427 491h444v80h-444z" stroke="#800"/><path d="m427.1 530.25h443.53" stroke="#800" stroke-linecap="round" stroke-linejoin="round"/><path d="m531.63 550.25h339" stroke="#800" stroke-linecap="round" stroke-linejoin="round"/><path d="m791.61 491.07.02 39.18" stroke="#800" stroke-linecap="round" stroke-linejoin="round"/><path d="m791.63 530.25v20" stroke="#800" stroke-linecap="round" stroke-linejoin="round"/><text fill="#800" font-family="Verdana" font-size="10" transform="translate(432 494)"><tspan x="0" y="10">TITLE:</tspan></text><text fill="#00f" font-family="Verdana" font-size="12.5" transform="translate(489 503)"><tspan x=".62" y="13.59">USB Serial Mini</tspan></text><text fill="#800" font-family="Verdana" font-size="10" transform="translate(796 507)"><tspan x=".62" y="10.25">REV:</tspan></text><text fill="#00f" font-family="Verdana" font-size="11.25" transform="translate(834 506)"><tspan x=".62" y="11.25">1.3</tspan></text><text fill="#800" font-family="Verdana" font-size="10" transform="translate(536 556)"><tspan x=".62" y="10">Date:</tspan></text><text fill="#00f" font-family="Verdana" font-size="11.25" transform="translate(583 555)"><tspan x=".62" y="11.48">2020-04-04</tspan></text><text fill="#800" font-family="Verdana" font-size="10" transform="translate(795 536)"><tspan x=".62" y="10">Sheet:</tspan></text><text fill="#00f" font-family="Verdana" font-size="11.25" transform="translate(840 535)"><tspan x=".62" y="11.48">1/1</tspan></text><text fill="#800" font-family="Verdana" font-size="10" transform="translate(675 556)"><tspan x=".62" y="10.25">Drawn By:</tspan></text><text fill="#00f" font-family="Verdana" font-size="11.25" transform="translate(740 555)"><tspan x=".63" y="11.25">manuelbl</tspan></text><text fill="#800" font-family="Verdana" font-size="10" transform="translate(536 534)"><tspan x=".62" y="10.25">Company:</tspan></text><text fill="#00f" font-family="Verdana" font-size="11.25" transform="translate(603 533)"><tspan x=".25" y="11.36">Codecrete</tspan></text><path d="m531.63 530.25v40" stroke="#800" stroke-linecap="round" stroke-linejoin="round"/><g transform="translate(603 387)"><text fill="#00f" font-family="Times New Roman" font-size="10" transform="translate(0 1)"><tspan x="0" y="9">USB_DP</tspan></text><path d="m63 5-5 5h-15v-10h15z" stroke="#00f" stroke-linecap="round" stroke-linejoin="round"/></g><g transform="translate(600 397)"><text fill="#00f" font-family="Times New Roman" font-size="10" transform="translate(0 1)"><tspan x="0" y="9">USB_DM</tspan></text><path d="m66 5-5 5h-15v-10h15z" stroke="#00f" stroke-linecap="round" stroke-linejoin="round"/></g><path d="m0 0 8 8m0-8-8 8" fill="#000" fill-rule="nonzero" stroke="#3c3" stroke-linejoin="round" transform="translate(682 378)"/><g fill="#000" transform="translate(646 425)"><text font-family="Times New Roman" font-size="11.25"><tspan x="0" y="10">+5V</tspan></text><g stroke="#000" stroke-linecap="round" stroke-linejoin="round"><path d="m10 12v10"/><path d="m5 12h10"/></g></g><g fill="#000" transform="translate(643 337)"><text font-family="Times New Roman" font-size="11.25" transform="translate(0 16)"><tspan x="0" y="10">GND</tspan></text><g stroke="#000" stroke-linecap="round" stroke-linejoin="round"><path d="m13 10v-10"/><path d="m4 10h18"/><path d="m7 12h12"/><path d="m10 14h6"/><path d="m12 16h2"/></g></g><path d="m686 372v-45h-30v10" stroke="#080" stroke-linecap="round" stroke-linejoin="round"/><path d="m686 412v40h-30v-5" stroke="#080" stroke-linecap="round" stroke-linejoin="round"/><g transform="translate(686 146)"><text fill="#00f" font-family="Times New Roman" font-size="10" transform="translate(26)"><tspan x=".859375" y="9.664063">USB_DP</tspan></text><path d="m0 6 5-5h15v10h-15z" stroke="#00f" stroke-linecap="round" stroke-linejoin="round"/></g><g transform="translate(686 156)"><text fill="#00f" font-family="Times New Roman" font-size="10" transform="translate(25)"><tspan x=".640625" y="9.664063">USB_DM</tspan></text><path d="m0 6 5-5h15v10h-15z" stroke="#00f" stroke-linecap="round" stroke-linejoin="round"/></g><path d="m656 162h30" stroke="#080" stroke-linecap="round" stroke-linejoin="round"/><path d="m686 152h-30" stroke="#080" stroke-linecap="round" stroke-linejoin="round"/><g transform="translate(444 196)"><text fill="#00f" font-family="Times New Roman" font-size="10"><tspan x=".109375" y="9.53125">TX</tspan></text><path d="m37 6-5 5h-15v-10h15z" stroke="#00f" stroke-linecap="round" stroke-linejoin="round"/></g><g transform="translate(444 206)"><text fill="#00f" font-family="Times New Roman" font-size="10"><tspan x=".40625" y="9.53125">RX</tspan></text><path d="m37 6-5 5h-15v-10h15z" stroke="#00f" stroke-linecap="round" stroke-linejoin="round"/></g><path d="m481 202h35" stroke="#080" stroke-linecap="round" stroke-linejoin="round"/><path d="m516 212h-35" stroke="#080" stroke-linecap="round" stroke-linejoin="round"/><path d="m0 0 8 8m0-8-8 8" fill="#000" fill-rule="nonzero" stroke="#3c3" stroke-linejoin="round" transform="translate(512 148)"/><path d="m0 0 8 8m0-8-8 8" fill="#000" fill-rule="nonzero" stroke="#3c3" stroke-linejoin="round" transform="translate(512 158)"/><text fill="#000080" font-family="ArialMT, Arial" font-size="8.75" transform="translate(580 109)"><tspan x=".03125" y="8">STM32F042F6P6</tspan></text><text fill="#000080" font-family="ArialMT, Arial" font-size="8.75" transform="translate(580 99)"><tspan x=".03125" y="8.9375">U1</tspan></text><circle cx="531" cy="125" fill="#800" r="1.5" stroke="#800"/><rect height="114" rx="2" stroke="#800" width="120" x="526" y="120"/><circle cx="531" cy="125" fill="#800" r="1.5" stroke="#800"/><g transform="translate(516 122)"><text fill="#00f" font-family="Verdana" font-size="8.75"><tspan x="13.7" y="14">PB8-BOOT0</tspan></text><text fill="#00f" font-family="Verdana" font-size="8.75"><tspan x="3.5" y="9">1</tspan></text><path d="m0 10h10" stroke="#800" stroke-linejoin="round"/></g><g transform="translate(516 132)"><text fill="#00f" font-family="Verdana" font-size="8.75"><tspan x="13.7" y="14">PF0-OSCIN</tspan></text><text fill="#00f" font-family="Verdana" font-size="8.75"><tspan x="3.5" y="9">2</tspan></text><path d="m0 10h10" stroke="#800" stroke-linejoin="round"/></g><g transform="translate(516 142)"><text fill="#00f" font-family="Verdana" font-size="8.75"><tspan x="13.7" y="14">PF1-OSCOUT</tspan></text><text fill="#00f" font-family="Verdana" font-size="8.75"><tspan x="3.5" y="9">3</tspan></text><path d="m0 10h10" stroke="#800" stroke-linejoin="round"/></g><g transform="translate(516 152)"><text fill="#00f" font-family="Verdana" font-size="8.75"><tspan x="13.7" y="14">NRST</tspan></text><text fill="#00f" font-family="Verdana" font-size="8.75"><tspan x="3.5" y="9">4</tspan></text><path d="m0 10h10" stroke="#800" stroke-linejoin="round"/></g><g transform="translate(516 162)"><text fill="#f00" font-family="Verdana" font-size="8.75"><tspan x="13.7" y="14">VDDA</tspan></text><text fill="#f00" font-family="Verdana" font-size="8.75"><tspan x="3.5" y="9">5</tspan></text><path d="m0 10h10" stroke="#f00" stroke-linejoin="round"/></g><g transform="translate(516 172)"><text fill="#00f" font-family="Verdana" font-size="8.75"><tspan x="13.7" y="14">PA0</tspan></text><text fill="#00f" font-family="Verdana" font-size="8.75"><tspan x="3.5" y="9">6</tspan></text><path d="m0 10h10" stroke="#800" stroke-linejoin="round"/></g><g transform="translate(516 182)"><text fill="#00f" font-family="Verdana" font-size="8.75"><tspan x="13.7" y="14">PA1</tspan></text><text fill="#00f" font-family="Verdana" font-size="8.75"><tspan x="3.5" y="9">7</tspan></text><path d="m0 10h10" stroke="#800" stroke-linejoin="round"/></g><g transform="translate(516 192)"><text fill="#00f" font-family="Verdana" font-size="8.75"><tspan x="13.7" y="14">PA2</tspan></text><text fill="#00f" font-family="Verdana" font-size="8.75"><tspan x="3.5" y="9">8</tspan></text><path d="m0 10h10" stroke="#800" stroke-linejoin="round"/></g><g transform="translate(516 202)"><text fill="#00f" font-family="Verdana" font-size="8.75"><tspan x="13.7" y="14">PA3</tspan></text><text fill="#00f" font-family="Verdana" font-size="8.75"><tspan x="3.5" y="9">9</tspan></text><path d="m0 10h10" stroke="#800" stroke-linejoin="round"/></g><g transform="translate(513 212)"><text fill="#00f" font-family="Verdana" font-size="8.75"><tspan x="16.7" y="14">PA4</tspan></text><text fill="#00f" font-family="Verdana" font-size="8.75"><tspan x=".5" y="9">10</tspan></text><path d="m3 10h10" stroke="#800" stroke-linejoin="round"/></g><g transform="translate(625 212)"><text fill="#00f" font-family="Verdana" font-size="8.75"><tspan x=".3" y="14">PA5</tspan></text><text fill="#00f" font-family="Verdana" font-size="8.75"><tspan x="21.5" y="9">11</tspan></text><circle cx="31" cy="10" fill="#4f4f4f" r="2"/><path d="m31 10h-10" stroke="#800" stroke-linejoin="round"/></g><g transform="translate(625 202)"><text fill="#00f" font-family="Verdana" font-size="8.75"><tspan x=".3" y="14">PA6</tspan></text><text fill="#00f" font-family="Verdana" font-size="8.75"><tspan x="21.5" y="9">12</tspan></text><circle cx="31" cy="10" fill="#4f4f4f" r="2"/><path d="m31 10h-10" stroke="#800" stroke-linejoin="round"/></g><g transform="translate(625 192)"><text fill="#00f" font-family="Verdana" font-size="8.75"><tspan x=".3" y="14">PA7</tspan></text><text fill="#00f" font-family="Verdana" font-size="8.75"><tspan x="21.5" y="9">13</tspan></text><circle cx="31" cy="10" fill="#4f4f4f" r="2"/><path d="m31 10h-10" stroke="#800" stroke-linejoin="round"/></g><g transform="translate(625 182)"><text fill="#00f" font-family="Verdana" font-size="8.75"><tspan x=".3" y="14">PB1</tspan></text><text fill="#00f" font-family="Verdana" font-size="8.75"><tspan x="21.5" y="9">14</tspan></text><circle cx="31" cy="10" fill="#4f4f4f" r="2"/><path d="m31 10h-10" stroke="#800" stroke-linejoin="round"/></g><g transform="translate(624 172)"><text fill="#000" font-family="Verdana" font-size="8.75"><tspan x=".3" y="14">VSS</tspan></text><text fill="#000" font-family="Verdana" font-size="8.75"><tspan x="22.5" y="9">15</tspan></text><path d="m32 10h-10" stroke="#000" stroke-linejoin="round"/></g><g transform="translate(622 162)"><text fill="#f00" font-family="Verdana" font-size="8.75"><tspan x=".3" y="14">VDD</tspan></text><text fill="#f00" font-family="Verdana" font-size="8.75"><tspan x="24.5" y="9">16</tspan></text><path d="m34 10h-10" stroke="#f00" stroke-linejoin="round"/></g><g transform="translate(625 152)"><text fill="#00f" font-family="Verdana" font-size="8.75"><tspan x=".3" y="14">PA9</tspan></text><text fill="#00f" font-family="Verdana" font-size="8.75"><tspan x="21.5" y="9">17</tspan></text><path d="m31 10h-10" stroke="#800" stroke-linejoin="round"/></g><g transform="translate(619 142)"><text fill="#00f" font-family="Verdana" font-size="8.75"><tspan x=".3" y="14">PA10</tspan></text><text fill="#00f" font-family="Verdana" font-size="8.75"><tspan x="27.5" y="9">18</tspan></text><path d="m37 10h-10" stroke="#800" stroke-linejoin="round"/></g><g transform="translate(619 132)"><text fill="#00f" font-family="Verdana" font-size="8.75"><tspan x=".3" y="14">PA13</tspan></text><text fill="#00f" font-family="Verdana" font-size="8.75"><tspan x="27.5" y="9">19</tspan></text><path d="m37 10h-10" stroke="#800" stroke-linejoin="round"/></g><g transform="translate(619 122)"><text fill="#00f" font-family="Verdana" font-size="8.75"><tspan x=".3" y="14">PA14</tspan></text><text fill="#00f" font-family="Verdana" font-size="8.75"><tspan x="27.5" y="9">20</tspan></text><path d="m37 10h-10" stroke="#800" stroke-linejoin="round"/></g><g fill="#000" transform="translate(96 90)"><text font-family="Times New Roman" font-size="11.25"><tspan x="0" y="10">+5V</tspan></text><g stroke="#000" stroke-linecap="round" stroke-linejoin="round"><path d="m10 12v10"/><path d="m5 12h10"/></g></g><g fill="#000" transform="translate(294 90)"><text font-family="Times New Roman" font-size="11.25"><tspan x="0" y="10">VCC</tspan></text><g stroke="#000" stroke-linecap="round" stroke-linejoin="round"><path d="m12 12v10"/><path d="m7 12h10"/></g></g><g fill="#000" transform="translate(188 272)"><text font-family="Times New Roman" font-size="11.25" transform="translate(0 16)"><tspan x="0" y="10">GND</tspan></text><g stroke="#000" stroke-linecap="round" stroke-linejoin="round"><path d="m13 10v-10"/><path d="m4 10h18"/><path d="m7 12h12"/><path d="m10 14h6"/><path d="m12 16h2"/></g></g><g transform="translate(296 191)"><text fill="#000080" font-family="ArialMT, Arial" font-size="8.75" transform="translate(20 20)"><tspan x="0" y="8.296875">100nF</tspan></text><text fill="#000080" font-family="ArialMT, Arial" font-size="8.75" transform="translate(20 11)"><tspan x="0" y="8.234375">C1</tspan></text><g stroke-linejoin="round"><path d="m2 18h16" stroke="#800" stroke-linecap="round"/><path d="m2 14h16" stroke="#800" stroke-linecap="round"/><path d="m10 21v-10" stroke="#000" transform="translate(0 10)"/><path d="m10 1v10" stroke="#000"/><g stroke="#800" stroke-linecap="round"><path d="m10 21v-3"/><path d="m10 14v-3"/></g></g></g><g transform="translate(96 191)"><text fill="#000080" font-family="ArialMT, Arial" font-size="8.75" transform="translate(20 20)"><tspan x="0" y="8.296875">4.7uF</tspan></text><text fill="#000080" font-family="ArialMT, Arial" font-size="8.75" transform="translate(20 11)"><tspan x="0" y="8.234375">C2</tspan></text><g stroke-linejoin="round"><path d="m2 18h16" stroke="#800" stroke-linecap="round"/><path d="m2 14h16" stroke="#800" stroke-linecap="round"/><path d="m10 21v-10" stroke="#000" transform="translate(0 10)"/><path d="m10 1v10" stroke="#000"/><g stroke="#800" stroke-linecap="round"><path d="m10 21v-3"/><path d="m10 14v-3"/></g></g></g><g transform="translate(246 191)"><text fill="#000080" font-family="ArialMT, Arial" font-size="8.75" transform="translate(20 20)"><tspan x="0" y="8.296875">4.7uF</tspan></text><text fill="#000080" font-family="ArialMT, Arial" font-size="8.75" transform="translate(20 11)"><tspan x="0" y="8.234375">C3</tspan></text><g stroke-linejoin="round"><path d="m2 18h16" stroke="#800" stroke-linecap="round"/><path d="m2 14h16" stroke="#800" stroke-linecap="round"/><path d="m10 21v-10" stroke="#000" transform="translate(0 10)"/><path d="m10 1v10" stroke="#000"/><g stroke="#800" stroke-linecap="round"><path d="m10 21v-3"/><path d="m10 14v-3"/></g></g></g><g transform="translate(360 387)"><text fill="#00f" font-family="Times New Roman" font-size="10" transform="translate(0 1)"><tspan x="0" y="9">VCC</tspan></text><path d="m46 5-5 5h-15v-10h15z" stroke="#00f" stroke-linecap="round" stroke-linejoin="round"/></g><g transform="translate(367 397)"><text fill="#00f" font-family="Times New Roman" font-size="10" transform="translate(0 1)"><tspan x="0" y="9">RX</tspan></text><path d="m39 5-5 5h-15v-10h15z" stroke="#00f" stroke-linecap="round" stroke-linejoin="round"/></g><g transform="translate(367 407)"><text fill="#00f" font-family="Times New Roman" font-size="10" transform="translate(0 1)"><tspan x="0" y="9">TX</tspan></text><path d="m39 5-5 5h-15v-10h15z" stroke="#00f" stroke-linecap="round" stroke-linejoin="round"/></g><g transform="translate(359 417)"><text fill="#00f" font-family="Times New Roman" font-size="10" transform="translate(0 1)"><tspan x="0" y="9">GND</tspan></text><path d="m47 5-5 5h-15v-10h15z" stroke="#00f" stroke-linecap="round" stroke-linejoin="round"/></g><g transform="translate(686 167)"><text fill="#00f" font-family="Times New Roman" font-size="10" transform="translate(24 1)"><tspan x="0" y="9">VCC</tspan></text><path d="m0 5 5-5h15v10h-15z" stroke="#00f" stroke-linecap="round" stroke-linejoin="round"/></g><g transform="translate(686 176)"><text fill="#00f" font-family="Times New Roman" font-size="10" transform="translate(24)"><tspan x=".554688" y="9.664063">GND</tspan></text><path d="m0 6 5-5h15v10h-15z" stroke="#00f" stroke-linecap="round" stroke-linejoin="round"/></g><g transform="translate(435 166)"><text fill="#00f" font-family="Times New Roman" font-size="10"><tspan x=".96875" y="9.53125">VCC</tspan></text><path d="m46 6-5 5h-15v-10h15z" stroke="#00f" stroke-linecap="round" stroke-linejoin="round"/></g><path d="m656 172h30" stroke="#080" stroke-linecap="round" stroke-linejoin="round"/><path d="m686 182h-30" stroke="#080" stroke-linecap="round" stroke-linejoin="round"/><path d="m516 172h-35" stroke="#080" stroke-linecap="round" stroke-linejoin="round"/><g fill="#000" transform="translate(393 242)"><text font-family="Times New Roman" font-size="11.25" transform="translate(0 16)"><tspan x="0" y="10">GND</tspan></text><g stroke="#000" stroke-linecap="round" stroke-linejoin="round"><path d="m13 10v-10"/><path d="m4 10h18"/><path d="m7 12h12"/><path d="m10 14h6"/><path d="m12 16h2"/></g></g><path d="m221 152h35v40" stroke="#080" stroke-linecap="round" stroke-linejoin="round"/><path d="m306 192v-40h-50" stroke="#080" stroke-linecap="round" stroke-linejoin="round"/><path d="m106 112v80" stroke="#080" stroke-linecap="round" stroke-linejoin="round"/><path d="m141 172h-35" stroke="#080" stroke-linecap="round" stroke-linejoin="round"/><path d="m201 272v-25" stroke="#080" stroke-linecap="round" stroke-linejoin="round"/><path d="m221 192h5v55" stroke="#080" stroke-linecap="round" stroke-linejoin="round"/><path d="m256 222v25" stroke="#080" stroke-linecap="round" stroke-linejoin="round"/><text fill="#000080" font-family="ArialMT, Arial" font-size="8.75" transform="translate(175 130)"><tspan x=".03125" y="8.59375">XC6206P332MR</tspan></text><text fill="#000080" font-family="ArialMT, Arial" font-size="8.75" transform="translate(175 121)"><tspan x=".03125" y="8.59375">U2</tspan></text><rect height="60" rx="2" stroke="#000" width="40" x="161" y="142"/><g transform="translate(178 182)"><text fill="#00f" font-family="Verdana" font-size="8.75"><tspan x="0" y="13">GND</tspan></text><text fill="#00f" font-family="Verdana" font-size="8.75"><tspan x="28" y="9">1</tspan></text><path d="m43 10h-20" stroke="#800" stroke-linejoin="round"/></g><g transform="translate(141 162)"><text fill="#00f" font-family="Verdana" font-size="8.75"><tspan x="22" y="13">Vin</tspan></text><text fill="#00f" font-family="Verdana" font-size="8.75"><tspan x="9" y="9">3</tspan></text><path d="m0 10h20" stroke="#800" stroke-linejoin="round"/></g><g transform="translate(179 142)"><text fill="#00f" font-family="Verdana" font-size="8.75"><tspan x="0" y="13">Vout</tspan></text><text fill="#00f" font-family="Verdana" font-size="8.75"><tspan x="27" y="9">2</tspan></text><path d="m42 10h-20" stroke="#800" stroke-linejoin="round"/></g><text fill="#00f" font-family="Verdana" font-size="11.25" transform="translate(381 341)"><tspan x="0" y="11">Serial Header</tspan></text><text fill="#00f" font-family="Verdana" font-size="11.25" transform="translate(631 291)"><tspan x="0" y="11">USB Connector</tspan></text><text fill="#00f" font-family="Verdana" font-size="11.25" transform="translate(156 66)"><tspan x="0" y="11">Power Supply</tspan></text><path d="m106 222v25h200v-25" stroke="#080" stroke-linecap="round" stroke-linejoin="round"/><text fill="#00f" font-family="Verdana" font-size="11.25" transform="translate(571 66)"><tspan x="0" y="11">MCU</tspan></text><g stroke-linejoin="round"><g stroke="#080" stroke-linecap="round"><path d="m406 392h30"/><path d="m406 402h30"/><path d="m406 412h30"/><path d="m406 422h30"/><path d="m666 392h20"/><path d="m666 402h20"/><path d="m721 357v-30h-35"/><path d="m306 112v40"/><path d="m406 242v-110h110"/></g><path d="m0 0 8 8m0-8-8 8" fill="#000" fill-rule="nonzero" stroke="#3c3" transform="translate(652 218)"/><path d="m0 0 8 8m0-8-8 8" fill="#000" fill-rule="nonzero" stroke="#3c3" transform="translate(652 208)"/><path d="m0 0 8 8m0-8-8 8" fill="#000" fill-rule="nonzero" stroke="#3c3" transform="translate(652 198)"/><path d="m0 0 8 8m0-8-8 8" fill="#000" fill-rule="nonzero" stroke="#3c3" transform="translate(652 188)"/><path d="m0 0 8 8m0-8-8 8" fill="#000" fill-rule="nonzero" stroke="#3c3" transform="translate(512 138)"/><path d="m0 0 8 8m0-8-8 8" fill="#000" fill-rule="nonzero" stroke="#3c3" transform="translate(512 218)"/><path d="m516 182h-110" stroke="#080" stroke-linecap="round"/><path d="m516 192h-110" stroke="#080" stroke-linecap="round"/></g><text fill="#000080" font-family="ArialMT, Arial" font-size="8.75" transform="translate(222 372)"><tspan x=".4375" y="8.25">TP1</tspan></text><path d="m0 10h10" stroke="#800" stroke-linejoin="round" transform="translate(186 367)"/><ellipse cx="206" cy="377" rx="10" ry="5" stroke="#000"/><text fill="#000080" font-family="ArialMT, Arial" font-size="8.75" transform="translate(222 387)"><tspan x=".4375" y="8.25">TP2</tspan></text><path d="m0 10h10" stroke="#800" stroke-linejoin="round" transform="translate(186 382)"/><ellipse cx="206" cy="392" rx="10" ry="5" stroke="#000"/><text fill="#000080" font-family="ArialMT, Arial" font-size="8.75" transform="translate(222 402)"><tspan x=".4375" y="8.25">TP3</tspan></text><path d="m0 10h10" stroke="#800" stroke-linejoin="round" transform="translate(186 397)"/><ellipse cx="206" cy="407" rx="10" ry="5" stroke="#000"/><text fill="#000080" font-family="ArialMT, Arial" font-size="8.75" transform="translate(222 417)"><tspan x=".4375" y="8.25">TP4</tspan></text><path d="m0 10h10" stroke="#800" stroke-linejoin="round" transform="translate(186 412)"/><ellipse cx="206" cy="422" rx="10" ry="5" stroke="#000"/><g transform="translate(107 372)"><text fill="#00f" font-family="Times New Roman" font-size="10" transform="translate(0 1)"><tspan x=".5" y="9">GND</tspan></text><path d="m44 5-5 5h-15v-10h15z" stroke="#00f" stroke-linecap="round" stroke-linejoin="round"/></g><g transform="translate(94 387)"><text fill="#00f" font-family="Times New Roman" font-size="10" transform="translate(0 1)"><tspan x=".5" y="9">SWCLK</tspan></text><path d="m57 5-5 5h-15v-10h15z" stroke="#00f" stroke-linecap="round" stroke-linejoin="round"/></g><g transform="translate(96 402)"><text fill="#00f" font-family="Times New Roman" font-size="10" transform="translate(0 1)"><tspan x=".5" y="9">SWDIO</tspan></text><path d="m55 5-5 5h-15v-10h15z" stroke="#00f" stroke-linecap="round" stroke-linejoin="round"/></g><g transform="translate(108 417)"><text fill="#00f" font-family="Times New Roman" font-size="10" transform="translate(0 1)"><tspan x=".5" y="9">VCC</tspan></text><path d="m43 5-5 5h-15v-10h15z" stroke="#00f" stroke-linecap="round" stroke-linejoin="round"/></g><path d="m151 377h35" stroke="#080" stroke-linecap="round" stroke-linejoin="round"/><path d="m151 392h35" stroke="#080" stroke-linecap="round" stroke-linejoin="round"/><path d="m151 407h35" stroke="#080" stroke-linecap="round" stroke-linejoin="round"/><path d="m151 422h35" stroke="#080" stroke-linecap="round" stroke-linejoin="round"/><text fill="#00f" font-family="Verdana" font-size="11.25" transform="translate(126 336)"><tspan x="0" y="11">SWD Test Points</tspan></text><g transform="translate(686 136)"><text fill="#00f" font-family="Times New Roman" font-size="10" transform="translate(24)"><tspan x=".476563" y="9.53125">SWDIO</tspan></text><path d="m0 6 5-5h15v10h-15z" stroke="#00f" stroke-linecap="round" stroke-linejoin="round"/></g><g transform="translate(686 126)"><text fill="#00f" font-family="Times New Roman" font-size="10" transform="translate(23)"><tspan x=".617188" y="9.53125">SWCLK</tspan></text><path d="m0 6 5-5h15v10h-15z" stroke="#00f" stroke-linecap="round" stroke-linejoin="round"/></g><path d="m656 132h30" stroke="#080" stroke-linecap="round" stroke-linejoin="round"/><path d="m656 142h30" stroke="#080" stroke-linecap="round" stroke-linejoin="round"/><text fill="#000080" font-family="ArialMT, Arial" font-size="8.75" transform="translate(449 371)"><tspan x=".03125" y="8">A2-4PA-2.54DS(71)</tspan></text><text fill="#000080" font-family="ArialMT, Arial" font-size="8.75" transform="translate(449 362)"><tspan x=".03125" y="8">CN1</tspan></text><rect height="50" rx="2" stroke="#800" width="20" x="456" y="382"/><circle cx="461" cy="427" fill="#800" r="1.5" stroke="#800"/><g transform="translate(436 412)"><text fill="#00f" font-family="Verdana" font-size="8.75"><tspan x="9" y="9">1</tspan></text><path d="m0 10h20" stroke="#800" stroke-linejoin="round"/></g><g transform="translate(436 402)"><text fill="#00f" font-family="Verdana" font-size="8.75"><tspan x="9" y="9">2</tspan></text><path d="m0 10h20" stroke="#800" stroke-linejoin="round"/></g><g transform="translate(436 392)"><text fill="#00f" font-family="Verdana" font-size="8.75"><tspan x="9" y="9">3</tspan></text><path d="m0 10h20" stroke="#800" stroke-linejoin="round"/></g><g transform="translate(436 382)"><text fill="#00f" font-family="Verdana" font-size="8.75"><tspan x="9" y="9">4</tspan></text><path d="m0 10h20" stroke="#800" stroke-linejoin="round"/></g><text fill="#000080" font-family="ArialMT, Arial" font-size="8.75" transform="translate(733 390)"><tspan x="0" y="8.25">micro USBFemale</tspan></text><text fill="#000080" font-family="ArialMT, Arial" font-size="8.75" transform="translate(733 381)"><tspan x="0" y="8.25">USB1</tspan></text><path d="m706 367h25v50h-25z" fill="#efefef" stroke="#800"/><path d="m10 0v10" stroke="#800" stroke-linejoin="round" transform="translate(711 357)"/><g transform="translate(686 402)"><text fill="#00f" font-family="Verdana" font-size="8.75"><tspan x="22" y="13">V+</tspan></text><text fill="#00f" font-family="Verdana" font-size="8.75"><tspan x="9" y="9">1</tspan></text><path d="m0 10h20" stroke="#800" stroke-linejoin="round"/></g><g transform="translate(686 392)"><text fill="#00f" font-family="Verdana" font-size="8.75"><tspan x="22" y="13">D-</tspan></text><text fill="#00f" font-family="Verdana" font-size="8.75"><tspan x="9" y="9">2</tspan></text><path d="m0 10h20" stroke="#800" stroke-linejoin="round"/></g><g transform="translate(686 382)"><text fill="#00f" font-family="Verdana" font-size="8.75"><tspan x="22" y="13">D+</tspan></text><text fill="#00f" font-family="Verdana" font-size="8.75"><tspan x="9" y="9">3</tspan></text><path d="m0 10h20" stroke="#800" stroke-linejoin="round"/></g><g transform="translate(686 372)"><text fill="#00f" font-family="Verdana" font-size="8.75"><tspan x="22" y="13">ID</tspan></text><text fill="#00f" font-family="Verdana" font-size="8.75"><tspan x="9" y="9">4</tspan></text><path d="m0 10h20" stroke="#800" stroke-linejoin="round"/></g><g transform="translate(686 362)"><text fill="#00f" font-family="Verdana" font-size="8.75"><tspan x="22" y="13">V-</tspan></text><text fill="#00f" font-family="Verdana" font-size="8.75"><tspan x="9" y="9">5</tspan></text><path d="m0 10h20" stroke="#800" stroke-linejoin="round"/></g><circle cx="406" cy="192" fill="#4f4f4f" r="2"/><circle cx="406" cy="192" fill="#c00" r="2.5"/><circle cx="686" cy="327" fill="#4f4f4f" r="2"/><circle cx="686" cy="327" fill="#c00" r="2.5"/><circle cx="256" cy="152" fill="#4f4f4f" r="2"/><circle cx="256" cy="152" fill="#c00" r="2.5"/><circle cx="226" cy="247" fill="#4f4f4f" r="2"/><circle cx="226" cy="247" fill="#c00" r="2.5"/><circle cx="201" cy="247" fill="#4f4f4f" r="2"/><circle cx="201" cy="247" fill="#c00" r="2.5"/><circle cx="106" cy="172" fill="#4f4f4f" r="2"/><circle cx="106" cy="172" fill="#c00" r="2.5"/><circle cx="256" cy="247" fill="#4f4f4f" r="2"/><circle cx="256" cy="247" fill="#c00" r="2.5"/><circle cx="306" cy="152" fill="#4f4f4f" r="2"/><circle cx="306" cy="152" fill="#c00" r="2.5"/><circle cx="406" cy="182" fill="#4f4f4f" r="2"/><circle cx="406" cy="182" fill="#c00" r="2.5"/></g></svg>