<svg height="124" viewBox="0 0 410 124" width="410" xmlns="http://www.w3.org/2000/svg"><g fill="none" fill-rule="evenodd"><path d="m114 6h288v115h-288z" fill="#999"/><g transform="translate(2 3)"><path d="m329.328 43.312h22.676v5.104h-22.676z" fill="#800080" fill-opacity=".7"/><path d="m329.328 43.312h22.676v5.104h-22.676z" stroke="#800080" stroke-linecap="square" stroke-opacity=".7" stroke-width="2.32"/><path d="m329.328 50.684h22.676v5.1h-22.676z" fill="#800080" fill-opacity=".7"/><path d="m329.328 50.684h22.676v5.1h-22.676z" stroke="#800080" stroke-linecap="square" stroke-opacity=".7" stroke-width="2.32"/><path d="m329.328 58.052h22.676v5.104h-22.676z" fill="#800080" fill-opacity=".7"/><path d="m329.328 58.052h22.676v5.104h-22.676z" stroke="#800080" stroke-linecap="square" stroke-opacity=".7" stroke-width="2.32"/><path d="m329.328 65.424h22.676v5.1h-22.676z" fill="#800080" fill-opacity=".7"/><path d="m329.328 65.424h22.676v5.1h-22.676z" stroke="#800080" stroke-linecap="square" stroke-opacity=".7" stroke-width="2.32"/><path d="m329.328 72.792h22.676v5.104h-22.676z" fill="#800080" fill-opacity=".7"/><path d="m329.328 72.792h22.676v5.104h-22.676z" stroke="#800080" stroke-linecap="square" stroke-opacity=".7" stroke-width="2.32"/><path d="m382.756 51.464v-18.144h13.604v18.144z" fill="#800080" fill-opacity=".7"/><path d="m382.756 51.464v-18.144h13.604v18.144z" stroke="#800080" stroke-linecap="square" stroke-opacity=".7" stroke-width="2.32"/><path d="m382.568 88.64v-18.144h13.608v18.144z" fill="#800080" fill-opacity=".7"/><path d="m382.568 88.64v-18.144h13.608v18.144z" stroke="#800080" stroke-linecap="square" stroke-opacity=".7" stroke-width="2.32"/><path d="m375.076 19.444h10.204" stroke="#800080" stroke-linecap="round" stroke-linejoin="round" stroke-opacity=".7" stroke-width="17.04"/><path d="m375.076 101.524h10.204" stroke="#800080" stroke-linecap="round" stroke-linejoin="round" stroke-opacity=".7" stroke-width="17.04"/><path d="m358.08 87.8c0-4.68-3.8-8.52-8.52-8.52s-8.52 3.84-8.52 8.52c0 4.72 3.8 8.52 8.52 8.52s8.52-3.8 8.52-8.52" fill="#800080" fill-opacity=".7"/><path d="m358.08 32.92c0-4.72-3.8-8.52-8.52-8.52s-8.52 3.8-8.52 8.52 3.8 8.52 8.52 8.52 8.52-3.8 8.52-8.52" fill="#800080" fill-opacity=".7"/><path d="m134.72 8.64v17.28h-17.28v-17.28z" fill="#800080" fill-opacity=".7"/><path d="m134.72 8.64v17.28h-17.28v-17.28z" stroke="#800080" stroke-linecap="square" stroke-opacity=".7" stroke-width="2.32"/><path d="m135.88 46.08c0-5.4-4.4-9.8-9.8-9.8s-9.8 4.4-9.8 9.8 4.4 9.8 9.8 9.8 9.8-4.4 9.8-9.8" fill="#800080" fill-opacity=".7"/><path d="m135.88 74.88c0-5.4-4.4-9.8-9.8-9.8s-9.8 4.4-9.8 9.8 4.4 9.8 9.8 9.8 9.8-4.4 9.8-9.8" fill="#800080" fill-opacity=".7"/><path d="m135.88 103.68c0-5.4-4.4-9.8-9.8-9.8s-9.8 4.4-9.8 9.8 4.4 9.8 9.8 9.8 9.8-4.4 9.8-9.8" fill="#800080" fill-opacity=".7"/><path d="m289.072 92.012h11.34v17.576h-11.34z" fill="#800080" fill-opacity=".7"/><path d="m289.072 92.012h11.34v17.576h-11.34z" stroke="#800080" stroke-linecap="square" stroke-opacity=".7" stroke-width="2.32"/><path d="m311.748 92.012h11.34v17.576h-11.34z" fill="#800080" fill-opacity=".7"/><path d="m311.748 92.012h11.34v17.576h-11.34z" stroke="#800080" stroke-linecap="square" stroke-opacity=".7" stroke-width="2.32"/><path d="m189.792 93.484h7.936v14.172h-7.936z" fill="#800080" fill-opacity=".7"/><path d="m189.792 93.484h7.936v14.172h-7.936z" stroke="#800080" stroke-linecap="square" stroke-opacity=".7" stroke-width="2.32"/><path d="m179.02 65.144h7.936v14.172h-7.936z" fill="#800080" fill-opacity=".7"/><path d="m179.02 65.144h7.936v14.172h-7.936z" stroke="#800080" stroke-linecap="square" stroke-opacity=".7" stroke-width="2.32"/><path d="m200.564 65.144h7.936v14.172h-7.936z" fill="#800080" fill-opacity=".7"/><path d="m200.564 65.144h7.936v14.172h-7.936z" stroke="#800080" stroke-linecap="square" stroke-opacity=".7" stroke-width="2.32"/><path d="m234.44 41.568v4.532h-16.932v-4.532z" fill="#800080" fill-opacity=".7"/><path d="m234.44 41.568v4.532h-16.932v-4.532z" stroke="#800080" stroke-linecap="square" stroke-opacity=".7" stroke-width="2.32"/><path d="m234.44 48.924v4.532h-16.932v-4.532z" fill="#800080" fill-opacity=".7"/><path d="m234.44 48.924v4.532h-16.932v-4.532z" stroke="#800080" stroke-linecap="square" stroke-opacity=".7" stroke-width="2.32"/><path d="m234.44 56.308v4.532h-16.932v-4.532z" fill="#800080" fill-opacity=".7"/><path d="m234.44 56.308v4.532h-16.932v-4.532z" stroke="#800080" stroke-linecap="square" stroke-opacity=".7" stroke-width="2.32"/><path d="m234.44 63.676v4.532h-16.932v-4.532z" fill="#800080" fill-opacity=".7"/><path d="m234.44 63.676v4.532h-16.932v-4.532z" stroke="#800080" stroke-linecap="square" stroke-opacity=".7" stroke-width="2.32"/><path d="m302.44 19.46v4.532h-16.936v-4.532z" fill="#800080" fill-opacity=".7"/><path d="m302.44 19.46v4.532h-16.936v-4.532z" stroke="#800080" stroke-linecap="square" stroke-opacity=".7" stroke-width="2.32"/><path d="m234.44 19.456v4.536h-16.932v-4.536z" fill="#800080" fill-opacity=".7"/><path d="m234.44 19.456v4.536h-16.932v-4.536z" stroke="#800080" stroke-linecap="square" stroke-opacity=".7" stroke-width="2.32"/><path d="m234.44 26.828v4.536h-16.932v-4.536z" fill="#800080" fill-opacity=".7"/><path d="m234.44 26.828v4.536h-16.932v-4.536z" stroke="#800080" stroke-linecap="square" stroke-opacity=".7" stroke-width="2.32"/><path d="m234.44 34.196v4.536h-16.932v-4.536z" fill="#800080" fill-opacity=".7"/><path d="m234.44 34.196v4.536h-16.932v-4.536z" stroke="#800080" stroke-linecap="square" stroke-opacity=".7" stroke-width="2.32"/><path d="m302.496 71.048v4.536h-16.936v-4.536z" fill="#800080" fill-opacity=".7"/><path d="m302.496 71.048v4.536h-16.936v-4.536z" stroke="#800080" stroke-linecap="square" stroke-opacity=".7" stroke-width="2.32"/><path d="m302.496 63.676v4.536h-16.936v-4.536z" fill="#800080" fill-opacity=".7"/><path d="m302.496 63.676v4.536h-16.936v-4.536z" stroke="#800080" stroke-linecap="square" stroke-opacity=".7" stroke-width="2.32"/><path d="m302.496 56.308v4.536h-16.936v-4.536z" fill="#800080" fill-opacity=".7"/><path d="m302.496 56.308v4.536h-16.936v-4.536z" stroke="#800080" stroke-linecap="square" stroke-opacity=".7" stroke-width="2.32"/><path d="m302.496 48.936v4.536h-16.936v-4.536z" fill="#800080" fill-opacity=".7"/><path d="m302.496 48.936v4.536h-16.936v-4.536z" stroke="#800080" stroke-linecap="square" stroke-opacity=".7" stroke-width="2.32"/><path d="m302.496 41.568v4.536h-16.936v-4.536z" fill="#800080" fill-opacity=".7"/><path d="m302.496 41.568v4.536h-16.936v-4.536z" stroke="#800080" stroke-linecap="square" stroke-opacity=".7" stroke-width="2.32"/><path d="m302.496 34.196v4.536h-16.936v-4.536z" fill="#800080" fill-opacity=".7"/><path d="m302.496 34.196v4.536h-16.936v-4.536z" stroke="#800080" stroke-linecap="square" stroke-opacity=".7" stroke-width="2.32"/><path d="m234.44 71.048v4.532h-16.932v-4.532z" fill="#800080" fill-opacity=".7"/><path d="m234.44 71.048v4.532h-16.932v-4.532z" stroke="#800080" stroke-linecap="square" stroke-opacity=".7" stroke-width="2.32"/><path d="m302.44 26.828v4.536h-16.936v-4.536z" fill="#800080" fill-opacity=".7"/><path d="m302.44 26.828v4.536h-16.936v-4.536z" stroke="#800080" stroke-linecap="square" stroke-opacity=".7" stroke-width="2.32"/><path d="m234.44 12.088v4.532h-16.936v-4.532z" fill="#800080" fill-opacity=".7"/><path d="m234.44 12.088v4.532h-16.936v-4.532z" stroke="#800080" stroke-linecap="square" stroke-opacity=".7" stroke-width="2.32"/><path d="m234.44 78.416v4.532h-16.932v-4.532z" fill="#800080" fill-opacity=".7"/><path d="m234.44 78.416v4.532h-16.932v-4.532z" stroke="#800080" stroke-linecap="square" stroke-opacity=".7" stroke-width="2.32"/><path d="m302.496 78.416v4.536h-16.936v-4.536z" fill="#800080" fill-opacity=".7"/><path d="m302.496 78.416v4.536h-16.936v-4.536z" stroke="#800080" stroke-linecap="square" stroke-opacity=".7" stroke-width="2.32"/><path d="m302.496 12.088v4.532h-16.936v-4.532z" fill="#800080" fill-opacity=".7"/><path d="m302.496 12.088v4.532h-16.936v-4.532z" stroke="#800080" stroke-linecap="square" stroke-opacity=".7" stroke-width="2.32"/><path d="m262.608 109.588h-11.34v-17.576h11.34z" fill="#800080" fill-opacity=".7"/><path d="m262.608 109.588h-11.34v-17.576h11.34z" stroke="#800080" stroke-linecap="square" stroke-opacity=".7" stroke-width="2.32"/><path d="m239.932 109.588h-11.34v-17.576h11.34z" fill="#800080" fill-opacity=".7"/><path d="m239.932 109.588h-11.34v-17.576h11.34z" stroke="#800080" stroke-linecap="square" stroke-opacity=".7" stroke-width="2.32"/><path d="m184.972 54.448v-11.34h17.576v11.34z" fill="#800080" fill-opacity=".7"/><path d="m184.972 54.448v-11.34h17.576v11.34z" stroke="#800080" stroke-linecap="square" stroke-opacity=".7" stroke-width="2.32"/><path d="m184.972 31.772v-11.34h17.576v11.34z" fill="#800080" fill-opacity=".7"/><path d="m184.972 31.772v-11.34h17.576v11.34z" stroke="#800080" stroke-linecap="square" stroke-opacity=".7" stroke-width="2.32"/><path d="m329.328 43.312h22.676v5.104h-22.676z" fill="#929292"/><path d="m329.328 50.684h22.676v5.1h-22.676z" fill="#929292"/><path d="m329.328 58.052h22.676v5.104h-22.676z" fill="#929292"/><path d="m329.328 65.424h22.676v5.1h-22.676z" fill="#929292"/><path d="m329.328 72.792h22.676v5.104h-22.676z" fill="#929292"/><path d="m382.756 51.464v-18.144h13.604v18.144z" fill="#929292"/><path d="m382.568 88.64v-18.144h13.608v18.144z" fill="#929292"/><path d="m289.072 92.012h11.34v17.576h-11.34z" fill="#929292"/><path d="m311.748 92.012h11.34v17.576h-11.34z" fill="#929292"/><path d="m189.792 93.484h7.936v14.172h-7.936z" fill="#929292"/><path d="m179.02 65.144h7.936v14.172h-7.936z" fill="#929292"/><path d="m200.564 65.144h7.936v14.172h-7.936z" fill="#929292"/><path d="m234.44 41.568v4.532h-16.932v-4.532z" fill="#929292"/><path d="m234.44 48.924v4.532h-16.932v-4.532z" fill="#929292"/><path d="m234.44 56.308v4.532h-16.932v-4.532z" fill="#929292"/><path d="m234.44 63.676v4.532h-16.932v-4.532z" fill="#929292"/><path d="m302.44 19.46v4.532h-16.936v-4.532z" fill="#929292"/><path d="m234.44 19.456v4.536h-16.932v-4.536z" fill="#929292"/><path d="m234.44 26.828v4.536h-16.932v-4.536z" fill="#929292"/><path d="m234.44 34.196v4.536h-16.932v-4.536z" fill="#929292"/><path d="m302.496 71.048v4.536h-16.936v-4.536z" fill="#929292"/><path d="m302.496 63.676v4.536h-16.936v-4.536z" fill="#929292"/><path d="m302.496 56.308v4.536h-16.936v-4.536z" fill="#929292"/><path d="m302.496 48.936v4.536h-16.936v-4.536z" fill="#929292"/><path d="m302.496 41.568v4.536h-16.936v-4.536z" fill="#929292"/><path d="m302.496 34.196v4.536h-16.936v-4.536z" fill="#929292"/><path d="m234.44 71.048v4.532h-16.932v-4.532z" fill="#929292"/><path d="m302.44 26.828v4.536h-16.936v-4.536z" fill="#929292"/><path d="m234.44 12.088v4.532h-16.936v-4.532z" fill="#929292"/><path d="m234.44 78.416v4.532h-16.932v-4.532z" fill="#929292"/><path d="m302.496 78.416v4.536h-16.936v-4.536z" fill="#929292"/><path d="m302.496 12.088v4.532h-16.936v-4.532z" fill="#929292"/><path d="m262.608 109.588h-11.34v-17.576h11.34z" fill="#929292"/><path d="m239.932 109.588h-11.34v-17.576h11.34z" fill="#929292"/><path d="m184.972 54.448v-11.34h17.576v11.34z" fill="#929292"/><path d="m184.972 31.772v-11.34h17.576v11.34z" fill="#929292"/><path d="m330.272 47.772-.164-.012-.16-.032-.156-.06-.144-.076-.132-.1-.116-.116-.096-.132-.08-.144-.056-.156-.036-.16-.012-.164v-1.6l.012-.164.036-.16.056-.156.08-.144.096-.132.116-.116.132-.096.144-.08.156-.056.16-.036.164-.012h4.896l.164.012.16.036.156.056.144.08.132.096.116.116.096.132.08.144.056.156.036.16.012.164v1.6l-.012.164-.036.16-.056.156-.08.144-.096.132-.116.116-.132.1-.144.076-.156.06-.16.032-.164.012z" fill="#f00"/><path d="m133.456 115.172-.164-.012-.16-.036-.156-.056-.144-.08-.128-.1-.12-.116-.096-.128-.08-.148-.056-.152-.036-.16-.012-.164.016-.184.04-.176.072-.168.096-.156.12-.136.14-.12.42-.312.404-.332.388-.348.372-.368.356-.384.336-.4.32-.416.3-.428.28-.44.26-.452.24-.468.22-.472.196-.488.172-.492.152-.5.128-.508.108-.512.084-.516.056-.52.036-.52.012-.524-.012-.52-.032-.516-.06-.516-.08-.512-.104-.504-.128-.504-.148-.496-.172-.488-.192-.484-.216-.472-.236-.46-.252-.452-.276-.44-.296-.424-.316-.412-.332-.4-.348-.38-.368-.368-.38-.348-.4-.332-.412-.316-.424-.296-.44-.276-.452-.252-.46-.236-.472-.216-.484-.192-.488-.172-.496-.148-.504-.128-.504-.104-.512-.08-.516-.06-.516-.032-.52-.012-.524.012-.52.036-.52.056-.516.084-.512.108-.508.128-.5.152-.492.172-.488.196-.472.22-.468.24-.452.26-.44.28-.428.3-.416.32-.4.336-.384.356-.368.372-.348.388-.332.404-.312.42-.12.14-.136.12-.156.096-.168.072-.176.04-.184.016-.164-.012-.16-.036-.152-.056-.148-.08-.128-.096-.116-.12-.1-.128-.08-.144-.056-.156-.036-.16-.012-.164v-14.048l.012-.164.036-.16.056-.156.08-.144.1-.128.116-.12.128-.096.148-.08.152-.056.16-.036.164-.012.184.016.176.04.168.072.156.096.136.12.12.14.312.42.332.404.348.388.368.372.384.356.4.336.416.32.428.3.44.28.452.26.468.24.472.22.488.196.492.172.5.152.508.128.512.108.516.084.52.056.52.036.524.012.52-.012.516-.032.516-.06.512-.08.504-.104.504-.128.496-.148.488-.172.484-.192.472-.216.46-.236.452-.252.44-.276.424-.296.412-.316.4-.332.38-.348.368-.368.348-.38.332-.4.316-.412.296-.424.276-.44.252-.452.236-.46.216-.472.192-.484.172-.488.148-.496.128-.504.104-.504.08-.512.06-.516.032-.516.012-.52-.012-.52-.032-.516-.06-.516-.08-.512-.104-.504-.128-.504-.148-.496-.172-.488-.192-.484-.216-.472-.236-.46-.252-.452-.276-.44-.296-.424-.316-.412-.332-.4-.348-.38-.368-.368-.38-.348-.4-.332-.412-.316-.424-.296-.44-.276-.452-.252-.46-.236-.472-.216-.484-.192-.488-.172-.496-.148-.504-.128-.504-.104-.512-.08-.516-.06-.516-.032-.52-.012-.524.012-.52.036-.52.056-.516.084-.512.108-.508.128-.5.152-.492.172-.488.196-.472.22-.468.24-.452.26-.44.28-.428.3-.416.32-.4.336-.384.356-.368.372-.348.388-.332.404-.312.42-.12.14-.136.12-.156.096-.168.072-.176.04-.184.016-.164-.012-.16-.036-.152-.056-.148-.08-.128-.096-.116-.12-.1-.128-.08-.144-.056-.156-.036-.16-.012-.164v-14.048l.012-.164.036-.16.056-.156.08-.144.1-.128.116-.12.128-.096.148-.08.152-.056.16-.036.164-.012.184.016.176.04.168.072.156.096.136.12.12.14.312.42.332.404.348.388.368.372.384.356.4.336.416.32.428.3.44.28.452.26.468.24.472.22.488.196.492.172.5.152.508.128.512.108.516.084.52.056.52.036.524.012.52-.012.516-.032.516-.06.512-.08.504-.104.504-.128.496-.148.488-.172.484-.192.472-.216.46-.236.452-.252.44-.276.424-.296.412-.316.4-.332.38-.348.368-.368.348-.38.332-.4.316-.412.296-.424.276-.44.252-.452.236-.46.216-.472.192-.484.172-.488.148-.496.128-.504.104-.504.08-.512.06-.516.032-.516.012-.52-.012-.52-.032-.516-.06-.516-.08-.512-.104-.504-.128-.504-.148-.496-.172-.488-.192-.484-.216-.472-.236-.46-.252-.452-.276-.44-.296-.424-.316-.412-.332-.4-.348-.38-.368-.368-.38-.348-.4-.332-.412-.316-.424-.296-.44-.276-.452-.252-.46-.236-.472-.216-.484-.192-.488-.172-.496-.148-.504-.128-.504-.104-.512-.08-.516-.06-.516-.032-.52-.012-.524.012-.52.036-.52.056-.516.084-.512.108-.508.128-.5.152-.492.172-.488.196-.472.22-.468.24-.452.26-.44.28-.428.3-.416.32-.4.336-.384.356-.368.372-.348.388-.332.404-.312.42-.12.14-.136.12-.156.096-.168.072-.176.04-.184.016-.164-.012-.16-.036-.152-.056-.148-.08-.128-.096-.116-.12-.1-.128-.08-.144-.056-.156-.036-.16-.012-.164v-9.096l.012-.164.036-.16.056-.156.08-.144.1-.132.116-.116.128-.096.148-.08.152-.056.16-.036.164-.012.168.012.16.036.156.056.292.116.3.084.312.052.312.016h3.6v-6.508h-5.3l-.164-.012-.16-.036-.152-.056-.148-.08-.128-.096-.116-.116-.1-.132-.08-.144-.056-.156-.036-.16-.012-.164v-7.776l.012-.164.036-.16.056-.156.08-.144.1-.132.116-.116.128-.096.148-.08.152-.056.16-.036.164-.012h5.3v-5.3l.012-.164.036-.16.056-.152.08-.148.096-.128.116-.116.132-.1.144-.08.156-.056.16-.036.164-.012h7.776l.164.012.16.036.156.056.144.08.132.1.116.116.096.128.08.148.056.152.036.16.012.164v5.3h6.508v-3.6l-.016-.312-.052-.312-.084-.3-.116-.292-.056-.156-.036-.16-.012-.168.012-.164.036-.16.056-.152.08-.148.096-.128.116-.116.132-.1.144-.08.156-.056.16-.036.164-.012h226.284l.164.012.16.036.156.056.144.08.132.1.116.116.096.128.08.148.056.152.036.16.012.164-.012.172-.04.168-.064.164-.088.148-.108.136-.124.116-.144.096-28.944 16.54v14.772l-.012.164-.036.16-.056.156-.08.144-.096.128-.116.12-.132.096-.144.08-.156.056-.16.036-.164.012h-5.444l-.184-.016-.18-.044-.168-.072-.156-.096-.14-.124-.116-.14-.092-.16-.172-.32-.2-.308-.224-.288-.244-.268-12.672-12.672-.252-.232-.268-.208-.284-.192-.3-.168-.308-.14-.32-.12-.328-.092-.336-.068-.34-.04-.34-.012h-5.6l-.164-.012-.16-.036-.156-.056-.144-.08-.132-.096-.116-.116-.1-.132-.076-.144-.06-.156-.032-.16-.012-.164v-4.012l-.02-.324-.056-.324-.088-.312-.048-.188-.016-.196.02-.216.06-.208.088-.26.064-.264.04-.272.012-.276v-4.532l-.012-.268-.036-.268-.064-.26-.084-.256-.108-.244-.132-.236-.152-.22-.172-.208-.188-.192-.208-.168-.22-.152-.236-.132-.244-.108-.256-.088-.26-.06-.268-.036-.268-.012h-16.936l-.268.012-.268.036-.26.064-.256.084-.248.108-.236.132-.22.156-.16.1-.172.072-.18.044-.184.016h-23.06l-.344.016-.336.04-.336.064-.328.092-.32.12-.312.144-.296.164-.284.192-.268.212-.252.232-.744.744-.132.112-.144.092-.16.068-.168.044-.172.02-.388.024-.388.052-.384.072-.38.096-.372.12-.364.144-.352.164-.344.188-.332.204-.32.228-.3.244-.292.264-.268.284-.256.296-.232.312-.216.328-.196.336-.172.352-.152.36-.132.368-.104.376-.084.384-.06.384-.036.388-.012.392.012.396.036.396.064.392.084.388.112.38.132.376.156.364.18.352.2.344.22.328.244.316.26.3.28.28.296.264.12.116.1.136.084.144.06.156.036.164.012.168-.012.168-.036.164-.06.156-.084.144-.1.136-.12.116-.296.264-.28.28-.26.3-.244.316-.22.328-.2.344-.18.352-.156.364-.132.376-.112.38-.084.388-.064.392-.036.396-.012.396.012.384.032.384.06.38.08.376.104.368.124.364.148.356.168.344.188.336.208.324.228.308.248.296.264.28.28.264.296.248.308.228.324.208.336.188.344.168.356.148.364.124.368.104.376.08.38.06.384.032.384.012.392-.012.388-.036.384-.06.384-.084.376-.104.368-.132.36-.152.352-.172.336-.196.328-.216.312-.232.296-.256.284-.268.264-.292.244-.3.228-.32.204-.332.188-.344.164-.352.144-.364.12-.372.096-.38.072-.384.052-.388.024-.388.02-.172.044-.168.068-.16.092-.144.112-.132 3.28-3.28.14-.116.152-.096.168-.068.176-.044.18-.012h14.972l.164.012.16.032.156.06.144.08.132.096.116.116.096.132.08.144.056.156.036.16.012.164v4.136l.012.272.04.272.064.268.088.256.06.208.02.216-.016.192-.048.188-.092.316-.052.32-.02.324v4.14l-.012.164-.036.16-.056.156-.08.144-.096.132-.116.116-.132.096-.144.08-.156.056-.16.036-.164.012h-42.996l-.164-.012-.164-.036-.152-.056-.144-.08-.132-.096-.116-.116-.1-.132-.076-.144-.06-.156-.036-.16-.008-.164v-4.136l-.012-.26-.036-.256-.056-.252-.08-.248-.056-.196-.016-.204.016-.204.056-.2.08-.244.056-.256.036-.256.012-.26v-4.536l-.012-.26-.036-.256-.056-.252-.08-.248-.052-.196-.02-.204.02-.204.052-.2.1-.328.06-.34.024-.344v-4.536l-.012-.26-.036-.26-.06-.252-.08-.248-.052-.2-.02-.204.02-.204.052-.196.08-.248.056-.252.036-.256.012-.26v-.412h-6.752l-.14.12-.156.096-.168.068-.176.044-.184.016h-7.604l-.18-.016-.176-.044-.172-.068-.152-.096-.14-.12h-6.752v.412l.012.26.032.26.06.252.08.248.056.2.016.204-.016.204-.056.196-.08.248-.056.252-.036.256-.008.26v4.536l.028.412.012.164-.012.164-.036.16-.056.156-.08.144-.096.132-.12.116-.128.096-.148.08-.152.06-.16.032-.164.012-.192-.016-.184-.044-.404-.128-.408-.096-.42-.068-.42-.044-.42-.012-.4.012-.4.036-.396.064-.392.088-.384.112-.38.136-.368.16-.356.184-.344.204-.332.228-.156.096-.168.068-.176.044-.18.012-.164-.012-.16-.036-.156-.056-.144-.08-.132-.096-.116-.116-.096-.132-.08-.144-.056-.156-.036-.16-.012-.164v-5.176l-.012-.268-.036-.268-.064-.26-.084-.256-.108-.244-.132-.236-.152-.22-.172-.208-.188-.188-.208-.172-.22-.152-.236-.132-.244-.108-.256-.084-.264-.064-.264-.036-.268-.012h-17.576l-.268.012-.264.036-.264.064-.256.084-.244.108-.236.132-.22.152-.208.172-.188.188-.172.208-.152.22-.132.236-.108.244-.084.256-.064.26-.036.268-.012.268v.816l-.012.176-.044.172-.064.164-.092.156-.116.136-.132.116-.152.096-.276.16-.264.184-.252.2-.236.22-8.46 8.456-.232.252-.212.268-.188.284-.168.296-.14.312-.12.32-.092.328-.068.336-.04.34-.012.34v29.72l.012.344.04.336.068.336.092.328.12.32.14.312.168.296.188.284.212.268.232.252 3.572 3.572.116.136.096.152.068.168.04.176.016.18-.016.18-.04.176-.068.168-.096.152-.116.14-1.388 1.388-.132.112-.144.092-.16.068-.168.044-.172.02-.388.024-.388.052-.384.072-.38.096-.372.12-.364.144-.352.164-.344.188-.332.204-.32.228-.3.244-.292.264-.268.284-.256.296-.232.312-.216.328-.196.336-.172.352-.152.36-.132.368-.104.376-.084.384-.06.384-.036.388-.012.392.012.384.032.384.06.38.08.376.104.368.124.364.148.356.168.344.188.336.208.324.228.308.248.296.264.28.28.264.296.248.308.228.324.208.336.188.344.168.356.148.364.124.368.104.376.08.38.06.384.032.384.012.4-.012.4-.036.396-.064.392-.088.384-.112.38-.136.368-.16.356-.184.344-.204.332-.228.316-.244.3-.268.284-.284.264-.304.244-.316.228-.332.2-.348.18-.356.16-.368.076-.156.096-.144.116-.128.136-.104.148-.088.16-.064.168-.036.172-.016h6.356l.268-.012.268-.036.26-.06.256-.088.248-.108.232-.128.224-.152.204-.172.192-.192.172-.208.152-.22.128-.236.108-.244.088-.256.06-.26.036-.268.016-.268v-14.172l-.016-.268-.036-.268-.06-.26-.088-.256-.108-.244-.128-.236-.152-.22-.172-.208-.192-.188-.204-.172-.224-.152-.232-.132-.248-.108-.256-.084-.26-.064-.268-.036-.268-.012h-6.416l-.164-.012-.16-.036-.152-.056-.148-.08-.128-.1-.116-.116-.1-.132-.08-.144-.056-.152-.036-.16-.012-.164v-24.244l.016-.18.04-.176.072-.168.092-.156.12-.136 1.896-1.896.136-.116.152-.096.168-.068.176-.044.18-.012.196.016.184.048.18.08.16.108.228.164.24.14.256.12.264.092.272.064.276.044.28.012h15.24l.18.012.176.044.168.068.152.096.14.116 3.344 3.344.116.14.096.152.068.168.044.176.012.18-.012.164-.036.16-.056.156-.08.144-.096.132-.116.116-.132.096-.144.08-.156.056-.16.036-.164.012-.284-.036-.36-.068-.364-.024h-3.676v5.024h6.584v-2.116l-.024-.364-.068-.356-.036-.288.012-.164.036-.16.056-.156.08-.144.1-.132.116-.116.132-.096.144-.08.152-.056.16-.036.164-.012.18.016.176.04.168.068.156.096.136.116 5.624 5.624.24.228.26.204.276.184.288.168.152.092.136.12.116.136.092.152.068.168.04.172.016.18v.06l-.004.152v.412h6.768l.136-.116.152-.088.168-.068.172-.04.176-.016h7.604l.176.016.176.04.164.068.152.088.136.116h6.772l.012-.164.032-.16.06-.156.076-.144.1-.128.116-.116.132-.1.144-.08.152-.056.164-.036.164-.012h43l.164.012.16.036.152.056.144.08.132.1.116.116.1.132.076.144.06.152.036.16.012.164v.016h6.756l.136-.116.156-.096.168-.072.176-.04.18-.016h7.604l.18.016.176.04.168.072.156.096.136.116h6.76v-.016l.008-.164.036-.164.06-.152.076-.144.1-.132.116-.116.132-.1.144-.076.152-.06.164-.032.164-.012h.756l.18.012.176.044.168.068.152.096.136.116.464.464.12.136.092.156.072.168.04.176.016.18v13.936l.012.34.04.34.068.34.092.328.12.32.144.312.168.3.192.284.216.268.232.252 2.524 2.504.116.14.096.152.068.168.044.176.016.184v17.808l-.012.164-.036.16-.056.156-.08.144-.1.132-.116.116-.132.096-.144.08-.152.056-.16.036-.164.012h-.18l-.268.012-.264.036-.264.064-.252.084-.248.108-.236.132-.22.152-.208.172-.188.188-.172.208-.152.22-.132.236-.108.244-.084.256-.06.264-.04.264-.012.268v17.576l.012.268.04.264.06.264.084.256.108.244.132.236.152.22.172.208.188.188.208.172.22.152.236.132.248.108.252.084.264.064.264.036.268.012h11.34l.268-.012.268-.036.26-.064.256-.084.244-.108.236-.132.22-.152.208-.172.188-.188.172-.208.152-.22.132-.236.108-.244.084-.256.064-.264.036-.264.012-.268v-17.576l-.012-.268-.036-.264-.064-.264-.084-.256-.108-.244-.132-.236-.152-.22-.172-.208-.188-.188-.208-.172-.22-.152-.236-.132-.244-.108-.256-.084-.26-.064-.268-.036-.268-.012h-.16l-.164-.012-.16-.036-.156-.056-.144-.08-.132-.096-.116-.116-.096-.132-.08-.144-.056-.156-.036-.16-.012-.164v-15.972l.012-.164.036-.164.056-.152.08-.144.096-.132.116-.116.132-.1.144-.076.156-.06.16-.032.164-.012.184.012.18.044.168.072.156.1.28.188.292.172.304.144.316.12.324.096.332.072.172.044.164.072.152.096.136.116.116.136.092.156.068.164.04.172.016.18v4.912l.016.304.048.3.076.296.112.284.072.228.028.24-.02.212-.06.208-.096.188-.196.34-.176.352-.156.364-.132.372-.108.376-.084.384-.06.392-.036.392-.012.392.012.384.032.384.06.38.08.376.104.368.124.364.148.356.168.344.188.336.208.324.228.308.248.296.264.28.28.264.296.248.308.228.324.208.336.188.344.168.356.148.364.124.368.104.376.08.38.06.384.032.384.012.396-.012.392-.036.392-.06.388-.088.38-.108.372-.132.364-.156.156-.06.16-.036.168-.012.164.012.16.036.156.056.144.08.132.096.116.12.096.128.08.148.056.152.036.16.012.164v6.144l30.3 16.528.148.096.132.116.112.136.092.152.064.164.04.172.012.176-.012.164-.032.16-.06.152-.076.148-.1.128-.116.116-.132.1-.144.08-.152.056-.164.036-.164.012zm106.476-2.676.268-.012.264-.036.264-.064.252-.084.248-.108.236-.132.22-.152.208-.172.188-.188.172-.208.152-.22.132-.236.108-.244.084-.256.06-.264.04-.264.012-.268v-17.576l-.012-.268-.04-.264-.06-.264-.084-.256-.108-.244-.132-.236-.152-.22-.172-.208-.188-.188-.208-.172-.22-.152-.236-.132-.248-.108-.252-.084-.264-.064-.264-.036-.268-.012h-11.34l-.268.012-.268.036-.26.064-.256.084-.244.108-.236.132-.22.152-.208.172-.188.188-.172.208-.152.22-.132.236-.108.244-.084.256-.064.264-.036.264-.012.268v3.056l-.012.164-.036.16-.056.156-.08.144-.1.132-.116.116-.128.096-.148.08-.152.06-.16.032-.164.012h-22.744l-.164-.012-.16-.032-.152-.06-.144-.08-.132-.096-.116-.116-.1-.132-.08-.144-.056-.156-.036-.16-.012-.164v-1.584l-.012-.268-.036-.268-.06-.26-.088-.256-.108-.244-.132-.236-.152-.22-.168-.208-.192-.192-.208-.172-.22-.152-.236-.128-.244-.108-.256-.088-.26-.06-.268-.036-.268-.012h-7.936l-.268.012-.268.036-.26.06-.256.088-.244.108-.236.128-.22.152-.208.172-.192.192-.168.208-.152.22-.132.236-.108.244-.088.256-.06.26-.036.268-.012.268v14.172l.012.268.036.268.06.26.088.256.108.244.132.236.152.22.168.208.192.188.208.172.22.152.236.132.244.108.256.084.26.064.268.036.268.012h7.936l.268-.012.268-.036.26-.064.256-.084.244-.108.236-.132.22-.152.208-.172.192-.188.168-.208.152-.22.132-.236.108-.244.088-.256.06-.26.036-.268.012-.268v-1.584l.012-.164.036-.164.056-.152.08-.144.1-.132.116-.116.132-.1.144-.076.152-.06.16-.032.164-.012h3.236l.164.012.164.036.156.056.144.08.132.1.116.12.1.136.076.144.056.156.036.164.06.38.08.372.104.368.128.364.148.352.168.344.192.332.208.32.228.308.248.292.26.28.28.26.296.244.308.228.324.208.332.184.344.168.356.148.36.124.372.1.372.08.38.06.38.032.384.012.384-.012.38-.032.38-.06.372-.08.372-.1.36-.124.356-.148.344-.168.332-.184.324-.208.308-.228.296-.244.28-.26.26-.28.248-.292.228-.308.208-.32.192-.332.168-.344.148-.352.128-.364.104-.368.08-.372.06-.38.036-.164.056-.156.076-.144.1-.136.116-.12.132-.1.144-.08.156-.056.164-.036.164-.012h4.596l.164.012.16.032.152.06.148.076.128.1.116.116.1.132.08.144.056.152.036.164.012.164v3.516l.012.268.036.264.064.264.084.256.108.244.132.236.152.22.172.208.188.188.208.172.22.152.236.132.244.108.256.084.26.064.268.036.268.012zm-5.492-26.636.268-.012.268-.04.26-.06.256-.084.248-.112.232-.128.224-.152.204-.172.192-.192.172-.204.152-.224.128-.232.108-.248.088-.256.06-.26.036-.264.016-.272v-4.008l.008-.164.036-.16.06-.152.076-.148.1-.128.116-.116.132-.1.144-.08.152-.056.164-.036.164-.012h1.972l.172.012.168.04.164.064.148.084.136.108.296.264.316.244.332.22.34.2.356.18.364.16.376.132.38.112.388.084.396.064.396.036.396.012.384-.012.384-.032.38-.06.376-.08.368-.104.364-.124.356-.148.344-.168.336-.188.324-.208.308-.228.296-.248.28-.264.264-.28.248-.296.228-.308.208-.324.188-.336.168-.344.148-.356.124-.364.104-.368.08-.376.06-.38.032-.384.012-.384-.012-.384-.036-.388-.056-.38-.08-.376-.104-.372-.128-.368-.148-.356-.172-.344-.188-.336-.212-.324-.228-.312-.248-.296-.268-.28-.28-.264-.3-.244-.312-.228-.324-.208-.336-.188-.348-.168-.36-.148-.364-.124-.372-.1-.16-.052-.152-.076-.14-.096-.124-.112-.104-.132-.088-.148-.06-.156-.04-.164-.016-.168-.016-.396-.044-.392-.068-.392-.092-.384-.112-.38-.14-.372-.16-.36-.184-.352-.204-.34-.228-.324-.244-.312-.264-.296-.284-.276-.3-.26-.312-.244-.328-.22-.344-.2-.352-.176-.364-.156-.376-.136-.38-.108-.388-.088-.388-.06-.396-.036-.396-.012-.568.024-.564.076-.428.092-.42.124-.412.152-.212.06-.224.024h-6.416l-.14.116-.156.096-.168.072-.176.04-.18.016h-7.604l-.18-.016-.176-.04-.168-.072-.156-.096-.136-.116h-6.756v.412l.008.26.036.256.056.252.08.248.056.196.02.208-.02.204-.056.196-.08.248-.056.252-.036.256-.008.26v4.532l.008.26.036.26.056.252.08.244.056.2.02.204-.02.204-.056.2-.08.244-.056.256-.036.256-.008.26v4.532l.008.26.036.256.056.252.08.248.056.196.02.208-.02.204-.056.196-.08.248-.056.252-.036.256-.008.26v4.532l.012.272.036.264.06.26.088.256.108.248.128.232.152.224.172.204.192.192.208.172.22.152.236.128.244.112.256.084.26.06.268.04.268.012zm68.056.004.268-.012.268-.04.26-.06.256-.084.244-.112.236-.128.224-.152.204-.172.192-.192.172-.204.152-.224.128-.232.108-.248.088-.252.06-.264.036-.264.016-.268v-4.536l-.012-.26-.036-.26-.056-.252-.08-.248-.056-.196-.02-.204.02-.204.056-.2.076-.244.06-.256.032-.256.012-.256v-4.536l-.02-.344-.06-.34-.1-.332-.056-.196-.016-.204.016-.204.056-.196.08-.248.056-.252.036-.26.012-.256v-4.536l-.012-.26-.036-.256-.056-.256-.08-.244-.056-.2-.016-.204.016-.204.056-.196.08-.248.056-.252.036-.256.012-.26v-4.536l-.012-.26-.036-.256-.056-.252-.08-.248-.056-.196-.016-.204.016-.204.056-.2.08-.244.056-.252.036-.26.012-.256v-.416h-6.76l-.136.12-.156.092-.168.072-.176.04-.18.016h-7.604l-.18-.016-.176-.04-.168-.072-.156-.092-.136-.12h-6.756v.416l.008.256.036.26.056.252.08.244.056.2.016.204-.016.204-.056.196-.08.248-.056.252-.036.256-.008.26v4.536l.008.26.036.256.056.252.08.248.056.196.016.204-.016.204-.056.2-.08.244-.056.256-.036.256-.008.26v4.536l.02.344.06.336.1.332.056.196.016.204-.016.204-.056.2-.08.244-.056.256-.036.256-.012.26v4.536l.012.26.036.256.056.252.08.248.056.196.016.208-.016.204-.056.196-.08.248-.056.252-.036.256-.008.26v4.536l.012.268.036.264.06.264.088.252.108.248.128.232.152.224.172.204.192.192.204.172.224.152.236.128.244.112.256.084.26.06.268.04.268.012zm-167.776-57.036.268-.012.268-.036.26-.064.256-.084.244-.108.236-.132.22-.152.208-.172.188-.188.172-.208.152-.22.132-.236.108-.244.084-.256.064-.26.036-.268.012-.268v-3.6h-6.508v6.508zm168.6 66.86v-3.676l-.012-.268-.04-.264-.06-.264-.084-.256-.108-.244-.132-.236-.152-.22-.172-.208-.188-.188-.208-.172-.22-.152-.236-.132-.248-.108-.252-.084-.264-.064-.264-.036-.268-.012h-2.116v6.584zm-2.908 16.808.268-.012.264-.036.264-.064.252-.084.248-.108.236-.132.22-.152.208-.172.188-.188.172-.208.152-.22.132-.236.108-.244.084-.256.06-.264.04-.264.012-.268v-3.676h-5.024v6.584zm-39.92-23.392v6.584h5.024v-3.676l-.012-.268-.036-.264-.064-.264-.084-.256-.108-.244-.132-.236-.152-.22-.172-.208-.188-.188-.208-.172-.22-.152-.236-.132-.244-.108-.256-.084-.26-.064-.268-.036-.268-.012zm-7.108 6.584v-6.584h-2.116l-.268.012-.264.036-.264.064-.252.084-.248.108-.236.132-.22.152-.208.172-.188.188-.172.208-.152.22-.132.236-.108.244-.084.256-.06.264-.04.264-.012.268v3.676zm32.78 13.9.012.268.036.264.064.264.084.256.108.244.132.236.152.22.172.208.188.188.208.172.22.152.236.132.244.108.256.084.26.064.268.036.268.012h2.116v-6.584h-5.024zm-23.556 2.908.268-.012.268-.036.26-.064.256-.084.244-.108.236-.132.22-.152.208-.172.188-.188.172-.208.152-.22.132-.236.108-.244.084-.256.064-.264.036-.264.012-.268v-3.676h-5.024v6.584zm23.556-20.484v3.676h5.024v-6.584h-2.116l-.268.012-.268.036-.26.064-.256.084-.244.108-.236.132-.22.152-.208.172-.188.188-.172.208-.152.22-.132.236-.108.244-.084.256-.064.264-.036.264zm-37.804 17.576.012.268.04.264.06.264.084.256.108.244.132.236.152.22.172.208.188.188.208.172.22.152.236.132.248.108.252.084.264.064.264.036.268.012h2.116v-6.584h-5.024zm-66.296-66.48v2.116h6.584v-5.024h-3.676l-.268.012-.264.04-.264.06-.256.084-.244.108-.236.132-.22.152-.208.172-.188.188-.172.208-.152.22-.132.236-.108.248-.084.252-.064.264-.036.264zm0 11.34.012.268.036.268.064.26.084.256.108.244.132.236.152.22.172.208.188.188.208.172.22.152.236.132.244.108.256.084.264.064.264.036.268.012h3.676v-5.024h-6.584zm20.484 2.908.268-.012.264-.036.264-.064.256-.084.244-.108.236-.132.22-.152.208-.172.188-.188.172-.208.152-.22.132-.236.108-.244.084-.256.064-.26.036-.268.012-.268v-2.116h-6.584v5.024zm-4.896 21.96.016.268.036.268.06.26.088.256.108.244.128.236.152.22.172.208.192.192.204.172.224.152.232.128.248.108.256.088.26.06.268.036.268.012h1.264v-5.732h-4.176zm0-14.172v2.824h4.176v-5.732h-1.264l-.268.012-.268.036-.26.064-.256.084-.248.108-.232.132-.224.152-.204.172-.192.188-.172.208-.152.22-.128.236-.108.244-.088.256-.06.26-.036.268zm13.756 2.824v-2.824l-.012-.268-.036-.268-.064-.26-.084-.256-.108-.244-.132-.236-.152-.22-.172-.208-.188-.188-.208-.172-.22-.152-.236-.132-.244-.108-.256-.084-.26-.064-.268-.036-.268-.012h-1.264v5.732zm-2.908 14.256.268-.012.268-.036.26-.06.256-.088.244-.108.236-.128.22-.152.208-.172.188-.192.172-.208.152-.22.132-.236.108-.244.084-.256.064-.26.036-.268.012-.268v-2.824h-4.172v5.732zm6.1-25.916v.412h6.42v-3.676h-6.42v.412l.008.26.036.26.06.252.08.248.056.2.016.204-.016.208-.056.196-.08.248-.06.256-.036.26zm22.752.412v-.412l-.012-.26-.036-.26-.06-.256-.08-.248-.052-.196-.02-.208.02-.204.052-.2.08-.248.06-.252.036-.26.012-.26v-.412h-6.424v3.676zm-16.336-44.22v-3.32h-3.512l-.268.012-.268.036-.26.06-.256.088-.244.108-.236.132-.22.152-.208.168-.188.192-.172.208-.152.22-.132.236-.108.244-.084.256-.064.26-.036.268-.012.268v.412zm16.332 0v-.412l-.012-.268-.04-.268-.06-.26-.084-.256-.108-.244-.132-.236-.152-.22-.172-.208-.188-.192-.208-.168-.224-.152-.232-.132-.248-.108-.252-.088-.264-.06-.264-.036-.268-.012h-3.516v3.32z" fill="#f00"/><path d="m182.988 72.232h-.98l-8.408 8.408" stroke="#f00" stroke-linecap="round" stroke-linejoin="round" stroke-width="2.88"/><path d="m182.988 72.232-7.948-7.952v-29.72l8.46-8.46h10.26" stroke="#f00" stroke-linecap="round" stroke-linejoin="round" stroke-width="2.88"/><path d="m225.988 43.832h-9.996l-17.74-17.74h-4.492" stroke="#f00" stroke-linecap="round" stroke-linejoin="round" stroke-width="2.88"/><path d="m349.564 87.816-7.224 7.224h-7.46" stroke="#f00" stroke-linecap="round" stroke-linejoin="round" stroke-width="2.88"/><path d="m296.92 43.832h12.672l3.688 3.688v16.216l4.148 4.116v32.948" stroke="#f00" stroke-linecap="round" stroke-linejoin="round" stroke-width="2.88"/><path d="m340.64 67.564h-14.428l-7.172-7.172v-15.84l-8.208-8.208h-13.94" stroke="#f00" stroke-linecap="round" stroke-linejoin="round" stroke-width="2.88"/><path d="m340.64 60.48h-12.872l-2.996-2.996v-15.84l-12.672-12.672h-15.264" stroke="#f00" stroke-linecap="round" stroke-linejoin="round" stroke-width="2.88"/><path d="m230.296 73.312.124.128h16.62" stroke="#f00" stroke-linecap="round" stroke-linejoin="round" stroke-width="2.88"/><path d="m230.296 65.944.296.296h10.688" stroke="#f00" stroke-linecap="round" stroke-linejoin="round" stroke-width="2.88"/><path d="m212.496 100.66-.016.016v4.444" stroke="#f00" stroke-linecap="round" stroke-linejoin="round" stroke-width="2.88"/><path d="m195.2 100.568h38.832l.228.232" stroke="#f00" stroke-linecap="round" stroke-linejoin="round" stroke-width="2.88"/><path d="m340.664 45.864-7.224-7.224v-2.64" stroke="#f00" stroke-linecap="round" stroke-linejoin="round" stroke-width="2.88"/><path d="m298.348 43.836h-66.612l-1.44-1.444" stroke="#f00" stroke-linecap="round" stroke-linejoin="round" stroke-width="2.88"/><path d="m340.664 75.344h-.488l-8.176 8.176 2.88-2.88" stroke="#f00" stroke-linecap="round" stroke-linejoin="round" stroke-width="2.88"/><path d="m349.572 32.92-17.572.2" stroke="#f00" stroke-linecap="round" stroke-linejoin="round" stroke-width="2.88"/><path d="m389.564 42.388v-13.568l-9.38-9.38" stroke="#f00" stroke-linecap="round" stroke-linejoin="round" stroke-width="2.88"/><path d="m389.38 79.564v12.76l-9.196 9.196" stroke="#f00" stroke-linecap="round" stroke-linejoin="round" stroke-width="2.88"/><path d="m340.668 67.68v.288" stroke="#f00" stroke-linecap="round" stroke-linejoin="round" stroke-width="2.88"/><path d="m389.564 42.388-.184 37.176" stroke="#f00" stroke-linecap="round" stroke-linejoin="round" stroke-width="2.88"/><path d="m380.184 19.44-12.24-12.24h-4.264" stroke="#f00" stroke-linecap="round" stroke-linejoin="round" stroke-width="2.88"/><path d="m380.184 101.52-12.24 12.24h-5.704" stroke="#f00" stroke-linecap="round" stroke-linejoin="round" stroke-width="2.88"/><path d="m294.028 14.352h-33.98l-4.368 4.368" stroke="#f00" stroke-linecap="round" stroke-linejoin="round" stroke-width="2.88"/><path d="m293.972 21.728h-29.78l-8.512 8.512" stroke="#f00" stroke-linecap="round" stroke-linejoin="round" stroke-width="2.88"/><path d="m207.896 35.736v-.912l3.144-3.144" stroke="#f00" stroke-linecap="round" stroke-linejoin="round" stroke-width="2.88"/><path d="m329.328 43.312h22.676v5.104h-22.676z" fill="#f00"/><path d="m329.328 50.684h22.676v5.1h-22.676z" fill="#f00"/><path d="m329.328 58.052h22.676v5.104h-22.676z" fill="#f00"/><path d="m329.328 65.424h22.676v5.1h-22.676z" fill="#f00"/><path d="m329.328 72.792h22.676v5.104h-22.676z" fill="#f00"/><path d="m382.756 51.464v-18.144h13.604v18.144z" fill="#f00"/><path d="m382.568 88.64v-18.144h13.608v18.144z" fill="#f00"/><path d="m289.072 92.012h11.34v17.576h-11.34z" fill="#f00"/><path d="m311.748 92.012h11.34v17.576h-11.34z" fill="#f00"/><path d="m189.792 93.484h7.936v14.172h-7.936z" fill="#f00"/><path d="m179.02 65.144h7.936v14.172h-7.936z" fill="#f00"/><path d="m200.564 65.144h7.936v14.172h-7.936z" fill="#f00"/><path d="m234.44 41.568v4.532h-16.932v-4.532z" fill="#f00"/><path d="m234.44 48.924v4.532h-16.932v-4.532z" fill="#f00"/><path d="m234.44 56.308v4.532h-16.932v-4.532z" fill="#f00"/><path d="m234.44 63.676v4.532h-16.932v-4.532z" fill="#f00"/><path d="m302.44 19.46v4.532h-16.936v-4.532z" fill="#f00"/><path d="m234.44 19.456v4.536h-16.932v-4.536z" fill="#f00"/><path d="m234.44 26.828v4.536h-16.932v-4.536z" fill="#f00"/><path d="m234.44 34.196v4.536h-16.932v-4.536z" fill="#f00"/><path d="m302.496 71.048v4.536h-16.936v-4.536z" fill="#f00"/><path d="m302.496 63.676v4.536h-16.936v-4.536z" fill="#f00"/><path d="m302.496 56.308v4.536h-16.936v-4.536z" fill="#f00"/><path d="m302.496 48.936v4.536h-16.936v-4.536z" fill="#f00"/><path d="m302.496 41.568v4.536h-16.936v-4.536z" fill="#f00"/><path d="m302.496 34.196v4.536h-16.936v-4.536z" fill="#f00"/><path d="m234.44 71.048v4.532h-16.932v-4.532z" fill="#f00"/><path d="m302.44 26.828v4.536h-16.936v-4.536z" fill="#f00"/><path d="m234.44 12.088v4.532h-16.936v-4.532z" fill="#f00"/><path d="m234.44 78.416v4.532h-16.932v-4.532z" fill="#f00"/><path d="m302.496 78.416v4.536h-16.936v-4.536z" fill="#f00"/><path d="m302.496 12.088v4.532h-16.936v-4.532z" fill="#f00"/><path d="m262.608 109.588h-11.34v-17.576h11.34z" fill="#f00"/><path d="m239.932 109.588h-11.34v-17.576h11.34z" fill="#f00"/><path d="m184.972 54.448v-11.34h17.576v11.34z" fill="#f00"/><path d="m184.972 31.772v-11.34h17.576v11.34z" fill="#f00"/><path d="m375.076 19.444h10.204" stroke="#cbcbcb" stroke-linecap="round" stroke-linejoin="round" stroke-width="14.76"/><path d="m384.712 19.444h-9.072" stroke="#2c2c2c" stroke-linecap="round" stroke-linejoin="round" stroke-width="7.92"/><path d="m375.076 101.524h10.204" stroke="#cbcbcb" stroke-linecap="round" stroke-linejoin="round" stroke-width="14.76"/><path d="m384.712 101.524h-9.072" stroke="#2c2c2c" stroke-linecap="round" stroke-linejoin="round" stroke-width="7.92"/><path d="m356.92 87.8c0-4.04-3.28-7.36-7.36-7.36s-7.36 3.32-7.36 7.36c0 4.08 3.28 7.4 7.36 7.4s7.36-3.32 7.36-7.4" fill="#cbcbcb"/><path d="m354.68 87.8c0-2.8-2.28-5.08-5.12-5.08-2.8 0-5.12 2.28-5.12 5.08 0 2.84 2.32 5.12 5.12 5.12 2.84 0 5.12-2.28 5.12-5.12" fill="#2c2c2c"/><path d="m356.92 32.92c0-4.08-3.28-7.36-7.36-7.36s-7.36 3.28-7.36 7.36 3.28 7.36 7.36 7.36 7.36-3.28 7.36-7.36" fill="#cbcbcb"/><path d="m354.68 32.92c0-2.8-2.28-5.08-5.12-5.08-2.8 0-5.12 2.28-5.12 5.08 0 2.84 2.32 5.12 5.12 5.12 2.84 0 5.12-2.28 5.12-5.12" fill="#2c2c2c"/><path d="m134.72 8.64v17.28h-17.28v-17.28z" fill="#cbcbcb"/><path d="m131.28 17.28c0-2.88-2.32-5.2-5.2-5.2s-5.2 2.32-5.2 5.2 2.32 5.2 5.2 5.2 5.2-2.32 5.2-5.2" fill="#2c2c2c"/><path d="m134.72 46.08c0-4.76-3.88-8.64-8.64-8.64s-8.64 3.88-8.64 8.64 3.88 8.64 8.64 8.64 8.64-3.88 8.64-8.64" fill="#cbcbcb"/><path d="m131.28 46.08c0-2.88-2.32-5.2-5.2-5.2s-5.2 2.32-5.2 5.2 2.32 5.2 5.2 5.2 5.2-2.32 5.2-5.2" fill="#2c2c2c"/><path d="m134.72 74.88c0-4.76-3.88-8.64-8.64-8.64s-8.64 3.88-8.64 8.64 3.88 8.64 8.64 8.64 8.64-3.88 8.64-8.64" fill="#cbcbcb"/><path d="m131.28 74.88c0-2.88-2.32-5.2-5.2-5.2s-5.2 2.32-5.2 5.2 2.32 5.2 5.2 5.2 5.2-2.32 5.2-5.2" fill="#2c2c2c"/><path d="m134.72 103.68c0-4.76-3.88-8.64-8.64-8.64s-8.64 3.88-8.64 8.64 3.88 8.64 8.64 8.64 8.64-3.88 8.64-8.64" fill="#cbcbcb"/><path d="m131.28 103.68c0-2.88-2.32-5.2-5.2-5.2s-5.2 2.32-5.2 5.2 2.32 5.2 5.2 5.2 5.2-2.32 5.2-5.2" fill="#2c2c2c"/><path d="m247.6 36c0-1.92-1.52-3.44-3.44-3.44s-3.44 1.52-3.44 3.44 1.52 3.44 3.44 3.44 3.44-1.52 3.44-3.44" fill="#cbcbcb"/><path d="m245.88 36c0-.96-.76-1.72-1.72-1.72s-1.72.76-1.72 1.72.76 1.72 1.72 1.72 1.72-.76 1.72-1.72" fill="#2c2c2c"/><path d="m161.2 30.24c0-1.92-1.52-3.44-3.44-3.44s-3.44 1.52-3.44 3.44 1.52 3.44 3.44 3.44 3.44-1.52 3.44-3.44" fill="#cbcbcb"/><path d="m159.48 30.24c0-.96-.76-1.72-1.72-1.72s-1.72.76-1.72 1.72.76 1.72 1.72 1.72 1.72-.76 1.72-1.72" fill="#2c2c2c"/><path d="m185.68 86.4c0-1.92-1.52-3.44-3.44-3.44s-3.44 1.52-3.44 3.44 1.52 3.44 3.44 3.44 3.44-1.52 3.44-3.44" fill="#cbcbcb"/><path d="m183.96 86.4c0-.96-.76-1.72-1.72-1.72s-1.72.76-1.72 1.72.76 1.72 1.72 1.72 1.72-.76 1.72-1.72" fill="#2c2c2c"/><path d="m266.32 66.24c0-1.92-1.52-3.44-3.44-3.44s-3.44 1.52-3.44 3.44 1.52 3.44 3.44 3.44 3.44-1.52 3.44-3.44" fill="#cbcbcb"/><path d="m264.6 66.24c0-.96-.76-1.72-1.72-1.72s-1.72.76-1.72 1.72.76 1.72 1.72 1.72 1.72-.76 1.72-1.72" fill="#2c2c2c"/><path d="m335.44 105.12c0-1.92-1.52-3.44-3.44-3.44s-3.44 1.52-3.44 3.44 1.52 3.44 3.44 3.44 3.44-1.52 3.44-3.44" fill="#cbcbcb"/><path d="m333.72 105.12c0-.96-.76-1.72-1.72-1.72s-1.72.76-1.72 1.72.76 1.72 1.72 1.72 1.72-.76 1.72-1.72" fill="#2c2c2c"/><path d="m177.04 80.64c0-1.92-1.52-3.44-3.44-3.44s-3.44 1.52-3.44 3.44 1.52 3.44 3.44 3.44 3.44-1.52 3.44-3.44" fill="#cbcbcb"/><path d="m175.32 80.64c0-.96-.76-1.72-1.72-1.72s-1.72.76-1.72 1.72.76 1.72 1.72 1.72 1.72-.76 1.72-1.72" fill="#2c2c2c"/><path d="m335.44 83.52c0-1.92-1.52-3.44-3.44-3.44s-3.44 1.52-3.44 3.44 1.52 3.44 3.44 3.44 3.44-1.52 3.44-3.44" fill="#cbcbcb"/><path d="m333.72 83.52c0-.96-.76-1.72-1.72-1.72s-1.72.76-1.72 1.72.76 1.72 1.72 1.72 1.72-.76 1.72-1.72" fill="#2c2c2c"/><path d="m334 31.68c0-1.92-1.52-3.44-3.44-3.44s-3.44 1.52-3.44 3.44 1.52 3.44 3.44 3.44 3.44-1.52 3.44-3.44" fill="#cbcbcb"/><path d="m332.28 31.68c0-.96-.76-1.72-1.72-1.72s-1.72.76-1.72 1.72.76 1.72 1.72 1.72 1.72-.76 1.72-1.72" fill="#2c2c2c"/><path d="m215.92 105.12c0-1.92-1.52-3.44-3.44-3.44s-3.44 1.52-3.44 3.44 1.52 3.44 3.44 3.44 3.44-1.52 3.44-3.44" fill="#cbcbcb"/><path d="m214.2 105.12c0-.96-.76-1.72-1.72-1.72s-1.72.76-1.72 1.72.76 1.72 1.72 1.72 1.72-.76 1.72-1.72" fill="#2c2c2c"/><path d="m243.28 66.24c0-1.92-1.52-3.44-3.44-3.44s-3.44 1.52-3.44 3.44 1.52 3.44 3.44 3.44 3.44-1.52 3.44-3.44" fill="#cbcbcb"/><path d="m241.56 66.24c0-.96-.76-1.72-1.72-1.72s-1.72.76-1.72 1.72.76 1.72 1.72 1.72 1.72-.76 1.72-1.72" fill="#2c2c2c"/><path d="m249.04 73.44c0-1.92-1.52-3.44-3.44-3.44s-3.44 1.52-3.44 3.44 1.52 3.44 3.44 3.44 3.44-1.52 3.44-3.44" fill="#cbcbcb"/><path d="m247.32 73.44c0-.96-.76-1.72-1.72-1.72s-1.72.76-1.72 1.72.76 1.72 1.72 1.72 1.72-.76 1.72-1.72" fill="#2c2c2c"/><path d="m259.12 18.72c0-1.92-1.52-3.44-3.44-3.44s-3.44 1.52-3.44 3.44 1.52 3.44 3.44 3.44 3.44-1.52 3.44-3.44" fill="#cbcbcb"/><path d="m257.4 18.72c0-.96-.76-1.72-1.72-1.72s-1.72.76-1.72 1.72.76 1.72 1.72 1.72 1.72-.76 1.72-1.72" fill="#2c2c2c"/><path d="m259.12 30.24c0-1.92-1.52-3.44-3.44-3.44s-3.44 1.52-3.44 3.44 1.52 3.44 3.44 3.44 3.44-1.52 3.44-3.44" fill="#cbcbcb"/><path d="m257.4 30.24c0-.96-.76-1.72-1.72-1.72s-1.72.76-1.72 1.72.76 1.72 1.72 1.72 1.72-.76 1.72-1.72" fill="#2c2c2c"/><path d="m214.48 31.68c0-1.92-1.52-3.44-3.44-3.44s-3.44 1.52-3.44 3.44 1.52 3.44 3.44 3.44 3.44-1.52 3.44-3.44" fill="#cbcbcb"/><path d="m212.76 31.68c0-.96-.76-1.72-1.72-1.72s-1.72.76-1.72 1.72.76 1.72 1.72 1.72 1.72-.76 1.72-1.72" fill="#2c2c2c"/><path d="m273.52 93.6c0-1.92-1.52-3.44-3.44-3.44s-3.44 1.52-3.44 3.44 1.52 3.44 3.44 3.44 3.44-1.52 3.44-3.44" fill="#cbcbcb"/><path d="m271.8 93.6c0-.96-.76-1.72-1.72-1.72s-1.72.76-1.72 1.72.76 1.72 1.72 1.72 1.72-.76 1.72-1.72" fill="#2c2c2c"/><g stroke-linecap="round" stroke-linejoin="round"><path d="m403.42 105.5h-1.132l-6.688-6.692" stroke="#fc0" stroke-width="2.88"/><path d="m403.648 15.36h-1.36l-6.688 6.688" stroke="#fc0" stroke-width="2.88"/><path d="m395.6 22.048v76.76" stroke="#fc0" stroke-width="2.88"/><path d="m403.648 15.132v90.708" stroke="#fc0" stroke-width="2.88"/><path d="m338.34 105.84v-25.324" stroke="#fc0" stroke-width="2.88"/><path d="m338.34 40.692v-25.56" stroke="#fc0" stroke-width="2.88"/><path d="m338.456 15.132h27.612" stroke="#fc0" stroke-width="2.88"/><path d="m394.288 15.132h9.36" stroke="#fc0" stroke-width="2.88"/><path d="m338.34 105.84h27.728" stroke="#fc0" stroke-width="2.88"/><path d="m394.288 105.84h9.132" stroke="#fc0" stroke-width="2.88"/><path d="m77.12 70.56h-70.56l-5.76 4.32v1.44l5.76 4.32h70.56" stroke="#fc0" stroke-width="2.88"/><path d="m77.12 41.76h-70.56l-5.76 4.32v1.44l5.76 4.32h70.56" stroke="#fc0" stroke-width="2.88"/><path d="m77.12 12.96h-70.56l-5.76 4.32v1.44l5.76 4.32h70.56" stroke="#fc0" stroke-width="2.88"/><path d="m77.12 99.36h-70.56l-5.76 4.32v1.44l5.76 4.32h70.56" stroke="#fc0" stroke-width="2.88"/><path d="m106.236 2.652v115.656h-28.348v-115.656z" stroke="#fc0" stroke-width="2.88"/><path d="m325.924 91.728v18.144" stroke="#fc0" stroke-width="2.88"/><path d="m286.236 91.728v18.144" stroke="#fc0" stroke-width="2.88"/><path d="m311.748 112.592h11.908" stroke="#fc0" stroke-width="2.88"/><path d="m311.748 89.008h11.908" stroke="#fc0" stroke-width="2.88"/><path d="m300.412 112.592h-11.908" stroke="#fc0" stroke-width="2.88"/><path d="m300.412 89.008h-11.908" stroke="#fc0" stroke-width="2.88"/><path d="m286.236 91.504v.224" stroke="#fc0" stroke-width="2.88"/><path d="m286.236 91.276v.452" stroke="#fc0" stroke-width="2.88"/><path d="m286.236 110.324v-.452" stroke="#fc0" stroke-width="2.88"/><path d="m325.924 91.276v.452" stroke="#fc0" stroke-width="2.88"/><path d="m325.924 110.324v-.452" stroke="#fc0" stroke-width="2.88"/><path d="m184.688 93.768h-7.484 7.484-7.484v-9.24" stroke="#fc0" stroke-width="2.88"/><path d="m210.316 84.528v9.24h-7.484" stroke="#fc0" stroke-width="2.88"/><path d="m197.16 76.196h-6.8" stroke="#fc0" stroke-width="2.28"/><path d="m283.864 84.936h-47.728v.004" stroke="#fc0" stroke-width="2.88"/><path d="m236.136 10.096v.008" stroke="#fc0" stroke-width="2.88"/><path d="m266.804 10.104h17.064" stroke="#fc0" stroke-width="2.88"/><path d="m236.136 10.096 17.06.008" stroke="#fc0" stroke-width="2.88"/><path d="m225.756 109.872v-18.144" stroke="#fc0" stroke-width="2.88"/><path d="m265.444 109.872v-18.144" stroke="#fc0" stroke-width="2.88"/><path d="m239.932 89.008h-11.908" stroke="#fc0" stroke-width="2.88"/><path d="m239.932 112.592h-11.908" stroke="#fc0" stroke-width="2.88"/><path d="m251.268 89.008h11.908" stroke="#fc0" stroke-width="2.88"/><path d="m251.268 112.592h11.908" stroke="#fc0" stroke-width="2.88"/><path d="m265.444 110.096v-.224" stroke="#fc0" stroke-width="2.88"/><path d="m265.444 110.324v-.452" stroke="#fc0" stroke-width="2.88"/><path d="m265.444 91.276v.452" stroke="#fc0" stroke-width="2.88"/><path d="m225.756 110.324v-.452" stroke="#fc0" stroke-width="2.88"/><path d="m225.756 91.276v.452" stroke="#fc0" stroke-width="2.88"/><path d="m184.688 17.596h18.144" stroke="#fc0" stroke-width="2.88"/><path d="m184.688 57.284h18.144" stroke="#fc0" stroke-width="2.88"/><path d="m205.552 31.772v-11.908" stroke="#fc0" stroke-width="2.88"/><path d="m181.968 31.772v-11.908" stroke="#fc0" stroke-width="2.88"/><path d="m205.552 43.108v11.908" stroke="#fc0" stroke-width="2.88"/><path d="m181.968 43.108v11.908" stroke="#fc0" stroke-width="2.88"/><path d="m184.464 57.284h.224" stroke="#fc0" stroke-width="2.88"/><path d="m184.236 57.284h.452" stroke="#fc0" stroke-width="2.88"/><path d="m203.284 57.284h-.452" stroke="#fc0" stroke-width="2.88"/><path d="m184.236 17.596h.452" stroke="#fc0" stroke-width="2.88"/><path d="m203.284 17.596h-.452" stroke="#fc0" stroke-width="2.88"/><path d="m155.544 14.024-.52-1.036-1.064-1.036-1.04-.548h-2.1l-1.036.548-1.068 1.036-.516 1.036-.52 1.584v2.624l.52 1.552.516 1.068 1.068 1.036 1.036.52h2.1l1.04-.52 1.064-1.036.52-1.068v-1.552m-2.624 0h2.624m3.456-6.828v11.004m0-11.004 7.312 11.004m0-11.004v11.004m3.456-11.004v11.004m0-11.004h3.688l1.556.548 1.036 1.036.548 1.036.516 1.584v2.624l-.516 1.552-.548 1.068-1.036 1.036-1.556.52h-3.688" stroke="#fc0" stroke-width="2.32"/><path d="m150.156 99.244h5.76l-3.14 4.204h1.584l1.04.52.516.52.548 1.584v1.036l-.548 1.584-1.036 1.036-1.584.52h-1.556l-1.584-.52-.516-.52-.52-1.064m10.8-8.9 4.176 11.004m4.176-11.004-4.176 11.004m8.696-11.004h5.76l-3.136 4.204h1.552l1.068.52.516.52.52 1.584v1.036l-.52 1.584-1.064 1.036-1.556.52h-1.584l-1.556-.52-.516-.52-.548-1.064" stroke="#fc0" stroke-width="2.32"/><path d="m154.216 40.204v11.004m-3.656-11.004h7.344m3.456 0 7.316 11.004m0-11.004-7.316 11.004" stroke="#fc0" stroke-width="2.32"/><path d="m150.56 69.004v11.004m0-11.004h4.724l1.556.548.516.52.548 1.036v1.036l-.548 1.064-.516.52-1.556.52h-4.724m3.656 0 3.688 5.76m3.456-11.004 7.316 11.004m0-11.004-7.316 11.004" stroke="#fc0" stroke-width="2.32"/><path d="m276.272 94.896-.776.404-.78.776-.404.808v1.556l.404.776.78.808.776.372 1.18.404h1.988l1.152-.404.808-.372.776-.808.404-.776v-1.556l-.404-.808-.776-.776-.808-.404m-4.696-2.592-.4-.776-1.184-1.184h8.268" stroke="#fc0" stroke-width="1.72"/><path d="m188 81.992v5.904l.404 1.184.776.776 1.18.404h.78l1.18-.404.776-.776.404-1.184v-5.904m2.996 1.96v-.376l.376-.776.4-.404.78-.404h1.584l.776.404.404.404.376.776v.78l-.376.776-.808 1.18-3.916 3.948h5.5" stroke="#fc0" stroke-width="1.72"/><path d="m311.752 23.04h5.904l1.184-.404.776-.776.404-1.18v-.78l-.404-1.18-.776-.776-1.184-.404h-5.904m1.584-2.592-.4-.78-1.184-1.18h8.268" stroke="#fc0" stroke-width="1.72"/><path d="m215.792 96.336-.776.404-.78.776-.404.808v1.556l.404.776.78.808.776.372 1.18.404h1.988l1.152-.404.808-.372.776-.808.404-.776v-1.556l-.404-.808-.776-.776-.808-.404m-4.32-2.968h-.376l-.776-.4-.404-.376-.404-.808v-1.552l.404-.808.404-.376.776-.4h.78l.776.4 1.18.78 3.948 3.916v-5.472" stroke="#fc0" stroke-width="1.72"/><path d="m196.784 7.632-.404-.776-.776-.78-.808-.404h-1.556l-.776.404-.808.78-.372.776-.404 1.18v1.988l.404 1.152.372.808.808.776.776.404h1.556l.808-.404.776-.776.404-.808m3.368-6.28h4.32l-2.36 3.14h1.18l.78.404.4.404.376 1.18v.776l-.376 1.184-.776.776-1.18.404h-1.18l-1.184-.404-.4-.404-.376-.776" stroke="#fc0" stroke-width="1.72"/><path d="m288.504 89.008c-1.264-.008-2.264 1.032-2.264 2.272" stroke="#fc0" stroke-width="2.88"/><path d="m288.504 112.592c-1.264.008-2.264-1.032-2.264-2.272" stroke="#fc0" stroke-width="2.88"/><path d="m323.656 89.008c1.264-.008 2.264 1.032 2.264 2.272" stroke="#fc0" stroke-width="2.88"/><path d="m323.656 112.592c1.264.008 2.264-1.032 2.264-2.272" stroke="#fc0" stroke-width="2.88"/><path d="m266.804 10.104c-.364 3.736-3.684 6.496-7.444 6.176-3.28-.32-5.84-2.92-6.16-6.16" stroke="#fc0" stroke-width="2.88"/><path d="m263.176 112.592c1.264.008 2.264-1.032 2.264-2.272" stroke="#fc0" stroke-width="2.88"/><path d="m263.176 89.008c1.264-.008 2.264 1.032 2.264 2.272" stroke="#fc0" stroke-width="2.88"/><path d="m228.024 112.592c-1.264.008-2.264-1.032-2.264-2.272" stroke="#fc0" stroke-width="2.88"/><path d="m228.024 89.008c-1.264-.008-2.264 1.032-2.264 2.272" stroke="#fc0" stroke-width="2.88"/><path d="m181.968 55.016c-.008 1.264 1.032 2.264 2.272 2.264" stroke="#fc0" stroke-width="2.88"/><path d="m205.552 55.016c.008 1.264-1.032 2.264-2.272 2.264" stroke="#fc0" stroke-width="2.88"/><path d="m181.968 19.864c-.008-1.264 1.032-2.264 2.272-2.264" stroke="#fc0" stroke-width="2.88"/><path d="m205.552 19.864c.008-1.264-1.032-2.264-2.272-2.264" stroke="#fc0" stroke-width="2.88"/><path d="m226.04 3.32c0-1.6-1.28-2.88-2.88-2.88s-2.88 1.28-2.88 2.88c0 1.56 1.28 2.88 2.88 2.88s2.88-1.32 2.88-2.88" stroke="#fc0" stroke-width="2.88"/><path d="m111.68 118.08v-115.2h288" stroke="#984c98" stroke-width="2.88"/><path d="m399.68 118.08h-288" stroke="#984c98" stroke-width="2.88"/><path d="m399.68 4.32v112.32" stroke="#984c98" stroke-width="2.88"/></g></g></g></svg>