<svg height="240" viewBox="0 0 488 240" width="488" xmlns="http://www.w3.org/2000/svg"><g fill="none" fill-rule="evenodd"><path d="m99 2h374v231h-374z" fill="#999"/><g transform="translate(1 2)"><path d="m401.624 98.468h22.676v5.1h-22.676z" fill="#800080" fill-opacity=".7"/><path d="m401.624 98.468h22.676v5.1h-22.676z" stroke="#800080" stroke-linecap="square" stroke-opacity=".7" stroke-width="2.32"/><path d="m401.624 105.836h22.676v5.104h-22.676z" fill="#800080" fill-opacity=".7"/><path d="m401.624 105.836h22.676v5.104h-22.676z" stroke="#800080" stroke-linecap="square" stroke-opacity=".7" stroke-width="2.32"/><path d="m401.624 113.208h22.676v5.1h-22.676z" fill="#800080" fill-opacity=".7"/><path d="m401.624 113.208h22.676v5.1h-22.676z" stroke="#800080" stroke-linecap="square" stroke-opacity=".7" stroke-width="2.32"/><path d="m401.624 120.576h22.676v5.104h-22.676z" fill="#800080" fill-opacity=".7"/><path d="m401.624 120.576h22.676v5.104h-22.676z" stroke="#800080" stroke-linecap="square" stroke-opacity=".7" stroke-width="2.32"/><path d="m401.624 127.948h22.676v5.1h-22.676z" fill="#800080" fill-opacity=".7"/><path d="m401.624 127.948h22.676v5.1h-22.676z" stroke="#800080" stroke-linecap="square" stroke-opacity=".7" stroke-width="2.32"/><path d="m455.052 106.62v-18.144h13.604v18.144z" fill="#800080" fill-opacity=".7"/><path d="m455.052 106.62v-18.144h13.604v18.144z" stroke="#800080" stroke-linecap="square" stroke-opacity=".7" stroke-width="2.32"/><path d="m454.868 143.796v-18.144h13.604v18.144z" fill="#800080" fill-opacity=".7"/><path d="m454.868 143.796v-18.144h13.604v18.144z" stroke="#800080" stroke-linecap="square" stroke-opacity=".7" stroke-width="2.32"/><path d="m447.372 74.6h10.204" stroke="#800080" stroke-linecap="round" stroke-linejoin="round" stroke-opacity=".7" stroke-width="17.04"/><path d="m447.372 156.68h10.204" stroke="#800080" stroke-linecap="round" stroke-linejoin="round" stroke-opacity=".7" stroke-width="17.04"/><path d="m430.4 142.96c0-4.68-3.84-8.52-8.56-8.52-4.68 0-8.52 3.84-8.52 8.52 0 4.72 3.84 8.52 8.52 8.52 4.72 0 8.56-3.8 8.56-8.52" fill="#800080" fill-opacity=".7"/><path d="m430.4 88.08c0-4.72-3.84-8.52-8.56-8.52-4.68 0-8.52 3.8-8.52 8.52s3.84 8.52 8.52 8.52c4.72 0 8.56-3.8 8.56-8.52" fill="#800080" fill-opacity=".7"/><path d="m235.956 164.508v11.34h-17.576v-11.34z" fill="#800080" fill-opacity=".7"/><path d="m235.956 164.508v11.34h-17.576v-11.34z" stroke="#800080" stroke-linecap="square" stroke-opacity=".7" stroke-width="2.32"/><path d="m235.956 141.832v11.34h-17.576v-11.34z" fill="#800080" fill-opacity=".7"/><path d="m235.956 141.832v11.34h-17.576v-11.34z" stroke="#800080" stroke-linecap="square" stroke-opacity=".7" stroke-width="2.32"/><path d="m264.756 164.508v11.34h-17.576v-11.34z" fill="#800080" fill-opacity=".7"/><path d="m264.756 164.508v11.34h-17.576v-11.34z" stroke="#800080" stroke-linecap="square" stroke-opacity=".7" stroke-width="2.32"/><path d="m264.756 141.832v11.34h-17.576v-11.34z" fill="#800080" fill-opacity=".7"/><path d="m264.756 141.832v11.34h-17.576v-11.34z" stroke="#800080" stroke-linecap="square" stroke-opacity=".7" stroke-width="2.32"/><path d="m322.356 164.508v11.34h-17.576v-11.34z" fill="#800080" fill-opacity=".7"/><path d="m322.356 164.508v11.34h-17.576v-11.34z" stroke="#800080" stroke-linecap="square" stroke-opacity=".7" stroke-width="2.32"/><path d="m322.356 141.832v11.34h-17.576v-11.34z" fill="#800080" fill-opacity=".7"/><path d="m322.356 141.832v11.34h-17.576v-11.34z" stroke="#800080" stroke-linecap="square" stroke-opacity=".7" stroke-width="2.32"/><path d="m275.972 175.848v-11.34h17.576v11.34z" fill="#800080" fill-opacity=".7"/><path d="m275.972 175.848v-11.34h17.576v11.34z" stroke="#800080" stroke-linecap="square" stroke-opacity=".7" stroke-width="2.32"/><path d="m275.972 153.172v-11.34h17.576v11.34z" fill="#800080" fill-opacity=".7"/><path d="m275.972 153.172v-11.34h17.576v11.34z" stroke="#800080" stroke-linecap="square" stroke-opacity=".7" stroke-width="2.32"/><path d="m392.884 39.672v7.936h-14.172v-7.936z" fill="#800080" fill-opacity=".7"/><path d="m392.884 39.672v7.936h-14.172v-7.936z" stroke="#800080" stroke-linecap="square" stroke-opacity=".7" stroke-width="2.32"/><path d="m421.224 28.9v7.936h-14.172v-7.936z" fill="#800080" fill-opacity=".7"/><path d="m421.224 28.9v7.936h-14.172v-7.936z" stroke="#800080" stroke-linecap="square" stroke-opacity=".7" stroke-width="2.32"/><path d="m421.224 50.444v7.936h-14.172v-7.936z" fill="#800080" fill-opacity=".7"/><path d="m421.224 50.444v7.936h-14.172v-7.936z" stroke="#800080" stroke-linecap="square" stroke-opacity=".7" stroke-width="2.32"/><path d="m334.44 176.984v-11.34h15.876v11.34z" fill="#800080" fill-opacity=".7"/><path d="m334.44 176.984v-11.34h15.876v11.34z" stroke="#800080" stroke-linecap="square" stroke-opacity=".7" stroke-width="2.32"/><path d="m334.44 152.036v-11.336h15.876v11.336z" fill="#800080" fill-opacity=".7"/><path d="m334.44 152.036v-11.336h15.876v11.336z" stroke="#800080" stroke-linecap="square" stroke-opacity=".7" stroke-width="2.32"/><path d="m187.568 48.536v-14.744h15.868v14.744z" fill="#800080" fill-opacity=".7"/><path d="m187.568 48.536v-14.744h15.868v14.744z" stroke="#800080" stroke-linecap="square" stroke-opacity=".7" stroke-width="2.32"/><path d="m187.568 24.72v-14.748h15.868v14.748z" fill="#800080" fill-opacity=".7"/><path d="m187.568 24.72v-14.748h15.868v14.748z" stroke="#800080" stroke-linecap="square" stroke-opacity=".7" stroke-width="2.32"/><path d="m203.436 182.772v14.748h-15.868v-14.748z" fill="#800080" fill-opacity=".7"/><path d="m203.436 182.772v14.748h-15.868v-14.748z" stroke="#800080" stroke-linecap="square" stroke-opacity=".7" stroke-width="2.32"/><path d="m203.436 206.592v14.744h-15.868v-14.744z" fill="#800080" fill-opacity=".7"/><path d="m203.436 206.592v14.744h-15.868v-14.744z" stroke="#800080" stroke-linecap="square" stroke-opacity=".7" stroke-width="2.32"/><path d="m261.908 46.896h-4.532v-16.932h4.532z" fill="#800080" fill-opacity=".7"/><path d="m261.908 46.896h-4.532v-16.932h4.532z" stroke="#800080" stroke-linecap="square" stroke-opacity=".7" stroke-width="2.32"/><path d="m254.552 46.896h-4.532v-16.932h4.532z" fill="#800080" fill-opacity=".7"/><path d="m254.552 46.896h-4.532v-16.932h4.532z" stroke="#800080" stroke-linecap="square" stroke-opacity=".7" stroke-width="2.32"/><path d="m247.168 46.896h-4.532v-16.932h4.532z" fill="#800080" fill-opacity=".7"/><path d="m247.168 46.896h-4.532v-16.932h4.532z" stroke="#800080" stroke-linecap="square" stroke-opacity=".7" stroke-width="2.32"/><path d="m239.8 46.896h-4.532v-16.932h4.532z" fill="#800080" fill-opacity=".7"/><path d="m239.8 46.896h-4.532v-16.932h4.532z" stroke="#800080" stroke-linecap="square" stroke-opacity=".7" stroke-width="2.32"/><path d="m284.016 114.896h-4.532v-16.936h4.532z" fill="#800080" fill-opacity=".7"/><path d="m284.016 114.896h-4.532v-16.936h4.532z" stroke="#800080" stroke-linecap="square" stroke-opacity=".7" stroke-width="2.32"/><path d="m284.02 46.896h-4.536v-16.932h4.536z" fill="#800080" fill-opacity=".7"/><path d="m284.02 46.896h-4.536v-16.932h4.536z" stroke="#800080" stroke-linecap="square" stroke-opacity=".7" stroke-width="2.32"/><path d="m276.648 46.896h-4.536v-16.932h4.536z" fill="#800080" fill-opacity=".7"/><path d="m276.648 46.896h-4.536v-16.932h4.536z" stroke="#800080" stroke-linecap="square" stroke-opacity=".7" stroke-width="2.32"/><path d="m269.28 46.896h-4.536v-16.932h4.536z" fill="#800080" fill-opacity=".7"/><path d="m269.28 46.896h-4.536v-16.932h4.536z" stroke="#800080" stroke-linecap="square" stroke-opacity=".7" stroke-width="2.32"/><path d="m232.428 114.952h-4.536v-16.936h4.536z" fill="#800080" fill-opacity=".7"/><path d="m232.428 114.952h-4.536v-16.936h4.536z" stroke="#800080" stroke-linecap="square" stroke-opacity=".7" stroke-width="2.32"/><path d="m239.8 114.952h-4.536v-16.936h4.536z" fill="#800080" fill-opacity=".7"/><path d="m239.8 114.952h-4.536v-16.936h4.536z" stroke="#800080" stroke-linecap="square" stroke-opacity=".7" stroke-width="2.32"/><path d="m247.168 114.952h-4.536v-16.936h4.536z" fill="#800080" fill-opacity=".7"/><path d="m247.168 114.952h-4.536v-16.936h4.536z" stroke="#800080" stroke-linecap="square" stroke-opacity=".7" stroke-width="2.32"/><path d="m254.54 114.952h-4.536v-16.936h4.536z" fill="#800080" fill-opacity=".7"/><path d="m254.54 114.952h-4.536v-16.936h4.536z" stroke="#800080" stroke-linecap="square" stroke-opacity=".7" stroke-width="2.32"/><path d="m261.908 114.952h-4.536v-16.936h4.536z" fill="#800080" fill-opacity=".7"/><path d="m261.908 114.952h-4.536v-16.936h4.536z" stroke="#800080" stroke-linecap="square" stroke-opacity=".7" stroke-width="2.32"/><path d="m269.28 114.952h-4.536v-16.936h4.536z" fill="#800080" fill-opacity=".7"/><path d="m269.28 114.952h-4.536v-16.936h4.536z" stroke="#800080" stroke-linecap="square" stroke-opacity=".7" stroke-width="2.32"/><path d="m232.428 46.896h-4.532v-16.932h4.532z" fill="#800080" fill-opacity=".7"/><path d="m232.428 46.896h-4.532v-16.932h4.532z" stroke="#800080" stroke-linecap="square" stroke-opacity=".7" stroke-width="2.32"/><path d="m276.648 114.896h-4.536v-16.936h4.536z" fill="#800080" fill-opacity=".7"/><path d="m276.648 114.896h-4.536v-16.936h4.536z" stroke="#800080" stroke-linecap="square" stroke-opacity=".7" stroke-width="2.32"/><path d="m291.388 46.896h-4.532v-16.936h4.532z" fill="#800080" fill-opacity=".7"/><path d="m291.388 46.896h-4.532v-16.936h4.532z" stroke="#800080" stroke-linecap="square" stroke-opacity=".7" stroke-width="2.32"/><path d="m225.06 46.896h-4.532v-16.932h4.532z" fill="#800080" fill-opacity=".7"/><path d="m225.06 46.896h-4.532v-16.932h4.532z" stroke="#800080" stroke-linecap="square" stroke-opacity=".7" stroke-width="2.32"/><path d="m225.06 114.952h-4.536v-16.936h4.536z" fill="#800080" fill-opacity=".7"/><path d="m225.06 114.952h-4.536v-16.936h4.536z" stroke="#800080" stroke-linecap="square" stroke-opacity=".7" stroke-width="2.32"/><path d="m291.388 114.952h-4.532v-16.936h4.532z" fill="#800080" fill-opacity=".7"/><path d="m291.388 114.952h-4.532v-16.936h4.532z" stroke="#800080" stroke-linecap="square" stroke-opacity=".7" stroke-width="2.32"/><path d="m347.972 60.648v-11.34h17.576v11.34z" fill="#800080" fill-opacity=".7"/><path d="m347.972 60.648v-11.34h17.576v11.34z" stroke="#800080" stroke-linecap="square" stroke-opacity=".7" stroke-width="2.32"/><path d="m347.972 37.972v-11.34h17.576v11.34z" fill="#800080" fill-opacity=".7"/><path d="m347.972 37.972v-11.34h17.576v11.34z" stroke="#800080" stroke-linecap="square" stroke-opacity=".7" stroke-width="2.32"/><path d="m319.172 60.648v-11.34h17.576v11.34z" fill="#800080" fill-opacity=".7"/><path d="m319.172 60.648v-11.34h17.576v11.34z" stroke="#800080" stroke-linecap="square" stroke-opacity=".7" stroke-width="2.32"/><path d="m319.172 37.972v-11.34h17.576v11.34z" fill="#800080" fill-opacity=".7"/><path d="m319.172 37.972v-11.34h17.576v11.34z" stroke="#800080" stroke-linecap="square" stroke-opacity=".7" stroke-width="2.32"/><path d="m259.92 14.84c0-3.76-3.08-6.84-6.84-6.84s-6.8 3.08-6.8 6.84 3.04 6.84 6.8 6.84 6.84-3.08 6.84-6.84" fill="#800080" fill-opacity=".7"/><path d="m123.32 14.84c0-6.28-5.08-11.36-11.36-11.36s-11.36 5.08-11.36 11.36 5.08 11.36 11.36 11.36 11.36-5.08 11.36-11.36" fill="#800080" fill-opacity=".7"/><path d="m123.32 43.64c0-6.28-5.08-11.36-11.36-11.36s-11.36 5.08-11.36 11.36 5.08 11.36 11.36 11.36 11.36-5.08 11.36-11.36" fill="#800080" fill-opacity=".7"/><path d="m123.32 72.44c0-6.28-5.08-11.36-11.36-11.36s-11.36 5.08-11.36 11.36 5.08 11.36 11.36 11.36 11.36-5.08 11.36-11.36" fill="#800080" fill-opacity=".7"/><path d="m123.32 101.24c0-6.28-5.08-11.36-11.36-11.36s-11.36 5.08-11.36 11.36 5.08 11.36 11.36 11.36 11.36-5.08 11.36-11.36" fill="#800080" fill-opacity=".7"/><path d="m123.32 130.04c0-6.28-5.08-11.36-11.36-11.36s-11.36 5.08-11.36 11.36 5.08 11.36 11.36 11.36 11.36-5.08 11.36-11.36" fill="#800080" fill-opacity=".7"/><path d="m123.32 158.84c0-6.28-5.08-11.36-11.36-11.36s-11.36 5.08-11.36 11.36 5.08 11.36 11.36 11.36 11.36-5.08 11.36-11.36" fill="#800080" fill-opacity=".7"/><path d="m123.32 187.64c0-6.28-5.08-11.36-11.36-11.36s-11.36 5.08-11.36 11.36 5.08 11.36 11.36 11.36 11.36-5.08 11.36-11.36" fill="#800080" fill-opacity=".7"/><path d="m122.172 206.236v20.408h-20.408v-20.408z" fill="#800080" fill-opacity=".7"/><path d="m122.172 206.236v20.408h-20.408v-20.408z" stroke="#800080" stroke-linecap="square" stroke-opacity=".7" stroke-width="2.32"/><path d="m324.644 226.076h-19.272v-19.272h19.272z" fill="#800080" fill-opacity=".7"/><path d="m324.644 226.076h-19.272v-19.272h19.272z" stroke="#800080" stroke-linecap="square" stroke-opacity=".7" stroke-width="2.32"/><path d="m297 216.44c0-5.96-4.84-10.8-10.8-10.8s-10.8 4.84-10.8 10.8 4.84 10.8 10.8 10.8 10.8-4.84 10.8-10.8" fill="#800080" fill-opacity=".7"/><path d="m268.2 216.44c0-5.96-4.84-10.8-10.8-10.8s-10.8 4.84-10.8 10.8 4.84 10.8 10.8 10.8 10.8-4.84 10.8-10.8" fill="#800080" fill-opacity=".7"/><path d="m239.4 216.44c0-5.96-4.84-10.8-10.8-10.8s-10.8 4.84-10.8 10.8 4.84 10.8 10.8 10.8 10.8-4.84 10.8-10.8" fill="#800080" fill-opacity=".7"/><path d="m401.624 98.468h22.676v5.1h-22.676z" fill="#929292"/><path d="m401.624 105.836h22.676v5.104h-22.676z" fill="#929292"/><path d="m401.624 113.208h22.676v5.1h-22.676z" fill="#929292"/><path d="m401.624 120.576h22.676v5.104h-22.676z" fill="#929292"/><path d="m401.624 127.948h22.676v5.1h-22.676z" fill="#929292"/><path d="m455.052 106.62v-18.144h13.604v18.144z" fill="#929292"/><path d="m454.868 143.796v-18.144h13.604v18.144z" fill="#929292"/><path d="m235.956 164.508v11.34h-17.576v-11.34z" fill="#929292"/><path d="m235.956 141.832v11.34h-17.576v-11.34z" fill="#929292"/><path d="m264.756 164.508v11.34h-17.576v-11.34z" fill="#929292"/><path d="m264.756 141.832v11.34h-17.576v-11.34z" fill="#929292"/><path d="m322.356 164.508v11.34h-17.576v-11.34z" fill="#929292"/><path d="m322.356 141.832v11.34h-17.576v-11.34z" fill="#929292"/><path d="m275.972 175.848v-11.34h17.576v11.34z" fill="#929292"/><path d="m275.972 153.172v-11.34h17.576v11.34z" fill="#929292"/><path d="m392.884 39.672v7.936h-14.172v-7.936z" fill="#929292"/><path d="m421.224 28.9v7.936h-14.172v-7.936z" fill="#929292"/><path d="m421.224 50.444v7.936h-14.172v-7.936z" fill="#929292"/><path d="m334.44 176.984v-11.34h15.876v11.34z" fill="#929292"/><path d="m334.44 152.036v-11.336h15.876v11.336z" fill="#929292"/><path d="m187.568 48.536v-14.744h15.868v14.744z" fill="#929292"/><path d="m187.568 24.72v-14.748h15.868v14.748z" fill="#929292"/><path d="m203.436 182.772v14.748h-15.868v-14.748z" fill="#929292"/><path d="m203.436 206.592v14.744h-15.868v-14.744z" fill="#929292"/><path d="m261.908 46.896h-4.532v-16.932h4.532z" fill="#929292"/><path d="m254.552 46.896h-4.532v-16.932h4.532z" fill="#929292"/><path d="m247.168 46.896h-4.532v-16.932h4.532z" fill="#929292"/><path d="m239.8 46.896h-4.532v-16.932h4.532z" fill="#929292"/><path d="m284.016 114.896h-4.532v-16.936h4.532z" fill="#929292"/><path d="m284.02 46.896h-4.536v-16.932h4.536z" fill="#929292"/><path d="m276.648 46.896h-4.536v-16.932h4.536z" fill="#929292"/><path d="m269.28 46.896h-4.536v-16.932h4.536z" fill="#929292"/><path d="m232.428 114.952h-4.536v-16.936h4.536z" fill="#929292"/><path d="m239.8 114.952h-4.536v-16.936h4.536z" fill="#929292"/><path d="m247.168 114.952h-4.536v-16.936h4.536z" fill="#929292"/><path d="m254.54 114.952h-4.536v-16.936h4.536z" fill="#929292"/><path d="m261.908 114.952h-4.536v-16.936h4.536z" fill="#929292"/><path d="m269.28 114.952h-4.536v-16.936h4.536z" fill="#929292"/><path d="m232.428 46.896h-4.532v-16.932h4.532z" fill="#929292"/><path d="m276.648 114.896h-4.536v-16.936h4.536z" fill="#929292"/><path d="m291.388 46.896h-4.532v-16.936h4.532z" fill="#929292"/><path d="m225.06 46.896h-4.532v-16.932h4.532z" fill="#929292"/><path d="m225.06 114.952h-4.536v-16.936h4.536z" fill="#929292"/><path d="m291.388 114.952h-4.532v-16.936h4.532z" fill="#929292"/><path d="m347.972 60.648v-11.34h17.576v11.34z" fill="#929292"/><path d="m347.972 37.972v-11.34h17.576v11.34z" fill="#929292"/><path d="m319.172 60.648v-11.34h17.576v11.34z" fill="#929292"/><path d="m319.172 37.972v-11.34h17.576v11.34z" fill="#929292"/><path d="m258.76 14.84c0-3.12-2.56-5.68-5.68-5.68s-5.68 2.56-5.68 5.68 2.56 5.68 5.68 5.68 5.68-2.56 5.68-5.68" fill="#929292"/><path d="m396.644 39.292-.168-.012-.168-.04-.156-.06-.148-.084-.136-.108-.116-.12-.096-.14-.076-.156-.112-.24-.132-.228-.152-.216-.172-.2-.192-.188-.204-.168-.22-.144-.232-.128-.244-.108-.252-.08-.256-.06-.264-.036-.264-.012h-7.336l-.18-.016-.176-.04-.168-.072-.152-.092-.14-.12-7.196-7.196-.252-.232-.268-.212-.284-.192-.296-.164-.312-.144-.32-.12-.328-.092-.336-.064-.34-.04-.34-.016h-4.852l-.164-.012-.16-.036-.156-.056-.144-.08-.132-.096-.116-.116-.096-.132-.08-.144-.056-.156-.036-.16-.012-.164v-.168l-.012-.264-.036-.26-.06-.256-.08-.252-.108-.24-.124-.232-.148-.22-.164-.204-.184-.192-.2-.172-.216-.152-.132-.096-.116-.12-.096-.128-.08-.144-.056-.156-.036-.16-.012-.164.012-.164.036-.16.056-.152.08-.148.1-.128.116-.116.132-.1.144-.08.152-.056.16-.036.164-.012h28.964l.18.016.176.04.164.072.156.092.136.12 6.28 6.28.12.136.092.152.068.168.044.176.016.18v7.336l.016.316.052.312.084.304.044.184.016.188-.012.164-.036.16-.056.152-.08.148-.096.128-.116.116-.132.1-.144.08-.156.056-.16.036-.164.012z" fill="#f00"/><path d="m436.452 63.728-.18.084-.192.052-.2.016-.164-.012-.16-.036-.152-.056-.144-.08-.132-.096-.116-.116-.1-.132-.08-.144-.056-.156-.036-.16-.012-.164v-16.208l-.012-.32-.036-.32-.056-.32-.084-.308-.104-.304-.128-.296-.148-.288-.172-.272-.188-.26-.208-.244-.228-.232-3.052-2.88-.248-.216-.264-.196-.276-.176-.288-.156-.304-.132-.308-.112-.316-.084-.324-.064-.328-.036-.328-.012h-2.256l-.164-.012-.16-.036-.156-.056-.144-.08-.132-.1-.116-.116-.1-.128-.076-.148-.06-.152-.032-.16-.012-.164.012-.188.048-.184.084-.304.052-.312.016-.316v-7.936l-.012-.268-.036-.268-.064-.26-.084-.256-.108-.244-.132-.236-.152-.22-.172-.208-.188-.188-.208-.172-.22-.152-.236-.132-.244-.108-.256-.084-.26-.064-.268-.036-.268-.012h-7.336l-.18-.016-.176-.04-.168-.072-.152-.092-.14-.12-11.008-11.008-.252-.232-.268-.212-.284-.188-.296-.168-.312-.14-.32-.12-.328-.092-.336-.068-.336-.04-.344-.012h-58.06l-.34.012-.34.04-.336.068-.328.092-.32.12-.312.14-.296.168-.284.188-.268.212-.252.232-8.74 8.74-.136.12-.156.092-.168.072-.176.04-.18.016h-9.124l-.268.012-.268.036-.26.064-.256.084-.244.108-.236.132-.22.152-.208.172-.188.188-.172.208-.152.22-.132.236-.108.244-.084.256-.064.26-.036.268-.012.268v.076l-.012.164-.036.16-.056.152-.08.144-.1.132-.116.116-.132.1-.144.08-.152.056-.16.036-.164.012h.004-.012l-10.772-.072-.176-.016-.176-.044-.164-.068-.152-.096-.136-.116-5.604-5.604-.252-.232-.268-.212-.284-.188-.296-.168-.312-.14-.32-.12-.328-.092-.336-.068-.34-.04-.34-.012h-21.972l-.164-.012-.16-.036-.152-.056-.144-.08-.132-.1-.116-.116-.1-.128-.076-.148-.06-.152-.036-.16-.012-.164.012-.164.036-.164.06-.152.152-.364.128-.368.108-.376.084-.384.06-.388.036-.388.012-.392-.012-.384-.032-.384-.06-.38-.08-.376-.104-.368-.124-.364-.148-.356-.168-.344-.188-.336-.208-.324-.228-.308-.248-.296-.264-.28-.28-.264-.296-.248-.308-.228-.324-.208-.336-.188-.344-.168-.356-.148-.364-.124-.368-.104-.376-.08-.38-.06-.384-.032-.384-.012-.4.012-.396.036-.396.064-.388.088-.384.108-.376.136-.364.16-.356.18-.344.204-.332.224-.152.092-.168.068-.176.044-.18.012-.176-.012-.172-.04-.164-.068-.148-.088-.136-.112-.12-.132-.096-.148-.228-.4-.252-.384-.272-.372-.292-.356-.312-.34-.328-.324-.344-.304-.36-.284-.376-.268-.388-.244-.4-.224-.416-.204-.42-.18-.436-.156-.44-.136-.444-.108-.452-.088-.456-.06-.46-.036-.46-.016-.448.012-.448.036-.444.06-.444.08-.436.108-.432.124-.424.152-.412.172-.408.192-.392.216-.384.232-.372.256-.356.272-.34.292-.324.312-.312.324-.292.34-.272.356-.256.372-.232.384-.216.392-.192.408-.172.412-.152.424-.124.432-.108.436-.08.444-.06.444-.036.448-.012.448.012.448.036.448.06.444.08.444.108.436.124.432.152.424.172.412.192.408.216.392.232.384.256.372.272.356.292.34.312.324.324.312.34.292.356.272.372.256.384.232.392.216.408.192.412.172.424.152.432.124.436.108.444.08.444.06.448.036.448.012.476-.016.472-.04.472-.064.468-.092.46-.116.456-.144.444-.168.436-.192.424-.216.408-.24.4-.26.38-.284.368-.304.348-.324.136-.116.152-.092.168-.068.172-.04.18-.016h.06l.164.012.16.036.156.056.144.08.132.1.116.116.096.128.08.148.056.152.036.16.012.164-.016.18-.04.176-.068.168-.096.152-.116.14-4.204 4.204-.064.06-.136.124-.156.1-.172.072-.18.044-.184.016-.164-.012-.16-.036-.264-.064-.272-.036-.276-.012h-4.532-.1.012-.052l-.184-.016-.18-.044-.172-.072-.156-.1-.14-.12-.116-.144-.092-.164-.176-.328-.2-.312-.228-.296-.252-.276-11.98-11.98-.252-.232-.268-.212-.284-.188-.296-.168-.312-.14-.32-.12-.328-.092-.336-.068-.34-.04-.34-.012h-10.08l-.34.012-.34.04-.336.068-.328.092-.32.12-.312.14-.296.168-.284.188-.268.212-.252.232-7.2 7.2-.232.252-.212.268-.188.284-.168.296-.14.312-.12.32-.092.328-.068.336-.04.34-.012.34v23.64l-.016.18-.04.176-.072.168-.092.156-.12.136-1.096 1.096-.136.12-.156.092-.168.072-.176.04-.18.016h-1.552l-.164-.012-.16-.036-.152-.056-.144-.08-.132-.1-.116-.116-.1-.128-.08-.148-.056-.152-.036-.16-.012-.164v-14.428l-.012-.268-.036-.268-.06-.26-.088-.256-.108-.248-.132-.232-.148-.224-.172-.204-.192-.192-.208-.172-.22-.152-.236-.128-.244-.108-.256-.088-.26-.06-.268-.036-.268-.016h-15.868l-.268.016-.268.036-.26.06-.256.088-.244.108-.236.128-.22.152-.208.172-.188.192-.172.204-.152.224-.132.232-.108.248-.084.256-.064.26-.036.268-.012.268v4.836l-.012.164-.036.164-.056.152-.08.144-.1.132-.116.116-.128.1-.148.076-.152.06-.16.032-.164.012-.208-.016-.2-.056-.184-.088-.376-.208-.388-.184-.4-.156-.408-.128-.416-.1-.424-.072-.428-.044-.428-.012-.384.012-.384.032-.38.06-.376.08-.368.104-.364.124-.356.148-.344.168-.336.188-.324.208-.308.228-.296.248-.28.264-.264.28-.248.296-.228.308-.208.324-.188.336-.168.344-.148.356-.124.364-.104.368-.08.376-.06.38-.032.384-.012.384.012.392.036.388.06.388.084.384.108.376.128.368.152.364.06.152.036.164.012.164-.012.164-.036.16-.06.152-.076.148-.1.128-.116.116-.132.1-.144.08-.152.056-.16.036-.164.012h-21.132l-.18-.016-.176-.04-.168-.072-.156-.092-.136-.12-8.468-8.468-.252-.232-.268-.212-.284-.188-.296-.168-.312-.14-.32-.12-.328-.092-.336-.068-.34-.04-.34-.012h-14.196l-.172-.012-.164-.04-.156-.06-.148-.08-.132-.104-.12-.124-.096-.136-.076-.152-.224-.504-.244-.492-.264-.484-.284-.472-.304-.456-.32-.448-.344-.432-.356-.416-.376-.4-.396-.388-.408-.368-.424-.352-.436-.332-.452-.316-.464-.296-.476-.272-.488-.256-.496-.236-.508-.212-.516-.192-.524-.172-.528-.148-.536-.124-.54-.104-.544-.08-.548-.06-.548-.032-.552-.012-.56.012-.556.036-.56.056-.552.084-.548.108-.544.128-.54.156-.528.176-.524.196-.516.224-.504.24-.492.264-.484.284-.468.304-.456.324-.44.344-.428.364-.412.38-.392.396-.14.124-.156.1-.172.076-.18.044-.188.016-.164-.012-.16-.036-.152-.056-.148-.08-.128-.1-.116-.116-.1-.128-.08-.148-.056-.152-.036-.16-.012-.164v-9.144l.012-.164.036-.16.056-.152.08-.148.1-.128.116-.116.128-.1.148-.08.152-.056.16-.036.164-.012.188.016.18.044.172.076.156.1.14.124.392.396.412.38.428.364.44.344.456.324.468.304.484.284.492.264.504.24.516.224.524.196.528.176.54.156.544.128.548.108.552.084.56.056.556.036.56.012.556-.012.556-.032.552-.06.552-.084.548-.104.54-.128.536-.152.528-.176.52-.196.512-.22.504-.24.492-.26.48-.28.468-.304.452-.32.444-.34.424-.36.408-.376.396-.396.376-.408.36-.424.34-.444.32-.452.304-.468.28-.48.26-.492.24-.504.22-.512.196-.52.176-.528.152-.536.128-.54.104-.548.084-.552.06-.552.032-.556.012-.556-.012-.56-.036-.556-.056-.56-.084-.552-.108-.548-.128-.544-.156-.54-.176-.528-.196-.524-.224-.516-.24-.504-.264-.492-.284-.484-.304-.468-.324-.456-.344-.44-.364-.428-.38-.412-.396-.392-.124-.14-.1-.156-.076-.172-.044-.18-.016-.188.012-.164.036-.16.056-.152.08-.148.1-.128.116-.116.128-.1.148-.08.152-.056.16-.036.164-.012h346.112l.164.012.16.036.152.056.148.08.128.1.116.116.1.128.08.148.056.152.036.16.012.164v56.708l-.012.164-.036.16-.056.156-.08.144-.1.132-.116.116-.128.096-.148.08-.152.056-.16.036-.164.012h-29.06zm-251.792-39.008.012.268.036.264.064.264.084.252.108.248.132.232.152.224.172.208.188.188.208.172.22.152.236.132.244.108.256.084.26.06.268.04.268.012h3.248v-5.876h-6.156zm18.776 2.908.268-.012.268-.04.26-.06.256-.084.244-.108.236-.132.22-.152.208-.172.192-.188.172-.208.148-.224.132-.232.108-.248.088-.252.06-.264.036-.264.012-.268v-2.968h-6.156v5.876zm-12.62-14.688v-5.876h-3.248l-.268.012-.268.036-.26.064-.256.084-.244.108-.236.132-.22.152-.208.172-.188.188-.172.208-.152.22-.132.236-.108.248-.084.252-.064.264-.036.264-.012.268v2.968zm9.372-5.876v5.876h6.156v-2.968l-.012-.268-.036-.264-.06-.264-.088-.252-.108-.248-.132-.236-.148-.22-.172-.208-.192-.188-.208-.172-.22-.152-.236-.132-.244-.108-.256-.084-.26-.064-.268-.036-.268-.012z" fill="#f00"/><path d="m303.376 111.408-.176-.016-.172-.04-.164-.064-.152-.092-.14-.112-.116-.132-.096-.152-.072-.16-.14-.364-.164-.356-.188-.348-.204-.332-.228-.32-.244-.304-.264-.288-.284-.272-.296-.256-.312-.236-.328-.216-.34-.196-.348-.176-.364-.152-.368-.128-.376-.108-.384-.084-.388-.06-.388-.036-.392-.012-.488.02h-.088l-.18-.012-.176-.044-.168-.068-.156-.096-.136-.116-.26-.26-.12-.14-.092-.152-.068-.168-.044-.176-.016-.18v-6.988l-.012-.268-.036-.264-.06-.264-.088-.252-.108-.248-.128-.236-.152-.22-.172-.208-.192-.188-.204-.172-.224-.152-.236-.132-.244-.108-.256-.084-.26-.06-.268-.04-.268-.012h-3.548l-.164-.012-.16-.036-.152-.056-.144-.08-.132-.096-.116-.116-.1-.132-.08-.144-.056-.156-.036-.16-.012-.164.02-.208.06-.38.032-.384.012-.384-.012-.384-.032-.384-.06-.38-.08-.376-.104-.368-.124-.364-.148-.356-.168-.344-.188-.336-.208-.324-.228-.308-.248-.296-.264-.28-.28-.264-.296-.248-.308-.228-.324-.208-.336-.188-.344-.168-.356-.148-.364-.124-.368-.104-.376-.08-.38-.06-.384-.032-.384-.012-.384.012-.384.032-.38.06-.376.08-.368.104-.364.124-.356.148-.344.168-.336.188-.324.208-.308.228-.296.248-.28.264-.264.28-.248.296-.228.308-.208.324-.188.336-.168.344-.148.356-.124.364-.104.368-.08.376-.06.38-.032.384-.012.384.024.552.072.548.016.2-.012.164-.036.16-.056.152-.08.144-.096.132-.116.116-.132.1-.144.08-.156.056-.16.036-.164.012h-.932l-.272.012-.272.04-.264.064-.26.088-.208.06-.216.02-.192-.016-.188-.048-.316-.092-.32-.052-.324-.02h-4.128l-.164-.012-.16-.036-.152-.056-.144-.08-.132-.096-.116-.116-.1-.132-.08-.144-.056-.156-.036-.16-.012-.164.004-42.996.012-.164.032-.164.06-.152.076-.144.1-.132.116-.116.132-.1.144-.076.156-.06.16-.036.164-.008h4.124l.344-.024.34-.06.328-.1.196-.052.204-.02.208.02.196.052.248.08.252.056.256.036.26.012h4.16l.164.012.16.036.156.056.144.08.132.096.116.116.096.132.08.144.056.156.036.16.012.164v6.964l.012.344.04.336.068.336.092.328.12.32.14.312.168.296.192.284.208.268.232.252 28.932 28.928.116.14.096.152.068.168.044.176.012.18-.012.172-.04.172-.064.16-.168.376-.144.388-.12.396-.092.4-.068.408-.04.412-.012.412.012.384.032.384.06.38.08.376.104.368.124.364.148.356.168.344.188.336.208.324.228.308.248.296.264.28.28.264.296.248.308.228.324.208.336.188.344.168.356.148.364.124.368.104.376.08.38.06.384.032.384.012.384-.012.384-.032.38-.06.376-.08.368-.104.364-.124.356-.148.344-.168.336-.188.324-.208.308-.228.296-.248.28-.264.264-.28.248-.296.228-.308.208-.324.188-.336.168-.344.148-.356.124-.364.104-.368.08-.376.06-.38.032-.384.012-.384-.012-.404-.04-.404-.064-.4-.088-.396-.116-.388-.136-.38-.164-.368-.188-.36-.208-.348-.228-.332-.252-.32-.268-.3-.112-.136-.088-.148-.068-.16-.04-.168-.068-.336-.092-.324-.116-.32-.144-.308-.168-.296-.188-.284-.212-.264-.228-.252-30.184-30.184-.12-.136-.092-.156-.072-.164-.04-.176-.016-.18v-4.692l.012-.164.036-.16.056-.156.08-.144.096-.128.116-.116.132-.1.144-.08.152-.056.16-.036.164-.012v-6.756l-.116-.136-.096-.156-.072-.168-.044-.176-.012-.184v-7.604l.012-.18.044-.176.072-.168.096-.156.116-.14v-3.384l.012-.164.036-.16.056-.152.08-.148.1-.128.116-.116.132-.1.144-.08.152-.056.16-.036.164-.012h1.404l.164.012.16.036.156.056.144.08.132.1.116.116.096.128.08.148.056.152.036.16.012.164v3.052h3.32v-.172l.012-.164.036-.16.06-.152.076-.144.1-.132.116-.116.132-.1.144-.08.152-.056.16-.036.164-.012.184.016.172.04.168.072.156.092.136.12 2.708 2.708.248.228.268.212.28.188.296.164.308.144.316.12.324.092.332.068.336.04.34.016 13.1.088.16.012.16.036.156.06.144.076.128.1.116.116.096.132.08.144.056.152.036.16.012.164v.264l.012.268.036.264.064.264.084.252.108.248.132.236.152.22.172.208.188.188.208.172.22.152.236.132.244.108.256.084.26.06.268.04.268.012h17.576l.268-.012.264-.04.264-.06.252-.084.248-.108.236-.132.22-.152.208-.172.188-.188.172-.208.152-.22.132-.236.108-.248.084-.252.064-.264.036-.264.012-.268v-11.34l-.02-.328-.056-.324-.028-.256.016-.18.04-.176.072-.168.092-.156.116-.136 2.504-2.5.136-.12.156-.092.168-.072.176-.04.18-.016h2.56l.164.012.16.036.156.056.144.08.132.1.116.116.1.128.076.148.06.152.032.16.012.164-.012.164-.032.16-.06.156-.076.144-.1.128-.116.12-.132.096-.212.152-.2.172-.184.192-.168.204-.144.22-.128.232-.104.24-.08.252-.06.256-.036.26-.012.264v11.34l.012.268.036.264.064.264.084.252.108.248.132.236.152.22.172.208.188.188.208.172.22.152.236.132.244.108.256.084.26.06.268.04.268.012h17.576l.268-.012.264-.04.264-.06.252-.084.248-.108.236-.132.22-.152.208-.172.188-.188.172-.208.152-.22.132-.236.108-.248.084-.252.064-.264.036-.264.012-.268v-.168l.012-.164.036-.164.056-.152.08-.144.096-.132.116-.116.132-.1.144-.076.156-.06.16-.036.164-.008h2.572l.18.012.176.044.168.068.156.096.136.116 2.468 2.468.12.14.092.152.072.168.04.176.016.18v7.336l.012.268.036.268.064.26.084.256.108.244.132.236.152.22.172.208.188.192.208.168.22.152.236.132.244.108.256.088.26.06.268.036.268.012h14.172l.264-.012.264-.036.256-.06.252-.08.244-.108.232-.128.22-.144.204-.168.192-.188.172-.2.152-.216.132-.228.112-.24.076-.156.096-.14.116-.12.136-.108.148-.084.156-.06.168-.04.168-.012h6.56l.164.012.16.036.156.056.144.08.132.1.116.116.096.128.08.148.056.152.036.16.012.164-.016.188-.044.184-.084.304-.052.312-.016.316v1.264h5.732v-2.568l.012-.164.032-.16.06-.152.076-.148.1-.128.116-.116.132-.1.144-.08.152-.056.164-.036.164-.012h6.22l.164.012.16.036.156.056.144.08.132.1.116.116.096.128.08.148.06.152.032.16.012.164v2.568h6.48l.164.012.16.032.156.06.144.076.132.1.116.116.096.132.08.144.056.156.036.16.012.164v3.104l-.012.164-.036.16-.056.156-.08.144-.096.128-.116.12-.132.096-.144.08-.156.056-.16.036-.164.012h-6.48v4.172h2.824l.272-.012.268-.036.264-.064.256-.088.248-.112.236-.132.224-.156.208-.172.192-.196.172-.208.148-.228.132-.236.092-.16.116-.144.14-.12.156-.1.168-.068.18-.044.184-.016.164.012.16.036.156.056.144.08.132.096.116.116.096.132.08.144.056.156.036.16.012.164v8.868l-.012.172-.04.168-.064.16-.084.152-.112.132-.124.12-.144.096-16.844 9.624v14.764l-.012.164-.036.164-.056.152-.08.144-.096.132-.116.116-.132.1-.144.076-.156.06-.16.036-.164.008h-5.832l-.268.016-.268.036-.26.06-.256.088-.244.108-.236.128-.22.152-.208.172-.188.192-.172.204-.152.224-.132.232-.108.248-.084.256-.064.26-.036.268-.012.268v.556h8.74l.164.012.16.032.156.06.144.076.132.1.116.116.096.132.08.144.056.152.036.164.012.164v1.6l-.012.164-.036.16-.056.156-.08.144-.096.132-.116.116-.132.096-.144.08-.156.056-.16.036-.164.012h-5.832l-.3.016-.296.044-.236.028h-2.076v.552l.012.276.04.272.064.264.032.16.012.164-.012.16-.032.16-.064.268-.04.272-.012.272v4.42l-.012.164-.036.16-.056.152-.08.144-.1.132-.116.116-.128.1-.148.08-.152.056-.16.036-.164.012h-94.076-.088zm62.172-47.852.268-.012.264-.036.264-.064.252-.084.248-.108.236-.132.22-.152.208-.172.188-.188.172-.208.152-.22.132-.236.108-.244.084-.256.064-.26.036-.268.012-.268v-2.116h-6.584v5.024zm-49.284-2.908.012.268.036.268.064.26.084.256.108.244.132.236.152.22.172.208.188.188.208.172.22.152.236.132.244.108.256.084.26.064.268.036.268.012h3.672v-5.024h-6.58zm23.392-9.224v-2.116l-.012-.268-.036-.264-.064-.264-.084-.252-.108-.248-.132-.236-.152-.22-.172-.208-.188-.188-.208-.172-.22-.152-.236-.132-.248-.108-.252-.084-.264-.06-.264-.04-.268-.012h-3.676v5.024zm28.8 0v-2.116l-.012-.268-.036-.264-.064-.264-.084-.252-.108-.248-.132-.236-.152-.22-.172-.208-.188-.188-.208-.172-.22-.152-.236-.132-.248-.108-.252-.084-.264-.06-.264-.04-.268-.012h-3.676v5.024zm-52.192-2.116v2.116h6.58v-5.024h-3.672l-.268.012-.268.04-.26.06-.256.084-.244.108-.236.132-.22.152-.208.172-.188.188-.172.208-.152.22-.132.236-.108.248-.084.252-.064.264-.036.264zm28.8 0v2.116h6.58v-5.024h-3.672l-.268.012-.268.04-.26.06-.256.084-.244.108-.236.132-.22.152-.208.172-.188.188-.172.208-.152.22-.132.236-.108.248-.084.252-.064.264-.036.264zm0 11.34.012.268.036.268.064.26.084.256.108.244.132.236.152.22.172.208.188.188.208.172.22.152.236.132.244.108.256.084.26.064.268.036.268.012h3.672v-5.024h-6.58zm-8.316 2.908.268-.012.264-.036.264-.064.252-.084.248-.108.236-.132.22-.152.208-.172.188-.188.172-.208.152-.22.132-.236.108-.244.084-.256.064-.26.036-.268.012-.268v-2.116h-6.584v5.024zm67.396-5.176.012.268.036.268.06.26.088.256.108.244.128.236.152.22.172.208.192.188.208.172.22.152.236.132.244.108.256.084.26.064.268.036.268.012h2.824v-4.172h-5.732zm-112.756-8.576.268-.012.268-.04.26-.06.256-.084.244-.108.236-.132.224-.152.204-.172.192-.188.172-.208.152-.224.128-.232.108-.248.088-.252.06-.264.036-.264.012-.268v-3.516h-3.32v6.424z" fill="#f00"/><path d="m248.908 186.172-.164-.012-.16-.036-.156-.056-.144-.08-.132-.1-.116-.116-.1-.128-.076-.148-.06-.152-.032-.16-.012-.164.012-.18.044-.176.068-.168.096-.152.116-.14 5.112-5.108.136-.12.156-.092.164-.072.176-.04.18-.016h10.74l.268-.012.264-.036.264-.064.256-.084.244-.108.236-.132.22-.152.208-.172.188-.188.172-.208.152-.22.132-.236.108-.244.084-.256.064-.26.036-.268.012-.268v-11.34l-.012-.268-.036-.264-.064-.264-.084-.252-.108-.248-.132-.236-.152-.22-.172-.208-.188-.188-.208-.172-.22-.152-.236-.132-.244-.108-.256-.084-.264-.06-.264-.04-.268-.012h-17.576l-.268.012-.264.04-.264.06-.256.084-.244.108-.236.132-.22.152-.208.172-.188.188-.172.208-.152.22-.132.236-.108.248-.084.252-.064.264-.036.264-.012.268v10.016l-.012.164-.036.16-.056.156-.08.144-.096.132-.116.116-.132.1-.144.076-.156.06-.16.032-.164.012-.24-.024-.432-.076-.44-.044-.44-.016-.44.016-.44.044-.432.076-.24.024-.164-.012-.16-.032-.156-.06-.144-.076-.132-.1-.116-.116-.096-.132-.08-.144-.056-.156-.036-.16-.012-.164v-10.016l-.012-.268-.036-.264-.064-.264-.084-.252-.108-.248-.132-.236-.152-.22-.172-.208-.188-.188-.208-.172-.22-.152-.236-.132-.244-.108-.256-.084-.264-.06-.264-.04-.268-.012h-17.576l-.264.012-.264.036-.26.06-.252.084-.24.108-.236.128-.22.148-.204.168-.188.184-.172.204-.152.216-.132.232-.112.24-.076.152-.096.14-.12.124-.132.108-.148.084-.16.06-.168.04-.168.012-.18-.016-.176-.04-.168-.068-.152-.096-.14-.116-13.796-13.8-.252-.232-.268-.212-.284-.188-.296-.168-.312-.14-.32-.12-.328-.092-.336-.068-.34-.04-.34-.012h-40.92l-.18-.016-.176-.04-.168-.072-.156-.092-.136-.12-9.736-9.736-.12-.136-.092-.156-.072-.168-.04-.176-.016-.18v-25.68l.016-.18.04-.176.072-.168.092-.156.12-.136 4.932-4.932.136-.12.156-.092.168-.072.176-.04.18-.016.164.012.16.036.152.056.148.08.132.1.116.116.096.132.08.144.168.344.188.336.212.32.228.308.244.296.264.276.28.264.296.244.308.228.324.208.332.188.348.168.352.144.364.128.368.1.376.08.38.06.38.032.384.012.396-.012.396-.036.396-.064.388-.084.38-.112.376-.132.364-.16.356-.18.34-.2.332-.22.316-.244.296-.264.136-.108.148-.084.164-.064.168-.04.172-.012h53.292l.164.012.16.036.152.056.144.08.132.1.116.116.1.128.08.148.056.152.036.16.012.164v5.332l.012.268.036.268.064.26.084.256.108.244.132.236.152.22.172.208.188.188.208.172.22.152.236.132.244.108.256.084.26.064.268.036.268.012h4.148l.164.012.16.036.152.056.144.08.132.096.116.12.1.128.08.144.056.156.036.16.012.164v18.76l-.012.164-.036.16-.056.152-.08.148-.1.128-.116.116-.132.1-.144.08-.152.056-.16.036-.164.012h-6.292l-.268.012-.264.036-.264.064-.256.084-.244.108-.236.132-.22.152-.208.172-.188.188-.172.208-.152.22-.132.236-.108.244-.084.256-.064.26-.036.268-.012.268v11.34l.012.268.036.264.064.264.084.252.108.248.132.236.152.22.172.208.188.188.208.172.22.152.236.132.244.108.256.084.264.06.264.04.268.012h17.576l.268-.012.264-.04.264-.06.256-.084.244-.108.236-.132.22-.152.208-.172.188-.188.172-.208.152-.22.132-.236.108-.248.084-.252.064-.264.036-.264.012-.268v-11.34l-.012-.268-.036-.268-.064-.26-.084-.256-.108-.244-.132-.236-.152-.22-.172-.208-.188-.188-.208-.172-.22-.152-.236-.132-.244-.108-.256-.084-.264-.064-.264-.036-.268-.012h-.284l-.164-.012-.16-.036-.152-.056-.148-.08-.128-.1-.116-.116-.1-.128-.08-.148-.056-.152-.036-.16-.012-.164v-2.788l.012-.164.036-.16.056-.152.08-.144.1-.132.116-.116.128-.1.148-.08.152-.056.16-.036.164-.012.18.016.176.04.168.072.152.092.14.12 7.448 7.444.116.14.096.152.068.168.04.176.016.18v10.74l.012.268.036.264.064.264.084.252.108.248.132.236.152.22.172.208.188.188.208.172.22.152.236.132.244.108.256.084.264.06.264.04.268.012h17.576l.268-.012.264-.04.264-.06.256-.084.244-.108.236-.132.22-.152.208-.172.188-.188.172-.208.152-.22.132-.236.108-.248.084-.252.064-.264.036-.264.012-.268v-11.34l-.012-.268-.036-.268-.064-.26-.084-.256-.108-.244-.132-.236-.152-.22-.172-.208-.188-.188-.208-.172-.22-.152-.236-.132-.244-.108-.256-.084-.264-.064-.264-.036-.268-.012h-10.74l-.18-.016-.176-.04-.164-.072-.156-.092-.136-.12-10.976-10.972-.116-.14-.096-.152-.068-.168-.044-.176-.012-.18v-7.784l.012-.164.032-.16.06-.156.076-.144.1-.128.116-.12.132-.096.144-.08.156-.056.16-.036.164-.012h4.124l.26-.012.256-.032.252-.06.248-.08.2-.052.204-.02.204.02.196.052.248.08.252.06.256.032.26.012h.412v-6.756l-.116-.14-.096-.152-.068-.168-.044-.176-.012-.18v-7.604l.012-.18.044-.18.068-.164.096-.156.116-.136v-6.76h-.412l-.292.016-.292.044-.232.024-.172-.012-.164-.04-.16-.06-.148-.088-.136-.104-.116-.124-.272-.308-4.78-4.896-.252-.236-.272-.216-.284-.196-.304-.172-.312-.148-.324-.12-.332-.096-.34-.068-.344-.044-.348-.012h-20.16l-.34.012-.34.04-.336.068-.328.092-.32.12-.312.14-.296.168-.284.188-.268.212-.252.232-4.148 4.148-.136.12-.156.092-.168.072-.176.04-.18.016h-31.792l-.192-.016-.188-.048-.176-.08-.164-.108-1.692-1.356-.124-.116-.108-.136-.088-.152-.06-.16-.04-.168-.016-.108-.016-.188.012-.164.036-.16.056-.152.08-.148.096-.128.12-.12.128-.096.148-.08.152-.056.16-.036.164-.012.188.016.516.064.52.02.384-.012.384-.032.38-.06.376-.08.368-.104.364-.124.356-.148.344-.168.336-.188.324-.208.308-.228.296-.248.28-.264.264-.28.248-.296.228-.308.208-.324.188-.336.168-.344.148-.356.124-.364.104-.368.08-.376.06-.38.032-.384.012-.384-.012-.384-.032-.38-.06-.38-.08-.376-.104-.368-.124-.364-.144-.356-.168-.344-.188-.336-.208-.32-.228-.312-.244-.292-.264-.28-.28-.264-.292-.248-.308-.228-.324-.208-.332-.188-.344-.168-.356-.148-.364-.128-.368-.104-.376-.08-.376-.06-.184-.04-.176-.064-.16-.096-.144-.12-.124-.14-.124.14-.144.12-.16.096-.176.064-.184.04-.392.06-.388.088-.384.108-.376.136-.364.156-.356.18-.344.204-.332.22-.312.244-.3.264-.136.108-.148.084-.164.064-.168.04-.172.012h-3.196l-.164-.012-.16-.036-.156-.056-.144-.08-.132-.1-.116-.116-.096-.128-.08-.148-.056-.152-.036-.16-.012-.164.016-.18.04-.176.068-.168.096-.152.116-.14 1.96-1.956.136-.12.156-.092.168-.072.176-.04.18-.016h5.432l.18.016.172.04.168.068.152.096.14.116.116.136.116-.136.14-.116.152-.096.168-.068.172-.04.18-.016h43.712l.34-.012.34-.04.336-.068.328-.092.32-.12.312-.14.296-.168.284-.188.268-.212.252-.232 17.108-17.108.136-.12.156-.092.168-.072.176-.04.18-.016h3.48l.34-.012.34-.04.336-.068.328-.092.32-.12.312-.14.296-.168.284-.188.268-.212.252-.232 1.496-1.496.136-.116.152-.096.168-.068.176-.044.18-.012.164.012.16.032.156.06.144.076.132.1.116.116.1.132.076.144.06.152.032.164.012.164v39.28l-.012.164-.036.16-.056.156-.08.144-.1.132-.116.116-.128.096-.148.08-.152.056-.16.036-.164.012h-.028v6.76l.12.136.096.156.068.164.044.18.012.18v7.604l-.012.18-.044.176-.068.168-.096.152-.12.14v6.756h.144l.172.012.172.04.16.064.152.088.136.112.116.128.096.148.076.156.048.168.088.348.116.34.144.328.172.316.196.304.22.284.244.264 17.264 17.264.116.136.096.156.068.164.044.176.012.18-.012.176-.04.168-.064.164-.088.152-.112.136-.18.208-.16.224-.136.24-.112.252-.092.26-.064.268-.04.272-.012.276v11.34l.012.268.036.264.064.264.084.252.108.248.132.236.152.22.172.208.188.188.208.172.22.152.236.132.244.108.256.084.26.06.268.04.268.012h10.828l.176.012.176.044.164.068.156.092.136.116 3.256 3.216.12.14.096.152.068.168.044.18.016.18-.012.164-.036.16-.056.156-.08.144-.1.132-.116.116-.132.096-.144.08-.152.056-.16.036-.164.012h-.184v5.024h3.796l.164.012.16.036.152.056.148.08.128.096.116.116.1.132.08.144.056.156.036.16.012.164v4.804l-.012.164-.036.16-.056.156-.08.144-.1.132-.116.116-.128.1-.148.076-.152.06-.16.032-.164.012h-3.796v5.024h2.048l.164.012.16.036.156.056.144.08.132.1.116.116.096.128.08.148.056.152.036.16.012.164-.016.18-.04.176-.068.168-.096.152-.116.14-5.112 5.108-.136.12-.156.092-.168.072-.176.04-.18.016h-32.28zm24.156-10.324.012.268.036.268.064.26.084.256.108.244.132.236.152.22.172.208.188.188.208.172.22.152.236.132.244.108.256.084.26.064.268.036.268.012h3.672v-5.024h-6.58zm6.58-9.224v-5.024h-3.672l-.268.012-.268.04-.26.06-.256.084-.244.108-.236.132-.22.152-.208.172-.188.188-.172.208-.152.22-.132.236-.108.248-.084.252-.064.264-.036.264-.012.268v2.116z" fill="#f00"/><path d="m237.596 227.932-.164-.012-.164-.036-.152-.056-.144-.08-.132-.1-.116-.116-.1-.128-.076-.148-.06-.152-.036-.16-.008-.164.008-.164.036-.16.056-.156.08-.144.1-.132.116-.116.416-.38.4-.396.384-.416.36-.432.344-.452.324-.46.3-.48.28-.492.256-.5.236-.516.208-.524.188-.532.164-.54.14-.548.112-.552.088-.56.064-.56.036-.564.016-.564-.016-.584-.04-.58-.068-.58-.096-.576-.12-.572-.148-.564-.172-.56-.2-.548-.06-.204-.02-.212.016-.18.04-.176.072-.168.092-.156.12-.136 15.436-15.436.136-.12.156-.092.168-.072.176-.04.18-.016h32.28l.34-.012.34-.04.336-.068.328-.092.32-.12.312-.14.296-.168.284-.188.268-.212.252-.232 10.08-10.08.232-.252.212-.268.188-.284.168-.296.14-.312.12-.32.092-.328.068-.336.04-.34.012-.34v-.532l.012-.164.036-.16.056-.156.08-.144.1-.132.116-.116.128-.1.148-.076.152-.06.16-.032.164-.012h-.02.052.08 17.576l.276-.012.272-.04.268-.064.264-.092.252-.112.236-.14.228-.16.208-.18.192-.2.172-.216.148-.232.128-.248.104-.256.076-.264.052-.164.076-.152.1-.14.116-.12.132-.108.148-.084.16-.06.168-.036.168-.016h4.08l.164.012.16.036.152.056.148.08.128.1.12.116.096.132.08.144.056.152.036.16.012.164v.172l.012.268.036.264.064.264.084.252.108.248.132.232.152.224.172.204.188.192.208.172.22.152.236.132.244.108.256.084.26.06.268.04.268.012h15.876l.268-.012.264-.04.264-.06.252-.084.248-.108.232-.132.224-.152.204-.172.192-.192.172-.204.152-.224.132-.232.108-.248.084-.252.06-.264.04-.264.012-.268v-11.34l-.012-.268-.04-.268-.06-.26-.084-.256-.108-.244-.132-.236-.152-.22-.172-.208-.192-.188-.204-.172-.224-.152-.232-.132-.248-.108-.252-.088-.264-.06-.264-.036-.268-.012h-15.876l-.268.012-.268.036-.26.06-.256.088-.244.108-.236.132-.22.152-.208.172-.188.188-.172.208-.152.22-.132.236-.108.244-.084.256-.064.26-.036.268-.012.268v.168l-.012.164-.036.16-.056.156-.08.144-.096.132-.12.116-.128.096-.148.08-.152.056-.16.036-.164.012h-3.964l-.164-.012-.16-.036-.156-.056-.144-.08-.132-.096-.116-.116-.096-.132-.08-.144-.056-.156-.036-.16-.012-.164v-1.304l-.012-.268-.036-.264-.064-.264-.084-.252-.108-.248-.132-.236-.152-.22-.172-.208-.188-.188-.208-.172-.22-.152-.236-.132-.244-.108-.256-.084-.264-.06-.264-.04-.268-.012h-17.576l-.184.008h-.076l-.168-.012-.168-.036-.16-.064-.148-.084-.136-.108-.116-.124-.096-.14-.076-.156-.052-.164-.092-.332-.12-.328-.144-.316-.172-.304-.192-.288-.22-.272-.236-.252-5.428-5.364-.116-.136-.096-.156-.072-.168-.04-.176-.016-.184v-10.612l-.012-.268-.036-.268-.064-.26-.084-.256-.108-.244-.132-.236-.152-.22-.172-.208-.188-.188-.208-.172-.22-.152-.236-.132-.248-.108-.252-.084-.264-.064-.264-.036-.268-.012h-6.228l-.18-.016-.176-.04-.168-.072-.156-.092-.136-.12-6.552-6.548-.116-.14-.096-.152-.068-.168-.04-.176-.016-.18.012-.164.036-.16.056-.152.08-.148.096-.128.116-.116.132-.1.144-.08.156-.056.16-.036.164-.012h19.84l.34-.012.34-.04.336-.068.328-.092.32-.12.312-.14.296-.168.284-.188.268-.212.252-.232 2.708-2.708.136-.12.156-.092.168-.072.176-.04.18-.016h86.16l.18.016.176.04.168.072.156.092.136.12.116.116.252.232.268.212.284.188.296.168.312.14.32.12.328.092.336.068.34.04.34.012h.188l.164.012.16.036.152.056.148.08.128.1.116.116.1.128.08.148.056.152.036.16.012.164v4.42l.012.268.036.268.064.26.084.256.108.248.132.232.152.224.172.204.188.192.208.172.22.152.236.128.244.108.256.088.26.06.268.036.268.016h5.832l.164.012.16.032.156.06.144.076.132.1.116.116.096.132.08.144.056.152.036.164.012.164v14.528l31.68 17.28h27.62l.164.012.16.036.152.056.148.08.128.096.116.116.1.132.08.144.056.156.036.16.012.164v56.708l-.012.164-.036.16-.056.152-.08.148-.1.128-.116.116-.128.1-.148.08-.152.056-.16.036-.164.012h-139.264l-.164-.012-.16-.036-.152-.056-.144-.08-.132-.1-.116-.116-.1-.128-.08-.148-.056-.152-.036-.16-.012-.164.02-.2.044-.504v-4.096h-7.008v4.8l-.012.164-.036.16-.056.152-.08.148-.1.128-.116.116-.132.1-.144.08-.152.056-.16.036-.164.012h-8.776l-.164-.012-.16-.036-.152-.056-.144-.08-.132-.1-.116-.116-.1-.128-.08-.148-.056-.152-.036-.16-.012-.164v-4.8h-7.008v4.096l.044.504.02.2-.012.164-.036.16-.056.152-.08.148-.1.128-.116.116-.132.1-.144.08-.152.056-.16.036-.164.012h-6.176l-.164-.012-.164-.036-.152-.056-.144-.08-.132-.1-.116-.116-.1-.128-.076-.148-.06-.152-.036-.16-.008-.164.008-.164.036-.16.056-.156.08-.144.1-.132.116-.116.416-.38.4-.396.384-.416.36-.432.344-.452.324-.46.3-.48.28-.492.256-.5.236-.516.208-.524.188-.532.164-.54.14-.548.112-.552.088-.56.064-.56.036-.564.016-.564-.012-.548-.036-.544-.06-.544-.084-.544-.108-.536-.128-.532-.156-.524-.176-.52-.196-.508-.22-.504-.244-.488-.264-.48-.284-.468-.304-.456-.324-.44-.34-.428-.36-.412-.38-.396-.396-.38-.412-.36-.428-.34-.44-.324-.456-.304-.468-.284-.48-.264-.488-.244-.504-.22-.508-.196-.52-.176-.524-.156-.532-.128-.536-.108-.544-.084-.544-.06-.544-.036-.548-.012-.548.012-.544.036-.544.06-.544.084-.536.108-.532.128-.524.156-.52.176-.508.196-.504.22-.488.244-.48.264-.468.284-.456.304-.44.324-.428.34-.412.36-.396.38-.38.396-.36.412-.34.428-.324.44-.304.456-.284.468-.264.48-.244.488-.22.504-.196.508-.176.52-.156.524-.128.532-.108.536-.084.544-.06.544-.036.544-.012.548.016.564.036.564.064.56.088.56.112.552.14.548.164.54.188.532.208.524.236.516.256.5.28.492.3.48.324.46.344.452.36.432.384.416.4.396.416.38.116.116.1.132.08.144.056.156.036.16.008.164-.008.164-.036.16-.06.152-.076.148-.1.128-.116.116-.132.1-.144.08-.152.056-.164.036-.164.012h-10.824l-.164-.012-.164-.036-.152-.056-.144-.08-.132-.1-.116-.116-.1-.128-.076-.148-.06-.152-.036-.16-.008-.164.008-.164.036-.16.056-.156.08-.144.1-.132.116-.116.416-.38.4-.396.384-.416.36-.432.344-.452.324-.46.3-.48.28-.492.256-.5.236-.516.208-.524.188-.532.164-.54.14-.548.112-.552.088-.56.064-.56.036-.564.016-.564-.012-.548-.036-.544-.06-.544-.084-.544-.108-.536-.128-.532-.156-.524-.176-.52-.196-.508-.22-.504-.244-.488-.264-.48-.284-.468-.304-.456-.324-.44-.34-.428-.36-.412-.38-.396-.396-.38-.412-.36-.428-.34-.44-.324-.456-.304-.468-.284-.48-.264-.488-.244-.504-.22-.508-.196-.52-.176-.524-.156-.532-.128-.536-.108-.544-.084-.544-.06-.544-.036-.548-.012-.548.012-.544.036-.544.06-.544.084-.536.108-.532.128-.524.156-.52.176-.508.196-.504.22-.488.244-.48.264-.468.284-.456.304-.44.324-.428.34-.412.36-.396.38-.38.396-.36.412-.34.428-.324.44-.304.456-.284.468-.264.48-.244.488-.22.504-.196.508-.176.52-.156.524-.128.532-.108.536-.084.544-.06.544-.036.544-.012.548.016.564.036.564.064.56.088.56.112.552.14.548.164.54.188.532.208.524.236.516.256.5.28.492.3.48.324.46.344.452.36.432.384.416.4.396.416.38.116.116.1.132.08.144.056.156.036.16.008.164-.008.164-.036.16-.06.152-.076.148-.1.128-.116.116-.132.1-.144.08-.152.056-.164.036-.164.012zm84.76-71.852.268-.012.264-.04.264-.06.256-.084.244-.108.236-.132.22-.152.208-.172.188-.188.172-.208.152-.22.132-.236.108-.248.084-.252.064-.264.036-.264.012-.268v-11.34l-.012-.268-.036-.268-.064-.26-.084-.256-.108-.244-.132-.236-.152-.22-.172-.208-.188-.188-.208-.172-.22-.152-.236-.132-.244-.108-.256-.084-.264-.064-.264-.036-.268-.012h-1.536l-.164-.012-.16-.036-.152-.056-.144-.08-.132-.1-.116-.116-.1-.128-.08-.148-.056-.152-.036-.16-.012-.164.044-.304.096-.408.068-.416.044-.424.012-.42-.012-.384-.032-.384-.06-.38-.08-.376-.104-.368-.124-.364-.148-.356-.168-.344-.188-.336-.208-.324-.228-.308-.248-.296-.264-.28-.28-.264-.296-.248-.308-.228-.324-.208-.336-.188-.344-.168-.356-.148-.364-.124-.368-.104-.376-.08-.38-.06-.384-.032-.384-.012-.384.012-.384.032-.38.06-.376.08-.368.104-.364.124-.356.148-.344.168-.336.188-.324.208-.308.228-.296.248-.28.264-.264.28-.248.296-.228.308-.208.324-.188.336-.168.344-.148.356-.124.364-.104.368-.08.376-.06.38-.032.384-.012.384.012.42.044.424.068.416.096.408.044.304-.012.164-.036.16-.056.152-.08.148-.1.128-.116.116-.132.1-.144.08-.152.056-.16.036-.164.012h-1.536l-.268.012-.264.036-.264.064-.256.084-.244.108-.236.132-.22.152-.208.172-.188.188-.172.208-.152.22-.132.236-.108.244-.084.256-.064.26-.036.268-.012.268v11.34l.012.268.036.264.064.264.084.252.108.248.132.236.152.22.172.208.188.188.208.172.22.152.236.132.244.108.256.084.264.06.264.04.268.012zm-12.888 54.82v-7.008h-4.096l-.272.012-.264.04-.26.06-.256.084-.248.112-.232.128-.224.152-.204.172-.192.192-.172.204-.152.224-.128.232-.112.248-.084.256-.06.26-.04.264-.012.272v4.096zm11.08-7.008v7.008h7.008v-4.096l-.012-.272-.04-.264-.06-.26-.084-.256-.112-.248-.128-.232-.152-.224-.172-.204-.192-.192-.204-.172-.224-.152-.232-.128-.248-.112-.256-.084-.26-.06-.264-.04-.272-.012zm29.768-48.944.268-.016.264-.036.264-.06.252-.088.248-.108.232-.128.224-.152.204-.172.192-.192.172-.204.152-.224.132-.232.108-.248.084-.256.06-.26.04-.268.012-.268v-2.112h-6.16v5.024zm2.908-12.136v-2.112l-.012-.268-.04-.268-.06-.26-.084-.256-.108-.244-.132-.236-.152-.224-.172-.204-.192-.192-.204-.172-.224-.152-.232-.128-.248-.108-.252-.088-.264-.06-.264-.036-.268-.012h-3.252v5.02zm-21.692 9.224.012.268.036.268.064.26.084.256.108.248.132.232.152.224.172.204.188.192.208.172.22.152.236.128.244.108.256.088.26.06.268.036.268.016h3.248v-5.024h-6.156zm0-11.336v2.112h6.156v-5.02h-3.248l-.268.012-.268.036-.26.06-.256.088-.244.108-.236.128-.22.152-.208.172-.188.192-.172.204-.152.224-.132.236-.108.244-.084.256-.064.26-.036.268z" fill="#f00"/><path d="m117.792 226.78-.012.164-.036.16-.056.152-.08.148-.1.128-.116.116-.132.1-.144.08-.152.056-.16.036-.164.012h-9.344l-.164-.012-.16-.036-.152-.056-.144-.08-.132-.1-.116-.116-.1-.128-.08-.148-.056-.152-.036-.16-.012-.164v-4.516h-4.516l-.164-.012-.16-.036-.152-.056-.148-.08-.128-.1-.116-.116-.1-.132-.08-.144-.056-.152-.036-.16-.012-.164v-9.344l.012-.164.036-.16.056-.152.08-.144.1-.132.116-.116.128-.1.148-.08.152-.056.16-.036.164-.012h4.516v-7.288h-4.38-.096.012-.052l-.164-.012-.16-.032-.152-.06-.148-.08-.128-.096-.116-.116-.1-.132-.08-.144-.056-.156-.036-.16-.012-.164v-4.708l.012-.164.036-.16.056-.152.08-.148.1-.128.116-.116.128-.1.148-.08.152-.056.16-.036.164-.012.188.016.18.044.172.076.156.1.14.124.392.396.412.38.428.364.44.344.456.324.468.304.484.284.492.264.504.24.516.224.524.196.528.176.54.156.544.128.548.108.552.084.56.056.556.036.56.012.556-.012.556-.032.552-.06.552-.084.548-.104.54-.128.536-.152.528-.176.52-.196.512-.22.504-.24.492-.26.48-.28.468-.304.452-.32.444-.34.424-.36.408-.376.396-.396.376-.408.36-.424.34-.444.32-.452.304-.468.28-.48.26-.492.24-.504.22-.512.196-.52.176-.528.152-.536.128-.54.104-.548.084-.552.06-.552.032-.556.012-.556-.012-.556-.032-.556-.06-.552-.084-.552-.104-.548-.128-.54-.152-.536-.176-.528-.196-.52-.22-.512-.24-.504-.26-.492-.28-.48-.304-.468-.32-.452-.34-.444-.36-.424-.376-.408-.396-.396-.408-.376-.424-.36-.444-.34-.452-.32-.468-.304-.48-.28-.492-.26-.504-.24-.512-.22-.52-.196-.528-.176-.536-.152-.54-.128-.548-.104-.552-.084-.552-.06-.556-.032-.556-.012-.56.012-.556.036-.56.056-.552.084-.548.108-.544.128-.54.156-.528.176-.524.196-.516.224-.504.24-.492.264-.484.284-.468.304-.456.324-.44.344-.428.364-.412.38-.392.396-.14.124-.156.1-.172.076-.18.044-.188.016-.164-.012-.16-.036-.152-.056-.148-.08-.128-.1-.116-.116-.1-.128-.08-.148-.056-.152-.036-.16-.012-.164v-9.144l.012-.164.036-.16.056-.152.08-.148.1-.128.116-.116.128-.1.148-.08.152-.056.16-.036.164-.012.188.016.18.044.172.076.156.1.14.124.392.396.412.38.428.364.44.344.456.324.468.304.484.284.492.264.504.24.516.224.524.196.528.176.54.156.544.128.548.108.552.084.56.056.556.036.56.012.552-.012.548-.032.548-.06.544-.08.54-.104.536-.124.528-.148.524-.172.516-.192.508-.212.496-.236.488-.256.476-.272.464-.296.452-.316.436-.332.424-.352.408-.368.396-.388.376-.4.356-.416.344-.432.32-.448.304-.456.284-.472.264-.484.244-.492.224-.504.076-.152.096-.136.12-.124.132-.104.148-.08.156-.06.164-.04.172-.012h66.636l.18.016.176.04.168.072.156.092.136.12 30.068 30.068.252.232.268.212.284.188.296.168.312.14.32.12.328.092.336.068.34.04.34.012h15.52l.164.012.16.036.156.056.144.08.132.1.116.116.096.128.08.148.056.152.036.16.012.164-.016.18-.04.176-.068.168-.096.152-.116.14-7.66 7.656-.136.12-.156.092-.168.072-.176.04-.18.016-.212-.02-.204-.06-.548-.2-.56-.172-.564-.148-.572-.12-.576-.096-.58-.068-.58-.04-.584-.016-.548.012-.544.036-.544.06-.544.084-.536.108-.532.128-.524.156-.52.176-.508.196-.504.22-.488.244-.48.264-.468.284-.456.304-.44.324-.428.34-.412.36-.396.38-.38.396-.36.412-.34.428-.324.44-.304.456-.284.468-.264.48-.244.488-.22.504-.196.508-.176.52-.156.524-.128.532-.108.536-.084.544-.06.544-.036.544-.012.548.016.564.036.564.064.56.088.56.112.552.14.548.164.54.188.532.208.524.236.516.256.5.28.492.3.48.324.46.344.452.36.432.384.416.4.396.416.38.116.116.1.132.08.144.056.156.036.16.008.164-.008.164-.036.16-.06.152-.076.148-.1.128-.116.116-.132.1-.144.08-.152.056-.164.036-.164.012h-93.388l-.164-.012-.16-.036-.156-.056-.144-.08-.132-.1-.116-.116-.096-.128-.08-.148-.06-.152-.032-.16-.012-.164v.012-.052-.096-4.38h-7.288zm85.644-26.352.268-.012.268-.04.26-.06.256-.084.244-.108.236-.132.22-.152.208-.172.192-.188.172-.208.148-.224.132-.232.108-.248.088-.252.06-.264.036-.264.012-.268v-14.748l-.012-.268-.036-.264-.06-.264-.088-.252-.108-.248-.132-.236-.148-.22-.172-.208-.192-.188-.208-.172-.22-.152-.236-.132-.244-.108-.256-.084-.26-.064-.268-.036-.268-.012h-7.364l-.164-.012-.16-.036-.156-.056-.144-.08-.132-.096-.116-.116-.096-.132-.08-.144-.056-.156-.036-.16-.012-.164.012-.164.032-.156.06-.156.076-.14.204-.348.18-.356.16-.368.136-.376.112-.384.088-.388.064-.396.036-.4.012-.4-.012-.384-.032-.384-.06-.38-.08-.376-.104-.368-.124-.364-.148-.356-.168-.344-.188-.336-.208-.324-.228-.308-.248-.296-.264-.28-.28-.264-.296-.248-.308-.228-.324-.208-.336-.188-.344-.168-.356-.148-.364-.124-.368-.104-.376-.08-.38-.06-.384-.032-.384-.012-.384.012-.384.032-.38.06-.376.08-.368.104-.364.124-.356.148-.344.168-.336.188-.324.208-.308.228-.296.248-.28.264-.264.28-.248.296-.228.308-.208.324-.188.336-.168.344-.148.356-.124.364-.104.368-.08.376-.06.38-.032.384-.012.384.012.396.036.396.064.396.084.388.112.38.132.376.16.364.18.356.2.34.22.332.244.316.264.296.108.136.084.148.064.164.04.168.012.172v.66l-.012.172-.04.172-.064.16-.088.152-.156.248-.128.264-.1.276-.072.284-.048.288-.012.292v14.748l.012.268.036.264.064.264.084.252.108.248.132.232.152.224.172.208.188.188.208.172.22.152.236.132.244.108.256.084.26.06.268.04.268.012zm-85.644 2.9v7.288h7.288v-4.38l-.012-.268-.036-.268-.06-.26-.088-.256-.108-.244-.132-.236-.152-.22-.168-.208-.192-.192-.208-.168-.22-.152-.236-.132-.244-.108-.256-.088-.26-.06-.268-.036-.268-.012zm85.644 20.916.268-.012.268-.036.26-.064.256-.084.244-.108.236-.132.22-.152.208-.172.192-.188.172-.208.148-.22.132-.236.108-.244.088-.256.06-.26.036-.268.012-.268v-2.968h-6.156v5.876zm2.908-14.688v-2.964l-.012-.268-.036-.268-.06-.26-.088-.256-.108-.248-.132-.232-.148-.224-.172-.204-.192-.192-.208-.172-.22-.152-.236-.128-.244-.108-.256-.088-.26-.06-.268-.036-.268-.016h-3.248v5.876zm-21.684 11.78.012.268.036.268.064.26.084.256.108.244.132.236.152.22.172.208.188.188.208.172.22.152.236.132.244.108.256.084.26.064.268.036.268.012h3.248v-5.876h-6.156zm6.156-11.78v-5.876h-3.248l-.268.016-.268.036-.26.06-.256.088-.244.108-.236.128-.22.152-.208.172-.188.192-.172.204-.152.224-.132.232-.108.248-.084.256-.064.26-.036.268-.012.268v2.964z" fill="#f00"/><path d="m244.908 106.424v-8.928l-4.78-4.896h-20.16l-5.76 5.76h-36l-7.2-5.76" stroke="#f00" stroke-linecap="round" stroke-linejoin="round" stroke-width="2.88"/><path d="m452.472 156.68v18" stroke="#f00" stroke-linecap="round" stroke-linejoin="round" stroke-width="2.88"/><path d="m452.472 74.6v-23.76" stroke="#f00" stroke-linecap="round" stroke-linejoin="round" stroke-width="2.88"/><path d="m385.8 43.64h41.528l3.052 2.88v30.412" stroke="#f00" stroke-linecap="round" stroke-linejoin="round" stroke-width="2.88"/><path d="m327.968 32.292-25.92-.172-7.2-7.2h-30.24l-4.952 4.952v8.556" stroke="#f00" stroke-linecap="round" stroke-linejoin="round" stroke-width="2.88"/><path d="m414.136 32.868-15.148-15.148h-58.06l-12.96 12.96v1.612" stroke="#f00" stroke-linecap="round" stroke-linejoin="round" stroke-width="2.88"/><path d="m430.208 76.76 7.2 7.2v37.44l-9.1 9.1h-15.352" stroke="#f00" stroke-linecap="round" stroke-linejoin="round" stroke-width="2.88"/><path d="m356.768 32.3h17.692l11.34 11.34" stroke="#f00" stroke-linecap="round" stroke-linejoin="round" stroke-width="2.88"/><path d="m274.4 106.424v8.928l4.608 4.608h20.16l4.32-4.204h109.468" stroke="#f00" stroke-linecap="round" stroke-linejoin="round" stroke-width="2.88"/><path d="m179.648 83.96h-12.96l-25.92 25.92v30.24l12.96 12.96h43.2l17.1 17.1h13.14" stroke="#f00" stroke-linecap="round" stroke-linejoin="round" stroke-width="2.88"/><path d="m266.048 16.28h-11.52l-1.44-1.44" stroke="#f00" stroke-linecap="round" stroke-linejoin="round" stroke-width="2.88"/><path d="m135.008 147.32v-40.32l36-36h53.28l18.72-18.72h5.76l3.544-3.544v-10.308" stroke="#f00" stroke-linecap="round" stroke-linejoin="round" stroke-width="2.88"/><path d="m222.804 38.416v-12.012l2.924-2.924" stroke="#f00" stroke-linecap="round" stroke-linejoin="round" stroke-width="2.88"/><path d="m244.908 38.428v-10.168l-11.98-11.98h-10.08l-7.2 7.2v25.92l-4.32 4.32h-61.92l-10.08-10.08h-27.36" stroke="#f00" stroke-linecap="round" stroke-linejoin="round" stroke-width="2.88"/><path d="m259.656 38.416-.004 68.052" stroke="#f00" stroke-linecap="round" stroke-linejoin="round" stroke-width="2.88"/><path d="m259.652 106.468v11.416l25.116 25.116v4.5" stroke="#f00" stroke-linecap="round" stroke-linejoin="round" stroke-width="2.88"/><path d="m461.852 97.548-.184 37.176" stroke="#f00" stroke-linecap="round" stroke-linejoin="round" stroke-width="2.88"/><path d="m412.956 122.84v.288" stroke="#f00" stroke-linecap="round" stroke-linejoin="round" stroke-width="2.88"/><path d="m313.568 170.18 1.136 1.132h27.664" stroke="#f00" stroke-linecap="round" stroke-linejoin="round" stroke-width="2.88"/><path d="m228.608 216.44 25.92-25.92" stroke="#f00" stroke-linecap="round" stroke-linejoin="round" stroke-width="2.88"/><path d="m289.136 106.468 6.292 6.292h.86" stroke="#f00" stroke-linecap="round" stroke-linejoin="round" stroke-width="2.88"/><path d="m281.76 106.412-1.312-1.316v-12.496" stroke="#f00" stroke-linecap="round" stroke-linejoin="round" stroke-width="2.88"/><path d="m230.172 106.468v38.028l-3.004 3.004" stroke="#f00" stroke-linecap="round" stroke-linejoin="round" stroke-width="2.88"/><path d="m237.54 106.468v22.608l18.428 18.424" stroke="#f00" stroke-linecap="round" stroke-linejoin="round" stroke-width="2.88"/><path d="m281.772 38.428v19.496l31.796 31.796v4.32" stroke="#f00" stroke-linecap="round" stroke-linejoin="round" stroke-width="2.88"/><path d="m313.568 135.8v11.7" stroke="#f00" stroke-linecap="round" stroke-linejoin="round" stroke-width="2.88"/><path d="m461.668 134.724v12.76l-9.196 9.196" stroke="#f00" stroke-linecap="round" stroke-linejoin="round" stroke-width="2.88"/><path d="m461.852 97.548v-13.568l-9.38-9.38" stroke="#f00" stroke-linecap="round" stroke-linejoin="round" stroke-width="2.88"/><path d="m421.86 88.08-17.572.2" stroke="#f00" stroke-linecap="round" stroke-linejoin="round" stroke-width="2.88"/><path d="m421.86 142.972h-19.012" stroke="#f00" stroke-linecap="round" stroke-linejoin="round" stroke-width="2.88"/><path d="m267.024 106.472v10.144l9.104 9.104h24.48l4.32-4.32h90.72l1.728 1.728h15.588" stroke="#f00" stroke-linecap="round" stroke-linejoin="round" stroke-width="2.88"/><path d="m179.648 45.08h13.656l2.184 2.184" stroke="#f00" stroke-linecap="round" stroke-linejoin="round" stroke-width="2.88"/><path d="m111.968 101.24h11.52l41.76-41.76h53.28l11.636-11.636v-9.416" stroke="#f00" stroke-linecap="round" stroke-linejoin="round" stroke-width="2.88"/><path d="m237.536 38.428v10.684l-16.128 16.128h-53.28l-38.88 38.88v8.64l-17.28 17.28" stroke="#f00" stroke-linecap="round" stroke-linejoin="round" stroke-width="2.88"/><path d="m284.768 147.492 14.4 14.228v18.72l-10.08 10.08h-63.36l-31.68-31.68h-82.08" stroke="#f00" stroke-linecap="round" stroke-linejoin="round" stroke-width="2.88"/><path d="m222.804 106.468-2.348-2.348h-62.408" stroke="#f00" stroke-linecap="round" stroke-linejoin="round" stroke-width="2.88"/><path d="m195.488 190.132-5.76-5.76v-9.692" stroke="#f00" stroke-linecap="round" stroke-linejoin="round" stroke-width="2.88"/><path d="m255.968 170.18-11.7 11.7h-2.7" stroke="#f00" stroke-linecap="round" stroke-linejoin="round" stroke-width="2.88"/><path d="m401.624 98.468h22.676v5.1h-22.676z" fill="#f00"/><path d="m401.624 105.836h22.676v5.104h-22.676z" fill="#f00"/><path d="m401.624 113.208h22.676v5.1h-22.676z" fill="#f00"/><path d="m401.624 120.576h22.676v5.104h-22.676z" fill="#f00"/><path d="m401.624 127.948h22.676v5.1h-22.676z" fill="#f00"/><path d="m455.052 106.62v-18.144h13.604v18.144z" fill="#f00"/><path d="m454.868 143.796v-18.144h13.604v18.144z" fill="#f00"/><path d="m235.956 164.508v11.34h-17.576v-11.34z" fill="#f00"/><path d="m235.956 141.832v11.34h-17.576v-11.34z" fill="#f00"/><path d="m264.756 164.508v11.34h-17.576v-11.34z" fill="#f00"/><path d="m264.756 141.832v11.34h-17.576v-11.34z" fill="#f00"/><path d="m322.356 164.508v11.34h-17.576v-11.34z" fill="#f00"/><path d="m322.356 141.832v11.34h-17.576v-11.34z" fill="#f00"/><path d="m275.972 175.848v-11.34h17.576v11.34z" fill="#f00"/><path d="m275.972 153.172v-11.34h17.576v11.34z" fill="#f00"/><path d="m392.884 39.672v7.936h-14.172v-7.936z" fill="#f00"/><path d="m421.224 28.9v7.936h-14.172v-7.936z" fill="#f00"/><path d="m421.224 50.444v7.936h-14.172v-7.936z" fill="#f00"/><path d="m334.44 176.984v-11.34h15.876v11.34z" fill="#f00"/><path d="m334.44 152.036v-11.336h15.876v11.336z" fill="#f00"/><path d="m187.568 48.536v-14.744h15.868v14.744z" fill="#f00"/><path d="m187.568 24.72v-14.748h15.868v14.748z" fill="#f00"/><path d="m203.436 182.772v14.748h-15.868v-14.748z" fill="#f00"/><path d="m203.436 206.592v14.744h-15.868v-14.744z" fill="#f00"/><path d="m261.908 46.896h-4.532v-16.932h4.532z" fill="#f00"/><path d="m254.552 46.896h-4.532v-16.932h4.532z" fill="#f00"/><path d="m247.168 46.896h-4.532v-16.932h4.532z" fill="#f00"/><path d="m239.8 46.896h-4.532v-16.932h4.532z" fill="#f00"/><path d="m284.016 114.896h-4.532v-16.936h4.532z" fill="#f00"/><path d="m284.02 46.896h-4.536v-16.932h4.536z" fill="#f00"/><path d="m276.648 46.896h-4.536v-16.932h4.536z" fill="#f00"/><path d="m269.28 46.896h-4.536v-16.932h4.536z" fill="#f00"/><path d="m232.428 114.952h-4.536v-16.936h4.536z" fill="#f00"/><path d="m239.8 114.952h-4.536v-16.936h4.536z" fill="#f00"/><path d="m247.168 114.952h-4.536v-16.936h4.536z" fill="#f00"/><path d="m254.54 114.952h-4.536v-16.936h4.536z" fill="#f00"/><path d="m261.908 114.952h-4.536v-16.936h4.536z" fill="#f00"/><path d="m269.28 114.952h-4.536v-16.936h4.536z" fill="#f00"/><path d="m232.428 46.896h-4.532v-16.932h4.532z" fill="#f00"/><path d="m276.648 114.896h-4.536v-16.936h4.536z" fill="#f00"/><path d="m291.388 46.896h-4.532v-16.936h4.532z" fill="#f00"/><path d="m225.06 46.896h-4.532v-16.932h4.532z" fill="#f00"/><path d="m225.06 114.952h-4.536v-16.936h4.536z" fill="#f00"/><path d="m291.388 114.952h-4.532v-16.936h4.532z" fill="#f00"/><path d="m347.972 60.648v-11.34h17.576v11.34z" fill="#f00"/><path d="m347.972 37.972v-11.34h17.576v11.34z" fill="#f00"/><path d="m319.172 60.648v-11.34h17.576v11.34z" fill="#f00"/><path d="m319.172 37.972v-11.34h17.576v11.34z" fill="#f00"/><path d="m258.76 14.84c0-3.12-2.56-5.68-5.68-5.68s-5.68 2.56-5.68 5.68 2.56 5.68 5.68 5.68 5.68-2.56 5.68-5.68" fill="#f00"/><path d="m447.372 74.6h10.204" stroke="#cbcbcb" stroke-linecap="round" stroke-linejoin="round" stroke-width="14.76"/><path d="m457.008 74.6h-9.072" stroke="#2c2c2c" stroke-linecap="round" stroke-linejoin="round" stroke-width="7.92"/><path d="m447.372 156.68h10.204" stroke="#cbcbcb" stroke-linecap="round" stroke-linejoin="round" stroke-width="14.76"/><path d="m457.008 156.68h-9.072" stroke="#2c2c2c" stroke-linecap="round" stroke-linejoin="round" stroke-width="7.92"/><path d="m429.24 142.96c0-4.04-3.32-7.36-7.4-7.36-4.04 0-7.36 3.32-7.36 7.36 0 4.08 3.32 7.4 7.36 7.4 4.08 0 7.4-3.32 7.4-7.4" fill="#cbcbcb"/><path d="m426.96 142.96c0-2.8-2.28-5.08-5.12-5.08-2.8 0-5.08 2.28-5.08 5.08 0 2.84 2.28 5.12 5.08 5.12 2.84 0 5.12-2.28 5.12-5.12" fill="#2c2c2c"/><path d="m429.24 88.08c0-4.08-3.32-7.36-7.4-7.36-4.04 0-7.36 3.28-7.36 7.36s3.32 7.36 7.36 7.36c4.08 0 7.4-3.28 7.4-7.36" fill="#cbcbcb"/><path d="m426.96 88.08c0-2.8-2.28-5.12-5.12-5.12-2.8 0-5.08 2.32-5.08 5.12s2.28 5.12 5.08 5.12c2.84 0 5.12-2.32 5.12-5.12" fill="#2c2c2c"/><path d="m122.16 14.84c0-5.64-4.56-10.2-10.2-10.2s-10.2 4.56-10.2 10.2 4.56 10.2 10.2 10.2 10.2-4.56 10.2-10.2" fill="#cbcbcb"/><path d="m118.2 14.84c0-3.44-2.8-6.24-6.24-6.24s-6.24 2.8-6.24 6.24 2.8 6.24 6.24 6.24 6.24-2.8 6.24-6.24" fill="#2c2c2c"/><path d="m122.16 43.64c0-5.64-4.56-10.2-10.2-10.2s-10.2 4.56-10.2 10.2 4.56 10.2 10.2 10.2 10.2-4.56 10.2-10.2" fill="#cbcbcb"/><path d="m118.2 43.64c0-3.44-2.8-6.24-6.24-6.24s-6.24 2.8-6.24 6.24 2.8 6.24 6.24 6.24 6.24-2.8 6.24-6.24" fill="#2c2c2c"/><path d="m122.16 72.44c0-5.64-4.56-10.2-10.2-10.2s-10.2 4.56-10.2 10.2 4.56 10.2 10.2 10.2 10.2-4.56 10.2-10.2" fill="#cbcbcb"/><path d="m118.2 72.44c0-3.44-2.8-6.24-6.24-6.24s-6.24 2.8-6.24 6.24 2.8 6.24 6.24 6.24 6.24-2.8 6.24-6.24" fill="#2c2c2c"/><path d="m122.16 101.24c0-5.64-4.56-10.2-10.2-10.2s-10.2 4.56-10.2 10.2 4.56 10.2 10.2 10.2 10.2-4.56 10.2-10.2" fill="#cbcbcb"/><path d="m118.2 101.24c0-3.44-2.8-6.24-6.24-6.24s-6.24 2.8-6.24 6.24 2.8 6.24 6.24 6.24 6.24-2.8 6.24-6.24" fill="#2c2c2c"/><path d="m122.16 130.04c0-5.64-4.56-10.2-10.2-10.2s-10.2 4.56-10.2 10.2 4.56 10.2 10.2 10.2 10.2-4.56 10.2-10.2" fill="#cbcbcb"/><path d="m118.2 130.04c0-3.44-2.8-6.24-6.24-6.24s-6.24 2.8-6.24 6.24 2.8 6.24 6.24 6.24 6.24-2.8 6.24-6.24" fill="#2c2c2c"/><path d="m122.16 158.84c0-5.64-4.56-10.2-10.2-10.2s-10.2 4.56-10.2 10.2 4.56 10.2 10.2 10.2 10.2-4.56 10.2-10.2" fill="#cbcbcb"/><path d="m118.2 158.84c0-3.44-2.8-6.24-6.24-6.24s-6.24 2.8-6.24 6.24 2.8 6.24 6.24 6.24 6.24-2.8 6.24-6.24" fill="#2c2c2c"/><path d="m122.16 187.64c0-5.64-4.56-10.2-10.2-10.2s-10.2 4.56-10.2 10.2 4.56 10.2 10.2 10.2 10.2-4.56 10.2-10.2" fill="#cbcbcb"/><path d="m118.2 187.64c0-3.44-2.8-6.24-6.24-6.24s-6.24 2.8-6.24 6.24 2.8 6.24 6.24 6.24 6.24-2.8 6.24-6.24" fill="#2c2c2c"/><path d="m122.172 206.236v20.408h-20.408v-20.408z" fill="#cbcbcb"/><path d="m118.2 216.44c0-3.44-2.8-6.24-6.24-6.24s-6.24 2.8-6.24 6.24 2.8 6.24 6.24 6.24 6.24-2.8 6.24-6.24" fill="#2c2c2c"/><path d="m324.644 226.076h-19.272v-19.272h19.272z" fill="#cbcbcb"/><path d="m321.24 216.44c0-3.44-2.8-6.24-6.24-6.24s-6.24 2.8-6.24 6.24 2.8 6.24 6.24 6.24 6.24-2.8 6.24-6.24" fill="#2c2c2c"/><path d="m295.84 216.44c0-5.32-4.32-9.64-9.64-9.64s-9.64 4.32-9.64 9.64 4.32 9.64 9.64 9.64 9.64-4.32 9.64-9.64" fill="#cbcbcb"/><path d="m292.44 216.44c0-3.44-2.8-6.24-6.24-6.24s-6.24 2.8-6.24 6.24 2.8 6.24 6.24 6.24 6.24-2.8 6.24-6.24" fill="#2c2c2c"/><path d="m267.04 216.44c0-5.32-4.32-9.64-9.64-9.64s-9.64 4.32-9.64 9.64 4.32 9.64 9.64 9.64 9.64-4.32 9.64-9.64" fill="#cbcbcb"/><path d="m263.64 216.44c0-3.44-2.8-6.24-6.24-6.24s-6.24 2.8-6.24 6.24 2.8 6.24 6.24 6.24 6.24-2.8 6.24-6.24" fill="#2c2c2c"/><path d="m238.24 216.44c0-5.32-4.32-9.64-9.64-9.64s-9.64 4.32-9.64 9.64 4.32 9.64 9.64 9.64 9.64-4.32 9.64-9.64" fill="#cbcbcb"/><path d="m234.84 216.44c0-3.44-2.8-6.24-6.24-6.24s-6.24 2.8-6.24 6.24 2.8 6.24 6.24 6.24 6.24-2.8 6.24-6.24" fill="#2c2c2c"/><path d="m177.36 17.72c0-1.92-1.56-3.44-3.48-3.44s-3.44 1.52-3.44 3.44 1.52 3.44 3.44 3.44 3.48-1.52 3.48-3.44" fill="#cbcbcb"/><path d="m175.6 17.72c0-.96-.76-1.72-1.72-1.72s-1.72.76-1.72 1.72.76 1.72 1.72 1.72 1.72-.76 1.72-1.72" fill="#2c2c2c"/><path d="m170.16 127.16c0-1.92-1.56-3.44-3.48-3.44s-3.44 1.52-3.44 3.44 1.52 3.44 3.44 3.44 3.48-1.52 3.48-3.44" fill="#cbcbcb"/><path d="m168.4 127.16c0-.96-.76-1.72-1.72-1.72s-1.72.76-1.72 1.72.76 1.72 1.72 1.72 1.72-.76 1.72-1.72" fill="#2c2c2c"/><path d="m183.12 83.96c0-1.92-1.56-3.44-3.48-3.44s-3.44 1.52-3.44 3.44 1.52 3.44 3.44 3.44 3.48-1.52 3.48-3.44" fill="#cbcbcb"/><path d="m181.36 83.96c0-.96-.76-1.72-1.72-1.72s-1.72.76-1.72 1.72.76 1.72 1.72 1.72 1.72-.76 1.72-1.72" fill="#2c2c2c"/><path d="m245.04 181.88c0-1.92-1.56-3.44-3.48-3.44s-3.44 1.52-3.44 3.44 1.52 3.44 3.44 3.44 3.48-1.52 3.48-3.44" fill="#cbcbcb"/><path d="m243.28 181.88c0-.96-.76-1.72-1.72-1.72s-1.72.76-1.72 1.72.76 1.72 1.72 1.72 1.72-.76 1.72-1.72" fill="#2c2c2c"/><path d="m193.2 174.68c0-1.92-1.56-3.44-3.48-3.44s-3.44 1.52-3.44 3.44 1.52 3.44 3.44 3.44 3.48-1.52 3.48-3.44" fill="#cbcbcb"/><path d="m191.44 174.68c0-.96-.76-1.72-1.72-1.72s-1.72.76-1.72 1.72.76 1.72 1.72 1.72 1.72-.76 1.72-1.72" fill="#2c2c2c"/><path d="m161.52 104.12c0-1.92-1.56-3.44-3.48-3.44s-3.44 1.52-3.44 3.44 1.52 3.44 3.44 3.44 3.48-1.52 3.48-3.44" fill="#cbcbcb"/><path d="m159.76 104.12c0-.96-.76-1.72-1.72-1.72s-1.72.76-1.72 1.72.76 1.72 1.72 1.72 1.72-.76 1.72-1.72" fill="#2c2c2c"/><path d="m183.12 45.08c0-1.92-1.56-3.44-3.48-3.44s-3.44 1.52-3.44 3.44 1.52 3.44 3.44 3.44 3.48-1.52 3.48-3.44" fill="#cbcbcb"/><path d="m181.36 45.08c0-.96-.76-1.72-1.72-1.72s-1.72.76-1.72 1.72.76 1.72 1.72 1.72 1.72-.76 1.72-1.72" fill="#2c2c2c"/><path d="m138.48 147.32c0-1.92-1.56-3.44-3.48-3.44s-3.44 1.52-3.44 3.44 1.52 3.44 3.44 3.44 3.48-1.52 3.48-3.44" fill="#cbcbcb"/><path d="m136.72 147.32c0-.96-.76-1.72-1.72-1.72s-1.72.76-1.72 1.72.76 1.72 1.72 1.72 1.72-.76 1.72-1.72" fill="#2c2c2c"/><path d="m299.76 112.76c0-1.92-1.56-3.44-3.48-3.44s-3.44 1.52-3.44 3.44 1.52 3.44 3.44 3.44 3.48-1.52 3.48-3.44" fill="#cbcbcb"/><path d="m298 112.76c0-.96-.76-1.72-1.72-1.72s-1.72.76-1.72 1.72.76 1.72 1.72 1.72 1.72-.76 1.72-1.72" fill="#2c2c2c"/><path d="m283.92 92.6c0-1.92-1.56-3.44-3.48-3.44s-3.44 1.52-3.44 3.44 1.52 3.44 3.44 3.44 3.48-1.52 3.48-3.44" fill="#cbcbcb"/><path d="m282.16 92.6c0-.96-.76-1.72-1.72-1.72s-1.72.76-1.72 1.72.76 1.72 1.72 1.72 1.72-.76 1.72-1.72" fill="#2c2c2c"/><path d="m317.04 94.04c0-1.92-1.56-3.44-3.48-3.44s-3.44 1.52-3.44 3.44 1.52 3.44 3.44 3.44 3.48-1.52 3.48-3.44" fill="#cbcbcb"/><path d="m315.28 94.04c0-.96-.76-1.72-1.72-1.72s-1.72.76-1.72 1.72.76 1.72 1.72 1.72 1.72-.76 1.72-1.72" fill="#2c2c2c"/><path d="m317.04 135.8c0-1.92-1.56-3.44-3.48-3.44s-3.44 1.52-3.44 3.44 1.52 3.44 3.44 3.44 3.48-1.52 3.48-3.44" fill="#cbcbcb"/><path d="m315.28 135.8c0-.96-.76-1.72-1.72-1.72s-1.72.76-1.72 1.72.76 1.72 1.72 1.72 1.72-.76 1.72-1.72" fill="#2c2c2c"/><path d="m285.36 197.72c0-1.92-1.56-3.44-3.48-3.44s-3.44 1.52-3.44 3.44 1.52 3.44 3.44 3.44 3.48-1.52 3.48-3.44" fill="#cbcbcb"/><path d="m283.6 197.72c0-.96-.76-1.72-1.72-1.72s-1.72.76-1.72 1.72.76 1.72 1.72 1.72 1.72-.76 1.72-1.72" fill="#2c2c2c"/><path d="m249.36 82.52c0-1.92-1.56-3.44-3.48-3.44s-3.44 1.52-3.44 3.44 1.52 3.44 3.44 3.44 3.48-1.52 3.48-3.44" fill="#cbcbcb"/><path d="m247.6 82.52c0-.96-.76-1.72-1.72-1.72s-1.72.76-1.72 1.72.76 1.72 1.72 1.72 1.72-.76 1.72-1.72" fill="#2c2c2c"/><path d="m273.84 71c0-1.92-1.56-3.44-3.48-3.44s-3.44 1.52-3.44 3.44 1.52 3.44 3.44 3.44 3.48-1.52 3.48-3.44" fill="#cbcbcb"/><path d="m272.08 71c0-.96-.76-1.72-1.72-1.72s-1.72.76-1.72 1.72.76 1.72 1.72 1.72 1.72-.76 1.72-1.72" fill="#2c2c2c"/><path d="m272.4 181.88c0-1.92-1.56-3.44-3.48-3.44s-3.44 1.52-3.44 3.44 1.52 3.44 3.44 3.44 3.48-1.52 3.48-3.44" fill="#cbcbcb"/><path d="m270.64 181.88c0-.96-.76-1.72-1.72-1.72s-1.72.76-1.72 1.72.76 1.72 1.72 1.72 1.72-.76 1.72-1.72" fill="#2c2c2c"/><path d="m253.68 128.6c0-1.92-1.56-3.44-3.48-3.44s-3.44 1.52-3.44 3.44 1.52 3.44 3.44 3.44 3.48-1.52 3.48-3.44" fill="#cbcbcb"/><path d="m251.92 128.6c0-.96-.76-1.72-1.72-1.72s-1.72.76-1.72 1.72.76 1.72 1.72 1.72 1.72-.76 1.72-1.72" fill="#2c2c2c"/><path d="m229.2 23.48c0-1.92-1.56-3.44-3.48-3.44s-3.44 1.52-3.44 3.44 1.52 3.44 3.44 3.44 3.48-1.52 3.48-3.44" fill="#cbcbcb"/><path d="m227.44 23.48c0-.96-.76-1.72-1.72-1.72s-1.72.76-1.72 1.72.76 1.72 1.72 1.72 1.72-.76 1.72-1.72" fill="#2c2c2c"/><path d="m174.48 92.6c0-1.92-1.56-3.44-3.48-3.44s-3.44 1.52-3.44 3.44 1.52 3.44 3.44 3.44 3.48-1.52 3.48-3.44" fill="#cbcbcb"/><path d="m172.72 92.6c0-.96-.76-1.72-1.72-1.72s-1.72.76-1.72 1.72.76 1.72 1.72 1.72 1.72-.76 1.72-1.72" fill="#2c2c2c"/><path d="m269.52 16.28c0-1.92-1.56-3.44-3.48-3.44s-3.44 1.52-3.44 3.44 1.52 3.44 3.44 3.44 3.48-1.52 3.48-3.44" fill="#cbcbcb"/><path d="m267.76 16.28c0-.96-.76-1.72-1.72-1.72s-1.72.76-1.72 1.72.76 1.72 1.72 1.72 1.72-.76 1.72-1.72" fill="#2c2c2c"/><path d="m216.24 196.28c0-1.92-1.56-3.44-3.48-3.44s-3.44 1.52-3.44 3.44 1.52 3.44 3.44 3.44 3.48-1.52 3.48-3.44" fill="#cbcbcb"/><path d="m214.48 196.28c0-.96-.76-1.72-1.72-1.72s-1.72.76-1.72 1.72.76 1.72 1.72 1.72 1.72-.76 1.72-1.72" fill="#2c2c2c"/><path d="m390.48 30.68c0-1.92-1.56-3.44-3.48-3.44s-3.44 1.52-3.44 3.44 1.52 3.44 3.44 3.44 3.48-1.52 3.48-3.44" fill="#cbcbcb"/><path d="m388.72 30.68c0-.96-.76-1.72-1.72-1.72s-1.72.76-1.72 1.72.76 1.72 1.72 1.72 1.72-.76 1.72-1.72" fill="#2c2c2c"/><g stroke-linecap="round" stroke-linejoin="round"><path d="m475.716 160.656h-1.132l-6.688-6.692" stroke="#fc0" stroke-width="2.88"/><path d="m475.944 70.512h-1.36l-6.688 6.692" stroke="#fc0" stroke-width="2.88"/><path d="m467.896 77.204v76.76" stroke="#fc0" stroke-width="2.88"/><path d="m475.944 70.284v90.712" stroke="#fc0" stroke-width="2.88"/><path d="m410.636 160.996v-25.324" stroke="#fc0" stroke-width="2.88"/><path d="m410.636 95.844v-25.56" stroke="#fc0" stroke-width="2.88"/><path d="m410.752 70.284h27.612" stroke="#fc0" stroke-width="2.88"/><path d="m466.584 70.284h9.36" stroke="#fc0" stroke-width="2.88"/><path d="m410.636 160.996h27.728" stroke="#fc0" stroke-width="2.88"/><path d="m466.584 160.996h9.132" stroke="#fc0" stroke-width="2.88"/><path d="m238.732 153.172v-14.176" stroke="#fc0" stroke-width="2.88"/><path d="m215.604 153.172v-14.176" stroke="#fc0" stroke-width="2.88"/><path d="m238.732 164.508v14.176" stroke="#fc0" stroke-width="2.88"/><path d="m215.604 164.508v14.176" stroke="#fc0" stroke-width="2.88"/><path d="m238.732 138.996h-23.128" stroke="#fc0" stroke-width="2.88"/><path d="m238.732 178.684h-23.128" stroke="#fc0" stroke-width="2.88"/><path d="m267.532 153.172v-14.176" stroke="#fc0" stroke-width="2.88"/><path d="m244.404 153.172v-14.176" stroke="#fc0" stroke-width="2.88"/><path d="m267.532 164.508v14.176" stroke="#fc0" stroke-width="2.88"/><path d="m244.404 164.508v14.176" stroke="#fc0" stroke-width="2.88"/><path d="m267.532 138.996h-23.128" stroke="#fc0" stroke-width="2.88"/><path d="m267.532 178.684h-23.128" stroke="#fc0" stroke-width="2.88"/><path d="m325.132 153.172v-14.176" stroke="#fc0" stroke-width="2.88"/><path d="m302.004 153.172v-14.176" stroke="#fc0" stroke-width="2.88"/><path d="m325.132 164.508v14.176" stroke="#fc0" stroke-width="2.88"/><path d="m302.004 164.508v14.176" stroke="#fc0" stroke-width="2.88"/><path d="m325.132 138.996h-23.128" stroke="#fc0" stroke-width="2.88"/><path d="m325.132 178.684h-23.128" stroke="#fc0" stroke-width="2.88"/><path d="m275.688 138.996h18.144" stroke="#fc0" stroke-width="2.88"/><path d="m275.688 178.684h18.144" stroke="#fc0" stroke-width="2.88"/><path d="m296.552 153.172v-11.908" stroke="#fc0" stroke-width="2.88"/><path d="m272.968 153.172v-11.908" stroke="#fc0" stroke-width="2.88"/><path d="m296.552 164.508v11.908" stroke="#fc0" stroke-width="2.88"/><path d="m272.968 164.508v11.908" stroke="#fc0" stroke-width="2.88"/><path d="m275.464 178.684h.224" stroke="#fc0" stroke-width="2.88"/><path d="m275.236 178.684h.452" stroke="#fc0" stroke-width="2.88"/><path d="m294.284 178.684h-.452" stroke="#fc0" stroke-width="2.88"/><path d="m275.236 138.996h.452" stroke="#fc0" stroke-width="2.88"/><path d="m294.284 138.996h-.452" stroke="#fc0" stroke-width="2.88"/><path d="m392.6 34.568v-7.484 7.484-7.484h9.24" stroke="#fc0" stroke-width="2.88"/><path d="m401.84 60.196h-9.24v-7.484" stroke="#fc0" stroke-width="2.88"/><path d="m410.172 47.04v-6.8" stroke="#fc0" stroke-width="2.28"/><path d="m331.604 138.996h.004l3.964-3.968" stroke="#fc0" stroke-width="2.88"/><path d="m353.148 138.996-3.968-3.968" stroke="#fc0" stroke-width="2.88"/><path d="m353.148 164.508v15.308" stroke="#fc0" stroke-width="2.88"/><path d="m331.604 164.508v15.308" stroke="#fc0" stroke-width="2.88"/><path d="m353.148 153.172v-14.176" stroke="#fc0" stroke-width="2.88"/><path d="m331.604 153.172v-14.176" stroke="#fc0" stroke-width="2.88"/><path d="m353.148 179.816h-21.544" stroke="#fc0" stroke-width="2.88"/><path d="m349.18 135.028h-13.608" stroke="#fc0" stroke-width="2.88"/><path d="m348.048 162.244h-11.34" stroke="#fc0" stroke-width="2.88"/><path d="m342.32 162.244v-5.672" stroke="#fc0" stroke-width="2.88"/><path d="m201.172 31.524h-11.34" stroke="#fc0" stroke-width="2.88"/><path d="m183.68 25.352v-16.704l4.608-4.608h14.4l4.32 4.32v17.28" stroke="#fc0" stroke-width="2.88"/><path d="m183.968 34.28v17.568h23.04v-17.568" stroke="#fc0" stroke-width="2.88"/><path d="m195.504 30.388v-3.048" stroke="#fc0" stroke-width="2.88"/><path d="m189.832 199.788h11.344" stroke="#fc0" stroke-width="2.88"/><path d="m207.324 205.956v16.704l-4.608 4.608h-14.4l-4.32-4.32v-17.28" stroke="#fc0" stroke-width="2.88"/><path d="m207.036 197.028v-17.568h-23.04v17.568" stroke="#fc0" stroke-width="2.88"/><path d="m195.504 200.92v3.048" stroke="#fc0" stroke-width="2.88"/><path d="m218.54 96.32v-47.732h-.004" stroke="#fc0" stroke-width="2.88"/><path d="m293.38 48.588h-.008" stroke="#fc0" stroke-width="2.88"/><path d="m293.376 79.26v17.064" stroke="#fc0" stroke-width="2.88"/><path d="m293.38 48.588-.004 17.064" stroke="#fc0" stroke-width="2.88"/><path d="m347.688 23.796h18.144" stroke="#fc0" stroke-width="2.88"/><path d="m347.688 63.484h18.144" stroke="#fc0" stroke-width="2.88"/><path d="m368.552 37.972v-11.908" stroke="#fc0" stroke-width="2.88"/><path d="m344.968 37.972v-11.908" stroke="#fc0" stroke-width="2.88"/><path d="m368.552 49.308v11.908" stroke="#fc0" stroke-width="2.88"/><path d="m344.968 49.308v11.908" stroke="#fc0" stroke-width="2.88"/><path d="m347.464 63.484h.224" stroke="#fc0" stroke-width="2.88"/><path d="m347.236 63.484h.452" stroke="#fc0" stroke-width="2.88"/><path d="m366.284 63.484h-.452" stroke="#fc0" stroke-width="2.88"/><path d="m347.236 23.796h.452" stroke="#fc0" stroke-width="2.88"/><path d="m366.284 23.796h-.452" stroke="#fc0" stroke-width="2.88"/><path d="m318.888 23.796h18.144" stroke="#fc0" stroke-width="2.88"/><path d="m318.888 63.484h18.144" stroke="#fc0" stroke-width="2.88"/><path d="m339.752 37.972v-11.908" stroke="#fc0" stroke-width="2.88"/><path d="m316.168 37.972v-11.908" stroke="#fc0" stroke-width="2.88"/><path d="m339.752 49.308v11.908" stroke="#fc0" stroke-width="2.88"/><path d="m316.168 49.308v11.908" stroke="#fc0" stroke-width="2.88"/><path d="m318.664 63.484h.224" stroke="#fc0" stroke-width="2.88"/><path d="m318.436 63.484h.452" stroke="#fc0" stroke-width="2.88"/><path d="m337.484 63.484h-.452" stroke="#fc0" stroke-width="2.88"/><path d="m318.436 23.796h.452" stroke="#fc0" stroke-width="2.88"/><path d="m337.484 23.796h-.452" stroke="#fc0" stroke-width="2.88"/><path d="m68.768 158.84h-68.032" stroke="#fc0" stroke-width="2.88"/><path d="m68.768 187.64h-68.032" stroke="#fc0" stroke-width="2.88"/><path d="m68.768 130.04h-68.032" stroke="#fc0" stroke-width="2.88"/><path d="m68.768 72.44h-68.032" stroke="#fc0" stroke-width="2.88"/><path d="m68.768 101.24h-68.032" stroke="#fc0" stroke-width="2.88"/><path d="m68.768 43.64h-68.032" stroke="#fc0" stroke-width="2.88"/><path d="m68.768 14.84h-68.032" stroke="#fc0" stroke-width="2.88"/><path d="m68.768 216.44h-68.032" stroke="#fc0" stroke-width="2.88"/><path d="m68.768 230.84v-230.4h28.8v230.4z" stroke="#fc0" stroke-width="2.88"/><path d="m330.768 231.52h-117.92" stroke="#fc0" stroke-width="2.88"/><path d="m212.848 201.36h117.92" stroke="#fc0" stroke-width="2.88"/><path d="m330.768 231.52v-30.16" stroke="#fc0" stroke-width="2.88"/><path d="m212.848 231.52v-30.16" stroke="#fc0" stroke-width="2.88"/><path d="m133.568 7.496v13.768m0-13.768h4.58l1.956.664 1.328 1.324.632 1.296.664 1.956v3.284l-.664 1.96-.632 1.324-1.328 1.296-1.956.664h-4.58m22.636-11.78-1.296-1.324-1.956-.664h-2.624l-1.956.664-1.324 1.324v1.296l.66 1.324.664.632 1.296.664 3.916 1.296 1.324.664.664.66.632 1.296v1.988l-1.296 1.296-1.956.664h-2.624l-1.956-.664-1.324-1.296m13.476-11.808v13.768m0-13.768h5.904l1.96.664.66.66.664 1.296v1.324l-.664 1.296-.66.664-1.96.664h-5.904m4.58 0 4.608 7.2" stroke="#fc0" stroke-width="2.32"/><path d="m133.568 36.296v13.768m0-13.768h5.904l1.96.664.632.66.664 1.296v1.324l-.664 1.296-.632.664-1.96.664h-5.904m4.58 0 4.58 7.2m8.896-13.768v13.768m-4.576-13.768h9.156m13.508 1.988-1.324-1.324-1.96-.664h-2.62l-1.96.664-1.324 1.324v1.296l.664 1.324.66.632 1.296.664 3.948 1.296 1.296.664.66.66.664 1.296v1.988l-1.324 1.296-1.96.664h-2.62l-1.96-.664-1.324-1.296" stroke="#fc0" stroke-width="2.32"/><path d="m143.388 212.38-.66-1.296-1.296-1.324-1.328-.664h-2.62l-1.296.664-1.324 1.324-.632 1.296-.664 1.956v3.284l.664 1.96.632 1.324 1.324 1.296 1.296.664h2.62l1.328-.664 1.296-1.296.66-1.324v-1.96m-3.284 0h3.284m4.32-8.524v13.768m0-13.768 9.16 13.768m0-13.768v13.768m4.32-13.768v13.768m0-13.768h4.58l1.956.664 1.324 1.324.664 1.296.632 1.956v3.284l-.632 1.96-.664 1.324-1.324 1.296-1.956.664h-4.58" stroke="#fc0" stroke-width="2.32"/><path d="m143.388 183.58-.66-1.296-1.296-1.324-1.328-.664h-2.62l-1.296.664-1.324 1.324-.632 1.296-.664 1.956v3.284l.664 1.96.632 1.324 1.324 1.296 1.296.664h2.62l1.328-.664 1.296-1.296.66-1.324m8.9-10.484v13.768m-4.58-13.768h9.16m13.476 1.988-1.296-1.324-1.956-.664h-2.62l-1.96.664-1.324 1.324v1.296l.66 1.324.664.632 1.296.664 3.916 1.296 1.324.664.664.66.632 1.296v1.988l-1.296 1.296-1.956.664h-2.62l-1.96-.664-1.324-1.296" stroke="#fc0" stroke-width="2.32"/><path d="m133.568 151.496 5.24 13.768m5.244-13.768-5.244 13.768m19.384-10.484-.664-1.296-1.324-1.324-1.296-.664h-2.62l-1.296.664-1.324 1.324-.664 1.296-.632 1.956v3.284l.632 1.96.664 1.324 1.324 1.296 1.296.664h2.62l1.296-.664 1.324-1.296.664-1.324m14.112-7.2-.632-1.296-1.328-1.324-1.296-.664h-2.62l-1.324.664-1.296 1.324-.664 1.296-.632 1.956v3.284l.632 1.96.664 1.324 1.296 1.296 1.324.664h2.62l1.296-.664 1.328-1.296.632-1.324" stroke="#fc0" stroke-width="2.32"/><path d="m138.148 122.696v13.768m-4.58-13.768h9.16m4.32 0 9.156 13.768m0-13.768-9.156 13.768" stroke="#fc0" stroke-width="2.32"/><path d="m133.568 93.896v13.768m0-13.768h5.904l1.96.664.632.66.664 1.296v1.324l-.664 1.296-.632.664-1.96.664h-5.904m4.58 0 4.58 7.2m4.32-13.768 9.156 13.768m0-13.768-9.156 13.768" stroke="#fc0" stroke-width="2.32"/><path d="m133.568 65.096v13.768m0-13.768h4.58l1.956.664 1.328 1.324.632 1.296.664 1.956v3.284l-.664 1.96-.632 1.324-1.328 1.296-1.956.664h-4.58m18.056-13.768v13.768m-4.576-13.768h9.156m4.32 0v13.768m0-13.768h5.904l1.96.664.66.66.664 1.296v1.324l-.664 1.296-.66.664-1.96.664h-5.904m4.58 0 4.608 7.2" stroke="#fc0" stroke-width="2.32"/><path d="m188.144 83.96h13.768m-13.768 0v-5.904l.664-1.96.66-.632 1.296-.664h1.324l1.296.664.664.632.664 1.96v5.904m0-4.58 7.2-4.58m-13.768-4.32 13.768-9.156m-13.768 0 13.768 9.156" stroke="#fc0" stroke-width="2.32"/><path d="m188.144 164.34h13.768m-13.768 4.58v-9.16m0-4.32 13.768-9.156m-13.768 0 13.768 9.156" stroke="#fc0" stroke-width="2.32"/><path d="m349.568 201.896v9.82l.664 1.988 1.296 1.296 1.956.664h1.324l1.96-.664 1.296-1.296.664-1.988v-9.82m13.476 1.988-1.296-1.324-1.956-.664h-2.624l-1.956.664-1.324 1.324v1.296l.66 1.324.664.632 1.296.664 3.916 1.296 1.324.664.664.66.632 1.296v1.988l-1.296 1.296-1.956.664h-2.624l-1.956-.664-1.324-1.296m13.476-11.808v13.768m0-13.768h5.904l1.96.664.66.66.664 1.296v1.324l-.664 1.296-.66.664-1.96.664m-5.904 0h5.904l1.96.632.66.664.664 1.324v1.956l-.664 1.296-.66.664-1.96.664h-5.904m32.748-11.78-1.328-1.324-1.956-.664h-2.62l-1.96.664-1.296 1.324v1.296l.632 1.324.664.632 1.296.664 3.944 1.296 1.296.664.664.66.664 1.296v1.988l-1.328 1.296-1.956.664h-2.62l-1.96-.664-1.296-1.296m13.48-3.284h7.832v-1.324l-.632-1.296-.664-.664-1.296-.632h-1.988l-1.296.632-1.324 1.328-.632 1.956v1.296l.632 1.988 1.324 1.296 1.296.664h1.988l1.296-.664 1.296-1.296m4.32-7.2v9.16m0-5.244.664-1.956 1.324-1.328 1.296-.632h1.956m4.32-4.608.664.664.664-.664-.664-.632zm.664 4.608v9.16m12.816-9.16v9.16m0-7.2-1.296-1.328-1.296-.632h-1.988l-1.296.632-1.324 1.328-.632 1.956v1.296l.632 1.988 1.324 1.296 1.296.664h1.988l1.296-.664 1.296-1.296m4.32-11.808v13.768" stroke="#fc0" stroke-width="2.32"/><path d="m360.944 179h13.768m-13.768 0v-5.904l.664-1.96.66-.632 1.296-.664h1.988l1.296.664.664.632.632 1.96v5.904m-7.2-13.48 13.768-3.28m-13.768-3.256 13.768 3.256m-13.768-3.256 13.768-3.284m-13.768-3.284 13.768 3.284m-13.768-7.604h13.768m-13.768 0v-5.872l.664-1.96.66-.664 1.296-.66h1.324l1.296.66.664.664.664 1.96v5.872m0-4.576 7.2-4.58" stroke="#fc0" stroke-width="2.32"/><path d="m221.408 183.264v8.236m0-8.236h3.544l1.18.372.372.404.404.78v.776l-.404.808-.372.372-1.18.404h-3.544m2.736 0 2.764 4.32m2.592-6.68.78-.404 1.18-1.152v8.236" stroke="#fc0" stroke-width="1.72"/><path d="m248.412 183.232v8.268m0-8.268h3.544l1.18.404.376.404.4.776v.78l-.4.776-.376.404-1.18.404h-3.544m2.736 0 2.764 4.32m2.996-6.308v-.376l.376-.776.404-.404.776-.404h1.584l.776.404.404.404.376.776v.78l-.376.776-.804 1.18-3.92 3.948h5.504" stroke="#fc0" stroke-width="1.72"/><path d="m306.368 183.232v8.268m0-8.268h3.544l1.18.404.372.404.404.776v.78l-.404.776-.372.404-1.18.404h-3.544m2.736 0 2.764 4.32m3.372-8.268h4.32l-2.364 3.14h1.18l.808.404.376.404.4 1.18v.776l-.4 1.184-.78.776-1.18.404h-1.18l-1.18-.404-.376-.404-.404-.776" stroke="#fc0" stroke-width="1.72"/><path d="m284.864 185.192-.404-.776-.776-.78-.808-.404h-1.552l-.78.404-.804.78-.376.776-.404 1.18v1.988l.404 1.152.376.808.804.776.78.404h1.552l.808-.404.776-.776.404-.808m2.592-4.696.78-.4 1.18-1.184v8.268" stroke="#fc0" stroke-width="1.72"/><path d="m388.448 68.032v5.904l.404 1.184.776.776 1.18.404h.78l1.18-.404.776-.776.404-1.184v-5.904m2.996 1.96v-.376l.376-.776.4-.404.78-.404h1.584l.776.404.404.404.376.776v.78l-.376.776-.808 1.18-3.916 3.948h5.5" stroke="#fc0" stroke-width="1.72"/><path d="m248.768 65.124v8.844l.576 1.756 1.18 1.18 1.788.576h1.18l1.756-.576 1.18-1.18.576-1.756v-8.844m3.888 2.364 1.18-.608 1.788-1.756v12.356" stroke="#fc0" stroke-width="1.72"/><path d="m355.472 69.992-.404-.776-.776-.78-.808-.404h-1.556l-.776.404-.808.78-.372.776-.404 1.18v1.988l.404 1.152.372.808.808.776.776.404h1.556l.808-.404.776-.776.404-.808m2.968-4.32v-.376l.4-.776.376-.404.808-.404h1.552l.808.404.376.404.4.776v.78l-.4.776-.78 1.18-3.916 3.948h5.472" stroke="#fc0" stroke-width="1.72"/><path d="m326.672 69.992-.404-.776-.776-.78-.808-.404h-1.556l-.776.404-.808.78-.372.776-.404 1.18v1.988l.404 1.152.372.808.808.776.776.404h1.556l.808-.404.776-.776.404-.808m3.368-6.28h4.32l-2.36 3.14h1.18l.78.404.4.404.376 1.18v.776l-.376 1.184-.776.776-1.18.404h-1.18l-1.184-.404-.4-.404-.376-.776" stroke="#fc0" stroke-width="1.72"/><path d="m270.368 8.964v11.004m0-11.004h3.656l1.584.548 1.04 1.036.516 1.036.548 1.584v2.624l-.548 1.552-.516 1.068-1.04 1.036-1.584.52h-3.656m18.632-8.384-.516-1.036-1.036-1.036-1.068-.548h-2.072l-1.068.548-1.036 1.036-.516 1.036-.52 1.584v2.624l.52 1.552.516 1.068 1.036 1.036 1.068.52h2.072l1.068-.52 1.036-1.036.516-1.068m3.456-8.38v11.004m0-11.004h3.688l1.556.548 1.036 1.036.548 1.036.516 1.584v2.624l-.516 1.552-.548 1.068-1.036 1.036-1.556.52h-3.688" stroke="#fc0" stroke-width="1.72"/><path d="m272.968 176.416c-.008 1.264 1.032 2.264 2.272 2.264" stroke="#fc0" stroke-width="2.88"/><path d="m296.552 176.416c.008 1.264-1.032 2.264-2.272 2.264" stroke="#fc0" stroke-width="2.88"/><path d="m272.968 141.264c-.008-1.264 1.032-2.264 2.272-2.264" stroke="#fc0" stroke-width="2.88"/><path d="m296.552 141.264c.008-1.264-1.032-2.264-2.272-2.264" stroke="#fc0" stroke-width="2.88"/><path d="m293.376 79.26c-3.776-.34-6.536-3.7-6.176-7.46.32-3.24 2.92-5.84 6.16-6.16" stroke="#fc0" stroke-width="2.88"/><path d="m344.968 61.216c-.008 1.264 1.032 2.264 2.272 2.264" stroke="#fc0" stroke-width="2.88"/><path d="m368.552 61.216c.008 1.264-1.032 2.264-2.272 2.264" stroke="#fc0" stroke-width="2.88"/><path d="m344.968 26.064c-.008-1.264 1.032-2.264 2.272-2.264" stroke="#fc0" stroke-width="2.88"/><path d="m368.552 26.064c.008-1.264-1.032-2.264-2.272-2.264" stroke="#fc0" stroke-width="2.88"/><path d="m316.168 61.216c-.008 1.264 1.032 2.264 2.272 2.264" stroke="#fc0" stroke-width="2.88"/><path d="m339.752 61.216c.008 1.264-1.032 2.264-2.272 2.264" stroke="#fc0" stroke-width="2.88"/><path d="m316.168 26.064c-.008-1.264 1.032-2.264 2.272-2.264" stroke="#fc0" stroke-width="2.88"/><path d="m339.752 26.064c.008-1.264-1.032-2.264-2.272-2.264" stroke="#fc0" stroke-width="2.88"/><path d="m303.04 35.6c0-1.6-1.28-2.88-2.88-2.88-1.56 0-2.88 1.28-2.88 2.88s1.32 2.88 2.88 2.88c1.6 0 2.88-1.28 2.88-2.88" stroke="#fc0" stroke-width="2.88"/><path d="m261.72 14.84c0-4.76-3.88-8.64-8.64-8.64s-8.64 3.88-8.64 8.64 3.88 8.64 8.64 8.64 8.64-3.88 8.64-8.64" stroke="#fc0" stroke-width="2.88"/><path d="m97.568 230.84v-230.4h374.4" stroke="#984c98" stroke-width="2.88"/><path d="m471.968 230.84h-374.4" stroke="#984c98" stroke-width="2.88"/><path d="m471.968.44v230.4" stroke="#984c98" stroke-width="2.88"/></g></g></g></svg>